<svg width="264" height="225" viewBox="0 0 264 225" fill="none" xmlns="http://www.w3.org/2000/svg">
<g clip-path="url(#clip0_52_3388)">
<path d="M379.265 63.4453C354.619 57.2124 329.025 54.8073 303.624 55.7181C278.186 56.6326 252.91 60.7347 228.315 67.2222C203.511 73.7644 179.38 82.7865 156.139 93.6216C132.898 104.457 111.829 116.181 92.2885 131.489C73.2837 146.376 56.3597 164.547 45.6949 186.406C44.3591 189.14 43.1266 191.93 41.9876 194.757C40.9913 197.209 37.1534 195.747 38.1498 193.295C47.429 170.337 63.2121 150.776 81.8751 134.723C100.928 118.327 122.769 105.351 145.269 94.2783C167.769 83.206 193.039 73.1169 218.113 65.82C243.051 58.5702 268.735 53.7032 294.679 52.0703C320.623 50.4374 346.296 51.9792 371.487 57.4372C374.581 58.1066 377.663 58.8336 380.731 59.6182C383.298 60.2653 381.81 64.1021 379.27 63.456L379.265 63.4453Z" fill="#FF8400"/>
<path d="M59.7507 198.797C51.6958 207.377 42.941 215.261 33.5688 222.375C32.7557 222.985 31.2997 223.056 30.6744 222.094C21.8706 208.577 14.8875 193.984 10.0197 178.599C9.68418 177.533 9.9597 176.387 11.0535 175.884C11.9799 175.469 13.4374 175.863 13.7681 176.918C18.5148 191.918 25.2431 206.288 33.8444 219.47L30.9501 219.189C40.3224 212.076 49.0772 204.191 57.1321 195.612C57.8954 194.804 59.3778 195.109 60.0264 195.892C60.8218 196.829 60.5091 197.979 59.7459 198.787L59.7507 198.797Z" fill="#FF8400"/>
</g>
<defs>
<clipPath id="clip0_52_3388">
<rect width="388.808" height="71.5359" fill="white" transform="matrix(-0.912468 0.409149 0.409149 0.912468 354.775 0)"/>
</clipPath>
</defs>
</svg>
