<svg width="297" height="109" viewBox="0 0 297 109" fill="none" xmlns="http://www.w3.org/2000/svg">
<path d="M13.5481 107.851C25.716 93.1408 40.1568 80.3289 55.9517 69.6118C71.7707 58.8805 88.906 50.1523 106.687 43.1718C124.618 36.1319 143.242 30.8929 162.131 27.1475C181.02 23.402 198.987 21.1587 217.618 21.7651C235.738 22.3538 254.054 25.8558 270.214 34.3691C272.236 35.4328 274.221 36.577 276.165 37.7842C277.856 38.8279 279.533 36.2397 277.842 35.196C262.034 25.4019 243.792 20.5515 225.363 19.1044C206.544 17.6224 187.554 19.4497 169.008 22.7229C150.463 25.9961 130.676 31.0939 112.246 37.796C93.919 44.4673 76.1975 52.9128 59.7533 63.4332C43.3091 73.9536 28.4376 86.2774 15.5957 100.76C14.0176 102.539 12.473 104.346 10.9617 106.183C9.69341 107.714 12.2972 109.378 13.55 107.86L13.5481 107.851Z" fill="#FF8400"/>
<path d="M267.194 48.113C275.881 49.738 284.684 50.6313 293.518 50.7834C294.282 50.7925 295.195 50.1894 295.147 49.3294C294.485 37.2333 292.242 25.2935 288.366 13.8115C288.097 13.0169 287.421 12.4451 286.535 12.6253C285.79 12.7846 285.081 13.6702 285.349 14.456C289.128 25.6507 291.426 37.3429 292.062 49.1455L293.692 47.6915C284.857 47.5393 276.055 46.6461 267.368 45.0211C266.547 44.8701 265.784 45.7129 265.738 46.4751C265.672 47.3957 266.371 47.9534 267.192 48.1043L267.194 48.113Z" fill="#FF8400"/>
</svg>
