<svg width="276" height="27" viewBox="0 0 276 27" fill="none" xmlns="http://www.w3.org/2000/svg">
<g clip-path="url(#clip0_237_13253)">
<path d="M16.5498 15.27C30.8398 14.78 45.1298 14.44 59.4298 14.18C75.7598 13.88 92.0898 13.69 108.43 13.57C125.58 13.44 142.73 13.4 159.89 13.43C177.05 13.46 192.89 13.57 209.39 13.77C224.02 13.95 238.64 14.19 253.27 14.58C254.87 14.62 256.47 14.67 258.07 14.71C260.31 14.77 260.31 11.29 258.07 11.23C243.78 10.82 229.48 10.55 215.19 10.36C198.86 10.14 182.52 10.02 166.19 9.97003C149.04 9.92003 131.89 9.94003 114.73 10.05C97.5698 10.16 81.7298 10.33 65.2398 10.6C50.6098 10.84 35.9898 11.16 21.3698 11.63C19.7698 11.68 18.1698 11.73 16.5698 11.79C14.3398 11.87 14.3298 15.35 16.5698 15.27H16.5498Z" fill="#828BAE"/>
<path d="M23.2002 23.2501L13.4702 18.8901L8.71018 16.7601C7.19018 16.0801 5.53018 15.5101 4.10018 14.6501C3.68018 14.4001 3.47018 14.3501 3.62018 13.9101C3.77018 13.4701 4.52018 13.0101 4.88018 12.7401C6.28018 11.7301 7.69018 10.7301 9.09018 9.73009C12.0202 7.63009 14.9502 5.54009 17.8702 3.44009C18.6402 2.89009 18.9902 1.93009 18.4902 1.06009C18.0602 0.300092 16.8702 -0.109908 16.1102 0.440092C12.6902 2.89009 9.28018 5.33009 5.86018 7.78009C3.52018 9.47009 -1.44982 12.0501 0.400176 15.7301C1.17018 17.2601 2.78018 17.9001 4.25018 18.5701L9.84018 21.0701L21.4402 26.2601C22.3002 26.6501 23.3002 26.5001 23.8202 25.6401C24.2602 24.9001 24.0502 23.6401 23.2002 23.2601V23.2501Z" fill="#828BAE"/>
<path d="M252.25 3.20996L261.98 7.56996L266.74 9.69996C268.26 10.38 269.92 10.95 271.35 11.81C271.77 12.06 271.98 12.11 271.83 12.55C271.68 12.99 270.93 13.45 270.57 13.72C269.17 14.73 267.76 15.73 266.36 16.73C263.43 18.83 260.5 20.92 257.58 23.02C256.81 23.57 256.46 24.53 256.96 25.4C257.39 26.16 258.58 26.57 259.34 26.02C262.76 23.57 266.17 21.13 269.59 18.68C271.95 16.99 276.91 14.41 275.06 10.74C274.29 9.20996 272.68 8.56996 271.21 7.89996L265.62 5.39996C261.75 3.66996 257.89 1.93996 254.02 0.209962C253.16 -0.180038 252.16 -0.0300378 251.64 0.829962C251.2 1.56996 251.41 2.82996 252.26 3.20996H252.25Z" fill="#828BAE"/>
</g>
<defs>
<clipPath id="clip0_237_13253">
<rect width="275.45" height="26.46" fill="white"/>
</clipPath>
</defs>
</svg>
