<svg width="276" height="27" viewBox="0 0 276 27" fill="none" xmlns="http://www.w3.org/2000/svg">
<g clip-path="url(#clip0_237_8901)">
<path d="M16.5501 15.27C30.8401 14.78 45.1301 14.44 59.43 14.18C75.76 13.88 92.0901 13.69 108.43 13.57C125.58 13.44 142.73 13.4 159.89 13.43C177.05 13.46 192.89 13.57 209.39 13.77C224.02 13.95 238.64 14.19 253.27 14.58C254.87 14.62 256.47 14.67 258.07 14.71C260.31 14.77 260.31 11.29 258.07 11.23C243.78 10.82 229.48 10.55 215.19 10.36C198.86 10.14 182.52 10.02 166.19 9.97003C149.04 9.92003 131.89 9.94003 114.73 10.05C97.5701 10.16 81.73 10.33 65.24 10.6C50.61 10.84 35.9901 11.16 21.3701 11.63C19.7701 11.68 18.1701 11.73 16.5701 11.79C14.3401 11.87 14.3301 15.35 16.5701 15.27H16.5501Z" fill="#FF8400"/>
<path d="M23.2001 23.2501L13.4701 18.8901L8.71005 16.7601C7.19005 16.0801 5.53005 15.5101 4.10005 14.6501C3.68005 14.4001 3.47005 14.3501 3.62005 13.9101C3.77005 13.4701 4.52005 13.0101 4.88005 12.7401C6.28005 11.7301 7.69005 10.7301 9.09005 9.73009C12.0201 7.63009 14.9501 5.54009 17.8701 3.44009C18.6401 2.89009 18.9901 1.93009 18.4901 1.06009C18.0601 0.300092 16.8701 -0.109908 16.1101 0.440092C12.6901 2.89009 9.28005 5.33009 5.86005 7.78009C3.52005 9.47009 -1.44995 12.0501 0.400054 15.7301C1.17005 17.2601 2.78005 17.9001 4.25005 18.5701L9.84005 21.0701L21.4401 26.2601C22.3001 26.6501 23.3001 26.5001 23.8201 25.6401C24.2601 24.9001 24.0501 23.6401 23.2001 23.2601V23.2501Z" fill="#FF8400"/>
<path d="M252.25 3.20996L261.98 7.56996L266.74 9.69996C268.26 10.38 269.92 10.95 271.35 11.81C271.77 12.06 271.98 12.11 271.83 12.55C271.68 12.99 270.93 13.45 270.57 13.72C269.17 14.73 267.76 15.73 266.36 16.73C263.43 18.83 260.5 20.92 257.58 23.02C256.81 23.57 256.46 24.53 256.96 25.4C257.39 26.16 258.58 26.57 259.34 26.02C262.76 23.57 266.17 21.13 269.59 18.68C271.95 16.99 276.91 14.41 275.06 10.74C274.29 9.20996 272.68 8.56996 271.21 7.89996L265.62 5.39996C261.75 3.66996 257.89 1.93996 254.02 0.209962C253.16 -0.180038 252.16 -0.0300378 251.64 0.829962C251.2 1.56996 251.41 2.82996 252.26 3.20996H252.25Z" fill="#FF8400"/>
</g>
<defs>
<clipPath id="clip0_237_8901">
<rect width="275.45" height="26.46" fill="white"/>
</clipPath>
</defs>
</svg>
