<svg width="884" height="456" viewBox="0 0 884 456" fill="none" xmlns="http://www.w3.org/2000/svg">
<g clip-path="url(#clip0_33_547)">
<path d="M115.989 101.057H191.321V345.009H115.989V101.057Z" fill="#C3D600"/>
<path d="M702.49 174.275L736.901 174.757L736.864 216.54L760.811 219.562L760.847 188.779L794.064 190.392L794.012 223.75L837.035 229.18" stroke="#313131" stroke-width="1.5" stroke-linecap="round" stroke-linejoin="round"/>
<path d="M822.605 376.856L822.844 256.937L786.695 250.046L786.524 360.174" stroke="#313131" stroke-width="1.5" stroke-linecap="round" stroke-linejoin="round"/>
<path d="M745.833 253.462L745.853 232.393L710.482 226.564L710.421 326.382" stroke="#313131" stroke-width="1.5" stroke-linecap="round" stroke-linejoin="round"/>
<path d="M762.308 349.958L762.425 257.113L734.301 250.926L734.222 337.168" stroke="#313131" stroke-width="1.5" stroke-linecap="round" stroke-linejoin="round"/>
<path d="M115.989 60.1246H666.88V345.009H115.989V60.1246Z" stroke="#313131" stroke-width="1.5" stroke-linejoin="round"/>
<path d="M754.166 389.226L883.011 454.495V1.47351L666.88 60.1255V345.01L754.166 389.226Z" stroke="#313131" stroke-width="1.5" stroke-linejoin="round"/>
<path d="M191.321 345.009H115.989L115.989 101.057H191.321L191.321 345.009Z" stroke="#313131" stroke-width="1.5" stroke-linejoin="round"/>
<path d="M179.289 116.086H115.989" stroke="#313131" stroke-width="1.5" stroke-linejoin="round"/>
<path d="M179.289 126.849H115.989" stroke="#313131" stroke-width="1.5" stroke-linejoin="round"/>
<path d="M179.289 137.612H115.989" stroke="#313131" stroke-width="1.5" stroke-linejoin="round"/>
<path d="M179.289 148.375H115.989" stroke="#313131" stroke-width="1.5" stroke-linejoin="round"/>
<path d="M179.289 159.137H115.989" stroke="#313131" stroke-width="1.5" stroke-linejoin="round"/>
<path d="M179.289 169.9H115.989" stroke="#313131" stroke-width="1.5" stroke-linejoin="round"/>
<path d="M179.289 180.663H115.989" stroke="#313131" stroke-width="1.5" stroke-linejoin="round"/>
<path d="M179.289 191.425H115.989" stroke="#313131" stroke-width="1.5" stroke-linejoin="round"/>
<path d="M179.289 202.188H115.989" stroke="#313131" stroke-width="1.5" stroke-linejoin="round"/>
<path d="M179.289 212.952H115.989" stroke="#313131" stroke-width="1.5" stroke-linejoin="round"/>
<path d="M179.289 223.715H115.989" stroke="#313131" stroke-width="1.5" stroke-linejoin="round"/>
<path d="M179.289 234.477H115.989" stroke="#313131" stroke-width="1.5" stroke-linejoin="round"/>
<path d="M179.289 245.24H115.989" stroke="#313131" stroke-width="1.5" stroke-linejoin="round"/>
<path d="M179.289 256.002H115.989" stroke="#313131" stroke-width="1.5" stroke-linejoin="round"/>
<path d="M179.289 266.766H115.989" stroke="#313131" stroke-width="1.5" stroke-linejoin="round"/>
<path d="M179.289 277.529H115.989" stroke="#313131" stroke-width="1.5" stroke-linejoin="round"/>
<path d="M179.289 288.293H115.989" stroke="#313131" stroke-width="1.5" stroke-linejoin="round"/>
<path d="M179.289 299.056H115.989" stroke="#313131" stroke-width="1.5" stroke-linejoin="round"/>
<path d="M179.289 309.818H115.989" stroke="#313131" stroke-width="1.5" stroke-linejoin="round"/>
<path d="M179.289 320.581H115.989" stroke="#313131" stroke-width="1.5" stroke-linejoin="round"/>
<path d="M446.314 101.057H625.484V345.009H446.314V101.057Z" fill="#C3D600"/>
<path d="M625.484 345.009H446.314L446.314 101.057L625.484 101.057V345.009Z" stroke="#313131" stroke-width="1.5" stroke-linejoin="round"/>
<path d="M613.453 116.085H458.345" stroke="#313131" stroke-width="1.5" stroke-linejoin="round"/>
<path d="M613.453 126.849H458.345" stroke="#313131" stroke-width="1.5" stroke-linejoin="round"/>
<path d="M613.453 137.612H458.345" stroke="#313131" stroke-width="1.5" stroke-linejoin="round"/>
<path d="M613.453 148.375H458.345" stroke="#313131" stroke-width="1.5" stroke-linejoin="round"/>
<path d="M613.453 159.137H458.345" stroke="#313131" stroke-width="1.5" stroke-linejoin="round"/>
<path d="M613.453 169.9H458.345" stroke="#313131" stroke-width="1.5" stroke-linejoin="round"/>
<path d="M613.453 180.662H458.345" stroke="#313131" stroke-width="1.5" stroke-linejoin="round"/>
<path d="M613.453 191.425H458.345" stroke="#313131" stroke-width="1.5" stroke-linejoin="round"/>
<path d="M613.453 202.188H458.345" stroke="#313131" stroke-width="1.5" stroke-linejoin="round"/>
<path d="M613.453 212.951H458.345" stroke="#313131" stroke-width="1.5" stroke-linejoin="round"/>
<path d="M613.453 223.714H458.345" stroke="#313131" stroke-width="1.5" stroke-linejoin="round"/>
<path d="M613.453 234.476H458.345" stroke="#313131" stroke-width="1.5" stroke-linejoin="round"/>
<path d="M613.453 245.239H458.345" stroke="#313131" stroke-width="1.5" stroke-linejoin="round"/>
<path d="M613.453 256.001H458.345" stroke="#313131" stroke-width="1.5" stroke-linejoin="round"/>
<path d="M613.453 266.766H458.345" stroke="#313131" stroke-width="1.5" stroke-linejoin="round"/>
<path d="M613.453 277.529H458.345" stroke="#313131" stroke-width="1.5" stroke-linejoin="round"/>
<path d="M613.453 288.292H458.345" stroke="#313131" stroke-width="1.5" stroke-linejoin="round"/>
<path d="M613.453 299.054H458.345" stroke="#313131" stroke-width="1.5" stroke-linejoin="round"/>
<path d="M613.453 309.817H458.345" stroke="#313131" stroke-width="1.5" stroke-linejoin="round"/>
<path d="M613.453 320.58H458.345" stroke="#313131" stroke-width="1.5" stroke-linejoin="round"/>
<path d="M547.146 334.58L541.855 333.005H529.786L524.652 334.58" stroke="#5E5E5E" stroke-width="1.66538" stroke-linejoin="round"/>
<path d="M837.035 383.287V73.4851L702.491 101.057V323.273L837.035 383.287Z" stroke="#313131" stroke-width="1.5" stroke-linejoin="round"/>
<path d="M404.359 298.873H346.801V255.4H404.359V298.873Z" fill="white"/>
<path d="M393.353 255.579H398.511V273.034H393.353V255.579Z" fill="#FF8400"/>
<path d="M360.804 255.399H369.928V273.034H360.804V255.399Z" fill="#FF8400"/>
<path d="M385.762 255.399H404.358V298.873H346.801V255.399" stroke="#313131" stroke-width="1.5" stroke-linecap="round" stroke-linejoin="round"/>
<path d="M384.711 255.579V297.981" stroke="#313131" stroke-width="1.5" stroke-linecap="round" stroke-linejoin="round"/>
<path d="M342.576 345.009H289.978V305.28H342.576V345.009Z" fill="white"/>
<path d="M332.519 305.443H337.233V321.395H332.519V305.443Z" fill="#E2E2E2"/>
<path d="M302.774 305.28H311.112V321.395H302.774V305.28Z" fill="#E2E2E2"/>
<path d="M325.583 305.28H342.576V345.009H289.978V305.28" stroke="#313131" stroke-width="1.5" stroke-linecap="round" stroke-linejoin="round"/>
<path d="M324.623 305.443V344.192" stroke="#313131" stroke-width="1.5" stroke-linecap="round" stroke-linejoin="round"/>
<path d="M342.576 304.912H300.365V273.028H342.576V304.912Z" fill="white"/>
<path d="M334.506 273.16H338.288V285.96H334.506V273.16Z" fill="#E2E2E2"/>
<path d="M310.634 273.029H317.325V285.962H310.634V273.029Z" fill="#E2E2E2"/>
<path d="M328.939 273.029H342.576V304.913H300.364V273.029" stroke="#313131" stroke-width="1.5" stroke-linecap="round" stroke-linejoin="round"/>
<path d="M328.168 273.16V304.258" stroke="#313131" stroke-width="1.5" stroke-linecap="round" stroke-linejoin="round"/>
<path d="M229.025 101.057H408.196V143.129H229.025V101.057Z" fill="#FF8400"/>
<path d="M408.198 345.009H229.027L229.027 101.057L408.198 101.057V345.009Z" stroke="#313131" stroke-width="1.5" stroke-linejoin="round"/>
<path d="M408.198 143.131L229.027 143.131V101.058L408.198 101.058V143.131Z" stroke="#313131" stroke-width="1.5" stroke-linejoin="round"/>
<path d="M396.165 114.845H241.057" stroke="#313131" stroke-width="1.5" stroke-linejoin="round"/>
<path d="M396.165 125.608H241.057" stroke="#313131" stroke-width="1.5" stroke-linejoin="round"/>
<path d="M329.86 135.48L324.567 133.904H312.498L307.363 135.48" stroke="#5E5E5E" stroke-width="1.66538" stroke-linejoin="round"/>
<path d="M268.53 309.659C264.691 309.659 261.579 306.546 261.579 302.706C261.579 298.866 264.691 295.753 268.53 295.753C272.368 295.753 275.48 298.866 275.48 302.706C275.48 306.546 272.368 309.659 268.53 309.659Z" fill="#FF8400"/>
<path d="M268.53 190.008C264.691 190.008 261.579 186.894 261.579 183.054C261.579 179.214 264.691 176.101 268.53 176.101C272.368 176.101 275.48 179.214 275.48 183.054C275.48 186.894 272.368 190.008 268.53 190.008Z" fill="#FF8400"/>
<path d="M331.748 218.089C331.748 219.595 332.969 220.815 334.473 220.815C335.978 220.815 337.199 219.595 337.199 218.089C337.199 216.583 335.978 215.362 334.473 215.362C332.969 215.362 331.748 216.583 331.748 218.089Z" stroke="#313131" stroke-width="1.5"/>
<path d="M229.002 287.637C235.137 272.057 250.314 261.03 268.068 261.03C291.248 261.03 310.039 279.829 310.039 303.018C310.039 326.208 291.248 345.006 268.068 345.006C250.316 345.006 235.138 333.981 229.002 318.4V287.635V287.637Z" stroke="#313131" stroke-width="1.5" stroke-linejoin="round"/>
<path d="M229.002 167.676C233.526 156.187 242.966 147.172 254.733 143.232H281.401C298.043 148.806 310.037 164.529 310.037 183.056C310.037 206.245 291.246 225.044 268.066 225.044C250.314 225.044 235.137 214.019 229 198.439V167.678L229.002 167.676Z" stroke="#313131" stroke-width="1.5" stroke-linejoin="round"/>
<path d="M310.039 274.41L268.068 303.02V241.361L310.039 212.465V273.286V274.41Z" stroke="#313131" stroke-width="1.5" stroke-linejoin="round"/>
<path d="M334.473 218.658L326.737 222.269L268.068 183.055" stroke="#313131" stroke-width="1.5" stroke-linejoin="round"/>
<path d="M310.039 271.542L268.068 241.361H291.125" stroke="#313131" stroke-width="1.5" stroke-linejoin="round"/>
<path d="M268.53 249.916C264.186 249.916 260.664 246.393 260.664 242.047C260.664 237.701 264.186 234.178 268.53 234.178C272.874 234.178 276.395 237.701 276.395 242.047C276.395 246.393 272.874 249.916 268.53 249.916Z" stroke="#313131" stroke-width="1.5" stroke-linejoin="round"/>
<path d="M268.53 242.046L250.179 254.769" stroke="#313131" stroke-width="1.5" stroke-linejoin="round"/>
<path d="M251.824 257.742C249.875 255.64 248.637 252.911 246.983 250.952" stroke="#313131" stroke-width="1.5" stroke-linejoin="round"/>
<path d="M291.161 244.547L291.125 233.217" stroke="#313131" stroke-width="1.5" stroke-linejoin="round"/>
<path d="M320.836 279.706V268.331C320.836 264.795 318.03 261.911 314.526 261.787V282.492H318.052C319.588 282.492 320.836 281.243 320.836 279.706Z" stroke="#313131" stroke-width="1.5"/>
<path d="M313.778 273.029H310.039" stroke="#313131" stroke-width="1.5" stroke-linejoin="round"/>
<path d="M402.657 302.068V299.623H348.182V302.068H402.657Z" stroke="#313131" stroke-width="1.5"/>
<path d="M356.078 300.847L347.432 337.612" stroke="#313131" stroke-width="1.5" stroke-linejoin="round"/>
<path d="M394.759 300.847L403.407 337.612" stroke="#313131" stroke-width="1.5" stroke-linejoin="round"/>
<path d="M343.79 341.764C343.79 343.142 344.906 344.258 346.283 344.258C347.66 344.258 348.777 343.142 348.777 341.764C348.777 340.386 347.66 339.269 346.283 339.269C344.906 339.269 343.79 340.386 343.79 341.764Z" stroke="#313131" stroke-width="1.5"/>
<path d="M402.158 341.764C402.158 343.142 403.274 344.258 404.651 344.258C406.028 344.258 407.144 343.142 407.144 341.764C407.144 340.386 406.028 339.269 404.651 339.269C403.274 339.269 402.158 340.386 402.158 341.764Z" stroke="#313131" stroke-width="1.5"/>
<path d="M367.12 221.094C367.21 219.423 367.426 217.404 367.904 215.148C368.224 213.641 368.647 211.45 369.747 209.011C372.275 203.405 375.798 201.767 375.752 194.9C375.743 193.538 375.7 186.975 371.351 183.968C370.786 183.578 368.828 182.221 366.877 182.793C364.988 183.347 364.078 185.425 362.183 191.378C360.195 197.621 359.202 200.743 358.882 202.677C358.242 206.553 358.453 209.573 358.582 212.184C358.633 213.197 358.834 216.875 359.835 221.807C360.846 226.776 361.73 231.138 363.05 231.206C363.548 231.233 364.988 230.69 367.12 221.096V221.094Z" fill="#C3D600"/>
<path d="M367.12 221.094C367.21 219.423 367.426 217.404 367.904 215.148C368.224 213.641 368.647 211.45 369.747 209.011C372.275 203.405 375.798 201.767 375.752 194.9C375.743 193.538 375.7 186.975 371.351 183.968C370.786 183.578 368.828 182.221 366.877 182.793C364.988 183.347 364.078 185.425 362.183 191.378C360.195 197.621 359.202 200.743 358.882 202.677C358.242 206.553 358.453 209.573 358.582 212.184C358.633 213.197 358.834 216.875 359.835 221.807C360.846 226.776 361.73 231.138 363.05 231.206C363.548 231.233 364.988 230.69 367.12 221.096V221.094Z" stroke="#313131" stroke-width="1.5" stroke-linecap="round" stroke-linejoin="round"/>
<path d="M368.841 190.403C368.841 190.403 368.99 194.231 365.734 201.285C362.748 207.754 363.163 217.526 363.143 222.629" stroke="#313131" stroke-width="1.5" stroke-linecap="round" stroke-linejoin="round"/>
<path d="M363.496 225.326C362.415 211.324 350.185 203.515 349.304 203.069C349.295 203.065 347.725 202.272 347.725 202.272C345.564 201.385 341.582 200.542 339.584 202.382C338.207 203.65 338.238 205.765 338.261 206.556C338.473 214.022 352.241 217.923 356.898 229.889C358.043 232.832 358.327 235.469 358.404 237.114C358.89 238.082 359.55 239.08 360.26 239.035C362.115 238.918 363.989 231.726 363.496 225.326Z" fill="#C3D600"/>
<path d="M363.496 225.326C362.415 211.324 350.185 203.515 349.304 203.069C349.295 203.065 347.725 202.272 347.725 202.272C345.564 201.385 341.582 200.542 339.584 202.382C338.207 203.65 338.238 205.765 338.261 206.556C338.473 214.022 352.241 217.923 356.898 229.889C358.043 232.832 358.327 235.469 358.404 237.114C358.89 238.082 359.55 239.08 360.26 239.035C362.115 238.918 363.989 231.726 363.496 225.326Z" stroke="#313131" stroke-width="1.5" stroke-linecap="round" stroke-linejoin="round"/>
<path d="M343.714 206.516C343.714 206.516 354.309 210.475 361.716 229.891" stroke="#313131" stroke-width="1.5" stroke-linecap="round" stroke-linejoin="round"/>
<path d="M381.3 213.097C380.991 212.891 379.585 212.013 376.651 212.687C370.678 214.058 365.988 220.108 365.537 220.704C357.941 230.716 356.571 243.585 358.135 244.159C358.491 244.29 359.814 242.67 362.448 239.427C368.934 231.438 368.845 231.515 369.323 230.947C376.859 221.986 383.679 220.966 383.341 216.543C383.227 215.061 382.267 213.745 381.302 213.097H381.3Z" fill="#C3D600"/>
<path d="M381.3 213.097C380.991 212.891 379.585 212.013 376.651 212.687C370.678 214.058 365.988 220.108 365.537 220.704C357.941 230.716 356.571 243.585 358.135 244.159C358.491 244.29 359.814 242.67 362.448 239.427C368.934 231.438 368.845 231.515 369.323 230.947C376.859 221.986 383.679 220.966 383.341 216.543C383.227 215.061 382.267 213.745 381.302 213.097H381.3Z" stroke="#313131" stroke-width="1.5" stroke-linecap="round" stroke-linejoin="round"/>
<path d="M360.215 238.517C360.215 238.517 363.685 224.102 376.435 217.898" stroke="#313131" stroke-width="1.5" stroke-linecap="round" stroke-linejoin="round"/>
<path d="M373.668 237.114H349.764L351.391 255.399H372.039L373.668 237.114Z" fill="#E2E2E2"/>
</g>
<g clip-path="url(#clip1_33_547)">
<path d="M2.7295 316.573H64.3789V362.829H2.7295V316.573Z" fill="white"/>
<path d="M14.5244 328.374H8.99219L8.99219 316.699H14.5244L14.5244 328.374Z" fill="#E1E1E1"/>
<path d="M49.3862 328.358H39.6094V316.557H49.3862V328.358Z" fill="#E1E1E1"/>
<path d="M22.6487 316.573H2.7295V362.813H64.3789V316.573" stroke="#313131" stroke-width="1.5" stroke-linecap="round" stroke-linejoin="round"/>
<path d="M23.7775 316.762V361.865" stroke="#313131" stroke-width="1.5" stroke-linecap="round" stroke-linejoin="round"/>
<path d="M15.8326 316.573H71.918V274.487H15.8326L15.8326 316.573Z" fill="#FF8400"/>
<path d="M34.9883 274.661V313.713" stroke="#313131" stroke-width="1.5" stroke-linecap="round" stroke-linejoin="round"/>
<path d="M68.258 308.99C68.258 311.637 67.3038 314.028 65.6921 315.823H53.1084L54.6348 313.653C55.6148 314.507 56.8988 315.032 58.3728 315.032C61.8816 315.032 64.1622 312.219 64.1622 309.038V308.99V308.943C64.1622 308.631 64.1435 308.327 64.1017 308.025L67.9171 306.311C68.1378 307.161 68.258 308.058 68.258 308.99Z" fill="#313131" stroke="#313131" stroke-width="1.5"/>
<path d="M58.9603 284.89H71.1825V288.777H68.2284H66.9499L67.5738 289.893C68.3847 291.344 68.8456 293.05 68.8456 294.883V294.946C68.8456 300.521 64.6009 305.001 58.9126 305.001C53.2231 305.001 49.0274 300.583 49.0274 295.009V294.946C49.0274 289.371 53.2872 284.89 58.9603 284.89ZM58.9444 300.988C62.4533 300.988 64.7339 298.174 64.7339 294.993V294.946C64.7339 291.76 62.37 288.903 58.8967 288.903C55.4194 288.903 53.1391 291.702 53.1391 294.883V294.946C53.1391 298.121 55.4303 300.988 58.9444 300.988Z" fill="#313131" stroke="#313131" stroke-width="1.5"/>
<path d="M34.9879 274.487H15.8477V316.573H71.933V274.487" stroke="#313131" stroke-width="1.5" stroke-linecap="round" stroke-linejoin="round"/>
<path d="M34.9879 274.487H15.8477V316.573H71.933V274.487" stroke="#313131" stroke-width="1.5" stroke-linecap="round" stroke-linejoin="round"/>
<path d="M15.8486 274.487L0.507812 281.691H23.0342L34.8299 274.487H15.8486Z" fill="#C36B16"/>
<path d="M85.605 281.691L71.9334 274.487H34.9883L44.2564 281.691H85.605Z" fill="#C36B16"/>
<path d="M34.9889 274.487L23.0342 281.691H0.507812L15.8486 274.487H34.9889Z" stroke="#313131" stroke-width="1.5" stroke-linecap="round" stroke-linejoin="round"/>
<path d="M71.9334 274.487L85.605 281.691H44.2564L34.9883 274.487H71.9334Z" stroke="#313131" stroke-width="1.5" stroke-linecap="round" stroke-linejoin="round"/>
</g>
<g clip-path="url(#clip2_33_547)">
<path d="M76.9015 363.398H134.703V319.819H76.9015V363.398Z" fill="#FF8400"/>
<path d="M87.9536 320H82.7734V329.816H87.9536V320Z" fill="#E1E1E1"/>
<path d="M94.6349 319.82H76.9023V363.399H134.704V319.82" stroke="#313131" stroke-width="1.5" stroke-linecap="round" stroke-linejoin="round"/>
<path d="M96.6328 320V363.399" stroke="#313131" stroke-width="1.5" stroke-linecap="round" stroke-linejoin="round"/>
<path d="M128.291 362.65H115.273L116.887 360.346C117.898 361.238 119.223 361.787 120.747 361.787C124.338 361.787 126.683 358.894 126.683 355.613V355.557V355.557V355.557V355.557V355.557V355.557V355.557V355.557V355.557V355.557V355.557V355.557V355.557V355.557V355.557V355.557V355.557V355.557V355.557V355.557V355.557V355.557V355.557V355.557V355.557V355.557V355.557V355.557V355.557V355.557V355.557V355.557V355.557V355.557V355.557V355.557V355.557V355.557V355.557V355.557V355.557V355.557V355.557V355.557V355.557V355.557V355.557V355.557V355.557V355.557V355.557V355.557V355.557V355.557V355.557V355.557V355.557V355.557V355.557V355.557V355.557V355.557V355.557V355.557V355.557V355.557V355.557V355.557V355.557V355.557V355.557V355.557V355.556V355.556V355.556V355.556V355.556V355.556V355.556V355.556V355.556V355.556V355.556V355.556V355.556V355.556V355.556V355.556V355.556V355.556V355.556V355.556V355.556V355.556V355.556V355.556V355.556V355.556V355.556V355.556V355.556V355.556V355.556V355.556V355.556V355.556V355.556V355.556V355.556V355.556V355.556V355.556V355.556V355.556V355.556V355.556V355.556V355.556V355.556V355.556V355.556V355.556V355.556V355.556V355.556V355.556V355.556V355.556V355.556V355.556V355.556V355.556V355.556V355.556V355.556V355.556V355.556V355.556V355.556V355.556V355.556V355.556V355.556V355.556V355.556V355.556V355.556V355.556V355.556V355.556V355.556V355.556V355.556V355.556V355.556V355.556V355.556V355.556V355.556V355.556V355.556V355.556V355.556V355.556V355.556V355.556V355.556V355.556V355.556V355.555V355.555V355.555V355.555V355.555V355.555V355.555V355.555V355.555V355.555V355.555V355.555V355.555V355.555V355.555V355.555V355.555V355.555V355.555V355.555V355.555V355.555V355.555V355.555V355.555V355.555V355.555V355.555V355.555V355.555V355.555V355.555V355.555V355.555V355.555V355.555V355.555V355.555V355.555V355.555V355.555V355.555V355.555V355.555V355.555V355.555V355.555V355.555V355.555V355.555V355.555V355.555V355.555V355.555V355.555V355.555V355.555V355.555V355.555V355.555V355.555V355.555V355.555V355.555V355.555V355.555V355.555V355.555V355.555V355.555V355.555V355.555V355.555V355.555V355.499C126.683 355.17 126.657 354.848 126.611 354.535L130.587 352.74C130.824 353.635 130.95 354.579 130.95 355.556C130.95 358.303 129.955 360.793 128.291 362.65Z" fill="#313131" stroke="#313131" stroke-width="1.5"/>
<path d="M133.956 334.642H130.886H129.618L130.228 335.753C131.064 337.274 131.537 339.043 131.537 340.946V341.008C131.537 346.793 127.135 351.447 121.277 351.447C115.418 351.447 111.074 346.855 111.074 341.068V341.008C111.074 335.221 115.476 330.566 121.334 330.566H133.956V334.642ZM121.334 347.238C124.925 347.238 127.27 344.345 127.27 341.064V341.063V341.007C127.27 337.722 124.837 334.775 121.277 334.775C117.71 334.775 115.369 337.67 115.369 340.948V341.007C115.369 344.283 117.738 347.238 121.334 347.238Z" fill="#313131" stroke="#313131" stroke-width="1.5"/>
<path d="M120.643 319.82H111.48V332.803H120.643V319.82Z" fill="#E1E1E1"/>
</g>
<defs>
<clipPath id="clip0_33_547">
<rect width="769" height="455" fill="white" transform="matrix(-1 0 0 1 884 0.483887)"/>
</clipPath>
<clipPath id="clip1_33_547">
<rect width="86.1311" height="124.851" fill="white" transform="translate(0 238.484)"/>
</clipPath>
<clipPath id="clip2_33_547">
<rect width="58.4743" height="44.2509" fill="white" transform="translate(76.5664 319.484)"/>
</clipPath>
</defs>
</svg>
