<svg width="364" height="293" viewBox="0 0 364 293" fill="none" xmlns="http://www.w3.org/2000/svg">
<path d="M105.14 139.908L177.088 117.293L363.124 193.964L177.523 292.001L105.14 139.903V139.908Z" fill="#666666" stroke="#313131" stroke-width="1.5" stroke-linecap="round" stroke-linejoin="round"/>
<path d="M1 218.827V65.9922L177.602 186.308V291.988L1 218.822V218.827Z" fill="#313131" stroke="#313131" stroke-width="1.5" stroke-linecap="round" stroke-linejoin="round"/>
<path d="M1.2583 65.9922L177.861 185.972V202.521L1.2583 82.5411V65.9922Z" fill="#FF8400"/>
<path d="M1.2583 75.0469L70.4533 122.366" stroke="#313131" stroke-width="1.5" stroke-linecap="round"/>
<path d="M78.199 127.277L147.394 174.597" stroke="#313131" stroke-width="1.5" stroke-linecap="round"/>
<path d="M67.1587 185.52V246.792L116.664 267.302V206.769L67.1587 185.52Z" fill="#FF8400"/>
<path d="M71.5325 196.188L111.981 213.528" stroke="#313131" stroke-width="1.5" stroke-linecap="round"/>
<path d="M71.5325 202.648L111.981 219.989" stroke="#313131" stroke-width="1.5" stroke-linecap="round"/>
<path d="M71.5325 209.105L111.981 226.446" stroke="#313131" stroke-width="1.5" stroke-linecap="round"/>
<path d="M71.5325 215.566L111.981 232.907" stroke="#313131" stroke-width="1.5" stroke-linecap="round"/>
<path d="M71.5325 222.027L111.981 239.368" stroke="#313131" stroke-width="1.5" stroke-linecap="round"/>
<path d="M71.5325 228.488L111.981 245.828" stroke="#313131" stroke-width="1.5" stroke-linecap="round"/>
<path d="M71.5325 235.188L111.981 252.528" stroke="#313131" stroke-width="1.5" stroke-linecap="round"/>
<path d="M86.2029 248.203L92.3995 251.047" stroke="#313131" stroke-width="1.5" stroke-linecap="round"/>
<path d="M25.9514 144.535L21.7326 142.968C21.1904 142.104 20.8857 141.618 20.3435 140.754L20.0286 135.097C20.4985 134.605 20.7566 134.331 21.2265 133.84L25.4454 135.407C25.9876 136.27 26.2922 136.757 26.8344 137.62L27.1495 143.278C26.6796 143.769 26.4213 144.043 25.9514 144.535Z" stroke="#FF8000" stroke-width="1.5" stroke-miterlimit="10" stroke-linecap="square"/>
<path d="M37.6266 148.868L34.8537 147.839C34.4974 147.27 34.296 146.955 33.9397 146.386L33.7332 142.667C34.0378 142.347 34.2133 142.166 34.518 141.84L37.291 142.869C37.6473 143.438 37.8487 143.753 38.205 144.322L38.4115 148.041C38.1069 148.361 37.9313 148.542 37.6266 148.868Z" stroke="#FF8000" stroke-width="1.5" stroke-miterlimit="10" stroke-linecap="square"/>
<path d="M23.3387 134.622L22.6777 122.691L30.9398 125.758L35.7473 139.344L35.9281 142.602" stroke="#FF8000" stroke-width="1.5" stroke-miterlimit="10" stroke-linecap="square"/>
<path d="M26.9944 140.449L33.7538 142.957" stroke="#FF8000" stroke-width="1.5" stroke-miterlimit="10" stroke-linecap="square"/>
<path d="M47.2779 147.974L38.551 144.736L37.9675 134.207" stroke="#FF8000" stroke-width="1.5" stroke-miterlimit="10" stroke-linecap="square"/>
<path d="M109.311 139.659L177.602 117.044L173.946 1L1 65.9028L109.311 139.659Z" fill="#C9C9C9" stroke="#313131" stroke-width="1.5" stroke-linecap="round" stroke-linejoin="round"/>
<path d="M177.602 117.044L363.124 193.963L363.236 97.5L173.946 1L177.602 117.044Z" fill="#EDEDED" stroke="#313131" stroke-width="1.5" stroke-linecap="round" stroke-linejoin="round"/>
<path d="M173.946 1L1 65.9028L177.809 186.488L363 97.5L173.946 1Z" stroke="#313131" stroke-width="1.5" stroke-linecap="round" stroke-linejoin="round"/>
<path d="M193.776 258.792C196.058 257.574 198.359 256.377 200.659 255.185C204.242 253.325 207.835 251.469 211.424 249.62C215.994 247.266 220.565 244.923 225.136 242.581C230.373 239.899 235.615 237.223 240.857 234.547C246.454 231.697 252.046 228.848 257.649 226.003C263.289 223.14 268.93 220.282 274.571 217.429C279.949 214.71 285.322 211.998 290.707 209.295C295.491 206.894 300.274 204.493 305.065 202.108C308.947 200.172 312.836 198.247 316.731 196.338C319.401 195.027 322.077 193.721 324.773 192.464C325.209 192.263 325.64 192.062 326.076 191.861C326.63 191.607 326.32 190.707 325.76 190.961C323.402 192.034 321.075 193.167 318.748 194.299C315.099 196.075 311.462 197.873 307.827 199.681C303.224 201.965 298.622 204.265 294.026 206.57C288.749 209.216 283.483 211.871 278.212 214.533C272.608 217.361 267.004 220.2 261.401 223.039C255.76 225.897 250.126 228.766 244.491 231.635C238.857 234.504 233.727 237.122 228.351 239.874C223.581 242.313 218.817 244.752 214.053 247.202C210.175 249.193 206.302 251.189 202.43 253.196C199.786 254.567 197.147 255.936 194.516 257.328C194.092 257.55 193.669 257.778 193.246 258.001C192.705 258.293 193.245 259.078 193.781 258.792L193.776 258.792Z" fill="#FF8400"/>
<path d="M196.247 259.984L193.391 260.086L191.901 260.136C191.47 260.154 191.008 260.218 190.578 260.175C190.477 260.165 190.394 260.17 190.371 260.072C190.332 259.908 190.531 259.639 190.605 259.507C190.827 259.092 191.054 258.672 191.276 258.258C191.735 257.406 192.189 256.554 192.648 255.708C192.939 255.166 192.084 254.741 191.793 255.282C191.27 256.26 190.742 257.239 190.219 258.212C189.829 258.943 188.858 260.267 189.873 260.926C190.274 261.188 190.775 261.127 191.223 261.114L192.901 261.057C194.041 261.014 195.176 260.976 196.316 260.933C196.931 260.914 196.867 259.959 196.253 259.983L196.247 259.984Z" fill="#FF8400"/>
<path d="M323.153 189.806L326.009 189.704L327.499 189.654C327.93 189.636 328.392 189.572 328.822 189.615C328.923 189.625 329.006 189.62 329.029 189.718C329.068 189.882 328.869 190.15 328.795 190.283C328.573 190.697 328.346 191.118 328.124 191.532C327.665 192.384 327.211 193.236 326.752 194.082C326.461 194.623 327.316 195.049 327.607 194.508C328.13 193.529 328.658 192.551 329.181 191.578C329.571 190.847 330.542 189.522 329.527 188.863C329.126 188.601 328.625 188.663 328.177 188.676L326.499 188.733L323.083 188.856C322.469 188.875 322.533 189.831 323.147 189.806L323.153 189.806Z" fill="#FF8400"/>
</svg>
