<svg width="301" height="284" viewBox="0 0 301 284" fill="none" xmlns="http://www.w3.org/2000/svg">
<path d="M111.393 127.741L130.797 119.281L299.42 220.963L181.002 283.002L111.398 127.741H111.393Z" fill="#666666" stroke="#313131" stroke-width="1.5" stroke-linecap="round" stroke-linejoin="round"/>
<path d="M1 208.428V52.6562L180.996 175.284V282.996L1 208.428Z" fill="#313131" stroke="#313131" stroke-width="1.5" stroke-linecap="round" stroke-linejoin="round"/>
<path d="M1.26318 52.6562L181.26 174.942V191.809L1.26318 69.5232V52.6562Z" fill="#FF8400"/>
<path d="M1.26318 61.8828L71.7881 110.112" stroke="#313131" stroke-width="1.5" stroke-linecap="round"/>
<path d="M79.6826 115.121L150.208 163.35" stroke="#313131" stroke-width="1.5" stroke-linecap="round"/>
<path d="M68.4355 174.48V236.93L118.892 257.835V196.139L68.4355 174.48Z" fill="#FF8400"/>
<path d="M72.8882 185.355L114.114 203.029" stroke="#313131" stroke-width="1.5" stroke-linecap="round"/>
<path d="M72.8882 191.938L114.114 209.611" stroke="#313131" stroke-width="1.5" stroke-linecap="round"/>
<path d="M72.8882 198.52L114.114 216.193" stroke="#313131" stroke-width="1.5" stroke-linecap="round"/>
<path d="M72.8882 205.105L114.114 222.779" stroke="#313131" stroke-width="1.5" stroke-linecap="round"/>
<path d="M72.8882 211.688L114.114 229.361" stroke="#313131" stroke-width="1.5" stroke-linecap="round"/>
<path d="M72.8882 218.277L114.114 235.951" stroke="#313131" stroke-width="1.5" stroke-linecap="round"/>
<path d="M72.8882 225.102L114.114 242.775" stroke="#313131" stroke-width="1.5" stroke-linecap="round"/>
<path d="M87.8406 238.371L94.1562 241.27" stroke="#313131" stroke-width="1.5" stroke-linecap="round"/>
<path d="M26.4364 132.709L22.1365 131.112C21.5838 130.232 21.2733 129.736 20.7207 128.856L20.3997 123.089C20.8786 122.589 21.1417 122.309 21.6207 121.809L25.9206 123.406C26.4732 124.286 26.7837 124.781 27.3364 125.662L27.6574 131.428C27.1785 131.929 26.9153 132.208 26.4364 132.709Z" stroke="#FF8000" stroke-width="1.5" stroke-miterlimit="10" stroke-linecap="square"/>
<path d="M38.3309 137.128L35.5046 136.079C35.1415 135.499 34.9362 135.178 34.5731 134.598L34.3625 130.808C34.6731 130.481 34.852 130.297 35.1625 129.965L37.9888 131.014C38.3519 131.594 38.5572 131.915 38.9204 132.495L39.1309 136.285C38.8204 136.611 38.6414 136.796 38.3309 137.128Z" stroke="#FF8000" stroke-width="1.5" stroke-miterlimit="10" stroke-linecap="square"/>
<path d="M23.7682 122.605L23.0945 110.445L31.5154 113.571L36.4153 127.418L36.5995 130.738" stroke="#FF8000" stroke-width="1.5" stroke-miterlimit="10" stroke-linecap="square"/>
<path d="M27.4941 128.547L34.3835 131.103" stroke="#FF8000" stroke-width="1.5" stroke-miterlimit="10" stroke-linecap="square"/>
<path d="M48.1675 136.215L39.273 132.915L38.6782 122.184" stroke="#FF8000" stroke-width="1.5" stroke-miterlimit="10" stroke-linecap="square"/>
<path d="M111.393 127.74L130.792 119.28L127.971 1L1 52.5655L111.393 127.74Z" fill="#C9C9C9" stroke="#313131" stroke-width="1.5" stroke-linecap="round" stroke-linejoin="round"/>
<path d="M130.792 119.28L299.415 220.961V112.554L127.971 1L130.792 119.28Z" fill="#EDEDED" stroke="#313131" stroke-width="1.5" stroke-linecap="round" stroke-linejoin="round"/>
<path d="M127.971 1L1 52.5655L181.207 175.468L299.415 112.554L127.971 1Z" stroke="#313131" stroke-width="1.5" stroke-linecap="round" stroke-linejoin="round"/>
<path d="M200.08 252.588C208.043 248.385 216.09 244.342 224.162 240.357C232.995 235.995 241.865 231.704 250.783 227.507C255.115 225.473 259.453 223.456 263.816 221.493C264.412 221.224 263.885 220.346 263.289 220.614C255.077 224.31 246.938 228.165 238.824 232.067C229.942 236.34 221.103 240.685 212.307 245.129C208.035 247.287 203.776 249.469 199.547 251.704C198.963 252.014 199.49 252.886 200.074 252.583L200.08 252.588Z" fill="#FF8400"/>
<path d="M202.773 253.865L199.64 253.962L198.109 254.01C197.628 254.028 197.101 254.105 196.62 254.046C196.471 254.03 196.465 254.036 196.446 253.911C196.426 253.769 196.59 253.53 196.648 253.416C196.886 252.968 197.13 252.526 197.373 252.078C197.879 251.146 198.384 250.22 198.889 249.288C199.203 248.708 198.312 248.203 197.999 248.782C197.412 249.863 196.82 250.951 196.233 252.032C195.821 252.791 194.887 254.055 195.827 254.797C196.235 255.119 196.768 255.071 197.255 255.059L199.053 255.002L202.785 254.886C203.443 254.866 203.431 253.845 202.773 253.865Z" fill="#FF8400"/>
<path d="M260.815 219.22L263.948 219.123L265.479 219.075C265.959 219.058 266.487 218.98 266.968 219.04C267.117 219.056 267.123 219.05 267.142 219.174C267.161 219.316 266.998 219.556 266.94 219.669C266.702 220.117 266.458 220.559 266.214 221.007C265.709 221.939 265.204 222.865 264.699 223.797C264.385 224.377 265.276 224.883 265.589 224.303C266.176 223.222 266.768 222.134 267.354 221.053C267.767 220.294 268.701 219.031 267.76 218.288C267.353 217.966 266.819 218.014 266.333 218.026L264.535 218.083L260.803 218.199C260.144 218.219 260.157 219.24 260.815 219.22Z" fill="#FF8400"/>
</svg>
