<svg width="341" height="290" viewBox="0 0 341 290" fill="none" xmlns="http://www.w3.org/2000/svg">
<path d="M110.83 134.535L156.862 118.672L339.932 207.559L180.08 289L110.83 134.53V134.535Z" fill="#666666" stroke="#313131" stroke-width="1.5" stroke-linecap="round" stroke-linejoin="round"/>
<path d="M1 214.811V59.832L180.08 181.836V288.999L1 214.805V214.811Z" fill="#313131" stroke="#313131" stroke-width="1.5" stroke-linecap="round" stroke-linejoin="round"/>
<path d="M1.26196 59.832L180.342 181.495V198.276L1.26196 76.6131V59.832Z" fill="#FF8400"/>
<path d="M1.26196 69.0156L71.4277 116.999" stroke="#313131" stroke-width="1.5" stroke-linecap="round"/>
<path d="M79.282 121.98L149.448 169.964" stroke="#313131" stroke-width="1.5" stroke-linecap="round"/>
<path d="M68.092 181.039V243.171L118.292 263.969V202.587L68.092 181.039Z" fill="#FF8400"/>
<path d="M72.5217 191.859L113.537 209.443" stroke="#313131" stroke-width="1.5" stroke-linecap="round"/>
<path d="M72.5217 198.406L113.537 215.99" stroke="#313131" stroke-width="1.5" stroke-linecap="round"/>
<path d="M72.5217 204.957L113.537 222.54" stroke="#313131" stroke-width="1.5" stroke-linecap="round"/>
<path d="M72.5217 211.508L113.537 229.091" stroke="#313131" stroke-width="1.5" stroke-linecap="round"/>
<path d="M72.5217 218.059L113.537 235.642" stroke="#313131" stroke-width="1.5" stroke-linecap="round"/>
<path d="M72.5217 224.613L113.537 242.197" stroke="#313131" stroke-width="1.5" stroke-linecap="round"/>
<path d="M72.5217 231.402L113.537 248.986" stroke="#313131" stroke-width="1.5" stroke-linecap="round"/>
<path d="M87.3982 244.602L93.6817 247.486" stroke="#313131" stroke-width="1.5" stroke-linecap="round"/>
<path d="M26.3068 139.478L22.0287 137.889C21.4789 137.013 21.17 136.52 20.6202 135.644L20.3008 129.907C20.7773 129.409 21.0391 129.131 21.5156 128.633L25.7936 130.222C26.3434 131.098 26.6523 131.59 27.2022 132.466L27.5216 138.203C27.0451 138.701 26.7833 138.979 26.3068 139.478Z" stroke="#FF8000" stroke-width="1.5" stroke-miterlimit="10" stroke-linecap="square"/>
<path d="M38.1407 143.873L35.3289 142.829C34.9676 142.252 34.7634 141.933 34.4021 141.356L34.1926 137.585C34.5016 137.26 34.6796 137.076 34.9885 136.746L37.8004 137.79C38.1617 138.367 38.3659 138.686 38.7272 139.263L38.9367 143.034C38.6277 143.359 38.4497 143.542 38.1407 143.873Z" stroke="#FF8000" stroke-width="1.5" stroke-miterlimit="10" stroke-linecap="square"/>
<path d="M23.6519 129.426L22.9817 117.328L31.3597 120.438L36.2346 134.214L36.4179 137.518" stroke="#FF8000" stroke-width="1.5" stroke-miterlimit="10" stroke-linecap="square"/>
<path d="M27.3591 135.336L34.2134 137.879" stroke="#FF8000" stroke-width="1.5" stroke-miterlimit="10" stroke-linecap="square"/>
<path d="M47.9271 142.968L39.0778 139.685L38.4861 129.008" stroke="#FF8000" stroke-width="1.5" stroke-miterlimit="10" stroke-linecap="square"/>
<path d="M110.83 134.535L156.862 118.672V1L1 59.7443L110.83 134.535Z" fill="#C9C9C9" stroke="#313131" stroke-width="1.5" stroke-linecap="round" stroke-linejoin="round"/>
<path d="M156.862 118.672L339.932 207.559V107.292L156.862 1V118.672Z" fill="#EDEDED" stroke="#313131" stroke-width="1.5" stroke-linecap="round" stroke-linejoin="round"/>
<path d="M156.862 1L1 59.7443L180.289 182.021L339.932 107.292L156.862 1Z" stroke="#313131" stroke-width="1.5" stroke-linecap="round" stroke-linejoin="round"/>
<path d="M197.421 257.642C202.346 254.934 207.37 252.408 212.378 249.867C220.149 245.922 227.948 242.021 235.752 238.141C244.5 233.787 253.263 229.455 262.032 225.145C270.067 221.192 278.108 217.25 286.165 213.33C291.651 210.659 297.131 207.989 302.639 205.377C303.041 205.184 303.443 204.997 303.85 204.804C304.391 204.551 303.909 203.753 303.373 204.007C298.288 206.398 293.231 208.86 288.179 211.316C280.336 215.126 272.51 218.958 264.684 222.806C255.914 227.117 247.151 231.443 238.398 235.791C230.38 239.776 222.366 243.777 214.375 247.815C208.933 250.566 203.486 253.312 198.121 256.202C197.731 256.416 197.334 256.625 196.944 256.839C196.419 257.125 196.896 257.922 197.421 257.636L197.421 257.642Z" fill="#FF8400"/>
<path d="M199.904 258.753L197.068 258.886L195.679 258.954C195.243 258.975 194.77 259.05 194.328 259.006C194.199 258.992 194.177 258.992 194.155 258.895C194.126 258.772 194.28 258.538 194.333 258.441C194.544 258.035 194.76 257.623 194.971 257.217C195.414 256.367 195.858 255.517 196.301 254.667C196.575 254.136 195.773 253.676 195.494 254.207C194.977 255.198 194.459 256.189 193.942 257.185C193.578 257.878 192.73 259.077 193.636 259.725C194.005 259.99 194.473 259.942 194.903 259.921L196.534 259.844L199.914 259.684C200.512 259.656 200.502 258.73 199.904 258.758L199.904 258.753Z" fill="#FF8400"/>
<path d="M302.027 202.513L304.863 202.38L306.252 202.312C306.688 202.291 307.161 202.216 307.603 202.259C307.732 202.274 307.754 202.274 307.776 202.371C307.805 202.494 307.651 202.727 307.598 202.825C307.387 203.231 307.171 203.643 306.96 204.049C306.517 204.899 306.073 205.749 305.63 206.599C305.356 207.13 306.158 207.59 306.437 207.059C306.954 206.068 307.472 205.077 307.989 204.081C308.353 203.388 309.202 202.188 308.295 201.541C307.926 201.276 307.458 201.324 307.028 201.345L305.397 201.421L302.017 201.582C301.419 201.61 301.429 202.536 302.027 202.508L302.027 202.513Z" fill="#FF8400"/>
</svg>
