<svg width="190" height="190" viewBox="0 0 190 190" fill="none" xmlns="http://www.w3.org/2000/svg">
<path d="M116.038 2.50171L122.714 4.31996L122.184 6.27892L117.65 5.0451L117.044 7.25298L121.275 8.40021L120.745 10.3483L116.514 9.20111L115.908 11.409L120.431 12.6428L119.901 14.6018L113.225 12.7835L116.016 2.50171H116.038Z" fill="#828BAE"/>
<path d="M121.945 11.8299L122.075 11.4944L124.055 12.252L123.926 12.5875C123.579 13.4967 123.99 14.1893 125.062 14.6114C126.057 14.9902 126.782 14.8387 127.053 14.1244L127.107 13.9837C127.323 13.4209 127.107 12.9231 126.393 12.4036L125.029 11.397C123.623 10.358 123.114 9.13502 123.612 7.84709L123.698 7.63063C124.358 5.92061 126.22 5.32535 128.351 6.14789C130.537 6.98126 131.392 8.56141 130.678 10.4338L130.548 10.7693L128.578 10.0117L128.708 9.67617C129.011 8.8861 128.676 8.3233 127.626 7.92285C126.717 7.57652 126.036 7.72804 125.798 8.34495L125.743 8.48565C125.559 8.95103 125.819 9.47054 126.436 9.93592L127.788 10.9533C129.303 12.0897 129.79 13.2694 129.26 14.6331L129.173 14.8495C128.459 16.7003 126.609 17.3063 124.369 16.4513C122 15.5422 121.156 13.9079 121.945 11.8408V11.8299Z" fill="#828BAE"/>
<path d="M134.035 8.68058L137.952 10.6828C139.933 11.7002 140.549 13.421 139.64 15.1743L139.532 15.38C138.623 17.1549 136.881 17.6744 134.89 16.6463L132.953 15.6506L131.157 19.1572L129.177 18.1398L134.025 8.65894L134.035 8.68058ZM135.756 14.8064C136.589 15.2393 137.195 15.0661 137.552 14.3626L137.66 14.157C138.017 13.4643 137.779 12.8691 136.968 12.447L135.107 11.4945L133.906 13.8539L135.767 14.8064H135.756Z" fill="#828BAE"/>
<path d="M143.368 25.9297L143.185 26.222L141.28 25.0098L141.875 23.04L138.997 21.2109L137.471 22.5855L135.567 21.3733L135.751 21.0811L143.996 14.1111L146.182 15.5072L143.358 25.9297H143.368ZM142.46 21.1135L143.715 17.0008L140.523 19.8689L142.47 21.1027L142.46 21.1135Z" fill="#828BAE"/>
<path d="M152.274 25.2473L152.588 24.8577C153.324 23.9269 153.161 22.9421 152.133 22.1195C151.095 21.2861 150.045 21.3727 149.223 22.4117L147.448 24.6304C146.626 25.6586 146.766 26.6868 147.816 27.5202C148.844 28.3427 149.85 28.2778 150.597 27.347L150.867 27.0007L152.631 28.4076L152.382 28.7215C151.127 30.3017 149.244 30.648 147.491 29.7497L145.252 31.384L143.488 29.977L145.728 28.3319C144.462 26.795 144.386 24.8577 145.63 23.2884L147.524 20.9182C149.006 19.0674 151.419 18.8943 153.443 20.5069C155.444 22.1087 155.801 24.4248 154.33 26.2755L154.049 26.6327L152.285 25.2257L152.274 25.2473Z" fill="#828BAE"/>
<path d="M153.498 29.6881L155.641 27.556C157.296 25.9109 159.72 25.9759 161.538 27.8049C163.377 29.6557 163.421 32.0692 161.765 33.7143L159.623 35.8464C157.967 37.4915 155.565 37.4482 153.715 35.5866C151.886 33.7467 151.843 31.3332 153.498 29.6881ZM158.108 34.2013L160.11 32.2099C161.04 31.2791 161.029 30.2185 160.088 29.2552C159.147 28.3136 158.086 28.292 157.156 29.2227L155.154 31.2142C154.234 32.1341 154.245 33.1731 155.186 34.1255C156.117 35.0563 157.231 35.078 158.108 34.1905V34.2013Z" fill="#828BAE"/>
<path d="M160.111 37.2845L160.392 37.0572L161.712 38.7239L161.431 38.9512C160.674 39.5573 160.674 40.369 161.388 41.2673C162.059 42.1007 162.751 42.3388 163.357 41.8626L163.476 41.776C163.941 41.3972 164.006 40.8561 163.66 40.0552L163 38.4858C162.318 36.8732 162.502 35.5636 163.584 34.7086L163.757 34.5679C165.197 33.4207 167.09 33.8644 168.519 35.6502C169.968 37.4793 169.904 39.2759 168.345 40.5206L168.064 40.7478L166.755 39.0919L167.036 38.8646C167.696 38.3343 167.685 37.6849 166.993 36.8083C166.387 36.0507 165.716 35.8342 165.197 36.2455L165.078 36.3321C164.688 36.6459 164.645 37.2196 164.937 37.9339L165.575 39.4924C166.3 41.2349 166.127 42.5012 164.98 43.4103L164.807 43.551C163.26 44.7848 161.355 44.3735 159.862 42.4903C158.282 40.5097 158.38 38.6698 160.122 37.2845H160.111Z" fill="#828BAE"/>
<path d="M174.62 44.6326L175.778 46.5482L166.678 52.0788L165.52 50.1631L174.62 44.6326Z" fill="#828BAE"/>
<path d="M180.591 55.6402L171.08 60.424L170.041 58.3676L174.283 52.3825L168.494 55.2939L167.531 53.3782L177.042 48.5945L178.07 50.64L173.763 56.6792L179.617 53.7246L180.58 55.6402H180.591Z" fill="#828BAE"/>
<path d="M180.42 60.6395L179.468 58.1394L181.361 57.4143L184.056 64.5142L182.162 65.2393L181.21 62.7392L173.149 65.8021L172.348 63.7024L180.409 60.6395H180.42Z" fill="#828BAE"/>
<path d="M184.607 66.2578L186.436 72.9248L184.478 73.4659L183.233 68.9419L181.026 69.548L182.184 73.7798L180.247 74.3101L179.089 70.0783L176.882 70.6844L178.126 75.2084L176.168 75.7495L174.339 69.0826L184.607 66.2686V66.2578Z" fill="#828BAE"/>
<path d="M186.913 75.1465L187.292 77.3435L178.809 78.8155L179.631 83.5343L177.618 83.8806L176.417 76.9647L186.913 75.1465Z" fill="#828BAE"/>
<path d="M188.231 83.6499L188.459 85.8794L177.865 86.9617L177.638 84.7322L188.231 83.6499Z" fill="#828BAE"/>
<path d="M185.159 94.6577H185.419C186.371 94.6361 187.01 93.7919 186.977 92.5689C186.945 91.1619 186.187 90.361 184.889 90.3935L182.032 90.4584C180.701 90.4909 180.009 91.2702 180.03 92.7096C180.052 93.6187 180.355 94.3439 180.918 94.8201L182 94.7984L181.935 91.9195L183.883 91.8762L183.991 96.9197L178.267 97.0388L178.223 95.1881L178.873 95.0582C178.288 94.4521 177.996 93.662 177.975 92.623C177.92 90.0039 179.468 88.2506 181.87 88.2073L184.91 88.1423C187.313 88.0882 188.957 89.8415 189.011 92.4715C189.065 95.0907 187.659 96.8332 185.451 96.8873H185.192L185.148 94.6469L185.159 94.6577Z" fill="#828BAE"/>
<path d="M188.795 99.301L188.211 106.195L186.187 106.022L186.588 101.347L184.305 101.152L183.937 105.524L181.935 105.351L182.303 100.979L180.02 100.784L179.619 105.459L177.596 105.286L178.18 98.3918L188.795 99.2902V99.301Z" fill="#828BAE"/>
<path d="M186.413 116.247L175.96 114.245L176.393 111.983L183.394 109.818L177.031 108.595L177.432 106.496L187.884 108.498L187.451 110.749L180.364 112.914L186.802 114.147L186.402 116.247H186.413Z" fill="#828BAE"/>
<path d="M183.231 120.101L183.999 117.536L185.936 118.121L183.75 125.394L181.813 124.809L182.582 122.244L174.336 119.766L174.986 117.623L183.231 120.101Z" fill="#828BAE"/>
<path d="M183.125 127.115L180.517 133.522L178.635 132.754L180.409 128.414L178.288 127.548L176.633 131.606L174.772 130.849L176.427 126.79L174.306 125.924L172.532 130.264L170.649 129.496L173.257 123.089L183.114 127.104L183.125 127.115Z" fill="#828BAE"/>
<path d="M173.149 131.864L173.462 132.027L172.467 133.91L172.153 133.748C171.298 133.293 170.552 133.618 170.011 134.635C169.513 135.577 169.578 136.313 170.249 136.67L170.379 136.735C170.909 137.016 171.439 136.854 172.034 136.215L173.203 134.981C174.415 133.715 175.681 133.358 176.903 134.007L177.109 134.116C178.732 134.971 179.089 136.897 178.018 138.921C176.925 140.988 175.248 141.638 173.484 140.707L173.17 140.544L174.155 138.683L174.469 138.845C175.215 139.246 175.821 138.975 176.341 137.979C176.795 137.124 176.73 136.421 176.135 136.107L176.005 136.042C175.562 135.804 175.021 135.999 174.48 136.562L173.3 137.774C171.991 139.137 170.757 139.473 169.47 138.791L169.264 138.683C167.511 137.752 167.133 135.847 168.258 133.726C169.448 131.486 171.169 130.847 173.127 131.886L173.149 131.864Z" fill="#828BAE"/>
<path d="M167.305 145.2C168.452 146.044 168.658 147.451 167.782 148.62C166.916 149.799 165.531 150.005 164.384 149.161C163.194 148.284 162.999 146.91 163.865 145.73C164.73 144.55 166.115 144.323 167.305 145.2Z" fill="#828BAE"/>
<path d="M163.905 158.544L159.047 163.458L157.608 162.029L160.908 158.696L159.285 157.083L156.201 160.2L154.773 158.783L157.857 155.666L156.234 154.053L152.933 157.386L151.494 155.958L156.353 151.044L163.927 158.534L163.905 158.544Z" fill="#828BAE"/>
<path d="M152.896 159.109L153.123 159.38L151.489 160.733L151.262 160.462C150.645 159.715 149.834 159.726 148.946 160.462C148.124 161.144 147.908 161.848 148.394 162.443L148.492 162.551C148.871 163.016 149.422 163.06 150.223 162.703L151.77 162.01C153.372 161.296 154.681 161.458 155.558 162.519L155.698 162.692C156.867 164.099 156.467 166.014 154.703 167.475C152.907 168.969 151.11 168.937 149.834 167.4L149.606 167.129L151.229 165.787L151.457 166.058C151.998 166.707 152.658 166.685 153.513 165.971C154.259 165.354 154.465 164.672 154.043 164.164L153.945 164.055C153.621 163.666 153.047 163.633 152.344 163.947L150.797 164.618C149.065 165.376 147.799 165.224 146.869 164.099L146.728 163.926C145.462 162.399 145.841 160.484 147.691 158.958C149.639 157.345 151.478 157.399 152.896 159.109Z" fill="#828BAE"/>
<path d="M149.722 171.175L146.054 173.611C144.203 174.844 142.396 174.541 141.304 172.885L141.174 172.701C140.07 171.035 140.47 169.271 142.342 168.026L144.149 166.825L141.964 163.534L143.814 162.301L149.711 171.175H149.722ZM143.533 169.671C142.754 170.19 142.602 170.797 143.046 171.457L143.176 171.641C143.608 172.29 144.247 172.377 145.004 171.868L146.746 170.71L145.286 168.502L143.543 169.66L143.533 169.671Z" fill="#828BAE"/>
<path d="M130.103 170.862L129.941 170.559L131.932 169.498L133.349 170.981L136.357 169.368L135.914 167.366L137.905 166.305L138.067 166.608L140.101 177.215L137.807 178.438L130.103 170.862ZM134.745 172.431L137.71 175.537L136.769 171.338L134.734 172.42L134.745 172.431Z" fill="#828BAE"/>
<path d="M126.317 178.957L126.501 179.423C126.945 180.516 127.886 180.862 129.109 180.364C130.343 179.866 130.786 178.914 130.278 177.68L129.206 175.05C128.709 173.827 127.756 173.448 126.501 173.957C125.279 174.455 124.846 175.364 125.289 176.457L125.452 176.869L123.363 177.713L123.212 177.334C122.454 175.472 123.071 173.665 124.716 172.572L124.391 169.812L126.48 168.968L126.804 171.728C128.763 171.37 130.494 172.269 131.241 174.119L132.377 176.933C133.264 179.131 132.225 181.317 129.834 182.291C127.453 183.254 125.268 182.421 124.38 180.224L124.207 179.802L126.296 178.957H126.317Z" fill="#828BAE"/>
<path d="M121.88 177.854L122.68 180.766C123.297 183.017 122.053 185.095 119.564 185.777C117.043 186.469 114.922 185.311 114.305 183.06L113.505 180.149C112.888 177.897 114.1 175.83 116.643 175.127C119.142 174.445 121.263 175.592 121.88 177.843V177.854ZM115.69 179.629L116.437 182.356C116.783 183.623 117.714 184.142 119.012 183.785C120.3 183.428 120.83 182.508 120.484 181.242L119.737 178.514C119.391 177.259 118.482 176.761 117.184 177.107C115.918 177.454 115.355 178.417 115.69 179.618V179.629Z" fill="#828BAE"/>
<path d="M112.002 179.866L112.056 180.224L109.957 180.559L109.902 180.202C109.751 179.239 109.048 178.838 107.911 179.022C106.851 179.195 106.31 179.693 106.429 180.44L106.451 180.581C106.548 181.176 106.992 181.501 107.857 181.587L109.545 181.782C111.287 181.988 112.337 182.789 112.553 184.152L112.586 184.38C112.878 186.187 111.558 187.637 109.296 187.994C106.992 188.362 105.455 187.421 105.141 185.451L105.087 185.094L107.176 184.769L107.23 185.126C107.36 185.96 107.933 186.284 109.048 186.1C110.011 185.949 110.53 185.473 110.422 184.812L110.4 184.672C110.324 184.174 109.848 183.86 109.069 183.763L107.392 183.546C105.52 183.319 104.503 182.54 104.276 181.1L104.243 180.873C103.93 178.914 105.228 177.464 107.608 177.085C110.108 176.684 111.666 177.669 112.012 179.877L112.002 179.866Z" fill="#828BAE"/>
<path d="M98.4331 188.882L96.1933 188.947L95.8687 178.297L98.1085 178.232L98.4331 188.882Z" fill="#828BAE"/>
<path d="M85.9353 188.665L86.4439 178.026L88.7486 178.135L91.8757 184.769L92.1895 178.297L94.332 178.394L93.8234 189.033L91.5403 188.925L88.4024 182.204L88.0886 188.752L85.9461 188.655L85.9353 188.665Z" fill="#828BAE"/>
<path d="M81.6926 186.068L84.3436 186.468L84.0406 188.47L76.5312 187.345L76.8342 185.342L79.4852 185.743L80.762 177.214L82.9802 177.55L81.7034 186.078L81.6926 186.068Z" fill="#828BAE"/>
<path d="M74.7475 186.967L68.0388 185.289L68.5257 183.319L73.0812 184.456L73.633 182.237L69.3806 181.176L69.8675 179.228L74.1199 180.289L74.6718 178.07L70.1163 176.934L70.6033 174.964L77.312 176.641L74.7367 186.977L74.7475 186.967Z" fill="#828BAE"/>
<path d="M65.8857 184.618L63.7866 183.871L66.654 175.754L62.1418 174.152L62.8235 172.226L69.4348 174.564L65.8857 184.607V184.618Z" fill="#828BAE"/>
<path d="M57.812 181.598L55.7561 180.7L59.9977 170.938L62.0536 171.836L57.812 181.598Z" fill="#828BAE"/>
<path d="M49.7171 173.502L49.5981 173.729C49.1436 174.574 49.5656 175.537 50.6368 176.111C51.8812 176.782 52.9524 176.5 53.5584 175.364L54.9109 172.842C55.5385 171.673 55.2031 170.677 53.9371 169.996C53.1364 169.563 52.3573 169.476 51.6648 169.736L51.1454 170.699L53.6774 172.063L52.7576 173.784L48.3104 171.392L51.0156 166.337L52.6494 167.214L52.4439 167.842C53.2554 167.636 54.0886 167.766 54.9975 168.253C57.3022 169.487 58.0597 171.706 56.9235 173.827L55.4844 176.5C54.3483 178.621 52.011 179.184 49.6955 177.94C47.3907 176.706 46.5575 174.617 47.6071 172.669L47.7261 172.442L49.6955 173.502H49.7171Z" fill="#828BAE"/>
<path d="M43.8884 174.367L38.186 170.46L39.333 168.783L43.2067 171.434L44.4944 169.54L40.8803 167.062L42.0165 165.395L45.6305 167.874L46.9181 165.98L43.0444 163.328L44.1914 161.65L49.8938 165.557L43.8776 174.346L43.8884 174.367Z" fill="#828BAE"/>
<path d="M30.2982 163.947L37.2016 155.83L38.9545 157.324L37.3748 164.488L41.5731 159.553L43.207 160.939L36.3035 169.056L34.5614 167.573L36.1737 160.332L31.9212 165.333L30.2874 163.947H30.2982Z" fill="#828BAE"/>
<path d="M28.544 159.311L30.3943 161.249L28.9336 162.656L23.6748 157.179L25.1356 155.772L26.9859 157.71L33.1968 151.735L34.7441 153.348L28.5332 159.322L28.544 159.311Z" fill="#828BAE"/>
<path d="M22.4835 155.776L18.1877 150.364L19.7784 149.098L22.6891 152.778L24.4853 151.36L21.7585 147.929L23.3383 146.674L26.065 150.105L27.8612 148.687L24.9505 145.007L26.5411 143.741L30.8369 149.152L22.4943 155.776H22.4835Z" fill="#828BAE"/>
<path d="M23.2402 144.744L22.9372 144.939L21.7903 143.153L22.0932 142.958C22.9156 142.428 22.9913 141.627 22.3746 140.664C21.7903 139.765 21.1194 139.462 20.481 139.874L20.362 139.949C19.8534 140.274 19.7344 140.815 20.0049 141.649L20.5134 143.272C21.0328 144.95 20.719 146.227 19.5504 146.973L19.3557 147.092C17.8083 148.088 15.9689 147.46 14.7245 145.534C13.4585 143.564 13.7074 141.789 15.3845 140.707L15.6875 140.512L16.8237 142.287L16.5207 142.482C15.8065 142.936 15.7524 143.597 16.3584 144.538C16.8886 145.361 17.527 145.642 18.0897 145.274L18.2087 145.198C18.6307 144.928 18.7281 144.365 18.5008 143.618L18.0247 141.995C17.4837 140.187 17.7867 138.943 19.0094 138.164L19.2042 138.045C20.8705 136.973 22.7208 137.579 24.0193 139.603C25.3827 141.735 25.1121 143.553 23.2402 144.755V144.744Z" fill="#828BAE"/>
<path d="M14.4784 133.113C13.1799 133.697 11.8598 133.189 11.2647 131.857C10.6696 130.526 11.1673 129.217 12.4658 128.632C13.8183 128.026 15.1059 128.535 15.7119 129.866C16.307 131.197 15.8309 132.518 14.4892 133.124L14.4784 133.113Z" fill="#828BAE"/>
<path d="M4.52249 123.611L2.62891 116.966L4.57659 116.414L5.86423 120.927L8.06078 120.299L6.85971 116.089L8.79657 115.537L9.99764 119.747L12.1942 119.12L10.9066 114.606L12.8542 114.054L14.7478 120.7L4.51167 123.611H4.52249Z" fill="#828BAE"/>
<path d="M9.44389 113.725L9.08681 113.79L8.71892 111.701L9.06517 111.636C10.0282 111.463 10.4069 110.749 10.2121 109.623C10.0282 108.573 9.51963 108.032 8.7622 108.162L8.62153 108.184C8.0264 108.292 7.71261 108.736 7.63687 109.612L7.47456 111.311C7.30143 113.054 6.52236 114.115 5.15898 114.363L4.93175 114.407C3.12473 114.731 1.66397 113.433 1.26361 111.182C0.852437 108.876 1.77218 107.329 3.73068 106.982L4.07694 106.917L4.44483 108.995L4.08776 109.06C3.25458 109.212 2.95161 109.785 3.14638 110.889C3.3195 111.853 3.80642 112.35 4.45565 112.242L4.59632 112.221C5.09406 112.134 5.39703 111.647 5.4836 110.878L5.66754 109.201C5.86231 107.318 6.61974 106.29 8.05887 106.041L8.2861 105.997C10.2338 105.651 11.7162 106.917 12.1382 109.288C12.5818 111.777 11.6188 113.357 9.43307 113.747L9.44389 113.725Z" fill="#828BAE"/>
<path d="M0.506857 105.048L0.193063 100.654C0.030756 98.4356 1.18855 97.0178 3.16869 96.8771H3.39592C5.38689 96.7148 6.72862 97.9378 6.89093 100.178L7.04242 102.354L10.9811 102.072L11.1434 104.291L0.517677 105.048H0.506857ZM4.8675 100.405C4.80258 99.4638 4.34812 99.0417 3.55823 99.0958H3.331C2.55192 99.1716 2.16239 99.6803 2.22731 100.589L2.3788 102.678L5.01899 102.494L4.8675 100.405Z" fill="#828BAE"/>
<path d="M10.4309 88.1082H10.7772L10.7231 90.3702L8.73212 90.8789L8.65637 94.2881L10.6257 94.8834L10.5716 97.1346H10.2362L0 93.6821L0.0541023 91.0845L10.4309 88.0974V88.1082ZM6.79525 91.3876L2.62937 92.4482L6.74115 93.6929L6.79525 91.3876Z" fill="#828BAE"/>
<path d="M5.2388 80.8369L4.74106 80.772C3.56163 80.6205 2.81501 81.2807 2.64189 82.5794C2.46876 83.8998 3.08552 84.744 4.40562 84.9172L7.21894 85.2744C8.5174 85.4367 9.32893 84.7873 9.50206 83.4561C9.66437 82.1465 9.09088 81.324 7.91145 81.1725L7.47863 81.1183L7.77079 78.878L8.17114 78.9321C10.1621 79.1919 11.4389 80.6097 11.5796 82.5794L14.144 83.6401L13.8519 85.8804L11.2874 84.8198C10.6382 86.703 9.01514 87.7636 7.03499 87.5147L4.0269 87.1251C1.67886 86.822 0.283023 84.8414 0.607637 82.2872C0.932251 79.7438 2.72845 78.2394 5.07649 78.5425L5.53095 78.5966L5.2388 80.8369Z" fill="#828BAE"/>
<path d="M8.38537 77.5025L5.45303 76.7666C3.18073 76.2038 1.99048 74.0933 2.60724 71.5932C3.23483 69.0607 5.2799 67.7727 7.5522 68.3463L10.4845 69.0715C12.7568 69.6343 13.9579 71.7123 13.3195 74.2665C12.6919 76.7882 10.6469 78.0653 8.38537 77.5025ZM9.85696 71.2252L7.11938 70.5434C5.84256 70.2295 4.93364 70.7815 4.60903 72.0911C4.28442 73.379 4.82544 74.299 6.10225 74.6236L8.83983 75.3055C10.095 75.6194 10.9931 75.0782 11.3177 73.7686C11.6315 72.4915 11.0688 71.5283 9.85696 71.2252Z" fill="#828BAE"/>
<path d="M11.4671 67.871L11.1317 67.7412L11.8675 65.7498L12.2029 65.8688C13.1118 66.2043 13.8043 65.793 14.2047 64.7107C14.5726 63.7042 14.4103 62.9899 13.6961 62.7193L13.5555 62.6652C12.9928 62.4596 12.4951 62.6869 11.9865 63.4012L10.991 64.7757C9.96308 66.1935 8.75119 66.713 7.45273 66.2368L7.23632 66.161C5.51587 65.5225 4.90992 63.6717 5.69982 61.518C6.51135 59.3209 8.08032 58.4551 9.95226 59.1478L10.2877 59.2776L9.5519 61.2582L9.21647 61.1284C8.42658 60.8361 7.86391 61.1825 7.47437 62.2323C7.13894 63.1414 7.30125 63.8341 7.91801 64.0614L8.05868 64.1155C8.53478 64.2887 9.04334 64.0289 9.4978 63.4012L10.5041 62.0483C11.6186 60.5223 12.798 60.0244 14.1614 60.5331L14.3778 60.6089C16.239 61.3015 16.8665 63.1414 16.0334 65.3926C15.1569 67.7628 13.5338 68.6395 11.4455 67.8602L11.4671 67.871Z" fill="#828BAE"/>
<path d="M10.2664 51.6447L11.3051 49.6641L20.7297 54.621L19.691 56.6016L10.2664 51.6447Z" fill="#828BAE"/>
<path d="M16.5973 40.865L25.6108 46.547L24.3773 48.4952L17.0626 47.954L22.5486 51.4065L21.4016 53.2248L12.3882 47.5427L13.6109 45.6054L21.0013 46.1791L15.4504 42.6832L16.5973 40.865Z" fill="#828BAE"/>
<path d="M20.9711 38.4536L19.3155 40.564L17.7141 39.3086L22.3994 33.3235L24.0008 34.5789L22.3453 36.6894L29.1297 42.0035L27.7447 43.7676L20.9603 38.4536H20.9711Z" fill="#828BAE"/>
<path d="M23.6099 31.9598L28.36 26.938L29.8316 28.3341L26.6071 31.7434L28.2735 33.3235L31.2924 30.1416L32.7532 31.5269L29.7342 34.7089L31.4006 36.289L34.6251 32.8798L36.0967 34.2759L31.3465 39.2978L23.6099 31.9707V31.9598Z" fill="#828BAE"/>
<path d="M29.9924 25.4106L31.6696 23.9495L37.3179 30.4324L40.9319 27.2829L42.2737 28.8198L36.9933 33.4304L29.9924 25.3997V25.4106Z" fill="#828BAE"/>
<path d="M36.5833 19.8587L38.3686 18.5059L44.796 27.0019L43.0106 28.3547L36.5833 19.8587Z" fill="#828BAE"/>
<path d="M47.6099 16.7736L47.4692 16.5572C46.9607 15.7454 45.9111 15.648 44.8831 16.2974C43.6929 17.055 43.4007 18.1157 44.1041 19.2196L45.6406 21.6331C46.3547 22.7587 47.3827 22.9535 48.6054 22.1743C49.3736 21.6872 49.8281 21.0487 49.9471 20.3235L49.3628 19.4036L46.939 20.9405L45.9003 19.2954L50.1635 16.5896L53.2365 21.4275L51.6784 22.4232L51.2348 21.9362C51.0184 22.7479 50.499 23.4081 49.6225 23.9601C47.4151 25.3562 45.1104 24.9449 43.8227 22.9102L42.1997 20.3452C40.912 18.3213 41.5613 16.0052 43.7795 14.5874C45.9868 13.1912 48.2159 13.4834 49.3953 15.345L49.5359 15.5614L47.6424 16.7628L47.6099 16.7736Z" fill="#828BAE"/>
<path d="M49.7197 11.2565L55.9199 8.1936L56.8179 10.0119L52.6196 12.0899L53.6367 14.1462L57.5646 12.2089L58.4518 14.0163L54.524 15.9537L55.5411 18.01L59.7395 15.932L60.6376 17.7503L54.4375 20.8132L49.7305 11.2673L49.7197 11.2565Z" fill="#828BAE"/>
<path d="M65.4657 4.52563L69.1446 14.5152L66.9805 15.3161L61.5162 10.435L63.756 16.5066L61.7434 17.2426L58.0645 7.25302L60.2069 6.46294L65.7145 11.4199L63.4422 5.27242L65.4548 4.52563H65.4657Z" fill="#828BAE"/>
<path d="M70.3652 5.27065L67.7683 5.93085L67.2598 3.96107L74.6177 2.07788L75.1262 4.04766L72.5293 4.70786L74.6718 13.0523L72.5077 13.6043L70.3652 5.25983V5.27065Z" fill="#828BAE"/>
<path d="M76.4338 1.72919L83.2615 0.657715L83.5753 2.65996L78.9442 3.3851L79.3013 5.64709L83.6294 4.96525L83.9432 6.95667L79.6151 7.63851L79.9721 9.90051L84.6033 9.17537L84.9171 11.1776L78.0894 12.2491L76.4447 1.72919H76.4338Z" fill="#828BAE"/>
<path d="M85.645 7.82456L85.6233 7.4674L87.7441 7.34835L87.7658 7.70551C87.8199 8.67957 88.4799 9.14496 89.6269 9.08002C90.6981 9.0259 91.2932 8.58216 91.25 7.81374V7.67304C91.2067 7.07778 90.7955 6.7098 89.9407 6.5258L88.2743 6.15782C86.5647 5.77902 85.6017 4.86989 85.5259 3.49538V3.2681C85.4177 1.43902 86.8677 0.140268 89.1508 0.0103932C91.488 -0.119482 92.9163 0.973635 93.0245 2.96506L93.0462 3.32221L90.9362 3.44127L90.9145 3.08411C90.8712 2.23992 90.3302 1.86112 89.2049 1.92605C88.231 1.98017 87.6684 2.40226 87.7008 3.06246V3.20316C87.7333 3.70102 88.1769 4.069 88.9344 4.24216L90.5791 4.62097C92.4186 5.04306 93.3491 5.91972 93.4357 7.37V7.59728C93.5547 9.57788 92.1156 10.8875 89.7135 11.0281C87.1815 11.1688 85.7423 10.0324 85.6125 7.80291L85.645 7.82456Z" fill="#828BAE"/>
<path d="M100.088 5.92181C100.218 4.50401 101.311 3.6057 102.761 3.73558C104.211 3.86546 105.109 4.94775 104.979 6.36556C104.849 7.83748 103.767 8.71414 102.317 8.58426C100.867 8.45438 99.9475 7.39374 100.077 5.92181H100.088Z" fill="#828BAE"/>
</svg>
