<svg width="299" height="299" viewBox="0 0 299 299" fill="none" xmlns="http://www.w3.org/2000/svg">
<path d="M195.904 84.5515L79.1426 115.838L90.4708 158.115L207.232 126.829L195.904 84.5515Z" fill="#FF8400"/>
<path d="M209.388 134.877L92.6273 166.163L105.843 215.484L222.604 184.198L209.388 134.877Z" fill="#FF8400"/>
<path d="M116.305 134.932L116.901 137.154C119.032 145.11 114.618 151.583 105.675 153.979C96.7328 156.375 89.9175 153.642 87.901 146.116L87.7195 145.439L95.9846 143.224L96.1495 143.839C96.8434 146.429 99.4785 147.374 103.423 146.317C107.615 145.194 109.296 142.827 108.371 139.373L107.975 137.895C107.1 134.628 104.183 133.359 100.172 134.434C96.8434 135.326 94.8115 137.128 94.7705 139.189L86.7533 141.337L81.3158 116.351L107.346 109.376L109.445 117.208L90.7541 122.216L92.5138 130.271C94.1739 128.568 96.5202 127.214 99.4198 126.437C107.685 124.222 114.34 127.597 116.307 134.937L116.305 134.932Z" fill="white"/>
<path d="M121.523 134.659L117.837 120.904C115.689 112.887 120.421 105.138 129.488 102.708C138.554 100.279 146.464 104.636 148.613 112.658L152.299 126.412C154.447 134.429 149.777 142.162 140.71 144.592C131.644 147.021 123.672 142.68 121.523 134.659ZM143.736 128.242L140.282 115.35C139.19 111.278 135.845 109.398 131.59 110.538C127.336 111.678 125.3 114.933 126.408 119.068L129.862 131.959C130.969 136.09 134.299 137.911 138.615 136.755C142.931 135.598 144.86 132.438 143.736 128.242Z" fill="white"/>
<path d="M152.029 108.635L151.5 106.66C150.062 101.295 152.99 96.6764 158.847 95.1071C164.704 93.5377 169.475 96.0267 170.93 101.454L171.459 103.429C172.896 108.794 169.906 113.429 164.169 114.966C158.431 116.504 153.466 114 152.029 108.635ZM163.882 136.333L183.949 88.846L191.413 86.8461L191.761 88.1432L171.722 135.49L164.196 137.506L163.882 136.333ZM164.553 105.279L164.007 103.243C163.528 101.454 162.197 100.686 160.409 101.165C158.62 101.645 157.931 103.02 158.394 104.747L158.939 106.783C159.418 108.572 160.749 109.34 162.475 108.877C164.326 108.381 165.032 107.068 164.553 105.279ZM184.736 122.878L184.207 120.904C182.77 115.538 185.698 110.92 191.555 109.351C197.412 107.781 202.178 110.271 203.633 115.699L204.162 117.673C205.599 123.039 202.609 127.674 196.876 129.21C191.143 130.746 186.174 128.244 184.736 122.878ZM197.256 119.524L196.71 117.487C196.231 115.699 194.901 114.931 193.112 115.41C191.324 115.889 190.634 117.265 191.097 118.991L191.642 121.028C192.122 122.816 193.452 123.584 195.178 123.122C197.029 122.626 197.735 121.312 197.256 119.524Z" fill="white"/>
<path d="M101.766 197.488L98.1574 184.021C95.3639 173.596 101.183 164.041 112.698 160.956C124.212 157.871 134.1 163.216 136.893 173.642L140.502 187.109C143.295 197.534 137.618 207.05 125.891 210.193C114.164 213.335 104.559 207.913 101.766 197.488ZM130.413 189.423L127.037 176.824C125.465 170.958 121.169 168.541 115.161 170.151C109.154 171.761 106.713 175.983 108.284 181.849L111.66 194.448C113.212 200.238 117.414 202.604 123.426 200.993C129.437 199.383 131.906 194.996 130.413 189.423Z" fill="white"/>
<path d="M139.501 154.704L170.348 146.439L172.774 155.492L151.847 161.099L154.893 172.468L174.514 167.21L176.938 176.259L157.318 181.516L162.149 199.547L152.229 202.205L139.502 154.709L139.501 154.704Z" fill="white"/>
<path d="M176.138 144.887L206.985 136.622L209.411 145.675L188.485 151.282L191.531 162.65L211.151 157.393L213.576 166.442L193.956 171.699L198.787 189.73L188.866 192.388L176.139 144.892L176.138 144.887Z" fill="white"/>
<path d="M181.273 266.615C149.873 275.029 117.073 270.712 88.922 254.456C60.7708 238.199 40.6295 211.957 32.2158 180.557C23.8021 149.157 28.1186 116.357 44.3754 88.2057C60.6323 60.0546 86.8737 39.9133 118.274 31.4996C149.675 23.0859 182.474 27.4024 210.625 43.6592C238.777 59.916 258.918 86.1575 267.331 117.558C275.745 148.958 271.429 181.758 255.172 209.909C238.915 238.06 212.674 258.202 181.273 266.615ZM123.98 52.7933C98.268 59.6827 76.7756 76.1743 63.4658 99.2276C50.156 122.281 46.62 149.14 53.5095 174.851C60.3989 200.563 76.8905 222.056 99.9438 235.365C122.997 248.675 149.856 252.211 175.568 245.322C201.279 238.432 222.772 221.941 236.082 198.887C249.391 175.834 252.927 148.975 246.038 123.264C239.148 97.5518 222.657 76.0593 199.604 62.7496C176.55 49.4398 149.691 45.9038 123.98 52.7933Z" fill="#C3D600"/>
<path d="M131.287 44.966L131.627 46.5211L123.696 48.2621L123.36 46.7247L126.062 42.5747C127.617 40.1939 127.936 39.3492 127.7 38.2737L127.66 38.0898C127.399 36.9024 126.451 36.3736 125.097 36.6699C123.726 36.9709 123.093 37.8854 123.369 39.1448L123.454 39.5347L121.752 39.9102L121.662 39.5026C121.17 37.2618 122.317 35.5927 124.745 35.056C127.157 34.5285 128.89 35.5444 129.367 37.7131L129.407 37.897C129.728 39.3624 129.28 40.6829 127.644 43.2185L125.712 46.1893L131.291 44.9648L131.287 44.966Z" fill="white"/>
<path d="M150.049 44.8305L148.304 44.9233L147.819 35.8864L145.068 45.0978L143.477 45.1824L139.749 36.279L140.24 45.3569L138.495 45.4496L137.826 33.0173L140.062 32.8974L144.129 42.4454L147.147 32.5125L149.383 32.3926L150.052 44.8249L150.049 44.8305Z" fill="white"/>
<path d="M153.099 32.5358L160.769 32.9904L160.674 34.6007L154.783 34.2529L154.556 38.0622L160.124 38.3921L160.029 39.9834L154.46 39.6536L154.233 43.4628L160.124 43.8106L160.029 45.4209L152.358 44.9663L153.095 32.5414L153.099 32.5358Z" fill="white"/>
<path d="M162.003 42.0546L162.068 41.6244L163.736 41.8843L163.671 42.3145C163.451 43.7401 164.255 44.616 165.962 44.8796C167.537 45.1266 168.581 44.5954 168.768 43.3972L168.798 43.1899C168.949 42.2146 168.456 41.5447 167.181 40.9803L165.527 40.2611C163.639 39.4479 162.808 38.2423 163.047 36.7074L163.086 36.4455C163.402 34.4202 165.263 33.3283 167.773 33.7185C170.324 34.117 171.604 35.6385 171.258 37.8711L171.193 38.3014L169.525 38.0415L169.59 37.6113C169.798 36.2793 169.11 35.5004 167.461 35.2446C166 35.0146 164.996 35.5351 164.826 36.6197L164.796 36.827C164.666 37.6685 165.21 38.372 166.321 38.8714L167.936 39.6013C169.999 40.5382 170.818 41.6807 170.563 43.3336L170.524 43.5955C170.192 45.7534 168.306 46.8613 165.721 46.4579C162.943 46.0255 161.636 44.4588 162.008 42.0579L162.003 42.0546Z" fill="white"/>
<path d="M174.99 35.2581L182.436 37.1584L182.039 38.7215L176.32 37.2646L175.379 40.9614L180.783 42.3413L180.39 43.8843L174.986 42.5044L174.046 46.2012L179.764 47.658L179.367 49.2211L171.921 47.3208L174.995 35.2613L174.99 35.2581Z" fill="white"/>
<path d="M181.926 46.2865L182.072 45.8772L183.663 46.4474L183.516 46.8568C183.031 48.2157 183.657 49.2246 185.279 49.8055C186.78 50.3427 187.903 50.0181 188.314 48.8784L188.385 48.6837C188.72 47.7542 188.361 47.001 187.214 46.2076L185.722 45.1888C184.018 44.0368 183.431 42.6948 183.954 41.2308L184.043 40.9791C184.737 39.0519 186.768 38.3274 189.162 39.1854C191.592 40.0572 192.561 41.7953 191.797 43.9215L191.651 44.3308L190.06 43.7606L190.207 43.3513C190.659 42.0818 190.135 41.1879 188.565 40.6262C187.174 40.126 186.092 40.4444 185.719 41.479L185.648 41.6736C185.36 42.4767 185.762 43.2659 186.761 43.9662L188.206 44.988C190.056 46.2954 190.646 47.5751 190.079 49.1455L189.99 49.3971C189.254 51.4495 187.198 52.1856 184.732 51.3044C182.087 50.3572 181.096 48.5729 181.916 46.2845L181.926 46.2865Z" fill="white"/>
<path d="M197.258 51.516L199.029 48.2467C200.34 45.8266 202.913 45.1041 205.429 46.4703C207.865 47.7912 208.708 50.2984 207.47 52.5849L207.255 52.9843L205.701 52.1433L205.916 51.7439C206.738 50.2237 206.257 48.801 204.625 47.9146C202.954 47.01 201.481 47.4617 200.566 49.1491L198.858 52.3018C197.944 53.9892 198.379 55.4527 200.05 56.3573C201.67 57.2328 203.142 56.8667 203.964 55.3465L204.189 54.9303L205.743 55.7713L205.518 56.1875C204.28 58.4741 201.719 59.1364 199.283 57.8155C196.763 56.4504 195.956 53.9193 197.258 51.516Z" fill="white"/>
<path d="M207.575 57.2257L209.682 54.1797C211.249 51.9188 213.883 51.4787 216.207 53.0861C218.549 54.7076 219.056 57.3428 217.499 59.5913L215.393 62.6373C213.836 64.8858 211.219 65.3356 208.86 63.7044C206.518 62.0829 206.014 59.4755 207.571 57.2269L207.575 57.2257ZM213.972 61.5851L216.004 58.6493C217.094 57.0712 216.81 55.5151 215.266 54.4438C213.735 53.3878 212.196 53.6816 211.104 55.2553L209.072 58.1911C207.991 59.7524 208.273 61.2807 209.8 62.3423C211.331 63.3982 212.915 63.1115 213.971 61.5806L213.972 61.5851Z" fill="white"/>
<path d="M223.269 75.1741L221.962 74.0154L227.973 67.2473L219.539 71.8605L218.349 70.8033L221.959 61.8554L215.926 68.6484L214.619 67.4897L222.883 58.1867L224.558 59.6739L220.737 69.319L229.862 64.3828L231.537 65.8699L223.273 75.1729L223.269 75.1741Z" fill="white"/>
<path d="M238.031 72.8746L240.631 76.116C242.413 78.3384 242.186 80.8759 240.097 82.5508L237.312 84.7822C235.226 86.456 232.698 86.1227 230.916 83.9004L228.316 80.6589L238.026 72.8758L238.031 72.8746ZM232.21 82.937C233.359 84.3751 234.803 84.5053 236.225 83.3652L238.935 81.1918C240.357 80.0517 240.544 78.5878 239.404 77.1661L237.885 75.2717L230.69 81.0381L232.209 82.9325L232.21 82.937Z" fill="white"/>
<path d="M245.512 82.5564L249.696 88.9985L248.342 89.8784L245.128 84.9319L241.932 87.008L244.968 91.6839L243.631 92.5547L240.594 87.8787L237.397 89.9547L240.611 94.9012L239.258 95.7811L235.074 89.339L245.512 82.5564Z" fill="white"/>
<path d="M243.133 95.3691L243.52 95.1658L244.301 96.6646L243.914 96.8679C242.635 97.5331 242.408 98.7042 243.207 100.232C243.945 101.642 244.988 102.169 246.066 101.605L246.249 101.509C247.123 101.052 247.371 100.259 247.068 98.8982L246.663 97.1418C246.197 95.1363 246.672 93.7565 248.05 93.0363L248.286 92.9111C250.102 91.9645 252.089 92.8127 253.262 95.0653C254.455 97.3554 253.99 99.2876 251.988 100.332L251.601 100.535L250.82 99.0363L251.207 98.8331C252.401 98.2093 252.623 97.1961 251.847 95.715C251.163 94.4036 250.151 93.9014 249.178 94.4136L248.995 94.5101C248.238 94.9075 248.001 95.7586 248.259 96.9516L248.628 98.6841C249.098 100.897 248.665 102.238 247.184 103.014L246.947 103.139C245.011 104.151 243.003 103.295 241.792 100.971C240.494 98.4819 240.977 96.4971 243.129 95.3747L243.133 95.3691Z" fill="white"/>
<path d="M248.772 104.657L252.23 103.289C254.786 102.277 257.221 103.376 258.276 106.039C259.298 108.612 258.331 111.078 255.916 112.033L255.49 112.2L254.842 110.561L255.268 110.394C256.872 109.76 257.421 108.356 256.735 106.628C256.035 104.865 254.616 104.263 252.832 104.969L249.499 106.289C247.719 106.994 247.109 108.401 247.809 110.163C248.485 111.875 249.85 112.539 251.458 111.899L251.899 111.724L252.547 113.363L252.105 113.538C249.69 114.494 247.299 113.36 246.281 110.786C245.226 108.122 246.233 105.665 248.772 104.657Z" fill="white"/>
<path d="M252.951 115.613L256.508 114.598C259.152 113.842 261.469 115.176 262.245 117.896C263.026 120.633 261.746 122.993 259.119 123.739L255.562 124.754C252.935 125.505 250.623 124.189 249.837 121.434C249.056 118.697 250.323 116.36 252.951 115.613ZM255.131 123.043L258.56 122.062C260.402 121.535 261.171 120.153 260.658 118.345C260.145 116.556 258.767 115.805 256.925 116.332L253.496 117.313C251.672 117.835 250.917 119.195 251.424 120.981C251.936 122.77 253.341 123.551 255.131 123.043Z" fill="white"/>
<path d="M265.453 134.63L253.167 136.641L252.865 134.805L261.116 128.343L252.053 129.827L251.771 128.104L264.058 126.093L264.36 127.929L256.073 134.401L265.173 132.911L265.454 134.634L265.453 134.63Z" fill="white"/>
<path d="M264.36 140.716L264.124 137.159L265.732 137.051L266.316 145.91L264.708 146.018L264.477 142.479L253.669 143.192L253.553 141.429L264.36 140.716Z" fill="white"/>
<path d="M258.29 147.458L261.986 147.563C264.736 147.643 266.54 149.612 266.458 152.439C266.375 155.284 264.444 157.144 261.714 157.064L258.018 156.959C255.287 156.879 253.484 154.933 253.566 152.068C253.649 149.223 255.561 147.382 258.292 147.462L258.29 147.458ZM258.125 155.198L261.692 155.3C263.605 155.357 264.756 154.27 264.812 152.391C264.865 150.531 263.778 149.399 261.862 149.347L258.295 149.245C256.396 149.189 255.269 150.26 255.211 152.116C255.159 153.976 256.265 155.146 258.12 155.199L258.125 155.198Z" fill="white"/>
<path d="M258.354 165.741C259.754 165.988 260.529 167.165 260.288 168.549C260.042 169.934 258.91 170.773 257.511 170.527C256.051 170.268 255.316 169.099 255.562 167.714C255.807 166.329 256.9 165.485 258.359 165.74L258.354 165.741Z" fill="white"/>
<path d="M249.069 185.363L247.552 184.872L250.041 177.145L251.541 177.626L253.766 182.05C255.041 184.593 255.608 185.295 256.658 185.635L256.839 185.691C257.997 186.064 258.929 185.506 259.355 184.191C259.785 182.857 259.314 181.844 258.085 181.452L257.706 181.331L258.243 179.668L258.642 179.794C260.828 180.499 261.69 182.332 260.929 184.699C260.172 187.047 258.417 188.039 256.308 187.356L256.127 187.301C254.699 186.843 253.785 185.788 252.418 183.094L250.825 179.929L249.075 185.366L249.069 185.363Z" fill="white"/>
<path d="M239.731 201.634L240.524 200.079L248.577 204.208L242.004 197.191L242.729 195.773L252.299 197.028L244.21 192.885L245.004 191.334L256.081 197.011L255.058 199.003L244.763 197.714L251.826 205.321L250.804 207.312L239.726 201.635L239.731 201.634Z" fill="white"/>
<path d="M248.828 210.456L244.584 216.86L243.239 215.968L246.5 211.047L243.32 208.938L240.239 213.588L238.911 212.705L241.992 208.055L238.813 205.946L235.553 210.867L234.208 209.975L238.45 203.567L248.828 210.442L248.828 210.456Z" fill="white"/>
<path d="M236.125 213.376L236.464 213.65L235.403 214.964L235.063 214.69C233.943 213.785 232.783 214.043 231.695 215.383C230.694 216.624 230.627 217.791 231.572 218.553L231.735 218.685C232.504 219.304 233.33 219.216 234.457 218.396L235.907 217.325C237.556 216.095 239.016 215.984 240.227 216.96L240.433 217.128C242.025 218.414 242.039 220.574 240.443 222.548C238.821 224.553 236.859 224.899 235.103 223.481L234.764 223.206L235.826 221.892L236.165 222.167C237.213 223.015 238.23 222.809 239.278 221.513C240.208 220.362 240.263 219.237 239.408 218.546L239.245 218.414C238.579 217.876 237.705 217.996 236.714 218.708L235.273 219.739C233.428 221.054 232.026 221.188 230.73 220.14L230.524 219.972C228.828 218.6 228.812 216.417 230.454 214.383C232.218 212.197 234.231 211.848 236.121 213.377L236.125 213.376Z" fill="white"/>
<path d="M235.506 228.013L230.137 233.509L228.985 232.38L233.112 228.161L230.386 225.494L226.487 229.486L225.349 228.372L229.249 224.385L226.522 221.718L222.395 225.937L221.243 224.808L226.613 219.312L235.511 228.012L235.506 228.013Z" fill="white"/>
<path d="M222.475 228.501L222.759 228.833L221.471 229.923L221.187 229.591C220.256 228.489 219.07 228.526 217.751 229.639C216.532 230.668 216.252 231.801 217.032 232.731L217.165 232.89C217.804 233.644 218.628 233.712 219.892 233.117L221.52 232.34C223.373 231.445 224.827 231.61 225.833 232.797L226.005 232.998C227.327 234.565 226.935 236.682 224.994 238.327C223.025 239.993 221.034 239.962 219.575 238.237L219.292 237.905L220.579 236.814L220.863 237.147C221.732 238.176 222.769 238.168 224.046 237.091C225.175 236.133 225.442 235.042 224.732 234.198L224.599 234.039C224.049 233.384 223.164 233.337 222.058 233.851L220.449 234.591C218.391 235.536 216.989 235.404 215.907 234.128L215.735 233.928C214.325 232.26 214.722 230.114 216.723 228.425C218.866 226.612 220.911 226.648 222.476 228.506L222.475 228.501Z" fill="white"/>
<path d="M210.266 239.141L212.204 242.318C213.635 244.668 212.971 247.252 210.523 248.742C208.157 250.183 205.567 249.653 204.213 247.434L203.977 247.047L205.481 246.127L205.718 246.514C206.615 247.987 208.091 248.289 209.678 247.322C211.297 246.334 211.648 244.83 210.65 243.195L208.781 240.132C207.783 238.497 206.296 238.136 204.677 239.125C203.107 240.082 202.682 241.544 203.584 243.015L203.83 243.419L202.325 244.334L202.079 243.931C200.725 241.712 201.437 239.163 203.803 237.723C206.251 236.232 208.843 236.804 210.265 239.137L210.266 239.141Z" fill="white"/>
<path d="M200.139 245.191L201.706 248.543C202.872 251.035 201.922 253.529 199.363 254.727C196.787 255.93 194.252 255.043 193.096 252.568L191.529 249.215C190.372 246.74 191.304 244.251 193.897 243.039C196.474 241.836 198.982 242.715 200.138 245.186L200.139 245.191ZM193.15 248.52L194.661 251.75C195.473 253.487 196.959 254.023 198.663 253.23C200.345 252.442 200.87 250.964 200.058 249.226L198.547 245.997C197.745 244.276 196.279 243.748 194.597 244.536C192.915 245.323 192.362 246.838 193.15 248.52Z" fill="white"/>
<path d="M176.732 249.702L178.389 249.159L181.206 257.76L181.474 248.152L182.988 247.656L188.898 255.282L186.071 246.645L187.729 246.101L191.601 257.931L189.472 258.63L183.067 250.467L182.729 260.84L180.601 261.538L176.729 249.708L176.732 249.702Z" fill="white"/>
<path d="M171.304 263.621L167.195 264.243C164.382 264.669 162.298 263.197 161.898 260.552L161.366 257.027C160.966 254.382 162.522 252.361 165.336 251.939L169.445 251.318L171.305 263.626L171.304 263.621ZM165.522 253.536C163.703 253.81 162.866 254.993 163.136 256.795L163.653 260.229C163.926 262.03 165.097 262.926 166.899 262.657L169.302 262.293L167.926 253.177L165.523 253.541L165.522 253.536Z" fill="white"/>
<path d="M159.177 265.234L151.5 265.625L151.42 264.015L157.313 263.716L157.118 259.906L151.548 260.189L151.467 258.597L157.038 258.315L156.843 254.505L150.949 254.803L150.868 253.192L158.545 252.801L159.177 265.234Z" fill="white"/>
<path d="M149.28 256.754L149.259 257.192L147.574 257.117L147.594 256.679C147.659 255.239 146.762 254.459 145.037 254.38C143.443 254.309 142.467 254.95 142.413 256.165L142.402 256.372C142.357 257.357 142.92 257.97 144.248 258.392L145.971 258.927C147.94 259.528 148.896 260.634 148.829 262.189L148.819 262.453C148.726 264.499 146.999 265.792 144.458 265.676C141.879 265.56 140.439 264.186 140.541 261.929L140.561 261.491L142.247 261.566L142.226 262.004C142.164 263.349 142.931 264.05 144.602 264.124C146.081 264.188 147.02 263.566 147.067 262.467L147.078 262.26C147.114 261.406 146.499 260.773 145.335 260.397L143.651 259.847C141.498 259.143 140.557 258.095 140.633 256.428L140.643 256.165C140.742 253.984 142.488 252.676 145.105 252.791C147.91 252.917 149.384 254.33 149.28 256.754Z" fill="white"/>
<path d="M138.421 256.974L137.869 260.652C137.463 263.37 135.29 264.93 132.458 264.507C129.72 264.097 128.07 262.029 128.458 259.458L128.527 259.008L130.273 259.271L130.203 259.721C129.95 261.431 130.886 262.603 132.725 262.879C134.603 263.159 135.834 262.231 136.119 260.338L136.649 256.789C136.934 254.895 136.02 253.664 134.147 253.384C132.328 253.112 131.069 253.957 130.811 255.668L130.742 256.137L128.997 255.874L129.066 255.405C129.449 252.834 131.63 251.339 134.373 251.748C137.205 252.17 138.827 254.274 138.426 256.977L138.421 256.974Z" fill="white"/>
<path d="M126.773 255.117L125.828 258.692C125.127 261.352 122.796 262.659 120.065 261.939C117.314 261.215 115.941 258.907 116.638 256.267L117.583 252.693C118.28 250.053 120.589 248.737 123.357 249.471C126.11 250.199 127.466 252.479 126.769 255.119L126.773 255.117ZM119.274 253.198L118.362 256.645C117.872 258.499 118.669 259.865 120.483 260.347C122.281 260.824 123.631 260.021 124.117 258.168L125.03 254.721C125.516 252.887 124.733 251.541 122.936 251.069C121.138 250.592 119.748 251.406 119.276 253.202L119.274 253.198Z" fill="white"/>
<path d="M104.119 256.314L108.578 244.691L110.312 245.355L111.737 255.739L115.024 247.163L116.653 247.789L112.195 259.413L110.461 258.748L109.05 248.332L105.75 256.945L104.121 256.319L104.119 256.314Z" fill="white"/>
<path d="M99.4149 252.303L102.607 253.892L101.888 255.337L93.9385 251.379L94.6569 249.934L97.8318 251.513L102.659 241.816L104.237 242.604L99.4093 252.3L99.4149 252.303Z" fill="white"/>
<path d="M96.6504 243.669L94.6989 246.815C93.2475 249.154 90.6389 249.725 88.237 248.234C85.8182 246.732 85.1818 244.127 86.6191 241.806L88.5706 238.659C90.0124 236.337 92.6041 235.757 95.0397 237.268C97.4585 238.769 98.0922 241.346 96.6504 243.669ZM90.0379 239.638L88.16 242.67C87.1491 244.298 87.5096 245.838 89.1083 246.828C90.6901 247.809 92.2136 247.439 93.2234 245.806L95.1012 242.774C96.1025 241.163 95.7434 239.646 94.166 238.664C92.5842 237.684 91.0173 238.051 90.0367 239.633L90.0379 239.638Z" fill="white"/>
<path d="M80.8072 234.548C79.8895 235.638 78.4823 235.716 77.4098 234.813C76.3374 233.909 76.176 232.51 77.0937 231.42C78.0474 230.286 79.4296 230.238 80.502 231.142C81.5745 232.046 81.7621 233.419 80.8072 234.548Z" fill="white"/>
<path d="M68.4855 216.683L69.6704 215.616L75.1148 221.644L73.9452 222.698L69.0031 222.404C66.1619 222.23 65.2705 222.374 64.4524 223.111L64.3112 223.239C63.41 224.054 63.4216 225.143 64.3516 226.17C65.2908 227.213 66.403 227.309 67.3623 226.445L67.6558 226.176L68.8238 227.472L68.5138 227.749C66.8098 229.288 64.7903 229.117 63.1239 227.272C61.4711 225.442 61.4962 223.428 63.142 221.939L63.2833 221.811C64.3948 220.806 65.7655 220.538 68.7811 220.708L72.3187 220.913L68.492 216.671L68.4855 216.683Z" fill="white"/>
<path d="M59.0927 200.434L60.0368 201.903L52.417 206.792L61.7881 204.632L62.65 205.971L56.7541 213.61L64.4013 208.7L65.3454 210.17L54.8683 216.896L53.6571 215.014L59.9473 206.757L49.8211 209.039L48.6099 207.157L59.0871 200.43L59.0927 200.434Z" fill="white"/>
<path d="M46.9025 203.866L43.5048 196.976L44.9502 196.261L47.5596 201.555L50.9798 199.87L48.5143 194.865L49.9432 194.16L52.4087 199.164L55.829 197.479L53.2196 192.186L54.6651 191.471L58.064 198.365L46.8981 203.867L46.9025 203.866Z" fill="white"/>
<path d="M50.7687 191.414L50.36 191.571L49.7608 189.99L50.1695 189.834C51.5172 189.321 51.8784 188.189 51.2653 186.574C50.7 185.084 49.7252 184.439 48.5886 184.872L48.3953 184.947C47.474 185.299 47.131 186.055 47.2755 187.444L47.4713 189.237C47.7014 191.282 47.062 192.597 45.6117 193.152L45.362 193.247C43.4454 193.974 41.5774 192.9 40.6747 190.522C39.7581 188.111 40.4494 186.246 42.5593 185.443L42.968 185.287L43.5671 186.867L43.1584 187.024C41.9013 187.503 41.5609 188.482 42.1553 190.045C42.6822 191.427 43.6252 192.043 44.6548 191.653L44.8481 191.577C45.6446 191.274 45.9854 190.456 45.8683 189.24L45.7041 187.476C45.4983 185.221 46.086 183.943 47.6491 183.349L47.8987 183.254C49.9402 182.479 51.8306 183.567 52.7612 186.012C53.758 188.635 53.0432 190.553 50.7731 191.413L50.7687 191.414Z" fill="white"/>
<path d="M38.4924 183.582L36.3836 176.19L37.9348 175.746L39.5544 181.418L43.2222 180.374L41.69 175.01L43.2235 174.571L44.7556 179.935L48.4222 178.886L46.8026 173.213L48.3538 172.769L50.4626 180.161L38.4912 183.577L38.4924 183.582Z" fill="white"/>
<path d="M44.5723 172.008L44.1423 172.085L43.8486 170.422L44.2786 170.345C45.6963 170.093 46.2657 169.049 45.9614 167.346C45.6838 165.779 44.8441 164.965 43.6481 165.176L43.4441 165.212C42.4754 165.386 41.9976 166.064 41.8765 167.454L41.7322 169.253C41.5743 171.302 40.7081 172.479 39.173 172.752L38.9103 172.799C36.8952 173.159 35.2562 171.752 34.8127 169.247C34.3597 166.707 35.3883 165.003 37.6118 164.606L38.0418 164.529L38.3355 166.192L37.9055 166.269C36.5787 166.506 36.0658 167.407 36.358 169.046C36.616 170.505 37.4317 171.283 38.5147 171.092L38.7186 171.057C39.561 170.907 40.0455 170.165 40.1574 168.954L40.3256 167.191C40.5423 164.936 41.359 163.787 43.0039 163.498L43.2666 163.452C45.4136 163.071 47.0751 164.49 47.5331 167.067C48.0221 169.831 46.9676 171.579 44.5767 172.007L44.5723 172.008Z" fill="white"/>
<path d="M41.4988 156.111L37.7826 156.195C35.0332 156.258 33.1306 154.381 33.0658 151.519C33.0025 148.75 34.7603 146.775 37.3585 146.715L37.8164 146.706L37.8572 148.47L37.4037 148.477C35.6779 148.518 34.6784 149.639 34.7208 151.498C34.7638 153.393 35.8866 154.45 37.807 154.409L41.3909 154.327C43.3057 154.284 44.3666 153.179 44.3236 151.283C44.2815 149.443 43.2337 148.348 41.5066 148.384L41.0343 148.392L40.9935 146.628L41.4703 146.619C44.0685 146.559 45.9147 148.455 45.978 151.224C46.0428 154.086 44.2469 156.043 41.512 156.107L41.4988 156.111Z" fill="white"/>
<path d="M41.3427 144.319L37.6597 143.996C34.9185 143.753 33.235 141.685 33.4811 138.867C33.7325 136.033 35.7698 134.287 38.4909 134.526L42.1739 134.849C44.895 135.087 46.5794 137.141 46.3283 139.994C46.0769 142.827 44.0582 144.555 41.3371 144.316L41.3427 144.319ZM41.9655 136.603L38.4127 136.288C36.5033 136.121 35.2908 137.139 35.1278 139.009C34.9643 140.861 35.9816 142.055 37.8923 142.226L41.4451 142.541C43.3356 142.708 44.5283 141.705 44.6917 139.854C44.8551 138.002 43.8215 136.765 41.9667 136.608L41.9655 136.603Z" fill="white"/>
<path d="M49.1874 121.8L48.8236 123.506L39.9726 121.622L48.1511 126.68L47.8193 128.24L38.2544 129.517L47.1456 131.41L46.7818 133.116L34.6093 130.522L35.076 128.333L45.352 126.894L36.5512 121.39L37.018 119.201L49.1906 121.795L49.1874 121.8Z" fill="white"/>
<path d="M39.8968 110.112L41.4339 106.251C42.4856 103.606 44.8068 102.548 47.2926 103.537L50.6066 104.856C53.0924 105.846 54.0527 108.207 53.001 110.852L51.4639 114.713L39.8968 110.112ZM51.5214 110.2C52.2019 108.49 51.6016 107.17 49.9116 106.494L46.6826 105.21C44.9893 104.539 43.6245 105.094 42.9493 106.789L42.0501 109.046L50.621 112.453L51.5202 110.196L51.5214 110.2Z" fill="white"/>
<path d="M44.6196 98.8208L48.1467 91.9922L49.5789 92.733L46.8699 97.9759L50.2568 99.7255L52.8149 94.7697L54.2302 95.5008L51.6721 100.457L55.0589 102.206L57.7678 96.9632L59.2 97.704L55.6773 104.531L44.6196 98.8208Z" fill="white"/>
<path d="M56.9244 94.5416L56.5581 94.3076L57.4724 92.8859L57.8388 93.1199C59.0537 93.8999 60.1757 93.5186 61.1095 92.0632C61.9697 90.7224 61.9078 89.5528 60.8873 88.8963L60.7097 88.7825C59.8792 88.2506 59.0672 88.4255 58.0336 89.3667L56.7057 90.5908C55.1973 91.9914 53.761 92.2624 52.4495 91.4229L52.2258 91.2788C50.5007 90.1705 50.2546 88.0301 51.626 85.8881C53.0225 83.7156 54.9331 83.161 56.8314 84.3842L57.1977 84.6181L56.2834 86.0399L55.917 85.8059C54.7831 85.0801 53.7932 85.388 52.8942 86.7961C52.0936 88.0403 52.1625 89.1653 53.0864 89.7623L53.264 89.8761C53.981 90.3387 54.8434 90.1219 55.7491 89.3051L57.07 88.1256C58.7589 86.6197 60.1382 86.3308 61.543 87.2354L61.7667 87.3795C63.6009 88.5582 63.8553 90.7296 62.4426 92.9301C60.9259 95.2914 58.9622 95.8603 56.9168 94.5484L56.9244 94.5416Z" fill="white"/>
<path d="M62.1887 85.0411L59.2848 82.7208C57.1358 81.0049 56.8788 78.3455 58.6654 76.1065C60.3955 73.9395 63.0105 73.552 65.04 75.1766L65.3961 75.4607L64.2942 76.8378L63.9381 76.5536C62.587 75.478 61.0988 75.6964 59.9415 77.15C58.7591 78.6341 58.9416 80.1652 60.4392 81.3629L63.2407 83.6015C64.7383 84.7992 66.2573 84.6247 67.4409 83.1451C68.5885 81.7083 68.4863 80.1936 67.1396 79.1168L66.7711 78.8217L67.873 77.4446L68.2415 77.7397C70.2755 79.3631 70.4744 82.0001 68.7476 84.1614C66.9609 86.4005 64.3264 86.7505 62.1899 85.0455L62.1887 85.0411Z" fill="white"/>
<path d="M69.6181 75.9001L66.9928 73.2917C65.0402 71.3523 65.0742 68.6814 67.0705 66.6756C69.0777 64.6574 71.7586 64.6223 73.6987 66.5507L76.324 69.1592C78.263 71.0832 78.2399 73.7417 76.2218 75.7723C74.2147 77.7905 71.5571 77.8241 69.6225 75.8989L69.6181 75.9001ZM75.0404 70.3714L72.5111 67.8559C71.1521 66.5024 69.5691 66.509 68.2463 67.8409C66.9344 69.1604 66.9519 70.7309 68.3098 72.08L70.8391 74.5955C72.1845 75.9336 73.7398 75.9297 75.0517 74.6102C76.3635 73.2908 76.3598 71.6833 75.0404 70.3714Z" fill="white"/>
<path d="M79.9495 55.6852L87.7722 65.3657L86.3255 66.5362L76.6255 62.5638L82.3978 69.7096L81.0411 70.8085L73.2184 61.128L74.6651 59.9575L84.3866 63.9574L78.5928 56.7841L79.9495 55.6852Z" fill="white"/>
<path d="M85.7869 53.618L82.8072 55.5837L81.9196 54.2367L89.336 49.3504L90.2236 50.6974L87.2592 52.6494L93.2235 61.6986L91.7512 62.6672L85.7869 53.618Z" fill="white"/>
<path d="M94.6412 55.5681L92.9063 52.2988C91.6148 49.8692 92.4381 47.3284 94.9338 46.0001C97.4472 44.6671 100.022 45.4242 101.3 47.8385L103.035 51.1078C104.318 53.5209 103.511 56.0526 100.982 57.3992C98.4687 58.7322 95.9191 57.9824 94.6412 55.5681ZM101.451 51.8882L99.777 48.7402C98.8781 47.0499 97.3627 46.5829 95.7055 47.4635C94.0648 48.3349 93.6143 49.8411 94.5132 51.5314L96.1871 54.6794C97.0768 56.3531 98.5653 56.8084 100.206 55.937C101.847 55.0656 102.321 53.5245 101.45 51.8838L101.451 51.8882Z" fill="white"/>
<path d="M110.506 46.4773C110.029 45.1391 110.669 43.8809 111.99 43.4085C113.31 42.936 114.602 43.5057 115.079 44.844C115.576 46.2386 114.925 47.4569 113.6 47.9306C112.279 48.403 110.999 47.8732 110.502 46.4785L110.506 46.4773Z" fill="white"/>
</svg>
