<svg width="327" height="154" viewBox="0 0 327 154" fill="none" xmlns="http://www.w3.org/2000/svg">
<path d="M1.00006 76.5976L1.00007 140.487L17.2356 153L17.2356 76.5976" stroke="#C3D600" stroke-width="1.5" stroke-linecap="round" stroke-linejoin="round"/>
<path d="M33.4765 76.5976L33.4765 153L49.7161 140.487L49.7161 140.209L49.7161 76.5976" stroke="#C3D600" stroke-width="1.5" stroke-linecap="round" stroke-linejoin="round"/>
<path d="M17.2383 76.5976L17.2383 153L33.4778 153L33.4778 76.5976" stroke="#C3D600" stroke-width="1.5" stroke-linecap="round" stroke-linejoin="round"/>
<path d="M65.9492 76.5976L65.9492 140.209L65.9492 140.487L82.1887 153L82.1887 76.5976" stroke="#C3D600" stroke-width="1.5" stroke-linecap="round" stroke-linejoin="round"/>
<path d="M98.4258 76.5976L98.4258 153L114.665 140.487L114.665 140.209L114.665 76.5976" stroke="#C3D600" stroke-width="1.5" stroke-linecap="round" stroke-linejoin="round"/>
<path d="M82.1876 76.5976L82.1876 153L98.4231 153L98.4231 76.5976" stroke="#C3D600" stroke-width="1.5" stroke-linecap="round" stroke-linejoin="round"/>
<path d="M49.7149 76.5973L49.7149 140.209L65.9504 140.209L65.9504 76.5973" stroke="#C3D600" stroke-width="1.5" stroke-linecap="round" stroke-linejoin="round"/>
<path d="M130.906 76.5976L130.906 140.209L130.906 140.487L147.142 153L147.142 76.5976" stroke="#C3D600" stroke-width="1.5" stroke-linecap="round" stroke-linejoin="round"/>
<path d="M163.379 76.5976L163.379 153L179.615 140.487L179.615 140.209L179.614 76.5976" stroke="#C3D600" stroke-width="1.5" stroke-linecap="round" stroke-linejoin="round"/>
<path d="M147.141 76.5976L147.141 153L163.38 153L163.38 76.5976" stroke="#C3D600" stroke-width="1.5" stroke-linecap="round" stroke-linejoin="round"/>
<path d="M114.664 76.5973L114.664 140.209L130.904 140.209L130.904 76.5973" stroke="#C3D600" stroke-width="1.5" stroke-linecap="round" stroke-linejoin="round"/>
<path d="M195.855 76.5976L195.855 140.209L195.855 140.487L212.095 153L212.095 76.5976" stroke="#C3D600" stroke-width="1.5" stroke-linecap="round" stroke-linejoin="round"/>
<path d="M228.328 76.5976L228.328 153L244.567 140.487L244.567 140.209L244.567 76.5976" stroke="#C3D600" stroke-width="1.5" stroke-linecap="round" stroke-linejoin="round"/>
<path d="M212.094 76.5976L212.094 153L228.329 153L228.329 76.5976" stroke="#C3D600" stroke-width="1.5" stroke-linecap="round" stroke-linejoin="round"/>
<path d="M179.617 76.5973L179.617 140.209L195.857 140.209L195.857 76.5973" stroke="#C3D600" stroke-width="1.5" stroke-linecap="round" stroke-linejoin="round"/>
<path d="M260.809 76.5976L260.809 140.209L260.809 140.487L277.044 153L277.044 76.5976" stroke="#C3D600" stroke-width="1.5" stroke-linecap="round" stroke-linejoin="round"/>
<path d="M293.281 76.5976L293.281 153L309.517 140.487L309.517 140.209L309.517 76.5976" stroke="#C3D600" stroke-width="1.5" stroke-linecap="round" stroke-linejoin="round"/>
<path d="M277.043 76.5976L277.043 153L293.282 153L293.282 76.5976" stroke="#C3D600" stroke-width="1.5" stroke-linecap="round" stroke-linejoin="round"/>
<path d="M244.566 76.5973L244.566 140.209L260.806 140.209L260.806 76.5973" stroke="#C3D600" stroke-width="1.5" stroke-linecap="round" stroke-linejoin="round"/>
<path d="M309.52 76.5992L309.52 140.211L325.759 140.211L325.759 76.5992" stroke="#C3D600" stroke-width="1.5" stroke-linecap="round" stroke-linejoin="round"/>
<path d="M325.759 77.4023L325.759 13.7876L325.759 13.5101L309.52 0.999994L309.52 77.4023" stroke="#C3D600" stroke-width="1.5" stroke-linecap="round" stroke-linejoin="round"/>
<path d="M293.286 77.4023L293.286 0.999993L277.047 13.5101L277.047 13.7876L277.047 77.4023" stroke="#C3D600" stroke-width="1.5" stroke-linecap="round" stroke-linejoin="round"/>
<path d="M309.517 77.4023L309.517 0.999993L293.281 0.999994L293.281 77.4023" stroke="#C3D600" stroke-width="1.5" stroke-linecap="round" stroke-linejoin="round"/>
<path d="M260.81 77.4023L260.81 13.7876L260.81 13.5101L244.57 0.999994L244.57 77.4023" stroke="#C3D600" stroke-width="1.5" stroke-linecap="round" stroke-linejoin="round"/>
<path d="M228.333 77.4023L228.333 0.999993L212.098 13.5101L212.098 13.7876L212.098 77.4023" stroke="#C3D600" stroke-width="1.5" stroke-linecap="round" stroke-linejoin="round"/>
<path d="M244.567 77.4023L244.567 0.999993L228.328 0.999994L228.328 77.4023" stroke="#C3D600" stroke-width="1.5" stroke-linecap="round" stroke-linejoin="round"/>
<path d="M277.044 77.4023L277.044 13.7876L260.809 13.7876L260.809 77.4023" stroke="#C3D600" stroke-width="1.5" stroke-linecap="round" stroke-linejoin="round"/>
<path d="M195.857 77.4023L195.857 13.7876L195.857 13.5101L179.617 0.999994L179.617 77.4023" stroke="#C3D600" stroke-width="1.5" stroke-linecap="round" stroke-linejoin="round"/>
<path d="M163.38 77.4023L163.38 0.999993L147.141 13.5101L147.141 13.7876L147.141 77.4023" stroke="#C3D600" stroke-width="1.5" stroke-linecap="round" stroke-linejoin="round"/>
<path d="M179.615 77.4023L179.614 0.999993L163.379 0.999994L163.379 77.4023" stroke="#C3D600" stroke-width="1.5" stroke-linecap="round" stroke-linejoin="round"/>
<path d="M212.095 77.4023L212.095 13.7876L195.855 13.7876L195.855 77.4023" stroke="#C3D600" stroke-width="1.5" stroke-linecap="round" stroke-linejoin="round"/>
<path d="M130.904 77.4023L130.904 13.7876L130.904 13.5101L114.664 0.999994L114.664 77.4023" stroke="#C3D600" stroke-width="1.5" stroke-linecap="round" stroke-linejoin="round"/>
<path d="M98.4231 77.4023L98.4231 0.999993L82.1876 13.5101L82.1876 13.7876L82.1876 77.4023" stroke="#C3D600" stroke-width="1.5" stroke-linecap="round" stroke-linejoin="round"/>
<path d="M114.665 77.4023L114.665 0.999993L98.4258 0.999994L98.4258 77.4023" stroke="#C3D600" stroke-width="1.5" stroke-linecap="round" stroke-linejoin="round"/>
<path d="M147.138 77.4023L147.138 13.7876L130.902 13.7876L130.902 77.4023" stroke="#C3D600" stroke-width="1.5" stroke-linecap="round" stroke-linejoin="round"/>
<path d="M65.9504 77.4023L65.9504 13.7876L65.9504 13.5101L49.7149 0.999994L49.7149 77.4023" stroke="#C3D600" stroke-width="1.5" stroke-linecap="round" stroke-linejoin="round"/>
<path d="M33.4739 77.4023L33.4739 0.999993L17.2344 13.5101L17.2344 13.7876L17.2344 77.4023" stroke="#C3D600" stroke-width="1.5" stroke-linecap="round" stroke-linejoin="round"/>
<path d="M49.7161 77.4023L49.7161 0.999993L33.4765 0.999994L33.4765 77.4023" stroke="#C3D600" stroke-width="1.5" stroke-linecap="round" stroke-linejoin="round"/>
<path d="M82.1887 77.4023L82.1887 13.7876L65.9492 13.7876L65.9492 77.4023" stroke="#C3D600" stroke-width="1.5" stroke-linecap="round" stroke-linejoin="round"/>
<path d="M17.2356 77.4023L17.2356 13.7876L1.00006 13.7876L1.00007 77.4023" stroke="#C3D600" stroke-width="1.5" stroke-linecap="round" stroke-linejoin="round"/>
</svg>
