<svg width="136" height="136" viewBox="0 0 136 136" fill="none" xmlns="http://www.w3.org/2000/svg">
<path d="M82.8865 1.78711L87.6554 3.0859L87.2767 4.48519L84.0382 3.60387L83.6053 5.18097L86.6274 6.00044L86.2487 7.392L83.2266 6.57253L82.7938 8.14963L86.0245 9.03095L85.6458 10.4302L80.877 9.13145L82.8711 1.78711L82.8865 1.78711Z" fill="white" fill-opacity="0.5"/>
<path d="M87.1061 8.45028L87.1988 8.21062L88.6133 8.75179L88.5205 8.99144C88.2732 9.64084 88.5669 10.1356 89.3321 10.4371C90.0431 10.7077 90.561 10.5995 90.7542 10.0892L90.7929 9.98873C90.9474 9.58672 90.7929 9.2311 90.2827 8.86002L89.3089 8.14105C88.3041 7.39888 87.9408 6.52529 88.2964 5.60532L88.3582 5.4507C88.8297 4.22922 90.1591 3.80402 91.6817 4.39157C93.243 4.98685 93.8536 6.11555 93.3435 7.453L93.2507 7.69265L91.844 7.15149L91.9368 6.91184C92.1532 6.34748 91.9136 5.94547 91.1639 5.65943C90.5146 5.41204 90.0277 5.52028 89.8576 5.96094L89.819 6.06144C89.6876 6.39387 89.8731 6.76495 90.3137 7.09738L91.2798 7.82408C92.3619 8.63582 92.7097 9.47849 92.331 10.4526L92.2691 10.6072C91.759 11.9292 90.4373 12.3621 88.8374 11.7514C87.1447 11.102 86.5418 9.93461 87.1061 8.45801V8.45028Z" fill="white" fill-opacity="0.5"/>
<path d="M95.7419 6.20052L98.5398 7.63073C99.9542 8.35744 100.395 9.58665 99.7455 10.8391L99.6682 10.9859C99.019 12.2538 97.7746 12.6249 96.3525 11.8905L94.9689 11.1792L93.6859 13.684L92.2715 12.9573L95.7341 6.18506L95.7419 6.20052ZM96.9708 10.5762C97.5659 10.8854 97.9988 10.7617 98.2538 10.2592L98.3311 10.1123C98.5862 9.61757 98.4161 9.19237 97.8365 8.89087L96.507 8.21055L95.6491 9.89588L96.9785 10.5762H96.9708Z" fill="white" fill-opacity="0.5"/>
<path d="M102.409 18.5217L102.277 18.7305L100.917 17.8646L101.342 16.4576L99.2861 15.1511L98.1963 16.1329L96.8359 15.267L96.9673 15.0583L102.857 10.0796L104.418 11.0769L102.401 18.5217H102.409ZM101.759 15.0815L102.656 12.1437L100.376 14.1924L101.767 15.0737L101.759 15.0815Z" fill="white" fill-opacity="0.5"/>
<path d="M108.77 18.0344L108.994 17.7561C109.52 17.0912 109.404 16.3877 108.67 15.8002C107.928 15.2049 107.178 15.2667 106.591 16.0089L105.323 17.5937C104.736 18.3282 104.836 19.0626 105.586 19.6579C106.32 20.2454 107.039 20.199 107.572 19.5342L107.765 19.2868L109.025 20.2918L108.847 20.516C107.951 21.6447 106.606 21.8921 105.354 21.2504L103.754 22.4178L102.494 21.4128L104.094 20.2377C103.19 19.1399 103.136 17.7561 104.025 16.6351L105.377 14.942C106.436 13.62 108.16 13.4964 109.605 14.6483C111.035 15.7924 111.29 17.4468 110.239 18.7688L110.038 19.0239L108.778 18.0189L108.77 18.0344Z" fill="white" fill-opacity="0.5"/>
<path d="M109.644 21.2064L111.175 19.6834C112.357 18.5083 114.089 18.5547 115.387 19.8613C116.701 21.1832 116.732 22.9072 115.549 24.0823L114.019 25.6053C112.837 26.7804 111.121 26.7495 109.799 25.4198C108.493 24.1055 108.462 22.3815 109.644 21.2064ZM112.937 24.4302L114.367 23.0077C115.032 22.3429 115.024 21.5852 114.351 20.8972C113.679 20.2246 112.922 20.2091 112.257 20.874L110.827 22.2965C110.17 22.9536 110.178 23.6958 110.85 24.3761C111.515 25.0409 112.311 25.0564 112.937 24.4225V24.4302Z" fill="white" fill-opacity="0.5"/>
<path d="M114.368 26.6326L114.569 26.4702L115.512 27.6608L115.311 27.8231C114.77 28.2561 114.77 28.8359 115.28 29.4775C115.759 30.0728 116.254 30.2429 116.687 29.9027L116.772 29.8409C117.104 29.5703 117.151 29.1838 116.903 28.6117L116.432 27.4907C115.945 26.3388 116.076 25.4034 116.849 24.7926L116.973 24.6921C118.001 23.8727 119.353 24.1896 120.374 25.4652C121.409 26.7717 121.363 28.0551 120.25 28.9441L120.049 29.1065L119.114 27.9236L119.315 27.7613C119.786 27.3825 119.778 26.9186 119.284 26.2924C118.851 25.7513 118.372 25.5966 118.001 25.8904L117.916 25.9523C117.637 26.1765 117.607 26.5862 117.815 27.0964L118.271 28.2097C118.789 29.4544 118.665 30.3589 117.846 31.0083L117.722 31.1088C116.617 31.9901 115.257 31.6963 114.19 30.3511C113.062 28.9364 113.131 27.6221 114.376 26.6326H114.368Z" fill="white" fill-opacity="0.5"/>
<path d="M124.732 31.8813L125.559 33.2497L119.058 37.2002L118.231 35.8318L124.732 31.8813Z" fill="white" fill-opacity="0.5"/>
<path d="M128.997 39.7442L122.203 43.1613L121.461 41.6924L124.491 37.4172L120.356 39.4968L119.668 38.1285L126.462 34.7114L127.196 36.1726L124.12 40.4864L128.301 38.3759L128.989 39.7442H128.997Z" fill="white" fill-opacity="0.5"/>
<path d="M128.875 43.315L128.195 41.5292L129.548 41.0112L131.472 46.0827L130.12 46.6007L129.44 44.8148L123.681 47.0027L123.109 45.5029L128.868 43.315H128.875Z" fill="white" fill-opacity="0.5"/>
<path d="M131.866 47.3281L133.172 52.0904L131.773 52.4769L130.885 49.2454L129.308 49.6783L130.135 52.7011L128.751 53.0799L127.924 50.0571L126.348 50.4901L127.236 53.7216L125.837 54.1081L124.531 49.3459L131.866 47.3359V47.3281Z" fill="white" fill-opacity="0.5"/>
<path d="M133.513 53.6777L133.783 55.2471L127.724 56.2985L128.311 59.6692L126.874 59.9166L126.016 54.9765L133.513 53.6777Z" fill="white" fill-opacity="0.5"/>
<path d="M134.455 59.7515L134.617 61.344L127.05 62.1171L126.888 60.5246L134.455 59.7515Z" fill="white" fill-opacity="0.5"/>
<path d="M132.26 67.6143H132.446C133.126 67.5989 133.582 66.9959 133.559 66.1223C133.535 65.1173 132.994 64.5452 132.067 64.5684L130.026 64.6148C129.076 64.6379 128.581 65.1946 128.596 66.2228C128.612 66.8722 128.828 67.3901 129.23 67.7303L130.003 67.7148L129.957 65.6584L131.348 65.6275L131.425 69.2301L127.337 69.3151L127.306 67.9932L127.769 67.9004C127.352 67.4674 127.143 66.9031 127.128 66.1609C127.089 64.2901 128.195 63.0376 129.91 63.0067L132.082 62.9603C133.798 62.9217 134.973 64.1741 135.012 66.0527C135.05 67.9236 134.045 69.1682 132.469 69.2069H132.283L132.252 67.6066L132.26 67.6143Z" fill="white" fill-opacity="0.5"/>
<path d="M134.857 70.9311L134.44 75.8557L132.994 75.732L133.28 72.3923L131.649 72.2531L131.387 75.3764L129.957 75.2527L130.22 72.1294L128.589 71.9903L128.303 75.33L126.857 75.2063L127.275 70.2817L134.857 70.9234V70.9311Z" fill="white" fill-opacity="0.5"/>
<path d="M133.155 83.0358L125.688 81.6056L125.998 79.9899L130.998 78.4437L126.454 77.5701L126.74 76.0703L134.206 77.5005L133.897 79.1086L128.834 80.6547L133.433 81.536L133.147 83.0358H133.155Z" fill="white" fill-opacity="0.5"/>
<path d="M130.883 85.7888L131.431 83.9565L132.815 84.374L131.254 89.5692L129.87 89.1517L130.419 87.3195L124.529 85.5491L124.993 84.0184L130.883 85.7888Z" fill="white" fill-opacity="0.5"/>
<path d="M130.807 90.7987L128.944 95.3754L127.6 94.8265L128.867 91.7264L127.352 91.108L126.17 94.0071L124.84 93.4659L126.023 90.5668L124.508 89.9483L123.24 93.0484L121.896 92.4995L123.758 87.9229L130.799 90.791L130.807 90.7987Z" fill="white" fill-opacity="0.5"/>
<path d="M123.681 94.1915L123.905 94.3075L123.194 95.6526L122.97 95.5367C122.359 95.212 121.826 95.4439 121.44 96.1706C121.084 96.8432 121.13 97.3689 121.61 97.624L121.702 97.6704C122.081 97.8714 122.46 97.7554 122.885 97.2993L123.72 96.418C124.585 95.5135 125.49 95.2584 126.363 95.7222L126.51 95.7995C127.669 96.4103 127.924 97.7864 127.159 99.232C126.379 100.709 125.181 101.172 123.921 100.508L123.697 100.392L124.4 99.062L124.624 99.1779C125.157 99.464 125.59 99.2707 125.961 98.5595C126.286 97.9487 126.239 97.4462 125.814 97.222L125.722 97.1756C125.405 97.0056 125.018 97.1447 124.632 97.5467L123.789 98.4126C122.854 99.3867 121.973 99.6263 121.053 99.1393L120.906 99.062C119.654 98.3971 119.384 97.0365 120.187 95.5212C121.038 93.9209 122.267 93.4648 123.666 94.207L123.681 94.1915Z" fill="white" fill-opacity="0.5"/>
<path d="M119.507 103.717C120.326 104.32 120.473 105.325 119.847 106.16C119.228 107.002 118.239 107.149 117.42 106.546C116.57 105.92 116.43 104.938 117.049 104.096C117.667 103.253 118.656 103.09 119.507 103.717Z" fill="white" fill-opacity="0.5"/>
<path d="M117.078 113.249L113.608 116.759L112.58 115.738L114.937 113.357L113.778 112.205L111.575 114.432L110.555 113.419L112.758 111.193L111.598 110.041L109.241 112.422L108.213 111.401L111.683 107.892L117.094 113.241L117.078 113.249Z" fill="white" fill-opacity="0.5"/>
<path d="M109.214 113.653L109.377 113.846L108.209 114.812L108.047 114.619C107.607 114.085 107.027 114.093 106.393 114.619C105.806 115.106 105.651 115.608 105.999 116.034L106.068 116.111C106.339 116.443 106.733 116.474 107.305 116.219L108.41 115.724C109.554 115.214 110.49 115.33 111.116 116.088L111.216 116.211C112.051 117.216 111.765 118.585 110.505 119.628C109.222 120.695 107.939 120.672 107.027 119.574L106.865 119.381L108.024 118.422L108.186 118.616C108.573 119.08 109.044 119.064 109.655 118.554C110.188 118.113 110.335 117.626 110.034 117.263L109.964 117.186C109.732 116.907 109.322 116.884 108.82 117.108L107.715 117.588C106.478 118.129 105.574 118.02 104.909 117.216L104.809 117.093C103.904 116.003 104.175 114.634 105.497 113.544C106.888 112.392 108.202 112.431 109.214 113.653Z" fill="white" fill-opacity="0.5"/>
<path d="M106.947 122.271L104.327 124.011C103.005 124.892 101.715 124.676 100.934 123.493L100.841 123.362C100.053 122.171 100.339 120.911 101.676 120.022L102.967 119.164L101.406 116.813L102.727 115.932L106.94 122.271H106.947ZM102.526 121.197C101.97 121.568 101.862 122.001 102.178 122.472L102.271 122.604C102.58 123.068 103.036 123.13 103.577 122.766L104.822 121.939L103.778 120.362L102.534 121.189L102.526 121.197Z" fill="white" fill-opacity="0.5"/>
<path d="M92.9333 122.047L92.8174 121.831L94.2395 121.073L95.2521 122.132L97.4007 120.981L97.0839 119.55L98.506 118.793L98.6219 119.009L100.075 126.585L98.4365 127.459L92.9333 122.047ZM96.2491 123.168L98.3669 125.387L97.6945 122.388L96.2414 123.161L96.2491 123.168Z" fill="white" fill-opacity="0.5"/>
<path d="M90.2296 127.83L90.361 128.163C90.6779 128.943 91.3503 129.191 92.2237 128.835C93.1048 128.48 93.4217 127.799 93.0585 126.918L92.2933 125.039C91.9377 124.166 91.2576 123.895 90.361 124.259C89.4876 124.614 89.1784 125.264 89.4953 126.044L89.6113 126.338L88.1196 126.941L88.0114 126.671C87.4703 125.341 87.9109 124.05 89.0857 123.269L88.8538 121.298L90.3455 120.695L90.5774 122.666C91.9764 122.411 93.213 123.052 93.7464 124.374L94.5579 126.385C95.1917 127.954 94.4497 129.516 92.7416 130.211C91.0412 130.899 89.4799 130.304 88.8461 128.735L88.7224 128.433L90.2141 127.83H90.2296Z" fill="white" fill-opacity="0.5"/>
<path d="M87.0594 127.042L87.6314 129.122C88.0719 130.73 87.1831 132.214 85.4054 132.701C83.6045 133.196 82.0896 132.369 81.649 130.761L81.0771 128.681C80.6365 127.073 81.5022 125.596 83.3185 125.094C85.1039 124.607 86.6189 125.426 87.0594 127.034V127.042ZM82.6384 128.31L83.1717 130.258C83.419 131.163 84.0837 131.534 85.0112 131.279C85.931 131.023 86.3097 130.366 86.0624 129.462L85.529 127.514C85.2817 126.617 84.6325 126.261 83.705 126.509C82.8007 126.756 82.3988 127.444 82.6384 128.302V128.31Z" fill="white" fill-opacity="0.5"/>
<path d="M80.0036 128.479L80.0422 128.734L78.5428 128.974L78.5041 128.719C78.3959 128.031 77.8935 127.745 77.082 127.876C76.3245 128 75.9381 128.356 76.0231 128.889L76.0385 128.99C76.1081 129.415 76.425 129.647 77.0433 129.709L78.2491 129.848C79.4934 129.995 80.2432 130.567 80.3977 131.541L80.4209 131.703C80.6296 132.994 79.6867 134.03 78.0713 134.285C76.425 134.548 75.3275 133.876 75.1033 132.469L75.0647 132.213L76.5564 131.981L76.595 132.237C76.6878 132.832 77.0974 133.064 77.8935 132.932C78.5814 132.824 78.9524 132.484 78.8751 132.012L78.8597 131.912C78.8056 131.556 78.4655 131.332 77.909 131.262L76.711 131.108C75.3738 130.946 74.6473 130.389 74.485 129.361L74.4618 129.198C74.2376 127.799 75.1651 126.763 76.8655 126.493C78.651 126.207 79.764 126.91 80.0113 128.487L80.0036 128.479Z" fill="white" fill-opacity="0.5"/>
<path d="M70.3113 134.919L68.7114 134.966L68.4795 127.358L70.0794 127.312L70.3113 134.919Z" fill="white" fill-opacity="0.5"/>
<path d="M61.3838 134.765L61.7471 127.165L63.3934 127.242L65.6271 131.981L65.8512 127.358L67.3816 127.428L67.0183 135.027L65.3875 134.95L63.146 130.149L62.9219 134.826L61.3915 134.757L61.3838 134.765Z" fill="white" fill-opacity="0.5"/>
<path d="M58.3538 132.909L60.2474 133.195L60.031 134.625L54.667 133.821L54.8834 132.391L56.777 132.677L57.6891 126.585L59.2735 126.825L58.3615 132.917L58.3538 132.909Z" fill="white" fill-opacity="0.5"/>
<path d="M53.3926 133.551L48.6006 132.353L48.9484 130.946L52.2024 131.758L52.5965 130.173L49.559 129.415L49.9068 128.024L52.9443 128.781L53.3385 127.196L50.0846 126.385L50.4324 124.978L55.2244 126.176L53.3849 133.559L53.3926 133.551Z" fill="white" fill-opacity="0.5"/>
<path d="M47.062 131.874L45.5625 131.34L47.6107 125.542L44.3877 124.398L44.8746 123.022L49.5971 124.692L47.062 131.866V131.874Z" fill="white" fill-opacity="0.5"/>
<path d="M41.2957 129.716L39.8271 129.075L42.857 122.102L44.3255 122.743L41.2957 129.716Z" fill="white" fill-opacity="0.5"/>
<path d="M35.5129 123.934L35.4278 124.096C35.1032 124.699 35.4046 125.387 36.1698 125.797C37.0587 126.276 37.8239 126.075 38.2567 125.263L39.2228 123.462C39.6711 122.627 39.4315 121.916 38.5272 121.429C37.9553 121.119 37.3988 121.058 36.9041 121.243L36.5331 121.931L38.3417 122.905L37.6847 124.135L34.5081 122.426L36.4404 118.816L37.6074 119.442L37.4606 119.89C38.0403 119.743 38.6354 119.836 39.2847 120.184C40.931 121.065 41.472 122.65 40.6604 124.165L39.6325 126.075C38.8209 127.59 37.1514 127.992 35.4974 127.103C33.8511 126.222 33.256 124.73 34.0057 123.338L34.0907 123.176L35.4974 123.934H35.5129Z" fill="white" fill-opacity="0.5"/>
<path d="M31.3496 124.551L27.2764 121.76L28.0957 120.562L30.8627 122.456L31.7824 121.103L29.2009 119.333L30.0125 118.142L32.594 119.913L33.5138 118.56L30.7467 116.666L31.566 115.468L35.6393 118.258L31.3419 124.536L31.3496 124.551Z" fill="white" fill-opacity="0.5"/>
<path d="M21.6425 117.108L26.5737 111.31L27.8258 112.377L26.6973 117.495L29.6962 113.969L30.8633 114.959L25.9322 120.757L24.6878 119.698L25.8394 114.526L22.8019 118.098L21.6348 117.108H21.6425Z" fill="white" fill-opacity="0.5"/>
<path d="M20.3892 113.797L21.7109 115.181L20.6675 116.186L16.9111 112.274L17.9546 111.269L19.2762 112.653L23.7128 108.385L24.818 109.537L20.3815 113.805L20.3892 113.797Z" fill="white" fill-opacity="0.5"/>
<path d="M16.0606 111.272L12.9922 107.406L14.1284 106.502L16.2075 109.13L17.4905 108.117L15.5428 105.667L16.6712 104.77L18.619 107.221L19.902 106.208L17.8229 103.579L18.9591 102.675L22.0275 106.54L16.0684 111.272H16.0606Z" fill="white" fill-opacity="0.5"/>
<path d="M16.6005 103.391L16.3841 103.531L15.5648 102.255L15.7812 102.116C16.3686 101.737 16.4227 101.165 15.9822 100.477C15.5648 99.8353 15.0856 99.6188 14.6296 99.9126L14.5446 99.9667C14.1813 100.199 14.0963 100.585 14.2895 101.18L14.6528 102.34C15.0238 103.538 14.7996 104.451 13.9649 104.984L13.8257 105.069C12.7205 105.78 11.4065 105.332 10.5177 103.956C9.61338 102.549 9.79115 101.281 10.9892 100.508L11.2056 100.369L12.0171 101.637L11.8007 101.776C11.2906 102.1 11.252 102.572 11.6848 103.245C12.0635 103.832 12.5195 104.033 12.9214 103.77L13.0065 103.716C13.3079 103.523 13.3775 103.121 13.2152 102.587L12.8751 101.428C12.4886 100.137 12.705 99.2477 13.5784 98.6911L13.7175 98.6061C14.9078 97.8407 16.2295 98.2736 17.157 99.7193C18.1309 101.242 17.9376 102.541 16.6005 103.399V103.391Z" fill="white" fill-opacity="0.5"/>
<path d="M10.3418 95.0832C9.4143 95.5007 8.47134 95.1373 8.04624 94.1864C7.62114 93.2355 7.97668 92.3001 8.90417 91.8826C9.87031 91.4497 10.7901 91.8131 11.2229 92.764C11.648 93.7149 11.3079 94.658 10.3495 95.0909L10.3418 95.0832Z" fill="white" fill-opacity="0.5"/>
<path d="M3.23052 88.2961L1.87793 83.5493L3.26917 83.1551L4.18894 86.3788L5.75795 85.9304L4.90001 82.9231L6.28352 82.5289L7.14146 85.5362L8.71047 85.0878L7.7907 81.864L9.18194 81.4697L10.5345 86.2165L3.2228 88.2961H3.23052Z" fill="white" fill-opacity="0.5"/>
<path d="M6.74604 81.2345L6.49098 81.2809L6.22819 79.7888L6.47552 79.7424C7.16341 79.6187 7.43393 79.1085 7.2948 78.3045C7.16341 77.5546 6.80014 77.168 6.2591 77.2608L6.15862 77.2763C5.73352 77.3536 5.50938 77.6705 5.45528 78.2967L5.33934 79.5105C5.21567 80.7552 4.65918 81.5128 3.68531 81.6906L3.523 81.7215C2.23224 81.9534 1.1888 81.0257 0.902828 79.4177C0.609121 77.771 1.2661 76.6655 2.66507 76.4181L2.9124 76.3717L3.17519 77.8561L2.92013 77.9025C2.32498 78.0107 2.10857 78.4204 2.24769 79.209C2.37136 79.897 2.71917 80.2527 3.18292 80.1753L3.28339 80.1599C3.63893 80.098 3.85535 79.7501 3.91718 79.2013L4.04858 78.003C4.1877 76.6578 4.72874 75.9234 5.75671 75.7456L5.91902 75.7146C7.31026 75.4672 8.36915 76.3718 8.67059 78.0648C8.98748 79.8429 8.29959 80.9716 6.73831 81.2499L6.74604 81.2345Z" fill="white" fill-opacity="0.5"/>
<path d="M0.361872 75.0365L0.137728 71.8978C0.0217914 70.3129 0.848807 69.3002 2.26323 69.1997H2.42555C3.8477 69.0837 4.80611 69.9573 4.92205 71.5576L5.03026 73.1115L7.84365 72.9105L7.95959 74.4954L0.369602 75.0365H0.361872ZM3.47671 71.72C3.43033 71.0474 3.10571 70.7459 2.54148 70.7845H2.37917C1.82267 70.8386 1.54443 71.202 1.5908 71.8514L1.69901 73.3435L3.58491 73.212L3.47671 71.72Z" fill="white" fill-opacity="0.5"/>
<path d="M7.45087 62.936H7.6982L7.65955 64.5517L6.2374 64.9151L6.18329 67.3503L7.58999 67.7755L7.55135 69.3835H7.31174L0 66.9174L0.0386456 65.0619L7.45087 62.9282V62.936ZM4.85388 65.2784L1.87818 66.036L4.81524 66.9251L4.85388 65.2784Z" fill="white" fill-opacity="0.5"/>
<path d="M3.74174 57.7422L3.3862 57.6958C2.54373 57.5876 2.01042 58.0592 1.88675 58.9869C1.76309 59.93 2.20365 60.533 3.1466 60.6567L5.15617 60.9118C6.08366 61.0278 6.66334 60.564 6.78701 59.6131C6.90295 58.6776 6.4933 58.0901 5.65083 57.9818L5.34167 57.9432L5.55035 56.3429L5.83633 56.3815C7.25849 56.5671 8.17052 57.5798 8.271 58.9869L10.1028 59.7445L9.89411 61.3448L8.06231 60.5872C7.59857 61.9323 6.4392 62.69 5.02477 62.5121L2.87608 62.2338C1.19886 62.0174 0.201805 60.6026 0.433679 58.7781C0.665552 56.9614 1.94859 55.8868 3.6258 56.1032L3.95043 56.1419L3.74174 57.7422Z" fill="white" fill-opacity="0.5"/>
<path d="M5.98991 55.3603L3.89532 54.8346C2.27221 54.4326 1.422 52.9251 1.86256 51.1393C2.31085 49.3302 3.77166 48.4103 5.39477 48.82L7.48936 49.338C9.11247 49.74 9.97041 51.2243 9.51439 53.0488C9.0661 54.8501 7.6053 55.7623 5.98991 55.3603ZM7.04107 50.8764L5.08561 50.3894C4.17357 50.1652 3.52432 50.5594 3.29245 51.4949C3.06058 52.4149 3.44703 53.072 4.35907 53.3039L6.31453 53.791C7.21111 54.0152 7.85263 53.6286 8.0845 52.6932C8.30865 51.7809 7.90673 51.0929 7.04107 50.8764Z" fill="white" fill-opacity="0.5"/>
<path d="M8.19099 48.4809L7.95139 48.3881L8.47697 46.9656L8.71657 47.0506C9.36582 47.2903 9.86048 46.9965 10.1465 46.2234C10.4092 45.5045 10.2933 44.9942 9.78319 44.801L9.68271 44.7623C9.2808 44.6154 8.92526 44.7778 8.56199 45.288L7.85091 46.2698C7.11665 47.2826 6.25099 47.6536 5.32349 47.3135L5.16891 47.2594C3.93998 46.8033 3.50715 45.4813 4.07137 43.9428C4.65106 42.3735 5.77178 41.755 7.10892 42.2498L7.34852 42.3425L6.82294 43.7573L6.58334 43.6645C6.01911 43.4558 5.6172 43.7032 5.33895 44.4531C5.09935 45.1025 5.21528 45.5972 5.65584 45.7596L5.75632 45.7982C6.0964 45.9219 6.45967 45.7364 6.78429 45.288L7.5031 44.3216C8.2992 43.2316 9.14167 42.876 10.1155 43.2393L10.2701 43.2934C11.5995 43.7882 12.0478 45.1025 11.4527 46.7105C10.8266 48.4035 9.66725 49.0297 8.17553 48.4731L8.19099 48.4809Z" fill="white" fill-opacity="0.5"/>
<path d="M7.33301 36.8898L8.075 35.4751L14.8071 39.0158L14.0651 40.4306L7.33301 36.8898Z" fill="white" fill-opacity="0.5"/>
<path d="M11.8553 29.1899L18.2936 33.2487L17.4125 34.6402L12.1876 34.2537L16.1063 36.7198L15.287 38.0186L8.84863 33.9599L9.72202 32.5761L15.001 32.9858L11.036 30.4887L11.8553 29.1899Z" fill="white" fill-opacity="0.5"/>
<path d="M14.9798 27.4677L13.7972 28.9752L12.6533 28.0784L16 23.8032L17.1439 24.7L15.9614 26.2075L20.8075 30.0034L19.8182 31.2635L14.9721 27.4677H14.9798Z" fill="white" fill-opacity="0.5"/>
<path d="M16.8643 22.8293L20.2573 19.2422L21.3085 20.2395L19.0052 22.6747L20.1955 23.8034L22.3519 21.5305L23.3954 22.5201L21.2389 24.793L22.4292 25.9217L24.7325 23.4864L25.7837 24.4837L22.3906 28.0709L16.8643 22.837V22.8293Z" fill="white" fill-opacity="0.5"/>
<path d="M21.4238 18.1511L22.6218 17.1074L26.6564 21.7382L29.238 19.4885L30.1964 20.5863L26.4246 23.8797L21.4238 18.1434V18.1511Z" fill="white" fill-opacity="0.5"/>
<path d="M26.1318 14.1851L27.4071 13.2188L31.9982 19.2875L30.7229 20.2539L26.1318 14.1851Z" fill="white" fill-opacity="0.5"/>
<path d="M34.0081 11.9817L33.9076 11.8271C33.5444 11.2473 32.7946 11.1777 32.0604 11.6415C31.2102 12.1827 31.0015 12.9403 31.5039 13.7289L32.6014 15.4529C33.1115 16.2569 33.8458 16.396 34.7192 15.8394C35.2679 15.4915 35.5926 15.0354 35.6776 14.5174L35.2602 13.8603L33.5289 14.9581L32.7869 13.783L35.8322 11.8503L38.0272 15.306L36.9142 16.0172L36.5974 15.6693C36.4428 16.2492 36.0718 16.7207 35.4457 17.115C33.869 18.1123 32.2227 17.8185 31.3029 16.3651L30.1435 14.5329C29.2238 13.0872 29.6875 11.4328 31.272 10.4201C32.8487 9.42278 34.4409 9.63151 35.2834 10.9612L35.3839 11.1158L34.0313 11.974L34.0081 11.9817Z" fill="white" fill-opacity="0.5"/>
<path d="M35.5156 8.04038L39.9444 5.85254L40.5859 7.15133L37.587 8.63566L38.3136 10.1045L41.1192 8.7207L41.753 10.0118L38.9474 11.3956L39.6739 12.8645L42.6728 11.3801L43.3143 12.6789L38.8855 14.8668L35.5234 8.04811L35.5156 8.04038Z" fill="white" fill-opacity="0.5"/>
<path d="M46.7623 3.23242L49.3902 10.368L47.8444 10.9401L43.9412 7.45349L45.5411 11.7905L44.1035 12.3162L41.4756 5.1806L43.006 4.61625L46.9401 8.157L45.317 3.76585L46.7546 3.23242H46.7623Z" fill="white" fill-opacity="0.5"/>
<path d="M50.2622 3.76499L48.4072 4.23657L48.0439 2.82955L53.2997 1.48438L53.663 2.8914L51.808 3.36298L53.3384 9.32349L51.7926 9.71777L50.2622 3.75726V3.76499Z" fill="white" fill-opacity="0.5"/>
<path d="M54.5977 1.23508L59.4747 0.469727L59.6989 1.89994L56.3908 2.41791L56.6459 4.03366L59.7375 3.54662L59.9617 4.9691L56.87 5.45615L57.1251 7.0719L60.4331 6.55393L60.6573 7.98415L55.7802 8.7495L54.6054 1.23508H54.5977Z" fill="white" fill-opacity="0.5"/>
<path d="M61.177 5.58912L61.1615 5.334L62.6764 5.24896L62.6919 5.50408C62.7305 6.19986 63.202 6.53229 64.0213 6.4859C64.7865 6.44725 65.2116 6.13028 65.1806 5.58139V5.48089C65.1497 5.05569 64.856 4.79284 64.2454 4.66142L63.0551 4.39857C61.8339 4.12799 61.146 3.47859 61.0919 2.49677V2.33442C61.0146 1.0279 62.0503 0.100195 63.6812 0.0074239C65.3507 -0.0853467 66.3709 0.695473 66.4482 2.11796L66.4637 2.37307L64.9565 2.45811L64.941 2.203C64.9101 1.59999 64.5237 1.32941 63.7198 1.37579C63.0242 1.41444 62.6223 1.71595 62.6455 2.18753V2.28803C62.6687 2.64366 62.9856 2.90651 63.5266 3.0302L64.7014 3.30078C66.0154 3.60229 66.6801 4.22849 66.7419 5.26443V5.42677C66.8269 6.84153 65.799 7.77696 64.0831 7.87746C62.2745 7.97797 61.2465 7.16622 61.1538 5.57366L61.177 5.58912Z" fill="white" fill-opacity="0.5"/>
<path d="M71.493 4.23019C71.5857 3.21744 72.3664 2.57578 73.4021 2.66855C74.4378 2.76132 75.0793 3.53441 74.9865 4.54716C74.8938 5.59856 74.1209 6.22476 73.0852 6.13199C72.0495 6.03922 71.3925 5.28159 71.4853 4.23019H71.493Z" fill="white" fill-opacity="0.5"/>
</svg>
