<svg width="424" height="131" viewBox="0 0 424 131" fill="none" xmlns="http://www.w3.org/2000/svg">
<g clip-path="url(#clip0_577_9453)">
<path d="M427.185 0.427131V-108.639L405.829 -130V0.427131" stroke="white" stroke-linecap="round" stroke-linejoin="round"/>
<path d="M384.468 0.427131V-130L363.106 -108.639V-108.165V0.427131" stroke="white" stroke-linecap="round" stroke-linejoin="round"/>
<path d="M405.829 0.427131V-130H384.468V0.427131" stroke="white" stroke-linecap="round" stroke-linejoin="round"/>
<path d="M341.75 0.427131V-108.165V-108.639L320.389 -130V0.427131" stroke="white" stroke-linecap="round" stroke-linejoin="round"/>
<path d="M299.033 0.427131V-130L277.672 -108.639V-108.165V0.427131" stroke="white" stroke-linecap="round" stroke-linejoin="round"/>
<path d="M320.389 0.427131V-130H299.033V0.427131" stroke="white" stroke-linecap="round" stroke-linejoin="round"/>
<path d="M363.107 0.427066V-108.165H341.751V0.427066" stroke="white" stroke-linecap="round" stroke-linejoin="round"/>
<path d="M256.31 0.427131V-108.165V-108.639L234.954 -130V0.427131" stroke="white" stroke-linecap="round" stroke-linejoin="round"/>
<path d="M213.592 0.427131V-130L192.236 -108.639V-108.165V0.427131" stroke="white" stroke-linecap="round" stroke-linejoin="round"/>
<path d="M234.954 0.427131V-130H213.593V0.427131" stroke="white" stroke-linecap="round" stroke-linejoin="round"/>
<path d="M277.672 0.427066V-108.165H256.311V0.427066" stroke="white" stroke-linecap="round" stroke-linejoin="round"/>
<path d="M170.875 0.427131V-108.165V-108.639L149.514 -130V0.427131" stroke="white" stroke-linecap="round" stroke-linejoin="round"/>
<path d="M128.157 0.427131V-130L106.796 -108.639V-108.165V0.427131" stroke="white" stroke-linecap="round" stroke-linejoin="round"/>
<path d="M149.513 0.427131V-130H128.157V0.427131" stroke="white" stroke-linecap="round" stroke-linejoin="round"/>
<path d="M192.236 0.427066V-108.165H170.875V0.427066" stroke="white" stroke-linecap="round" stroke-linejoin="round"/>
<path d="M85.4353 0.427131V-108.165V-108.639L64.0791 -130V0.427131" stroke="white" stroke-linecap="round" stroke-linejoin="round"/>
<path d="M42.7175 0.427131V-130L21.3613 -108.639V-108.165V0.427131" stroke="white" stroke-linecap="round" stroke-linejoin="round"/>
<path d="M64.0791 0.427131V-130H42.7178V0.427131" stroke="white" stroke-linecap="round" stroke-linejoin="round"/>
<path d="M106.796 0.427066V-108.165H85.4346V0.427066" stroke="white" stroke-linecap="round" stroke-linejoin="round"/>
<path d="M21.3614 0.427066V-108.165H0V0.427066" stroke="white" stroke-linecap="round" stroke-linejoin="round"/>
<path d="M0 -0.946777V107.651V108.124L21.3614 129.48V-0.946777" stroke="white" stroke-linecap="round" stroke-linejoin="round"/>
<path d="M42.7178 -0.946777V129.48L64.0791 108.124V107.651V-0.946777" stroke="white" stroke-linecap="round" stroke-linejoin="round"/>
<path d="M21.3613 -0.946777V129.48H42.7175V-0.946777" stroke="white" stroke-linecap="round" stroke-linejoin="round"/>
<path d="M85.4346 -0.946777V107.651V108.124L106.796 129.48V-0.946777" stroke="white" stroke-linecap="round" stroke-linejoin="round"/>
<path d="M128.157 -0.946777V129.48L149.513 108.124V107.651V-0.946777" stroke="white" stroke-linecap="round" stroke-linejoin="round"/>
<path d="M106.796 -0.946777V129.48H128.157V-0.946777" stroke="white" stroke-linecap="round" stroke-linejoin="round"/>
<path d="M64.0791 -0.946777V107.651H85.4353V-0.946777" stroke="white" stroke-linecap="round" stroke-linejoin="round"/>
<path d="M170.875 -0.946777V107.651V108.124L192.236 129.48V-0.946777" stroke="white" stroke-linecap="round" stroke-linejoin="round"/>
<path d="M213.593 -0.946777V129.48L234.954 108.124V107.651V-0.946777" stroke="white" stroke-linecap="round" stroke-linejoin="round"/>
<path d="M192.236 -0.946777V129.48H213.592V-0.946777" stroke="white" stroke-linecap="round" stroke-linejoin="round"/>
<path d="M149.514 -0.946777V107.651H170.875V-0.946777" stroke="white" stroke-linecap="round" stroke-linejoin="round"/>
<path d="M256.311 -0.946777V107.651V108.124L277.672 129.48V-0.946777" stroke="white" stroke-linecap="round" stroke-linejoin="round"/>
<path d="M299.033 -0.946777V129.48L320.389 108.124V107.651V-0.946777" stroke="white" stroke-linecap="round" stroke-linejoin="round"/>
<path d="M277.672 -0.946777V129.48H299.033V-0.946777" stroke="white" stroke-linecap="round" stroke-linejoin="round"/>
<path d="M234.954 -0.946777V107.651H256.31V-0.946777" stroke="white" stroke-linecap="round" stroke-linejoin="round"/>
<path d="M341.751 -0.946777V107.651V108.124L363.107 129.48V-0.946777" stroke="white" stroke-linecap="round" stroke-linejoin="round"/>
<path d="M384.468 -0.946777V129.48L405.829 108.124V107.651V-0.946777" stroke="white" stroke-linecap="round" stroke-linejoin="round"/>
<path d="M363.106 -0.946777V129.48H384.468V-0.946777" stroke="white" stroke-linecap="round" stroke-linejoin="round"/>
<path d="M320.389 -0.946777V107.651H341.75V-0.946777" stroke="white" stroke-linecap="round" stroke-linejoin="round"/>
<path d="M405.829 -0.946777V107.651H427.185V-0.946777" stroke="white" stroke-linecap="round" stroke-linejoin="round"/>
</g>
<defs>
<clipPath id="clip0_577_9453">
<rect width="424" height="131" fill="white"/>
</clipPath>
</defs>
</svg>
