<svg width="245" height="246" viewBox="0 0 245 246" fill="none" xmlns="http://www.w3.org/2000/svg">
<path d="M150.402 3.24268L159.055 5.59939L158.368 8.13847L152.491 6.53927L151.706 9.40099L157.19 10.888L156.502 13.413L151.019 11.926L150.233 14.7878L156.096 16.387L155.408 18.926L146.755 16.5693L150.374 3.24268H150.402Z" fill="#C4C4C4"/>
<path d="M158.058 15.3333L158.227 14.8984L160.793 15.8804L160.625 16.3153C160.176 17.4936 160.709 18.3914 162.097 18.9385C163.388 19.4295 164.327 19.2331 164.678 18.3073L164.748 18.1249C165.029 17.3954 164.748 16.7501 163.822 16.0768L162.055 14.7722C160.232 13.4255 159.573 11.8403 160.218 10.171L160.33 9.89043C161.186 7.67399 163.598 6.90245 166.361 7.96858C169.194 9.04874 170.302 11.0968 169.376 13.5237L169.208 13.9586L166.655 12.9766L166.824 12.5417C167.216 11.5177 166.782 10.7882 165.421 10.2692C164.243 9.82028 163.36 10.0167 163.051 10.8163L162.981 10.9986C162.743 11.6018 163.079 12.2752 163.879 12.8784L165.632 14.197C167.595 15.67 168.226 17.199 167.539 18.9666L167.427 19.2471C166.501 21.6459 164.103 22.4315 161.2 21.3233C158.128 20.1449 157.034 18.0267 158.058 15.3473V15.3333Z" fill="#C4C4C4"/>
<path d="M173.729 11.2512L178.806 13.8464C181.372 15.165 182.172 17.3955 180.993 19.668L180.853 19.9346C179.675 22.2352 177.417 22.9085 174.837 21.5758L172.326 20.2853L169.998 24.8304L167.431 23.5117L173.715 11.2231L173.729 11.2512ZM175.959 19.1911C177.038 19.7522 177.824 19.5278 178.287 18.6159L178.427 18.3494C178.89 17.4516 178.581 16.6801 177.529 16.133L175.117 14.8985L173.56 17.9566L175.973 19.1911H175.959Z" fill="#C4C4C4"/>
<path d="M185.826 33.6087L185.587 33.9874L183.119 32.4163L183.89 29.8632L180.16 27.4924L178.182 29.274L175.714 27.7029L175.952 27.3241L186.639 18.29L189.472 20.0997L185.812 33.6087H185.826ZM184.647 27.3662L186.274 22.0355L182.137 25.753L184.661 27.3522L184.647 27.3662Z" fill="#C4C4C4"/>
<path d="M197.369 32.724L197.775 32.219C198.729 31.0126 198.519 29.736 197.186 28.6699C195.84 27.5897 194.48 27.7019 193.414 29.0486L191.114 31.9244C190.048 33.257 190.23 34.5897 191.59 35.6699C192.923 36.736 194.227 36.6518 195.195 35.4454L195.545 34.9965L197.832 36.8202L197.509 37.227C195.882 39.2751 193.442 39.724 191.17 38.5596L188.267 40.6779L185.981 38.8542L188.884 36.722C187.243 34.73 187.145 32.219 188.757 30.1849L191.212 27.1128C193.133 24.714 196.261 24.4895 198.883 26.5797C201.478 28.6558 201.941 31.6578 200.033 34.0566L199.669 34.5196L197.383 32.6959L197.369 32.724Z" fill="#C4C4C4"/>
<path d="M198.955 38.4798L201.732 35.7163C203.878 33.584 207.02 33.6682 209.376 36.0389C211.76 38.4377 211.816 41.566 209.67 43.6983L206.893 46.4618C204.748 48.5941 201.634 48.5379 199.236 46.1251C196.866 43.7403 196.809 40.6121 198.955 38.4798ZM204.93 44.3295L207.524 41.7484C208.731 40.5419 208.717 39.1672 207.496 37.9187C206.276 36.6983 204.902 36.6702 203.696 37.8766L201.101 40.4578C199.909 41.6502 199.923 42.9969 201.143 44.2313C202.349 45.4377 203.794 45.4658 204.93 44.3155V44.3295Z" fill="#C4C4C4"/>
<path d="M207.527 48.3259L207.891 48.0313L209.602 50.1916L209.238 50.4862C208.256 51.2718 208.256 52.3239 209.182 53.4882C210.051 54.5684 210.949 54.877 211.734 54.2598L211.888 54.1475C212.491 53.6565 212.576 52.9551 212.127 51.9171L211.271 49.883C210.388 47.7928 210.626 46.0954 212.029 44.9872L212.253 44.8048C214.118 43.3179 216.573 43.893 218.424 46.2076C220.303 48.5784 220.219 50.907 218.2 52.5203L217.835 52.8149L216.138 50.6686L216.502 50.374C217.358 49.6866 217.344 48.8449 216.446 47.7087C215.661 46.7267 214.791 46.4461 214.118 46.9792L213.964 47.0914C213.459 47.4982 213.403 48.2417 213.782 49.1676L214.609 51.1876C215.549 53.4461 215.324 55.0874 213.838 56.2658L213.613 56.4481C211.608 58.0473 209.139 57.5143 207.204 55.0734C205.156 52.5062 205.283 50.1215 207.541 48.3259H207.527Z" fill="#C4C4C4"/>
<path d="M226.332 57.8501L227.832 60.3331L216.037 67.5014L214.537 65.0184L226.332 57.8501Z" fill="#C4C4C4"/>
<path d="M234.072 72.1176L221.744 78.318L220.397 75.6527L225.895 67.8952L218.392 71.6687L217.144 69.1858L229.471 62.9854L230.804 65.6367L225.222 73.4643L232.809 69.6347L234.058 72.1176H234.072Z" fill="#C4C4C4"/>
<path d="M233.85 78.5974L232.616 75.3569L235.07 74.417L238.562 83.6194L236.108 84.5593L234.874 81.3188L224.425 85.2887L223.387 82.5673L233.836 78.5974H233.85Z" fill="#C4C4C4"/>
<path d="M239.277 85.8794L241.648 94.5207L239.109 95.2221L237.496 89.3584L234.635 90.1439L236.136 95.6289L233.625 96.3163L232.125 90.8313L229.264 91.6169L230.877 97.4806L228.338 98.182L225.968 89.5407L239.277 85.8934V85.8794Z" fill="#C4C4C4"/>
<path d="M242.266 97.4004L242.756 100.248L231.761 102.156L232.827 108.272L230.218 108.721L228.661 99.7571L242.266 97.4004Z" fill="#C4C4C4"/>
<path d="M243.975 108.422L244.269 111.312L230.539 112.714L230.244 109.825L243.975 108.422Z" fill="#C4C4C4"/>
<path d="M239.992 122.69H240.329C241.563 122.662 242.391 121.567 242.349 119.982C242.306 118.159 241.325 117.12 239.642 117.163L235.939 117.247C234.214 117.289 233.317 118.299 233.345 120.165C233.373 121.343 233.765 122.283 234.495 122.9L235.897 122.872L235.813 119.141L238.337 119.084L238.478 125.621L231.059 125.776L231.002 123.377L231.844 123.209C231.087 122.423 230.708 121.399 230.68 120.052C230.61 116.658 232.615 114.385 235.729 114.329L239.67 114.245C242.783 114.175 244.915 116.447 244.985 119.856C245.055 123.251 243.232 125.509 240.371 125.579H240.034L239.978 122.676L239.992 122.69Z" fill="#C4C4C4"/>
<path d="M244.705 128.708L243.948 137.644L241.325 137.42L241.844 131.359L238.885 131.107L238.408 136.774L235.813 136.55L236.29 130.882L233.331 130.63L232.812 136.69L230.189 136.466L230.947 127.53L244.705 128.694V128.708Z" fill="#C4C4C4"/>
<path d="M241.617 150.672L228.069 148.077L228.63 145.145L237.704 142.34L229.457 140.755L229.976 138.033L243.524 140.628L242.963 143.546L233.777 146.352L242.122 147.951L241.603 150.672H241.617Z" fill="#C4C4C4"/>
<path d="M237.493 155.668L238.489 152.343L240.999 153.101L238.166 162.528L235.656 161.77L236.651 158.445L225.965 155.233L226.806 152.455L237.493 155.668Z" fill="#C4C4C4"/>
<path d="M237.356 164.758L233.976 173.063L231.536 172.067L233.836 166.442L231.087 165.32L228.941 170.58L226.529 169.598L228.675 164.338L225.926 163.215L223.626 168.841L221.185 167.845L224.565 159.54L237.342 164.744L237.356 164.758Z" fill="#C4C4C4"/>
<path d="M224.425 170.915L224.832 171.125L223.542 173.566L223.135 173.356C222.027 172.767 221.059 173.187 220.358 174.506C219.713 175.727 219.797 176.68 220.666 177.143L220.835 177.228C221.522 177.592 222.209 177.382 222.981 176.554L224.495 174.955C226.066 173.314 227.707 172.851 229.292 173.692L229.558 173.833C231.662 174.941 232.125 177.438 230.736 180.061C229.32 182.741 227.146 183.582 224.86 182.376L224.453 182.165L225.729 179.753L226.136 179.963C227.104 180.482 227.889 180.131 228.562 178.841C229.152 177.733 229.067 176.821 228.296 176.414L228.128 176.33C227.553 176.021 226.851 176.274 226.15 177.003L224.622 178.574C222.925 180.342 221.326 180.777 219.657 179.893L219.39 179.753C217.118 178.546 216.627 176.077 218.086 173.328C219.629 170.424 221.859 169.596 224.397 170.943L224.425 170.915Z" fill="#C4C4C4"/>
<path d="M216.851 188.199C218.338 189.293 218.604 191.117 217.468 192.632C216.346 194.161 214.551 194.427 213.065 193.333C211.522 192.197 211.27 190.415 212.391 188.886C213.513 187.357 215.309 187.063 216.851 188.199Z" fill="#C4C4C4"/>
<path d="M212.444 205.496L206.147 211.865L204.282 210.013L208.559 205.692L206.455 203.602L202.458 207.642L200.607 205.804L204.604 201.764L202.5 199.674L198.223 203.995L196.358 202.143L202.655 195.774L212.472 205.482L212.444 205.496Z" fill="#C4C4C4"/>
<path d="M198.174 206.228L198.469 206.579L196.351 208.332L196.057 207.981C195.257 207.013 194.205 207.028 193.055 207.981C191.989 208.865 191.709 209.777 192.34 210.549L192.466 210.689C192.957 211.292 193.672 211.348 194.71 210.885L196.716 209.987C198.791 209.062 200.488 209.272 201.624 210.647L201.807 210.871C203.321 212.695 202.803 215.178 200.516 217.072C198.188 219.007 195.86 218.965 194.205 216.973L193.911 216.623L196.014 214.883L196.309 215.234C197.01 216.076 197.866 216.048 198.974 215.122C199.941 214.322 200.208 213.438 199.661 212.779L199.535 212.639C199.114 212.134 198.371 212.092 197.459 212.498L195.453 213.368C193.21 214.35 191.569 214.154 190.362 212.695L190.18 212.47C188.539 210.492 189.03 208.009 191.428 206.032C193.953 203.941 196.337 204.011 198.174 206.228Z" fill="#C4C4C4"/>
<path d="M194.061 221.867L189.306 225.024C186.908 226.623 184.566 226.23 183.149 224.084L182.981 223.845C181.551 221.685 182.069 219.398 184.496 217.785L186.838 216.228L184.005 211.963L186.403 210.364L194.047 221.867H194.061ZM186.039 219.917C185.029 220.591 184.832 221.376 185.407 222.232L185.576 222.47C186.137 223.312 186.964 223.424 187.946 222.765L190.204 221.264L188.311 218.402L186.053 219.903L186.039 219.917Z" fill="#C4C4C4"/>
<path d="M168.632 221.461L168.422 221.068L171.002 219.693L172.839 221.615L176.738 219.525L176.163 216.93L178.744 215.555L178.954 215.948L181.591 229.695L178.618 231.281L168.632 221.461ZM174.649 223.495L178.491 227.521L177.271 222.078L174.635 223.481L174.649 223.495Z" fill="#C4C4C4"/>
<path d="M163.725 231.954L163.963 232.557C164.538 233.974 165.759 234.423 167.343 233.777C168.942 233.132 169.517 231.898 168.858 230.298L167.47 226.89C166.824 225.304 165.59 224.813 163.963 225.473C162.379 226.118 161.818 227.296 162.393 228.713L162.603 229.246L159.896 230.341L159.7 229.85C158.718 227.437 159.517 225.094 161.649 223.677L161.229 220.1L163.935 219.006L164.356 222.583C166.895 222.12 169.139 223.284 170.106 225.683L171.579 229.331C172.729 232.178 171.383 235.012 168.283 236.274C165.198 237.523 162.365 236.443 161.214 233.595L160.99 233.048L163.697 231.954H163.725Z" fill="#C4C4C4"/>
<path d="M157.973 230.524L159.011 234.297C159.811 237.215 158.198 239.909 154.972 240.792C151.704 241.69 148.955 240.189 148.156 237.271L147.118 233.498C146.319 230.58 147.889 227.901 151.185 226.989C154.425 226.105 157.174 227.592 157.973 230.51V230.524ZM149.951 232.825L150.919 236.36C151.368 238.001 152.574 238.674 154.257 238.211C155.926 237.748 156.613 236.556 156.164 234.915L155.196 231.38C154.748 229.752 153.569 229.107 151.887 229.556C150.246 230.005 149.516 231.253 149.951 232.811V232.825Z" fill="#C4C4C4"/>
<path d="M145.17 233.132L145.24 233.595L142.519 234.03L142.449 233.567C142.253 232.318 141.341 231.799 139.868 232.038C138.494 232.262 137.793 232.908 137.947 233.875L137.975 234.058C138.101 234.829 138.676 235.25 139.798 235.362L141.986 235.615C144.244 235.881 145.605 236.92 145.885 238.687L145.927 238.982C146.306 241.324 144.595 243.204 141.664 243.667C138.676 244.144 136.685 242.924 136.278 240.37L136.208 239.907L138.915 239.487L138.985 239.95C139.153 241.03 139.897 241.451 141.341 241.212C142.589 241.016 143.262 240.398 143.122 239.543L143.094 239.36C142.996 238.715 142.379 238.308 141.369 238.182L139.195 237.901C136.769 237.607 135.451 236.597 135.156 234.731L135.114 234.437C134.707 231.897 136.39 230.018 139.476 229.527C142.716 229.008 144.735 230.284 145.184 233.146L145.17 233.132Z" fill="#C4C4C4"/>
<path d="M127.583 244.817L124.68 244.901L124.259 231.098L127.163 231.014L127.583 244.817Z" fill="#C4C4C4"/>
<path d="M111.384 244.537L112.043 230.747L115.031 230.887L119.084 239.487L119.491 231.098L122.267 231.224L121.608 245.014L118.649 244.873L114.582 236.162L114.175 244.649L111.398 244.523L111.384 244.537Z" fill="#C4C4C4"/>
<path d="M105.885 241.17L109.321 241.689L108.928 244.284L99.1952 242.825L99.5879 240.23L103.024 240.749L104.679 229.695L107.554 230.13L105.899 241.184L105.885 241.17Z" fill="#C4C4C4"/>
<path d="M96.8832 242.335L88.1878 240.161L88.8189 237.607L94.7234 239.08L95.4387 236.205L89.9269 234.83L90.558 232.305L96.0698 233.68L96.785 230.804L90.8806 229.331L91.5117 226.778L100.207 228.952L96.8692 242.349L96.8832 242.335Z" fill="#C4C4C4"/>
<path d="M85.3969 239.291L82.6761 238.323L86.3927 227.802L80.5443 225.726L81.4279 223.229L89.9971 226.259L85.3969 239.277V239.291Z" fill="#C4C4C4"/>
<path d="M74.9325 235.377L72.2678 234.212L77.7655 221.559L80.4303 222.723L74.9325 235.377Z" fill="#C4C4C4"/>
<path d="M64.4402 224.883L64.2859 225.178C63.6969 226.272 64.2438 227.521 65.6323 228.264C67.2452 229.134 68.6336 228.769 69.419 227.296L71.1721 224.028C71.9856 222.513 71.5508 221.222 69.9099 220.338C68.872 219.777 67.8623 219.665 66.9647 220.002L66.2915 221.25L69.5733 223.018L68.3812 225.248L62.617 222.148L66.1232 215.597L68.2409 216.733L67.9745 217.547C69.0263 217.28 70.1062 217.448 71.2843 218.08C74.2716 219.679 75.2533 222.555 73.7807 225.304L71.9154 228.769C70.4428 231.519 67.4135 232.248 64.4121 230.635C61.4248 229.036 60.3449 226.328 61.7053 223.803L61.8596 223.509L64.4121 224.883H64.4402Z" fill="#C4C4C4"/>
<path d="M56.8854 226.004L49.4943 220.94L50.981 218.766L56.0019 222.203L57.6708 219.748L52.9865 216.536L54.4591 214.375L59.1434 217.588L60.8124 215.133L55.7915 211.696L57.2781 209.521L64.6692 214.586L56.8714 225.976L56.8854 226.004Z" fill="#C4C4C4"/>
<path d="M39.2707 212.499L48.2185 201.978L50.4906 203.913L48.4429 213.2L53.8846 206.803L56.0023 208.599L47.0545 219.12L44.7965 217.198L46.8862 207.813L41.3744 214.294L39.2567 212.499H39.2707Z" fill="#C4C4C4"/>
<path d="M36.9969 206.49L39.3952 209.001L37.5018 210.825L30.6858 203.727L32.5791 201.903L34.9774 204.414L43.0276 196.67L45.0332 198.761L36.9829 206.504L36.9969 206.49Z" fill="#C4C4C4"/>
<path d="M29.1419 201.907L23.574 194.893L25.6357 193.252L29.4084 198.022L31.7365 196.184L28.2022 191.737L30.2499 190.11L33.7841 194.557L36.1122 192.719L32.3396 187.949L34.4012 186.308L39.9691 193.322L29.1559 201.907H29.1419Z" fill="#C4C4C4"/>
<path d="M30.1227 187.609L29.73 187.861L28.2434 185.546L28.6361 185.294C29.702 184.607 29.8002 183.568 29.0007 182.32C28.2434 181.156 27.3739 180.763 26.5464 181.296L26.3921 181.394C25.7329 181.815 25.5787 182.516 25.9293 183.597L26.5885 185.701C27.2617 187.875 26.8549 189.53 25.3403 190.498L25.0878 190.653C23.0823 191.943 20.698 191.13 19.0852 188.633C17.4443 186.08 17.7668 183.779 19.9407 182.376L20.3334 182.124L21.806 184.424L21.4133 184.677C20.4877 185.266 20.4175 186.122 21.2029 187.342C21.8901 188.408 22.7176 188.773 23.4469 188.296L23.6012 188.198C24.1481 187.847 24.2744 187.118 23.9798 186.15L23.3627 184.045C22.6615 181.703 23.0542 180.09 24.639 179.08L24.8915 178.925C27.0513 177.536 29.4495 178.322 31.1325 180.945C32.8996 183.709 32.549 186.065 30.1227 187.623V187.609Z" fill="#C4C4C4"/>
<path d="M18.7658 172.533C17.0828 173.29 15.3718 172.631 14.6004 170.906C13.8291 169.18 14.4742 167.483 16.1572 166.725C17.9103 165.94 19.5793 166.599 20.3647 168.325C21.136 170.05 20.5189 171.761 18.7798 172.547L18.7658 172.533Z" fill="#C4C4C4"/>
<path d="M5.86191 160.217L3.40756 151.604L5.93203 150.889L7.60099 156.738L10.448 155.925L8.89128 150.468L11.4017 149.752L12.9585 155.209L15.8055 154.396L14.1366 148.546L16.661 147.831L19.1154 156.444L5.84789 160.217H5.86191Z" fill="#C4C4C4"/>
<path d="M12.2406 147.404L11.7778 147.488L11.301 144.78L11.7498 144.696C12.998 144.472 13.4889 143.546 13.2364 142.087C12.998 140.726 12.3388 140.025 11.3571 140.193L11.1748 140.221C10.4034 140.362 9.99667 140.937 9.89849 142.073L9.68812 144.275C9.46372 146.534 8.45393 147.909 6.6868 148.231L6.39228 148.287C4.05013 148.708 2.15678 147.025 1.63786 144.107C1.10491 141.119 2.29703 139.113 4.83552 138.664L5.28432 138.58L5.76116 141.273L5.29834 141.358C4.21843 141.554 3.82573 142.297 4.07818 143.728C4.30258 144.977 4.9337 145.622 5.77519 145.482L5.95751 145.454C6.60265 145.342 6.99535 144.71 7.10755 143.714L7.34597 141.54C7.59842 139.099 8.58016 137.766 10.4455 137.444L10.74 137.388C13.2645 136.939 15.1859 138.58 15.7328 141.652C16.3078 144.879 15.0596 146.927 12.2266 147.432L12.2406 147.404Z" fill="#C4C4C4"/>
<path d="M0.656924 136.158L0.250204 130.462C0.0398309 127.586 1.54049 125.749 4.10704 125.566H4.40156C6.98213 125.356 8.72121 126.941 8.93158 129.845L9.12793 132.665L14.233 132.3L14.4433 135.176L0.670949 136.158H0.656924ZM6.30894 130.14C6.22479 128.919 5.63574 128.372 4.61193 128.442H4.31741C3.30762 128.54 2.80273 129.2 2.88687 130.378L3.08322 133.085L6.50528 132.847L6.30894 130.14Z" fill="#C4C4C4"/>
<path d="M13.5199 114.201H13.9687L13.8986 117.132L11.318 117.792L11.2199 122.211L13.7724 122.982L13.7023 125.9H13.2675L0 121.425L0.0701242 118.058L13.5199 114.187V114.201ZM8.8076 118.451L3.40804 119.826L8.73748 121.439L8.8076 118.451Z" fill="#C4C4C4"/>
<path d="M6.79 104.776L6.14485 104.692C4.61614 104.495 3.64843 105.351 3.42403 107.034C3.19964 108.746 3.99905 109.84 5.71008 110.064L9.35654 110.527C11.0395 110.738 12.0914 109.896 12.3158 108.171C12.5262 106.473 11.7828 105.407 10.2541 105.211L9.69314 105.141L10.0718 102.237L10.5907 102.307C13.1713 102.644 14.8262 104.481 15.0086 107.034L18.3324 108.409L17.9538 111.313L14.6299 109.938C13.7884 112.379 11.6847 113.754 9.11812 113.431L5.21921 112.926C2.17582 112.533 0.366617 109.966 0.787362 106.656C1.20811 103.359 3.53623 101.409 6.57962 101.802L7.16867 101.872L6.79 104.776Z" fill="#C4C4C4"/>
<path d="M10.8687 100.454L7.06799 99.5003C4.12278 98.7709 2.58004 96.0354 3.37946 92.7949C4.1929 89.5123 6.8436 87.843 9.78882 88.5865L13.5895 89.5264C16.5348 90.2558 18.0915 92.9492 17.2641 96.2598C16.4506 99.5284 13.7999 101.184 10.8687 100.454ZM12.7761 92.318L9.22782 91.4342C7.57289 91.0274 6.3948 91.7428 5.97406 93.4402C5.55331 95.1095 6.25455 96.3019 7.90949 96.7228L11.4578 97.6065C13.0847 98.0133 14.2487 97.3119 14.6695 95.6145C15.0762 93.9592 14.3469 92.7107 12.7761 92.318Z" fill="#C4C4C4"/>
<path d="M14.863 87.9705L14.4283 87.8022L15.382 85.221L15.8167 85.3753C16.9948 85.8102 17.8924 85.2771 18.4113 83.8743C18.8882 82.5697 18.6778 81.6439 17.7522 81.2932L17.5698 81.223C16.8405 80.9565 16.1954 81.2511 15.5362 82.1769L14.246 83.9585C12.9136 85.7962 11.3428 86.4695 9.65983 85.8523L9.37933 85.7541C7.14938 84.9264 6.36399 82.5276 7.3878 79.7361C8.43966 76.8884 10.4733 75.7661 12.8996 76.6639L13.3343 76.8322L12.3806 79.3994L11.9459 79.231C10.9221 78.8523 10.1928 79.3012 9.68788 80.6619C9.25311 81.8403 9.46348 82.7381 10.2629 83.0326L10.4452 83.1028C11.0623 83.3272 11.7215 82.9906 12.3105 82.1769L13.6148 80.4234C15.0594 78.4455 16.5881 77.8002 18.3552 78.4595L18.6357 78.5577C21.048 79.4555 21.8614 81.8403 20.7815 84.7581C19.6455 87.8302 17.5418 88.9665 14.835 87.9565L14.863 87.9705Z" fill="#C4C4C4"/>
<path d="M13.3067 66.9387L14.6531 64.3716L26.8687 70.7964L25.5223 73.3636L13.3067 66.9387Z" fill="#C4C4C4"/>
<path d="M21.5125 52.9668L33.1952 60.3315L31.5964 62.8566L22.1156 62.1552L29.2262 66.6301L27.7396 68.9868L16.0569 61.6221L17.6417 59.1111L27.2207 59.8546L20.0259 55.3235L21.5125 52.9668Z" fill="#C4C4C4"/>
<path d="M27.1813 49.8412L25.0355 52.5767L22.9599 50.9494L29.0326 43.1919L31.1083 44.8191L28.9625 47.5546L37.7561 54.4424L35.9609 56.729L27.1673 49.8412H27.1813Z" fill="#C4C4C4"/>
<path d="M30.6019 41.4245L36.7588 34.9155L38.6662 36.7251L34.4868 41.144L36.6466 43.1921L40.5595 39.0678L42.4529 40.8634L38.54 44.9877L40.6998 47.0358L44.8792 42.6169L46.7866 44.4266L40.6297 50.9356L30.6019 41.4386V41.4245Z" fill="#C4C4C4"/>
<path d="M38.8745 32.9358L41.0484 31.042L48.3693 39.4448L53.0536 35.3626L54.7927 37.3546L47.9486 43.3306L38.8745 32.9217V32.9358Z" fill="#C4C4C4"/>
<path d="M47.4171 25.7398L49.7311 23.9863L58.0619 34.9984L55.7478 36.7519L47.4171 25.7398Z" fill="#C4C4C4"/>
<path d="M61.7091 21.7411L61.5268 21.4605C60.8676 20.4084 59.5072 20.2821 58.1748 21.1238C56.6321 22.1058 56.2534 23.4805 57.165 24.9114L59.1566 28.0397C60.0822 29.4986 61.4146 29.7511 62.9994 28.7411C63.9951 28.1098 64.5842 27.2821 64.7385 26.3423L63.9811 25.1499L60.8396 27.1419L59.4932 25.0096L65.019 21.5026L69.002 27.7731L66.9824 29.0637L66.4074 28.4324C66.1269 29.4845 65.4537 30.3403 64.3177 31.0557C61.4567 32.8653 58.4694 32.3322 56.8004 29.695L54.6967 26.3703C53.0277 23.7471 53.8692 20.7451 56.7443 18.9074C59.6054 17.0978 62.4945 17.4765 64.0232 19.8894L64.2055 20.1699L61.7512 21.727L61.7091 21.7411Z" fill="#C4C4C4"/>
<path d="M64.4439 14.5901L72.4801 10.6201L73.6442 12.9768L68.2026 15.6702L69.5209 18.3355L74.6119 15.8245L75.762 18.1672L70.6709 20.6782L71.9893 23.3436L77.4309 20.6502L78.595 23.0069L70.5587 26.9768L64.4579 14.6041L64.4439 14.5901Z" fill="#C4C4C4"/>
<path d="M84.8527 5.86572L89.6212 18.8136L86.8162 19.8517L79.7337 13.525L82.6368 21.3948L80.0282 22.3487L75.2597 9.40079L78.0367 8.37674L85.1753 14.8016L82.2301 6.83366L84.8387 5.86572H84.8527Z" fill="#C4C4C4"/>
<path d="M91.2033 6.83164L87.8373 7.68735L87.1781 5.13424L96.715 2.69336L97.3742 5.24647L94.0082 6.10218L96.7852 16.9178L93.9802 17.6332L91.2033 6.81761V6.83164Z" fill="#C4C4C4"/>
<path d="M99.0689 2.24132L107.919 0.852539L108.325 3.44773L102.323 4.38761L102.785 7.31947L108.395 6.43571L108.802 9.01687L103.192 9.90064L103.655 12.8325L109.658 11.8926L110.064 14.4878L101.215 15.8766L99.0829 2.24132H99.0689Z" fill="#C4C4C4"/>
<path d="M111.008 10.1417L110.98 9.6788L113.729 9.52449L113.757 9.98742C113.827 11.2499 114.682 11.8531 116.169 11.769C117.558 11.6988 118.329 11.1237 118.273 10.1277V9.94533C118.217 9.17379 117.684 8.69684 116.576 8.45836L114.416 7.98141C112.2 7.49042 110.952 6.31207 110.854 4.5305V4.23592C110.713 1.86517 112.593 0.181808 115.552 0.013471C118.581 -0.154866 120.433 1.26197 120.573 3.84313L120.601 4.30606L117.866 4.46036L117.838 3.99744C117.782 2.90325 117.081 2.41227 115.622 2.49644C114.36 2.56658 113.631 3.11367 113.673 3.96938V4.15175C113.715 4.79704 114.29 5.27399 115.271 5.49844L117.403 5.98942C119.787 6.53652 120.994 7.67279 121.106 9.55255V9.84714C121.26 12.4143 119.395 14.1117 116.281 14.294C112.999 14.4764 111.134 13.0034 110.966 10.1137L111.008 10.1417Z" fill="#C4C4C4"/>
<path d="M129.728 7.67547C129.897 5.83779 131.313 4.67346 133.192 4.8418C135.072 5.01014 136.236 6.41294 136.068 8.25062C135.899 10.1584 134.497 11.2947 132.617 11.1264C130.738 10.958 129.546 9.58329 129.714 7.67547H129.728Z" fill="#C4C4C4"/>
</svg>
