<svg width="486" height="71" viewBox="0 0 486 71" fill="none" xmlns="http://www.w3.org/2000/svg">
<mask id="mask0_256_4692" style="mask-type:alpha" maskUnits="userSpaceOnUse" x="0" y="0" width="241" height="70">
<rect y="0.85498" width="240.198" height="68.3836" fill="#D5D5C3"/>
</mask>
<g mask="url(#mask0_256_4692)">
<g clip-path="url(#clip0_256_4692)">
<path d="M-70.2754 69.8649L28.8616 -17.3636" stroke="#FF8400" stroke-width="2" stroke-linecap="round" stroke-linejoin="round"/>
<path d="M-54.7715 71.1509L44.3655 -16.0776" stroke="#FF8400" stroke-width="2" stroke-linecap="round" stroke-linejoin="round"/>
<path d="M-39.2676 72.4369L59.8694 -14.7892" stroke="#FF8400" stroke-width="2" stroke-linecap="round" stroke-linejoin="round"/>
<path d="M-23.7603 73.7255L75.3739 -13.5031" stroke="#FF8400" stroke-width="2" stroke-linecap="round" stroke-linejoin="round"/>
<path d="M-8.25635 75.0115L90.8806 -12.217" stroke="#FF8400" stroke-width="2" stroke-linecap="round" stroke-linejoin="round"/>
<path d="M7.24756 76.2975L106.385 -10.9286" stroke="#FF8400" stroke-width="2" stroke-linecap="round" stroke-linejoin="round"/>
<path d="M22.752 77.5859L121.889 -9.6427" stroke="#FF8400" stroke-width="2" stroke-linecap="round" stroke-linejoin="round"/>
<path d="M38.2588 78.8719L137.393 -8.35669" stroke="#FF8400" stroke-width="2" stroke-linecap="round" stroke-linejoin="round"/>
<path d="M53.7627 80.1579L152.9 -7.06812" stroke="#FF8400" stroke-width="2" stroke-linecap="round" stroke-linejoin="round"/>
<path d="M69.2666 81.4466L168.404 -5.78198" stroke="#FF8400" stroke-width="2" stroke-linecap="round" stroke-linejoin="round"/>
<path d="M84.7705 82.7325L183.908 -4.49609" stroke="#FF8400" stroke-width="2" stroke-linecap="round" stroke-linejoin="round"/>
<path d="M100.275 84.0185L199.412 -3.21008" stroke="#FF8400" stroke-width="2" stroke-linecap="round" stroke-linejoin="round"/>
<path d="M115.782 85.3044L214.916 -1.92163" stroke="#FF8400" stroke-width="2" stroke-linecap="round" stroke-linejoin="round"/>
<path d="M131.286 86.5928L230.423 -0.635742" stroke="#FF8400" stroke-width="2" stroke-linecap="round" stroke-linejoin="round"/>
<path d="M146.79 87.8791L245.927 0.650513" stroke="#FF8400" stroke-width="2" stroke-linecap="round" stroke-linejoin="round"/>
<path d="M165.27 87.8791L264.407 0.650513" stroke="#FF8400" stroke-width="2" stroke-linecap="round" stroke-linejoin="round"/>
<path d="M180.785 87.8791L279.922 0.650513" stroke="#FF8400" stroke-width="2" stroke-linecap="round" stroke-linejoin="round"/>
<path d="M198.238 87.8791L297.375 0.650513" stroke="#FF8400" stroke-width="2" stroke-linecap="round" stroke-linejoin="round"/>
</g>
<rect x="-70.2051" y="-17.2418" width="316.062" height="104.999" stroke="#FF8400"/>
</g>
<path d="M294.05 0V70.0932" stroke="#FF8400" stroke-width="2"/>
<path d="M280.373 0V70.0932" stroke="#FF8400" stroke-width="2"/>
<path d="M266.696 0V70.0932" stroke="#FF8400" stroke-width="2"/>
<path d="M253.02 0V70.0932" stroke="#FF8400" stroke-width="2"/>
<path d="M307.576 0V70.0932" stroke="#FF8400" stroke-width="2"/>
<path d="M321.103 0V70.0932" stroke="#FF8400" stroke-width="2"/>
<path d="M334.63 0V70.0932" stroke="#FF8400" stroke-width="2"/>
<path d="M348.157 0V70.0932" stroke="#FF8400" stroke-width="2"/>
<path d="M361.683 0V70.0932" stroke="#FF8400" stroke-width="2"/>
<path d="M375.21 0V70.0932" stroke="#FF8400" stroke-width="2"/>
<path d="M388.737 0V70.0932" stroke="#FF8400" stroke-width="2"/>
<path d="M402.489 0V70.0932" stroke="#FF8400" stroke-width="2"/>
<path d="M416.241 0V70.0932" stroke="#FF8400" stroke-width="2"/>
<path d="M429.993 0V70.0932" stroke="#FF8400" stroke-width="2"/>
<path d="M443.745 0V70.0932" stroke="#FF8400" stroke-width="2"/>
<path d="M457.496 0V70.0932" stroke="#FF8400" stroke-width="2"/>
<path d="M471.248 0V70.0932" stroke="#FF8400" stroke-width="2"/>
<path d="M485 0V70.0932" stroke="#FF8400" stroke-width="2"/>
<defs>
<clipPath id="clip0_256_4692">
<rect x="-70.7051" y="-17.7418" width="317.062" height="105.999" fill="white"/>
</clipPath>
</defs>
</svg>
