<svg width="410" height="393" viewBox="0 0 410 393" fill="none" xmlns="http://www.w3.org/2000/svg">
<path d="M371.222 233.039L316.12 258.375C317.246 263.146 317.9 268.139 317.9 273.28V273.872V274.464C317.9 305.57 296.36 332.052 263.924 332.052C246.707 332.052 232.395 324.248 222.77 312.264L187.463 363.676C207.26 381.725 233.521 392.637 263.343 392.637C328.833 392.637 377.942 339.413 377.942 273.835C377.942 259.521 375.581 245.762 371.222 233.039Z" fill="#C3D600"/>
<path d="M409.193 0.637695H270.003C204.512 0.637695 155.403 53.8246 155.403 119.439V120.068C155.403 185.682 203.894 238.203 269.421 238.203C334.912 238.203 384.021 185.017 384.021 119.439V118.773C384.021 97.247 378.754 77.1632 369.419 59.8165H409.193V0.637695ZM323.979 120.031C323.979 151.137 302.439 177.619 270.003 177.619C237.857 177.619 215.736 150.545 215.736 119.439V118.81C215.736 87.7045 237.275 61.2589 269.421 61.2589C301.858 61.2589 324.015 88.3332 324.015 119.439V120.031H323.979Z" fill="#FF8400"/>
<g clip-path="url(#clip0_33_547)">
<path d="M77.0114 104.308L82.3843 101.738L83.1405 103.313L79.4924 105.059L80.3393 106.838L83.7413 105.206L84.4915 106.774L81.0895 108.406L81.9364 110.185L85.5775 108.445L86.3338 110.02L80.9609 112.59L76.9973 104.32L77.0114 104.308Z" fill="#C4C4C4"/>
<path d="M86.107 107.064L86.0029 106.772L87.7192 106.152L87.8233 106.444C88.109 107.231 88.7665 107.451 89.7019 107.124C90.5636 106.811 90.9508 106.304 90.7253 105.687L90.6814 105.565C90.5059 105.076 90.0849 104.873 89.3274 104.937L87.8729 105.048C86.372 105.162 85.3528 104.651 84.9527 103.532L84.8874 103.342C84.3557 101.856 85.2337 100.422 87.0852 99.7589C88.9781 99.0726 90.4238 99.6215 91.0116 101.243L91.1156 101.535L89.4064 102.149L89.3023 101.857C89.0553 101.172 88.5202 100.994 87.6111 101.323C86.8241 101.609 86.4651 102.091 86.657 102.627L86.7008 102.749C86.8427 103.156 87.3041 103.348 87.9677 103.304L89.4212 103.207C91.0474 103.095 92.0282 103.59 92.4497 104.777L92.515 104.966C93.0906 106.574 92.2258 108.009 90.2855 108.712C88.2301 109.452 86.761 108.862 86.1131 107.071L86.107 107.064Z" fill="#C4C4C4"/>
<path d="M92.2136 98.2124L95.892 97.3141C97.7544 96.8633 99.1241 97.6378 99.518 99.2914L99.5631 99.4863C99.9691 101.154 99.1262 102.472 97.2506 102.922L95.4285 103.363L96.2303 106.658L94.3679 107.109L92.1943 98.2044L92.2136 98.2124ZM96.7798 101.236C97.5662 101.05 97.8637 100.596 97.7007 99.937L97.6555 99.7422C97.4986 99.09 97.0087 98.836 96.2425 99.0174L94.4942 99.4435L95.0385 101.656L96.7869 101.23L96.7798 101.236Z" fill="#C4C4C4"/>
<path d="M107.996 104.203L108.041 104.497L106.118 104.778L105.398 103.16L102.494 103.587L102.273 105.34L100.35 105.622L100.306 105.328L101.758 96.1489L103.968 95.8294L107.989 104.209L107.996 104.203ZM104.695 101.576L103.2 98.1901L102.733 101.854L104.696 101.563L104.695 101.576Z" fill="#C4C4C4"/>
<path d="M113.415 98.7493L113.401 98.3189C113.357 97.2986 112.697 96.7482 111.564 96.7903C110.419 96.8315 109.784 97.4782 109.832 98.6178L109.924 101.062C109.966 102.194 110.636 102.785 111.789 102.738C112.921 102.695 113.54 102.087 113.503 101.061L113.485 100.683L115.425 100.608L115.44 100.952C115.51 102.688 114.478 103.972 112.831 104.373L112.291 106.697L110.35 106.773L110.884 104.441C109.195 104.152 108.056 102.932 107.984 101.209L107.885 98.6C107.81 96.5604 109.285 95.0904 111.511 95.0032C113.716 94.9211 115.251 96.2294 115.333 98.263L115.351 98.6539L113.41 98.7291L113.415 98.7493Z" fill="#C4C4C4"/>
<path d="M116.71 100.954L116.907 98.3602C117.061 96.3571 118.677 95.0363 120.89 95.2057C123.129 95.3771 124.515 96.9254 124.361 98.9284L124.165 101.523C124.011 103.526 122.422 104.848 120.169 104.676C117.943 104.506 116.557 102.957 116.71 100.954ZM122.252 101.303L122.437 98.8792C122.52 97.7494 121.916 97.0644 120.761 96.9662C119.618 96.8821 118.915 97.4644 118.832 98.5942L118.647 101.018C118.566 102.134 119.157 102.805 120.306 102.896C121.436 102.98 122.174 102.367 122.246 101.296L122.252 101.303Z" fill="#C4C4C4"/>
<path d="M125.292 102.185L125.347 101.879L127.145 102.222L127.089 102.529C126.937 103.349 127.393 103.878 128.364 104.062C129.27 104.228 129.855 103.993 129.982 103.342L130.011 103.219C130.101 102.71 129.839 102.321 129.163 101.994L127.85 101.343C126.499 100.676 125.882 99.7188 126.106 98.5531L126.14 98.364C126.432 96.8071 127.916 96.0312 129.851 96.3916C131.824 96.7679 132.793 97.9751 132.477 99.6624L132.422 99.9687L130.637 99.6261L130.693 99.3198C130.825 98.603 130.452 98.186 129.508 98.0042C128.687 97.8514 128.128 98.0876 128.021 98.6477L127.992 98.7711C127.915 99.1947 128.209 99.5928 128.802 99.8939L130.094 100.55C131.546 101.278 132.146 102.201 131.91 103.438L131.876 103.627C131.562 105.301 130.09 106.104 128.057 105.717C125.914 105.315 124.943 104.061 125.299 102.179L125.292 102.185Z" fill="#C4C4C4"/>
<path d="M138.878 98.8133L140.71 99.4103L137.891 108.132L136.059 107.535L138.878 98.8133Z" fill="#C4C4C4"/>
<path d="M148.96 102.627L145.453 111.094L143.62 110.338L143.017 104.052L140.883 109.205L139.178 108.499L142.685 100.032L144.505 100.787L145.096 107.144L147.248 101.927L148.953 102.633L148.96 102.627Z" fill="#C4C4C4"/>
<path d="M151.66 105.981L149.634 104.887L150.46 103.35L156.208 106.461L155.382 107.998L153.356 106.905L149.826 113.434L148.123 112.517L151.653 105.987L151.66 105.981Z" fill="#C4C4C4"/>
<path d="M157.549 107.287L162.49 110.602L161.518 112.056L158.163 109.808L157.065 111.445L160.2 113.551L159.236 114.986L156.102 112.88L155.004 114.516L158.359 116.764L157.387 118.218L152.446 114.903L157.555 107.294L157.549 107.287Z" fill="#C4C4C4"/>
<path d="M164.05 111.782L165.532 113L160.833 118.731L164.022 121.343L162.906 122.7L158.234 118.87L164.05 111.782Z" fill="#C4C4C4"/>
<path d="M169.692 116.581L171.094 117.906L164.8 124.569L163.398 123.244L169.692 116.581Z" fill="#C4C4C4"/>
<path d="M173.881 125.482L174.05 125.336C174.658 124.786 174.599 123.877 173.89 123.098C173.078 122.2 172.134 122.104 171.306 122.855L169.481 124.504C168.632 125.274 168.619 126.171 169.443 127.097C169.968 127.677 170.574 127.979 171.208 127.973L171.901 127.35L170.24 125.511L171.484 124.387L174.391 127.613L170.729 130.91L169.66 129.728L170.01 129.278C169.288 129.212 168.653 128.862 168.055 128.197C166.546 126.521 166.569 124.508 168.109 123.129L170.054 121.376C171.589 119.99 173.647 120.207 175.161 121.891C176.669 123.567 176.733 125.493 175.325 126.77L175.156 126.916L173.868 125.481L173.881 125.482Z" fill="#C4C4C4"/>
<path d="M178.861 126.462L182.358 131.283L180.942 132.308L178.573 129.037L176.976 130.194L179.196 133.25L177.794 134.263L175.574 131.207L173.977 132.364L176.346 135.636L174.93 136.661L171.433 131.84L178.855 126.455L178.861 126.462Z" fill="#C4C4C4"/>
<path d="M186.84 138.844L178.903 143.419L177.913 141.701L181.257 136.353L176.423 139.135L175.503 137.541L183.44 132.967L184.424 134.678L181.024 140.074L185.913 137.257L186.833 138.851L186.84 138.844Z" fill="#C4C4C4"/>
<path d="M186.934 143.145L185.992 141.042L187.583 140.333L190.249 146.302L188.658 147.01L187.716 144.907L180.95 147.929L180.168 146.167L186.934 143.145Z" fill="#C4C4C4"/>
<path d="M190.81 147.775L192.714 153.416L191.055 153.974L189.771 150.148L187.902 150.777L189.106 154.353L187.467 154.906L186.263 151.33L184.394 151.959L185.679 155.785L184.02 156.343L182.115 150.701L190.797 147.774L190.81 147.775Z" fill="#C4C4C4"/>
<path d="M186.981 156.48L187.276 156.41L187.687 158.197L187.391 158.267C186.578 158.452 186.275 159.083 186.494 160.051C186.699 160.944 187.156 161.387 187.794 161.243L187.915 161.212C188.419 161.097 188.673 160.693 188.701 159.942L188.769 158.481C188.846 156.974 189.47 156.03 190.632 155.765L190.827 155.72C192.366 155.364 193.682 156.419 194.122 158.34C194.573 160.302 193.845 161.668 192.172 162.053L191.876 162.124L191.471 160.357L191.767 160.287C192.479 160.128 192.721 159.611 192.5 158.67C192.315 157.857 191.877 157.435 191.313 157.565L191.192 157.596C190.769 157.69 190.526 158.122 190.49 158.793L190.403 160.246C190.317 161.871 189.702 162.783 188.479 163.063L188.284 163.108C186.619 163.487 185.3 162.459 184.841 160.444C184.356 158.315 185.118 156.931 186.979 156.507L186.981 156.48Z" fill="#C4C4C4"/>
<path d="M190.673 168.456C191.895 168.361 192.82 169.162 192.907 170.416C193.006 171.672 192.219 172.585 190.997 172.68C189.728 172.778 188.828 171.992 188.729 170.736C188.63 169.481 189.404 168.554 190.673 168.456Z" fill="#C4C4C4"/>
<path d="M195.963 179.064L195.56 184.998L193.819 184.876L194.095 180.848L192.13 180.71L191.874 184.476L190.146 184.355L190.402 180.59L188.438 180.452L188.162 184.48L186.421 184.359L186.823 178.424L195.971 179.045L195.963 179.064Z" fill="#C4C4C4"/>
<path d="M189.107 185.624L189.407 185.672L189.103 187.473L188.803 187.424C187.981 187.284 187.458 187.748 187.294 188.726C187.142 189.633 187.396 190.213 188.048 190.327L188.173 190.343C188.681 190.433 189.065 190.151 189.386 189.468L190.005 188.147C190.646 186.78 191.591 186.15 192.759 186.348L192.948 186.382C194.5 186.641 195.317 188.115 194.989 190.059C194.659 192.042 193.47 193.031 191.774 192.748L191.474 192.699L191.777 190.912L192.077 190.961C192.795 191.079 193.212 190.694 193.368 189.748C193.507 188.926 193.258 188.366 192.697 188.272L192.572 188.256C192.142 188.185 191.75 188.486 191.468 189.086L190.837 190.394C190.135 191.861 189.225 192.474 187.986 192.264L187.797 192.231C186.113 191.948 185.283 190.487 185.63 188.452C185.992 186.306 187.221 185.307 189.107 185.624Z" fill="#C4C4C4"/>
<path d="M193.825 195.271L192.804 198.921C192.293 200.765 190.945 201.584 189.301 201.12L189.113 201.073C187.457 200.608 186.725 199.233 187.245 197.369L187.747 195.57L184.472 194.655L184.984 192.811L193.818 195.277L193.825 195.271ZM188.946 197.772C188.73 198.548 188.973 199.028 189.633 199.209L189.821 199.256C190.468 199.436 190.933 199.133 191.14 198.376L191.624 196.641L189.431 196.024L188.947 197.759L188.946 197.772Z" fill="#C4C4C4"/>
<path d="M180.865 206.101L180.589 205.994L181.29 204.184L183.047 204.352L184.1 201.61L182.685 200.555L183.386 198.744L183.662 198.85L190.953 204.617L190.146 206.704L180.865 206.101ZM184.772 204.512L188.451 204.869L185.476 202.662L184.759 204.511L184.772 204.512Z" fill="#C4C4C4"/>
<path d="M182.951 213.505L183.333 213.704C184.237 214.167 185.045 213.863 185.561 212.851C186.085 211.833 185.839 210.963 184.813 210.445L182.636 209.334C181.624 208.817 180.791 209.106 180.259 210.143C179.742 211.155 179.971 211.991 180.875 212.454L181.212 212.63L180.326 214.355L180.015 214.193C178.474 213.406 177.859 211.882 178.316 210.245L176.553 208.629L177.439 206.904L179.202 208.52C180.278 207.186 181.911 206.797 183.438 207.583L185.761 208.778C187.575 209.711 188.128 211.719 187.117 213.699C186.108 215.665 184.215 216.352 182.401 215.419L182.051 215.241L182.937 213.517L182.951 213.505Z" fill="#C4C4C4"/>
<path d="M179.439 215.282L181.598 216.728C183.266 217.848 183.624 219.902 182.386 221.746C181.133 223.615 179.1 224.054 177.432 222.934L175.272 221.487C173.604 220.367 173.232 218.338 174.493 216.45C175.738 214.6 177.765 214.155 179.433 215.275L179.439 215.282ZM176.405 219.919L178.425 221.276C179.363 221.907 180.261 221.722 180.906 220.759C181.545 219.802 181.373 218.904 180.435 218.274L178.414 216.917C177.483 216.293 176.61 216.48 175.959 217.436C175.329 218.374 175.504 219.318 176.398 219.912L176.405 219.919Z" fill="#C4C4C4"/>
<path d="M174.134 222.148L174.37 222.351L173.191 223.75L172.955 223.548C172.315 223.005 171.631 223.14 170.994 223.899C170.401 224.608 170.328 225.237 170.826 225.656L170.919 225.736C171.317 226.069 171.789 226.031 172.402 225.601L173.611 224.778C174.862 223.932 175.996 223.864 176.904 224.631L177.053 224.761C178.26 225.774 178.216 227.461 176.943 228.966C175.648 230.502 174.117 230.753 172.805 229.646L172.569 229.443L173.747 228.057L173.983 228.26C174.537 228.73 175.093 228.619 175.716 227.872C176.258 227.232 176.329 226.629 175.887 226.26L175.794 226.18C175.464 225.898 174.977 225.962 174.415 226.336L173.2 227.139C171.853 228.043 170.752 228.108 169.794 227.298L169.645 227.168C168.339 226.068 168.369 224.392 169.707 222.807C171.111 221.14 172.68 220.906 174.147 222.149L174.134 222.148Z" fill="#C4C4C4"/>
<path d="M170.364 235.654L168.941 236.956L162.739 230.199L164.162 228.897L170.364 235.654Z" fill="#C4C4C4"/>
<path d="M162.098 242.542L156.446 235.324L158.009 234.098L163.778 236.662L160.342 232.268L161.793 231.127L167.445 238.345L165.897 239.559L160.072 236.944L163.55 241.387L162.099 242.529L162.098 242.542Z" fill="#C4C4C4"/>
<path d="M157.873 243.236L159.826 242.006L160.754 243.481L155.228 246.971L154.299 245.496L156.252 244.266L152.287 237.99L153.921 236.961L157.886 243.237L157.873 243.236Z" fill="#C4C4C4"/>
<path d="M153.853 247.727L148.538 250.407L147.748 248.85L151.355 247.028L150.467 245.272L147.099 246.973L146.321 245.43L149.688 243.729L148.8 241.973L145.193 243.795L144.402 242.237L149.717 239.557L153.852 247.74L153.853 247.727Z" fill="#C4C4C4"/>
<path d="M146.758 251.181L144.97 251.875L142.273 244.973L138.432 246.467L137.793 244.829L143.416 242.634L146.752 251.174L146.758 251.181Z" fill="#C4C4C4"/>
<path d="M139.799 253.754L137.954 254.325L135.227 245.578L137.072 245.007L139.799 253.754Z" fill="#C4C4C4"/>
<path d="M129.971 253.032L130.021 253.247C130.2 254.052 131.016 254.443 132.037 254.214C133.225 253.951 133.765 253.165 133.521 252.084L132.984 249.68C132.735 248.566 131.957 248.106 130.748 248.373C129.983 248.542 129.427 248.923 129.121 249.482L129.325 250.402L131.742 249.866L132.11 251.505L127.867 252.448L126.787 247.633L128.345 247.285L128.564 247.81C128.977 247.219 129.593 246.835 130.459 246.641C132.655 246.149 134.396 247.169 134.849 249.19L135.415 251.741C135.867 253.763 134.661 255.444 132.452 255.935C130.257 256.427 128.539 255.535 128.127 253.675L128.077 253.46L129.957 253.044L129.971 253.032Z" fill="#C4C4C4"/>
<path d="M126.659 256.873L120.746 257.535L120.55 255.797L124.566 255.346L124.339 253.387L120.59 253.805L120.393 252.08L124.142 251.662L123.916 249.704L119.901 250.155L119.704 248.417L125.618 247.755L126.64 256.865L126.659 256.873Z" fill="#C4C4C4"/>
<path d="M111.944 257.727L111.877 248.555L113.859 248.543L116.859 254.1L116.819 248.523L118.663 248.506L118.73 257.678L116.761 257.692L113.739 252.067L113.78 257.717L111.937 257.733L111.944 257.727Z" fill="#C4C4C4"/>
<path d="M108.193 255.693L110.489 255.915L110.328 257.653L103.821 257.042L103.982 255.304L106.277 255.526L106.964 248.14L108.879 248.32L108.192 255.706L108.193 255.693Z" fill="#C4C4C4"/>
<path d="M102.256 256.797L96.4132 255.687L96.7374 253.968L100.704 254.728L101.077 252.794L97.3703 252.092L97.6936 250.386L101.4 251.088L101.773 249.154L97.8067 248.393L98.131 246.673L103.974 247.783L102.263 256.791L102.256 256.797Z" fill="#C4C4C4"/>
<path d="M96.5445 249.184L96.4566 249.481L94.7049 248.963L94.7928 248.665C95.0303 247.857 94.6293 247.293 93.6856 247.012C92.7997 246.755 92.1921 246.935 92.0074 247.562L91.9725 247.679C91.8237 248.176 92.0505 248.596 92.6955 248.987L93.9399 249.758C95.2218 250.559 95.7356 251.568 95.3942 252.712L95.3342 252.899C94.886 254.418 93.3343 255.043 91.44 254.488C89.5073 253.917 88.6712 252.62 89.1553 250.972L89.2432 250.674L90.9817 251.192L90.8939 251.489C90.6842 252.187 91.0203 252.648 91.9447 252.92C92.7527 253.158 93.327 252.982 93.4867 252.426L93.5216 252.31C93.6444 251.896 93.3913 251.475 92.8233 251.116L91.6 250.326C90.2309 249.452 89.7284 248.471 90.0868 247.276L90.1468 247.088C90.6299 245.453 92.1764 244.807 94.1608 245.396C96.2483 246.018 97.0947 247.355 96.5506 249.191L96.5445 249.184Z" fill="#C4C4C4"/>
<path d="M84.2936 246.533C83.7762 247.644 82.63 248.055 81.4935 247.522C80.357 246.99 79.9448 245.856 80.4622 244.745C81.0026 243.59 82.1277 243.197 83.2713 243.724C84.4078 244.256 84.8401 245.384 84.3067 246.534L84.2936 246.533Z" fill="#C4C4C4"/>
<path d="M72.4626 245.941L67.4913 242.676L68.45 241.221L71.8273 243.437L72.9055 241.793L69.755 239.725L70.7067 238.276L73.8571 240.344L74.9353 238.7L71.558 236.483L72.5167 235.028L77.488 238.293L72.4555 245.947L72.4626 245.941Z" fill="#C4C4C4"/>
<path d="M70.1092 236.731L69.9131 236.975L68.4986 235.82L68.6877 235.583C69.2178 234.929 69.0628 234.25 68.3029 233.627C67.5926 233.046 66.9568 232.979 66.5363 233.49L66.4568 233.583C66.1299 233.988 66.175 234.454 66.6187 235.068L67.4686 236.266C68.3358 237.499 68.4247 238.628 67.6764 239.557L67.5526 239.713C66.5578 240.941 64.8755 240.917 63.3486 239.675C61.7841 238.404 61.513 236.878 62.5943 235.551L62.7834 235.314L64.1919 236.461L63.9957 236.704C63.538 237.272 63.6632 237.816 64.411 238.426C65.0656 238.956 65.6628 239.006 66.025 238.571L66.1045 238.478C66.3801 238.141 66.3036 237.653 65.9279 237.104L65.1042 235.907C64.172 234.571 64.0873 233.475 64.885 232.503L65.0087 232.347C66.083 231.026 67.7611 231.018 69.3692 232.325C71.0582 233.697 71.3194 235.268 70.1144 236.752L70.1092 236.731Z" fill="#C4C4C4"/>
<path d="M59.406 236.104L56.7302 233.417C55.3766 232.063 55.3336 230.488 56.5448 229.283L56.6928 229.155C57.8988 227.929 59.4609 227.972 60.8267 229.34L62.1489 230.672L64.557 228.274L65.9106 229.628L59.4131 236.098L59.406 236.104ZM59.6361 230.626C59.0642 230.049 58.5307 230.03 58.0464 230.509L57.8984 230.637C57.4333 231.125 57.4656 231.675 58.0192 232.231L59.2927 233.507L60.9096 231.902L59.6361 230.626Z" fill="#C4C4C4"/>
<path d="M56.345 219.484L56.5706 219.29L57.8075 220.794L56.7963 222.245L58.6643 224.509L60.2823 223.79L61.5132 225.287L61.2946 225.475L52.683 228.983L51.2574 227.26L56.3389 219.477L56.345 219.484ZM55.8203 223.666L53.7024 226.7L57.0816 225.199L55.8203 223.666Z" fill="#C4C4C4"/>
<path d="M48.8721 217.667L48.5113 217.904C47.6575 218.469 47.5424 219.319 48.16 220.263C48.7898 221.22 49.6665 221.423 50.624 220.794L52.658 219.444C53.5954 218.82 53.759 217.94 53.1231 216.975C52.4923 216.031 51.656 215.817 50.8023 216.382L50.4898 216.59L49.4202 214.966L49.7115 214.776C51.1549 213.826 52.7843 214.031 53.9838 215.236L56.2513 214.485L57.3209 216.109L55.0534 216.86C55.6895 218.452 55.2285 220.056 53.7982 221.008L51.619 222.445C49.9186 223.569 47.8951 223.063 46.6701 221.216C45.4512 219.376 45.7755 217.386 47.4759 216.263L47.8025 216.042L48.8721 217.667Z" fill="#C4C4C4"/>
<path d="M49.0474 213.724L46.7228 214.894C44.9256 215.805 42.9631 215.099 41.9589 213.123C40.9434 211.12 41.5516 209.131 43.3549 208.227L45.6734 207.05C47.4706 206.139 49.4219 206.817 50.4424 208.841C51.4518 210.837 50.8375 212.819 49.0474 213.724ZM46.4758 208.806L44.3085 209.902C43.3 210.415 43.0182 211.286 43.5432 212.322C44.0561 213.344 44.926 213.639 45.9406 213.132L48.1078 212.037C49.1022 211.536 49.3831 210.678 48.8581 209.642C48.3443 208.633 47.4359 208.322 46.4758 208.806Z" fill="#C4C4C4"/>
<path d="M45.6385 205.715L45.3469 205.819L44.7063 204.108L44.9918 203.997C45.7728 203.704 45.9927 203.047 45.6449 202.116C45.3185 201.254 44.811 200.879 44.1935 201.105L44.0714 201.149C43.5891 201.331 43.3926 201.759 43.463 202.511L43.5874 203.966C43.715 205.468 43.2175 206.488 42.1036 206.908L41.9199 206.98C40.4398 207.532 39.0041 206.667 38.3074 204.819C37.6006 202.931 38.1359 201.485 39.7453 200.883L40.0369 200.779L40.6714 202.483L40.3797 202.587C39.7007 202.841 39.5289 203.383 39.8655 204.287C40.1582 205.068 40.6535 205.428 41.1833 205.229L41.3053 205.185C41.713 205.03 41.8982 204.575 41.8413 203.91L41.7362 202.463C41.6041 200.842 42.0926 199.854 43.2671 199.418L43.4507 199.346C45.053 198.751 46.4967 199.597 47.2199 201.532C47.9818 203.569 47.4173 205.054 45.6183 205.72L45.6385 205.715Z" fill="#C4C4C4"/>
<path d="M35.73 195.817L35.2929 193.943L44.2218 191.872L44.6589 193.747L35.73 195.817Z" fill="#C4C4C4"/>
<path d="M33.7926 185.233L42.8614 183.866L43.1533 185.829L38.0828 189.59L43.5992 188.755L43.8744 190.584L34.8056 191.951L34.5128 190.001L39.6509 186.219L34.0679 187.063L33.7926 185.233Z" fill="#C4C4C4"/>
<path d="M35.2863 181.202L35.3945 183.508L33.6449 183.591L33.3317 177.056L35.0813 176.973L35.1895 179.279L42.5989 178.926L42.6887 180.855L35.2792 181.208L35.2863 181.202Z" fill="#C4C4C4"/>
<path d="M33.3537 175.486L33.6245 169.543L35.3686 169.625L35.1849 173.66L37.1594 173.752L37.337 169.981L39.0679 170.062L38.8904 173.833L40.8649 173.926L41.0486 169.891L42.7927 169.973L42.5218 175.916L33.3598 175.493L33.3537 175.486Z" fill="#C4C4C4"/>
<path d="M33.8289 167.629L34.1 165.734L41.4266 166.781L42.0101 162.697L43.7488 162.943L42.9011 168.917L33.8229 167.622L33.8289 167.629Z" fill="#C4C4C4"/>
<path d="M35.0012 160.305L35.4036 158.419L44.37 160.34L43.9675 162.226L35.0012 160.305Z" fill="#C4C4C4"/>
<path d="M40.4508 152.093L40.2374 152.031C39.4495 151.788 38.7108 152.315 38.4063 153.316C38.0568 154.479 38.4629 155.335 39.5421 155.659L41.9007 156.367C42.9991 156.699 43.7785 156.248 44.1369 155.052C44.3636 154.303 44.3006 153.631 43.9703 153.092L43.0722 152.821L42.3572 155.185L40.7551 154.698L42.0113 150.537L46.7345 151.961L46.2793 153.486L45.7163 153.418C46.0318 154.069 46.0647 154.791 45.804 155.644C45.1509 157.795 43.4178 158.823 41.4345 158.222L38.9343 157.463C36.957 156.868 36.0774 154.994 36.7253 152.823C37.3784 150.672 38.9952 149.608 40.8107 150.158L41.0241 150.22L40.4659 152.068L40.4508 152.093Z" fill="#C4C4C4"/>
<path d="M38.7226 147.311L41.04 141.828L42.6478 142.508L41.0809 146.223L42.9002 146.991L44.3699 143.52L45.9646 144.198L44.4948 147.67L46.3141 148.438L47.881 144.722L49.4889 145.402L47.1715 150.885L38.7358 147.312L38.7226 147.311Z" fill="#C4C4C4"/>
<path d="M45.1969 134.07L53.2124 138.51L52.2528 140.249L45.947 140.141L50.8213 142.838L49.9238 144.449L41.9083 140.009L42.8599 138.29L49.2365 138.422L44.2985 135.694L45.1899 134.076L45.1969 134.07Z" fill="#C4C4C4"/>
<path d="M48.8087 131.8L47.4879 133.69L46.0487 132.693L49.784 127.328L51.2232 128.325L49.9023 130.216L55.9914 134.448L54.8918 136.025L48.8027 131.793L48.8087 131.8Z" fill="#C4C4C4"/>
<path d="M50.7711 126.079L54.6174 121.541L55.9479 122.669L53.3381 125.746L54.843 127.019L57.2797 124.141L58.6042 125.262L56.1675 128.14L57.6723 129.413L60.2821 126.336L61.6127 127.464L57.7664 132.003L50.7781 126.073L50.7711 126.079Z" fill="#C4C4C4"/>
<path d="M60.2012 124.87L59.9862 124.65L61.3011 123.379L61.5161 123.6C62.0992 124.204 62.791 124.136 63.5019 123.449C64.1694 122.811 64.3076 122.187 63.8473 121.711L63.7681 121.619C63.4051 121.256 62.9303 121.247 62.2698 121.608L60.977 122.305C59.65 123.02 58.5112 122.969 57.6888 122.116L57.561 121.968C56.4618 120.837 56.6761 119.175 58.0907 117.807C59.5406 116.408 61.0861 116.317 62.2766 117.553L62.4915 117.774L61.1836 119.038L60.9687 118.818C60.4657 118.292 59.9001 118.349 59.2034 119.025C58.5993 119.607 58.47 120.199 58.8625 120.611L58.9416 120.703C59.2428 121.009 59.7388 120.999 60.3297 120.686L61.6145 120.008C63.0504 119.248 64.1498 119.296 65.0219 120.192L65.1497 120.34C66.3412 121.564 66.14 123.227 64.6539 124.669C63.0832 126.185 61.5064 126.254 60.1678 124.874L60.2012 124.87Z" fill="#C4C4C4"/>
<path d="M68.5421 115.507C67.8293 114.51 68.0362 113.31 69.054 112.579C70.0718 111.849 71.2657 112.049 71.9785 113.046C72.7217 114.078 72.5097 115.257 71.4919 115.988C70.4741 116.719 69.2783 116.545 68.535 115.513L68.5421 115.507Z" fill="#C4C4C4"/>
</g>
<defs>
<clipPath id="clip0_33_547">
<rect width="162.701" height="162.701" fill="white" transform="translate(0 167.947) rotate(-40.7987)"/>
</clipPath>
</defs>
</svg>
