<svg width="50" height="42" viewBox="0 0 50 42" fill="none" xmlns="http://www.w3.org/2000/svg">
<g clip-path="url(#clip0_808_10567)">
<path d="M49.1983 6.31299H10.583V11.1691H49.1983V6.31299Z" stroke="#313131" stroke-width="2" stroke-miterlimit="10"/>
<path d="M21.6819 11.1656H14.4697L15.9016 6.31299H23.1103L21.6819 11.1656Z" stroke="#313131" stroke-width="2" stroke-miterlimit="10"/>
<path d="M28.9052 11.1656H21.6965L23.1249 6.31293H30.3371L28.9052 11.1656Z" stroke="#313131" stroke-width="2" stroke-miterlimit="10"/>
<path d="M36.1276 11.1656H28.9189L30.3473 6.31299H37.5595L36.1276 11.1656Z" stroke="#313131" stroke-width="2" stroke-miterlimit="10"/>
<path d="M43.2663 11.1656H36.0576L37.486 6.31293H44.6982L43.2663 11.1656Z" stroke="#313131" stroke-width="2" stroke-miterlimit="10"/>
<path d="M10.5196 0.781738H4.66895V36.3586H10.5196V0.781738Z" stroke="#313131" stroke-width="2" stroke-miterlimit="10"/>
<path d="M14.3857 36.3586H0.798584V41.2147H14.3857V36.3586Z" stroke="#313131" stroke-width="2" stroke-miterlimit="10"/>
<path d="M36.6384 11.1655H21.1973V22.1141H36.6384V11.1655Z" stroke="#313131" stroke-width="2" stroke-miterlimit="10"/>
<path d="M26.7061 18.8838H31.1319" stroke="#313131" stroke-width="2" stroke-miterlimit="10"/>
</g>
<defs>
<clipPath id="clip0_808_10567">
<rect width="50" height="42" fill="white"/>
</clipPath>
</defs>
</svg>
