<svg width="52" height="45" viewBox="0 0 52 45" fill="none" xmlns="http://www.w3.org/2000/svg">
<path d="M50 6.39692L2 2V32H35.463H50V6.39692Z" stroke="#FF8400" stroke-width="2" stroke-miterlimit="10"/>
<path d="M13 40V36" stroke="#FF8400" stroke-width="2" stroke-miterlimit="10"/>
<path d="M3 41H49" stroke="#FF8400" stroke-width="2" stroke-miterlimit="10"/>
<path d="M22 40V38" stroke="#FF8400" stroke-width="2" stroke-miterlimit="10"/>
<path d="M17 40V38" stroke="#FF8400" stroke-width="2" stroke-miterlimit="10"/>
<path d="M9 40V38" stroke="#FF8400" stroke-width="2" stroke-miterlimit="10"/>
<path d="M39 40V36" stroke="#FF8400" stroke-width="2" stroke-miterlimit="10"/>
<path d="M26 40V36" stroke="#FF8400" stroke-width="2" stroke-miterlimit="10"/>
<path d="M43 40V38" stroke="#FF8400" stroke-width="2" stroke-miterlimit="10"/>
<path d="M35 40V38" stroke="#FF8400" stroke-width="2" stroke-miterlimit="10"/>
<path d="M30 40V38" stroke="#FF8400" stroke-width="2" stroke-miterlimit="10"/>
<path d="M10 12H42" stroke="#FF8400" stroke-width="2" stroke-miterlimit="10"/>
<path d="M10 17H42" stroke="#FF8400" stroke-width="2" stroke-miterlimit="10"/>
<path d="M10 21H42" stroke="#FF8400" stroke-width="2" stroke-miterlimit="10"/>
<path d="M10 26H42" stroke="#FF8400" stroke-width="2" stroke-miterlimit="10"/>
<path d="M10 26V12H42V26" stroke="#FF8400" stroke-width="2" stroke-miterlimit="10"/>
<path d="M42 26V32H10V26" stroke="#FF8400" stroke-width="2" stroke-miterlimit="10"/>
<path d="M24 29H28" stroke="#FF8400" stroke-width="2" stroke-miterlimit="10"/>
<path d="M46 37L50 40.502L46 44" stroke="#FF8400" stroke-width="2" stroke-miterlimit="10"/>
<path d="M5 44L2 40.502L5 37" stroke="#FF8400" stroke-width="2" stroke-miterlimit="10"/>
</svg>
