<svg width="347" height="132" viewBox="0 0 347 132" fill="none" xmlns="http://www.w3.org/2000/svg">
<path d="M100.113 3.44922H94.8101L91.02 7.29187L87.2316 3.44922H81.9268L78 7.29187V13.8323L91.02 26.3329L104.04 13.8323V7.29187L100.113 3.44922Z" stroke="#C3D600" stroke-width="1.57819" stroke-miterlimit="10"/>
<path d="M135.248 26.5027C138.539 26.5027 141.206 23.8355 141.206 20.5453C141.206 17.2551 138.539 14.5879 135.248 14.5879C131.958 14.5879 129.291 17.2551 129.291 20.5453C129.291 23.8355 131.958 26.5027 135.248 26.5027Z" stroke="#C3D600" stroke-width="1.57819" stroke-miterlimit="10"/>
<path d="M161.496 26.5027C164.787 26.5027 167.454 23.8355 167.454 20.5453C167.454 17.2551 164.787 14.5879 161.496 14.5879C158.206 14.5879 155.539 17.2551 155.539 20.5453C155.539 23.8355 158.206 26.5027 161.496 26.5027Z" stroke="#C3D600" stroke-width="1.57819" stroke-miterlimit="10"/>
<path d="M135.332 21.0183L138.216 10.4819V5.07835C138.917 4.37648 139.313 3.98116 140.015 3.2793H143.816" stroke="#C3D600" stroke-width="1.57819" stroke-miterlimit="10"/>
<path d="M138.213 10.4824H156.356L161.647 18.8202C161.231 19.5792 161.138 19.7483 160.719 20.5072H149.329C148.13 19.8223 147.168 19.2705 145.969 18.5856L141.204 10.4824" stroke="#C3D600" stroke-width="1.57819" stroke-miterlimit="10"/>
<path d="M156.357 10.4823V7.14844" stroke="#C3D600" stroke-width="1.57819" stroke-miterlimit="10"/>
<path d="M152.396 7.14844H160.314" stroke="#C3D600" stroke-width="1.57819" stroke-miterlimit="10"/>
<path d="M156.357 10.4824L147.66 19.5517" stroke="#C3D600" stroke-width="1.57819" stroke-miterlimit="10"/>
<path d="M225.648 4.51953L219.856 8.33962V25.2605H198.5V8.33962L192.705 4.51953" stroke="#C3D600" stroke-width="1.57819" stroke-miterlimit="10"/>
<path d="M203.156 8.47266H215.202" stroke="#C3D600" stroke-width="1.57819" stroke-miterlimit="10"/>
<path d="M251.689 25.1213V13.9864H268.63V25.1213L266.323 27.4285H253.997L252.843 26.2749L251.689 25.1213Z" stroke="#C3D600" stroke-width="1.57819"/>
<path d="M252.492 11.3971V4.50103C253.64 3.3531 254.283 2.71043 255.431 1.5625H264.889C266.037 2.71043 266.68 3.3531 267.828 4.50103V11.3971" stroke="#C3D600" stroke-width="1.57819" stroke-miterlimit="10"/>
<path d="M260.161 20.7068C261.173 20.7068 261.994 19.8862 261.994 18.8739C261.994 17.8616 261.173 17.041 260.161 17.041C259.149 17.041 258.328 17.8616 258.328 18.8739C258.328 19.8862 259.149 20.7068 260.161 20.7068Z" fill="#C3D600"/>
<path d="M260.16 18.875V23.4625" stroke="#C3D600" stroke-width="1.57819" stroke-miterlimit="10"/>
<path d="M186.625 73.7725H196.407L195.656 77.362H185.817L180.202 102.366H176.094L181.707 77.362H173.893L174.644 73.7725H182.515C184.233 63.5048 186.757 61.5409 196.928 62.0813L196.177 65.6708C188.424 65.3259 188.093 66.2903 186.627 73.7747L186.625 73.7725Z" fill="white"/>
<path d="M217.129 73.7724L216.378 77.362C211.903 77.1181 206.798 77.4059 204.166 81.5886L199.592 102.368H195.484L201.851 73.7746H205.324L204.977 76.5536C207.991 73.6121 213.054 73.6494 217.131 73.7746L217.129 73.7724Z" fill="white"/>
<path d="M222.458 73.7727H226.568L220.202 102.366H216.094L222.46 73.7727H222.458ZM223.328 65.7281C223.596 62.0683 229.562 62.0925 229.173 66.0181C228.96 69.7702 222.875 69.6735 223.328 65.7281Z" fill="white"/>
<path d="M255.164 85.0014L254.296 89.4586H235.081C230.92 100.899 246.651 102.861 249.318 93.4523H253.485C251.302 106.789 227.172 106.115 230.738 90.9634L232.359 83.8459C233.675 70.3467 258.037 68.6332 255.164 85.0036V85.0014ZM235.832 86.2162H250.88C254.762 74.3887 237.919 73.5869 236.293 84.2479L235.83 86.2162H235.832Z" fill="white"/>
<path d="M285.554 84.7122L281.734 102.365H277.626L281.503 84.6551C282.545 79.91 280.462 76.8411 275.948 76.8411C272.765 76.8411 269.812 78.3459 267.846 80.892L263.042 102.365H258.934L265.243 73.7722H268.773L268.426 76.6654C275.08 69.6928 288.671 73.4713 285.559 84.71L285.554 84.7122Z" fill="white"/>
<path d="M321.098 62.0801L312.126 102.365H308.596L308.943 99.6449C301.955 106.635 288.715 102.154 291.464 91.1368L293.085 83.67C294.284 73.5385 307.66 69.5381 313.691 76.7831L316.99 62.0801H321.098ZM312.821 80.9482C309.844 74.1492 298.025 76.2493 297.138 83.9578L295.457 91.3653C293.217 100.57 305.426 101.563 309.58 95.2997L312.821 80.946V80.9482Z" fill="white"/>
<path d="M321.387 94.2043L321.503 93.5673H325.611C322.918 101.212 339.418 101.115 339.848 95.3027C340.477 92.5502 339.453 90.7115 335.567 89.9206L332.036 89.1693C319.763 86.4893 325.167 72.1421 336.724 73.1373C344 73.1373 348.113 77.0959 346.737 82.5131H342.686C345.564 75.2462 329.321 74.7563 329.2 81.0083C327.669 89.009 345.771 83.3435 343.901 95.0149C343.671 105.709 318.959 105.83 321.387 94.2043Z" fill="white"/>
<path d="M35.8579 101.508L26.6358 105.677C29.2082 115.242 17.6466 122.265 11.0036 114.541L5.08984 122.997C20.0521 136.197 42.6591 120.194 35.8579 101.508Z" fill="white"/>
<path d="M146.711 92.3865C162.929 92.1054 159.443 69.1644 142.471 73.6876V92.3865H146.711ZM132.062 64.8654C145.142 62.082 168.057 62.6532 167.747 82.7273C167.769 101.883 147.965 102.498 132.062 101.617V64.8654Z" fill="white"/>
<path d="M116.303 82.9351C116.443 70.4245 98.1791 70.0532 98.1769 82.733C98.0429 95.2964 116.311 95.5666 116.303 82.9351ZM88.0762 82.9417C88.085 57.1933 126.342 56.9846 126.355 82.8385C126.23 108.437 88.2036 108.655 88.0762 82.9417Z" fill="white"/>
<path d="M73.533 82.9351C73.6736 70.4245 55.4096 70.0532 55.4074 82.733C55.2734 95.2964 73.5418 95.5666 73.533 82.9351ZM45.3066 82.9417C45.3154 57.1933 83.5723 56.9846 83.5854 82.8385C83.4602 108.437 45.4341 108.655 45.3066 82.9417Z" fill="white"/>
<path d="M42.2175 63.3009H18.9119C-6.17962 63.2174 -6.3949 102.45 18.8131 102.366C33.7292 102.788 42.6481 85.418 35.5591 73.0348H42.2175V63.3009ZM27.9495 82.9357C27.9561 95.5715 9.68769 95.2947 9.82389 82.7336C9.82828 70.0516 28.0923 70.4273 27.9495 82.9357Z" fill="white"/>
<path d="M51.82 128.838C49.06 128.838 47.34 127.098 47.34 124.358V115.478H49.22V124.358C49.22 126.098 50.14 127.118 51.82 127.118C53.5 127.118 54.46 126.118 54.46 124.358V115.478H56.34V124.358C56.34 127.098 54.62 128.838 51.82 128.838ZM69.2997 118.438C71.5997 118.438 73.0197 119.858 73.0197 122.298V128.598H71.2197V122.438C71.2197 121.018 70.3597 120.138 69.0597 120.138C68.0997 120.138 67.2797 120.618 66.7997 121.338C66.8597 121.638 66.8797 121.958 66.8797 122.298V128.598H65.0797V122.438C65.0797 121.018 64.2197 120.138 62.9197 120.138C62.0197 120.138 61.2197 120.558 60.7397 121.258V128.598H58.9397V118.678H60.5597L60.6197 119.458C61.2997 118.798 62.2197 118.438 63.3197 118.438C64.5597 118.438 65.5597 118.918 66.1797 119.798C66.8797 118.938 67.9397 118.438 69.2997 118.438ZM84.1241 126.958H84.8241V128.598H83.7641C82.8041 128.598 82.0841 128.258 81.7041 127.618C80.9841 128.418 79.9041 128.838 78.5841 128.838C76.4441 128.838 75.1041 127.758 75.1041 125.978C75.1041 124.358 76.1441 123.438 78.3641 123.138L81.3441 122.738V122.098C81.3441 120.818 80.6041 120.138 79.1841 120.138C77.7841 120.138 77.0041 120.818 77.0041 121.998V122.138H75.1841V121.998C75.1841 119.818 76.7441 118.438 79.2441 118.438C81.7441 118.438 83.1641 119.778 83.1641 122.138V125.958C83.1641 126.598 83.4641 126.958 84.1241 126.958ZM78.7041 127.278C79.8841 127.278 80.8441 126.738 81.3441 125.858V124.158L78.6641 124.558C77.5041 124.738 76.9041 125.198 76.9041 125.958C76.9041 126.778 77.6041 127.278 78.7041 127.278ZM98.6113 118.678H100.391V118.958L96.8313 128.598H94.6513L91.0913 118.958V118.678H92.8713L95.7513 126.538L98.6113 118.678ZM109.87 124.298H103.35V124.778C103.35 126.258 104.27 127.158 105.79 127.158C107.09 127.158 108.05 126.438 108.07 125.498H109.87C109.77 127.478 108.13 128.838 105.79 128.838C103.23 128.838 101.55 127.258 101.55 124.838V122.458C101.55 120.038 103.23 118.438 105.75 118.438C108.25 118.438 109.87 120.038 109.87 122.438V124.298ZM105.75 120.118C104.27 120.118 103.35 121.058 103.35 122.518V122.798H108.07V122.518C108.07 121.038 107.17 120.118 105.75 120.118ZM116.384 118.678H117.744V120.318H116.304C115.304 120.318 114.504 120.778 114.064 121.598V128.598H112.264V118.678H113.884L113.944 119.518C114.604 118.958 115.444 118.678 116.384 118.678ZM125.18 114.678H126.98V128.598H125.36L125.28 127.778C124.6 128.458 123.62 128.838 122.48 128.838C120.14 128.838 118.64 127.278 118.64 124.898V122.358C118.64 119.998 120.14 118.438 122.46 118.438C123.56 118.438 124.5 118.798 125.18 119.458V114.678ZM122.82 127.138C123.82 127.138 124.7 126.678 125.18 125.858V121.418C124.72 120.598 123.82 120.138 122.82 120.138C121.38 120.138 120.46 121.018 120.46 122.438V124.838C120.46 126.258 121.38 127.138 122.82 127.138ZM138.245 126.958H138.945V128.598H137.885C136.925 128.598 136.205 128.258 135.825 127.618C135.105 128.418 134.025 128.838 132.705 128.838C130.565 128.838 129.225 127.758 129.225 125.978C129.225 124.358 130.265 123.438 132.485 123.138L135.465 122.738V122.098C135.465 120.818 134.725 120.138 133.305 120.138C131.905 120.138 131.125 120.818 131.125 121.998V122.138H129.305V121.998C129.305 119.818 130.865 118.438 133.365 118.438C135.865 118.438 137.285 119.778 137.285 122.138V125.958C137.285 126.598 137.585 126.958 138.245 126.958ZM132.825 127.278C134.005 127.278 134.965 126.738 135.465 125.858V124.158L132.785 124.558C131.625 124.738 131.025 125.198 131.025 125.958C131.025 126.778 131.725 127.278 132.825 127.278ZM146.567 114.678H148.367V128.598H146.747L146.667 127.778C145.987 128.458 145.007 128.838 143.867 128.838C141.527 128.838 140.027 127.278 140.027 124.898V122.358C140.027 119.998 141.527 118.438 143.847 118.438C144.947 118.438 145.887 118.798 146.567 119.458V114.678ZM144.207 127.138C145.207 127.138 146.087 126.678 146.567 125.858V121.418C146.107 120.598 145.207 120.138 144.207 120.138C142.767 120.138 141.847 121.018 141.847 122.438V124.838C141.847 126.258 142.767 127.138 144.207 127.138ZM158.972 124.298H152.452V124.778C152.452 126.258 153.372 127.158 154.892 127.158C156.192 127.158 157.152 126.438 157.172 125.498H158.972C158.872 127.478 157.232 128.838 154.892 128.838C152.332 128.838 150.652 127.258 150.652 124.838V122.458C150.652 120.038 152.332 118.438 154.852 118.438C157.352 118.438 158.972 120.038 158.972 122.438V124.298ZM154.852 120.118C153.372 120.118 152.452 121.058 152.452 122.518V122.798H157.172V122.518C157.172 121.038 156.272 120.118 154.852 120.118ZM162.265 117.158C161.545 117.158 161.025 116.638 161.025 115.938C161.025 115.198 161.565 114.698 162.265 114.698C162.985 114.698 163.505 115.198 163.505 115.938C163.505 116.638 162.985 117.158 162.265 117.158ZM161.365 128.598V118.678H163.165V128.598H161.365ZM170.153 118.678H171.513V120.318H170.073C169.073 120.318 168.273 120.778 167.833 121.598V128.598H166.033V118.678H167.653L167.713 119.518C168.373 118.958 169.213 118.678 170.153 118.678ZM181.39 126.958H182.09V128.598H181.03C180.07 128.598 179.35 128.258 178.97 127.618C178.25 128.418 177.17 128.838 175.85 128.838C173.71 128.838 172.37 127.758 172.37 125.978C172.37 124.358 173.41 123.438 175.63 123.138L178.61 122.738V122.098C178.61 120.818 177.87 120.138 176.45 120.138C175.05 120.138 174.27 120.818 174.27 121.998V122.138H172.45V121.998C172.45 119.818 174.01 118.438 176.51 118.438C179.01 118.438 180.43 119.778 180.43 122.138V125.958C180.43 126.598 180.73 126.958 181.39 126.958ZM175.97 127.278C177.15 127.278 178.11 126.738 178.61 125.858V124.158L175.93 124.558C174.77 124.738 174.17 125.198 174.17 125.958C174.17 126.778 174.87 127.278 175.97 127.278ZM193.637 118.438C195.957 118.438 197.457 119.978 197.457 122.358V124.918C197.457 127.278 195.957 128.838 193.637 128.838C192.537 128.838 191.597 128.478 190.917 127.838V131.998H189.117V118.678H190.737L190.817 119.518C191.517 118.818 192.497 118.438 193.637 118.438ZM195.637 124.838V122.438C195.637 121.038 194.737 120.138 193.297 120.138C192.257 120.138 191.377 120.638 190.917 121.458V125.838C191.357 126.638 192.217 127.138 193.297 127.138C194.737 127.138 195.637 126.258 195.637 124.838ZM203.962 118.678H205.322V120.318H203.882C202.882 120.318 202.082 120.778 201.642 121.598V128.598H199.842V118.678H201.462L201.522 119.518C202.182 118.958 203.022 118.678 203.962 118.678ZM210.398 128.838C207.878 128.838 206.218 127.258 206.218 124.818V122.478C206.218 120.038 207.858 118.438 210.398 118.438C212.958 118.438 214.618 120.038 214.618 122.478V124.818C214.618 127.238 212.958 128.838 210.398 128.838ZM210.418 127.138C211.898 127.138 212.818 126.218 212.818 124.778V122.538C212.818 121.058 211.918 120.138 210.418 120.138C208.938 120.138 208.018 121.058 208.018 122.538V124.778C208.018 126.238 208.958 127.138 210.418 127.138ZM223.279 118.678H225.059V118.958L221.499 128.598H219.319L215.759 118.958V118.678H217.539L220.419 126.538L223.279 118.678ZM235.276 126.958H235.976V128.598H234.916C233.956 128.598 233.236 128.258 232.856 127.618C232.136 128.418 231.056 128.838 229.736 128.838C227.596 128.838 226.256 127.758 226.256 125.978C226.256 124.358 227.296 123.438 229.516 123.138L232.496 122.738V122.098C232.496 120.818 231.756 120.138 230.336 120.138C228.936 120.138 228.156 120.818 228.156 121.998V122.138H226.336V121.998C226.336 119.818 227.896 118.438 230.396 118.438C232.896 118.438 234.316 119.778 234.316 122.138V125.958C234.316 126.598 234.616 126.958 235.276 126.958ZM229.856 127.278C231.036 127.278 231.996 126.738 232.496 125.858V124.158L229.816 124.558C228.656 124.738 228.056 125.198 228.056 125.958C228.056 126.778 228.756 127.278 229.856 127.278ZM249.204 114.678H251.004V128.598H249.384L249.304 127.778C248.624 128.458 247.644 128.838 246.504 128.838C244.164 128.838 242.664 127.278 242.664 124.898V122.358C242.664 119.998 244.164 118.438 246.484 118.438C247.584 118.438 248.524 118.798 249.204 119.458V114.678ZM246.844 127.138C247.844 127.138 248.724 126.678 249.204 125.858V121.418C248.744 120.598 247.844 120.138 246.844 120.138C245.404 120.138 244.484 121.018 244.484 122.438V124.838C244.484 126.258 245.404 127.138 246.844 127.138ZM261.609 124.298H255.089V124.778C255.089 126.258 256.009 127.158 257.529 127.158C258.829 127.158 259.789 126.438 259.809 125.498H261.609C261.509 127.478 259.869 128.838 257.529 128.838C254.969 128.838 253.289 127.258 253.289 124.838V122.458C253.289 120.038 254.969 118.438 257.489 118.438C259.989 118.438 261.609 120.038 261.609 122.438V124.298ZM257.489 120.118C256.009 120.118 255.089 121.058 255.089 122.518V122.798H259.809V122.518C259.809 121.038 258.909 120.118 257.489 120.118ZM278.148 126.958H278.848V128.598H277.788C276.828 128.598 276.108 128.258 275.728 127.618C275.008 128.418 273.928 128.838 272.608 128.838C270.468 128.838 269.128 127.758 269.128 125.978C269.128 124.358 270.168 123.438 272.388 123.138L275.368 122.738V122.098C275.368 120.818 274.628 120.138 273.208 120.138C271.808 120.138 271.028 120.818 271.028 121.998V122.138H269.208V121.998C269.208 119.818 270.768 118.438 273.268 118.438C275.768 118.438 277.188 119.778 277.188 122.138V125.958C277.188 126.598 277.488 126.958 278.148 126.958ZM272.728 127.278C273.908 127.278 274.868 126.738 275.368 125.858V124.158L272.688 124.558C271.528 124.738 270.928 125.198 270.928 125.958C270.928 126.778 271.628 127.278 272.728 127.278ZM290.569 118.438C292.869 118.438 294.289 119.858 294.289 122.298V128.598H292.489V122.438C292.489 121.018 291.629 120.138 290.329 120.138C289.369 120.138 288.549 120.618 288.069 121.338C288.129 121.638 288.149 121.958 288.149 122.298V128.598H286.349V122.438C286.349 121.018 285.489 120.138 284.189 120.138C283.289 120.138 282.489 120.558 282.009 121.258V128.598H280.209V118.678H281.829L281.889 119.458C282.569 118.798 283.489 118.438 284.589 118.438C285.829 118.438 286.829 118.918 287.449 119.798C288.149 118.938 289.209 118.438 290.569 118.438ZM297.754 117.158C297.034 117.158 296.514 116.638 296.514 115.938C296.514 115.198 297.054 114.698 297.754 114.698C298.474 114.698 298.994 115.198 298.994 115.938C298.994 116.638 298.474 117.158 297.754 117.158ZM296.854 128.598V118.678H298.654V128.598H296.854ZM308.802 118.678V120.298L303.342 126.958H308.802V128.598H301.162V126.958L306.662 120.298H301.162V118.678H308.802ZM319.632 126.958H320.332V128.598H319.272C318.312 128.598 317.592 128.258 317.212 127.618C316.492 128.418 315.412 128.838 314.092 128.838C311.952 128.838 310.612 127.758 310.612 125.978C310.612 124.358 311.652 123.438 313.872 123.138L316.852 122.738V122.098C316.852 120.818 316.112 120.138 314.692 120.138C313.292 120.138 312.512 120.818 312.512 121.998V122.138H310.692V121.998C310.692 119.818 312.252 118.438 314.752 118.438C317.252 118.438 318.672 119.778 318.672 122.138V125.958C318.672 126.598 318.972 126.958 319.632 126.958ZM314.212 127.278C315.392 127.278 316.352 126.738 316.852 125.858V124.158L314.172 124.558C313.012 124.738 312.412 125.198 312.412 125.958C312.412 126.778 313.112 127.278 314.212 127.278ZM327.954 114.678H329.754V128.598H328.134L328.054 127.778C327.374 128.458 326.394 128.838 325.254 128.838C322.914 128.838 321.414 127.278 321.414 124.898V122.358C321.414 119.998 322.914 118.438 325.234 118.438C326.334 118.438 327.274 118.798 327.954 119.458V114.678ZM325.594 127.138C326.594 127.138 327.474 126.678 327.954 125.858V121.418C327.494 120.598 326.594 120.138 325.594 120.138C324.154 120.138 323.234 121.018 323.234 122.438V124.838C323.234 126.258 324.154 127.138 325.594 127.138ZM340.359 124.298H333.839V124.778C333.839 126.258 334.759 127.158 336.279 127.158C337.579 127.158 338.539 126.438 338.559 125.498H340.359C340.259 127.478 338.619 128.838 336.279 128.838C333.719 128.838 332.039 127.258 332.039 124.838V122.458C332.039 120.038 333.719 118.438 336.239 118.438C338.739 118.438 340.359 120.038 340.359 122.438V124.298ZM336.239 120.118C334.759 120.118 333.839 121.058 333.839 122.518V122.798H338.559V122.518C338.559 121.038 337.659 120.118 336.239 120.118ZM343.312 124.998L343.232 115.478H345.112L345.012 124.998H343.312ZM344.172 128.838C343.492 128.838 342.992 128.358 342.992 127.658C342.992 126.958 343.492 126.478 344.172 126.478C344.852 126.478 345.352 126.958 345.352 127.658C345.352 128.358 344.852 128.838 344.172 128.838Z" fill="white"/>
</svg>
