<svg width="506" height="301" viewBox="0 0 506 301" fill="none" xmlns="http://www.w3.org/2000/svg">
<path d="M142.82 198.24C140.06 198.24 138.34 196.5 138.34 193.76V184.88H140.22V193.76C140.22 195.5 141.14 196.52 142.82 196.52C144.5 196.52 145.46 195.52 145.46 193.76V184.88H147.34V193.76C147.34 196.5 145.62 198.24 142.82 198.24ZM160.3 187.84C162.6 187.84 164.02 189.26 164.02 191.7V198H162.22V191.84C162.22 190.42 161.36 189.54 160.06 189.54C159.1 189.54 158.28 190.02 157.8 190.74C157.86 191.04 157.88 191.36 157.88 191.7V198H156.08V191.84C156.08 190.42 155.22 189.54 153.92 189.54C153.02 189.54 152.22 189.96 151.74 190.66V198H149.94V188.08H151.56L151.62 188.86C152.3 188.2 153.22 187.84 154.32 187.84C155.56 187.84 156.56 188.32 157.18 189.2C157.88 188.34 158.94 187.84 160.3 187.84ZM175.124 196.36H175.824V198H174.764C173.804 198 173.084 197.66 172.704 197.02C171.984 197.82 170.904 198.24 169.584 198.24C167.444 198.24 166.104 197.16 166.104 195.38C166.104 193.76 167.144 192.84 169.364 192.54L172.344 192.14V191.5C172.344 190.22 171.604 189.54 170.184 189.54C168.784 189.54 168.004 190.22 168.004 191.4V191.54H166.184V191.4C166.184 189.22 167.744 187.84 170.244 187.84C172.744 187.84 174.164 189.18 174.164 191.54V195.36C174.164 196 174.464 196.36 175.124 196.36ZM169.704 196.68C170.884 196.68 171.844 196.14 172.344 195.26V193.56L169.664 193.96C168.504 194.14 167.904 194.6 167.904 195.36C167.904 196.18 168.604 196.68 169.704 196.68ZM189.611 188.08H191.391V188.36L187.831 198H185.651L182.091 188.36V188.08H183.871L186.751 195.94L189.611 188.08ZM200.87 193.7H194.35V194.18C194.35 195.66 195.27 196.56 196.79 196.56C198.09 196.56 199.05 195.84 199.07 194.9H200.87C200.77 196.88 199.13 198.24 196.79 198.24C194.23 198.24 192.55 196.66 192.55 194.24V191.86C192.55 189.44 194.23 187.84 196.75 187.84C199.25 187.84 200.87 189.44 200.87 191.84V193.7ZM196.75 189.52C195.27 189.52 194.35 190.46 194.35 191.92V192.2H199.07V191.92C199.07 190.44 198.17 189.52 196.75 189.52ZM207.384 188.08H208.744V189.72H207.304C206.304 189.72 205.504 190.18 205.064 191V198H203.264V188.08H204.884L204.944 188.92C205.604 188.36 206.444 188.08 207.384 188.08ZM216.18 184.08H217.98V198H216.36L216.28 197.18C215.6 197.86 214.62 198.24 213.48 198.24C211.14 198.24 209.64 196.68 209.64 194.3V191.76C209.64 189.4 211.14 187.84 213.46 187.84C214.56 187.84 215.5 188.2 216.18 188.86V184.08ZM213.82 196.54C214.82 196.54 215.7 196.08 216.18 195.26V190.82C215.72 190 214.82 189.54 213.82 189.54C212.38 189.54 211.46 190.42 211.46 191.84V194.24C211.46 195.66 212.38 196.54 213.82 196.54ZM229.245 196.36H229.945V198H228.885C227.925 198 227.205 197.66 226.825 197.02C226.105 197.82 225.025 198.24 223.705 198.24C221.565 198.24 220.225 197.16 220.225 195.38C220.225 193.76 221.265 192.84 223.485 192.54L226.465 192.14V191.5C226.465 190.22 225.725 189.54 224.305 189.54C222.905 189.54 222.125 190.22 222.125 191.4V191.54H220.305V191.4C220.305 189.22 221.865 187.84 224.365 187.84C226.865 187.84 228.285 189.18 228.285 191.54V195.36C228.285 196 228.585 196.36 229.245 196.36ZM223.825 196.68C225.005 196.68 225.965 196.14 226.465 195.26V193.56L223.785 193.96C222.625 194.14 222.025 194.6 222.025 195.36C222.025 196.18 222.725 196.68 223.825 196.68ZM237.567 184.08H239.367V198H237.747L237.667 197.18C236.987 197.86 236.007 198.24 234.867 198.24C232.527 198.24 231.027 196.68 231.027 194.3V191.76C231.027 189.4 232.527 187.84 234.847 187.84C235.947 187.84 236.887 188.2 237.567 188.86V184.08ZM235.207 196.54C236.207 196.54 237.087 196.08 237.567 195.26V190.82C237.107 190 236.207 189.54 235.207 189.54C233.767 189.54 232.847 190.42 232.847 191.84V194.24C232.847 195.66 233.767 196.54 235.207 196.54ZM249.972 193.7H243.452V194.18C243.452 195.66 244.372 196.56 245.892 196.56C247.192 196.56 248.152 195.84 248.172 194.9H249.972C249.872 196.88 248.232 198.24 245.892 198.24C243.332 198.24 241.652 196.66 241.652 194.24V191.86C241.652 189.44 243.332 187.84 245.852 187.84C248.352 187.84 249.972 189.44 249.972 191.84V193.7ZM245.852 189.52C244.372 189.52 243.452 190.46 243.452 191.92V192.2H248.172V191.92C248.172 190.44 247.272 189.52 245.852 189.52ZM253.265 186.56C252.545 186.56 252.025 186.04 252.025 185.34C252.025 184.6 252.565 184.1 253.265 184.1C253.985 184.1 254.505 184.6 254.505 185.34C254.505 186.04 253.985 186.56 253.265 186.56ZM252.365 198V188.08H254.165V198H252.365ZM261.153 188.08H262.513V189.72H261.073C260.073 189.72 259.273 190.18 258.833 191V198H257.033V188.08H258.653L258.713 188.92C259.373 188.36 260.213 188.08 261.153 188.08ZM272.39 196.36H273.09V198H272.03C271.07 198 270.35 197.66 269.97 197.02C269.25 197.82 268.17 198.24 266.85 198.24C264.71 198.24 263.37 197.16 263.37 195.38C263.37 193.76 264.41 192.84 266.63 192.54L269.61 192.14V191.5C269.61 190.22 268.87 189.54 267.45 189.54C266.05 189.54 265.27 190.22 265.27 191.4V191.54H263.45V191.4C263.45 189.22 265.01 187.84 267.51 187.84C270.01 187.84 271.43 189.18 271.43 191.54V195.36C271.43 196 271.73 196.36 272.39 196.36ZM266.97 196.68C268.15 196.68 269.11 196.14 269.61 195.26V193.56L266.93 193.96C265.77 194.14 265.17 194.6 265.17 195.36C265.17 196.18 265.87 196.68 266.97 196.68ZM284.637 187.84C286.957 187.84 288.457 189.38 288.457 191.76V194.32C288.457 196.68 286.957 198.24 284.637 198.24C283.537 198.24 282.597 197.88 281.917 197.24V201.4H280.117V188.08H281.737L281.817 188.92C282.517 188.22 283.497 187.84 284.637 187.84ZM286.637 194.24V191.84C286.637 190.44 285.737 189.54 284.297 189.54C283.257 189.54 282.377 190.04 281.917 190.86V195.24C282.357 196.04 283.217 196.54 284.297 196.54C285.737 196.54 286.637 195.66 286.637 194.24ZM294.962 188.08H296.322V189.72H294.882C293.882 189.72 293.082 190.18 292.642 191V198H290.842V188.08H292.462L292.522 188.92C293.182 188.36 294.022 188.08 294.962 188.08ZM301.398 198.24C298.878 198.24 297.218 196.66 297.218 194.22V191.88C297.218 189.44 298.858 187.84 301.398 187.84C303.958 187.84 305.618 189.44 305.618 191.88V194.22C305.618 196.64 303.958 198.24 301.398 198.24ZM301.418 196.54C302.898 196.54 303.818 195.62 303.818 194.18V191.94C303.818 190.46 302.918 189.54 301.418 189.54C299.938 189.54 299.018 190.46 299.018 191.94V194.18C299.018 195.64 299.958 196.54 301.418 196.54ZM314.279 188.08H316.059V188.36L312.499 198H310.319L306.759 188.36V188.08H308.539L311.419 195.94L314.279 188.08ZM326.276 196.36H326.976V198H325.916C324.956 198 324.236 197.66 323.856 197.02C323.136 197.82 322.056 198.24 320.736 198.24C318.596 198.24 317.256 197.16 317.256 195.38C317.256 193.76 318.296 192.84 320.516 192.54L323.496 192.14V191.5C323.496 190.22 322.756 189.54 321.336 189.54C319.936 189.54 319.156 190.22 319.156 191.4V191.54H317.336V191.4C317.336 189.22 318.896 187.84 321.396 187.84C323.896 187.84 325.316 189.18 325.316 191.54V195.36C325.316 196 325.616 196.36 326.276 196.36ZM320.856 196.68C322.036 196.68 322.996 196.14 323.496 195.26V193.56L320.816 193.96C319.656 194.14 319.056 194.6 319.056 195.36C319.056 196.18 319.756 196.68 320.856 196.68ZM340.204 184.08H342.004V198H340.384L340.304 197.18C339.624 197.86 338.644 198.24 337.504 198.24C335.164 198.24 333.664 196.68 333.664 194.3V191.76C333.664 189.4 335.164 187.84 337.484 187.84C338.584 187.84 339.524 188.2 340.204 188.86V184.08ZM337.844 196.54C338.844 196.54 339.724 196.08 340.204 195.26V190.82C339.744 190 338.844 189.54 337.844 189.54C336.404 189.54 335.484 190.42 335.484 191.84V194.24C335.484 195.66 336.404 196.54 337.844 196.54ZM352.609 193.7H346.089V194.18C346.089 195.66 347.009 196.56 348.529 196.56C349.829 196.56 350.789 195.84 350.809 194.9H352.609C352.509 196.88 350.869 198.24 348.529 198.24C345.969 198.24 344.289 196.66 344.289 194.24V191.86C344.289 189.44 345.969 187.84 348.489 187.84C350.989 187.84 352.609 189.44 352.609 191.84V193.7ZM348.489 189.52C347.009 189.52 346.089 190.46 346.089 191.92V192.2H350.809V191.92C350.809 190.44 349.909 189.52 348.489 189.52ZM369.148 196.36H369.848V198H368.788C367.828 198 367.108 197.66 366.728 197.02C366.008 197.82 364.928 198.24 363.608 198.24C361.468 198.24 360.128 197.16 360.128 195.38C360.128 193.76 361.168 192.84 363.388 192.54L366.368 192.14V191.5C366.368 190.22 365.628 189.54 364.208 189.54C362.808 189.54 362.028 190.22 362.028 191.4V191.54H360.208V191.4C360.208 189.22 361.768 187.84 364.268 187.84C366.768 187.84 368.188 189.18 368.188 191.54V195.36C368.188 196 368.488 196.36 369.148 196.36ZM363.728 196.68C364.908 196.68 365.868 196.14 366.368 195.26V193.56L363.688 193.96C362.528 194.14 361.928 194.6 361.928 195.36C361.928 196.18 362.628 196.68 363.728 196.68ZM381.569 187.84C383.869 187.84 385.289 189.26 385.289 191.7V198H383.489V191.84C383.489 190.42 382.629 189.54 381.329 189.54C380.369 189.54 379.549 190.02 379.069 190.74C379.129 191.04 379.149 191.36 379.149 191.7V198H377.349V191.84C377.349 190.42 376.489 189.54 375.189 189.54C374.289 189.54 373.489 189.96 373.009 190.66V198H371.209V188.08H372.829L372.889 188.86C373.569 188.2 374.489 187.84 375.589 187.84C376.829 187.84 377.829 188.32 378.449 189.2C379.149 188.34 380.209 187.84 381.569 187.84ZM388.754 186.56C388.034 186.56 387.514 186.04 387.514 185.34C387.514 184.6 388.054 184.1 388.754 184.1C389.474 184.1 389.994 184.6 389.994 185.34C389.994 186.04 389.474 186.56 388.754 186.56ZM387.854 198V188.08H389.654V198H387.854ZM399.802 188.08V189.7L394.342 196.36H399.802V198H392.162V196.36L397.662 189.7H392.162V188.08H399.802ZM410.632 196.36H411.332V198H410.272C409.312 198 408.592 197.66 408.212 197.02C407.492 197.82 406.412 198.24 405.092 198.24C402.952 198.24 401.612 197.16 401.612 195.38C401.612 193.76 402.652 192.84 404.872 192.54L407.852 192.14V191.5C407.852 190.22 407.112 189.54 405.692 189.54C404.292 189.54 403.512 190.22 403.512 191.4V191.54H401.692V191.4C401.692 189.22 403.252 187.84 405.752 187.84C408.252 187.84 409.672 189.18 409.672 191.54V195.36C409.672 196 409.972 196.36 410.632 196.36ZM405.212 196.68C406.392 196.68 407.352 196.14 407.852 195.26V193.56L405.172 193.96C404.012 194.14 403.412 194.6 403.412 195.36C403.412 196.18 404.112 196.68 405.212 196.68ZM418.954 184.08H420.754V198H419.134L419.054 197.18C418.374 197.86 417.394 198.24 416.254 198.24C413.914 198.24 412.414 196.68 412.414 194.3V191.76C412.414 189.4 413.914 187.84 416.234 187.84C417.334 187.84 418.274 188.2 418.954 188.86V184.08ZM416.594 196.54C417.594 196.54 418.474 196.08 418.954 195.26V190.82C418.494 190 417.594 189.54 416.594 189.54C415.154 189.54 414.234 190.42 414.234 191.84V194.24C414.234 195.66 415.154 196.54 416.594 196.54ZM431.359 193.7H424.839V194.18C424.839 195.66 425.759 196.56 427.279 196.56C428.579 196.56 429.539 195.84 429.559 194.9H431.359C431.259 196.88 429.619 198.24 427.279 198.24C424.719 198.24 423.039 196.66 423.039 194.24V191.86C423.039 189.44 424.719 187.84 427.239 187.84C429.739 187.84 431.359 189.44 431.359 191.84V193.7ZM427.239 189.52C425.759 189.52 424.839 190.46 424.839 191.92V192.2H429.559V191.92C429.559 190.44 428.659 189.52 427.239 189.52ZM434.312 194.4L434.232 184.88H436.112L436.012 194.4H434.312ZM435.172 198.24C434.492 198.24 433.992 197.76 433.992 197.06C433.992 196.36 434.492 195.88 435.172 195.88C435.852 195.88 436.352 196.36 436.352 197.06C436.352 197.76 435.852 198.24 435.172 198.24Z" fill="white"/>
<path d="M235.568 129.598H247.915L246.967 134.129H234.547L227.46 165.69H222.275L229.359 134.129H219.496L220.444 129.598H230.38C232.548 116.638 235.734 114.159 248.573 114.841L247.624 119.372C237.839 118.936 237.42 120.154 235.57 129.601L235.568 129.598Z" fill="white"/>
<path d="M274.073 129.597L273.125 134.128C267.476 133.82 261.032 134.184 257.71 139.463L251.937 165.692H246.752L254.788 129.6H259.172L258.734 133.108C262.538 129.395 268.929 129.442 274.076 129.6L274.073 129.597Z" fill="white"/>
<path d="M280.797 129.598H285.985L277.949 165.69H272.764L280.8 129.598H280.797ZM281.895 119.444C282.233 114.824 289.764 114.855 289.273 119.81C289.004 124.546 281.324 124.424 281.895 119.444Z" fill="white"/>
<path d="M322.081 143.773L320.986 149.399H296.732C291.48 163.84 311.337 166.317 314.703 154.44H319.963C317.207 171.274 286.749 170.423 291.25 151.299L293.296 142.314C294.957 125.275 325.708 123.112 322.081 143.776V143.773ZM297.68 145.306H316.674C321.574 130.377 300.314 129.365 298.262 142.822L297.677 145.306H297.68Z" fill="white"/>
<path d="M360.44 143.408L355.618 165.691H350.432L355.327 143.336C356.641 137.346 354.012 133.473 348.314 133.473C344.296 133.473 340.569 135.372 338.088 138.586L332.023 165.691H326.838L334.802 129.599H339.258L338.82 133.251C347.219 124.45 364.374 129.219 360.445 143.405L360.44 143.408Z" fill="white"/>
<path d="M405.305 114.84L393.98 165.689H389.524L389.962 162.256C381.142 171.079 364.43 165.423 367.898 151.517L369.945 142.092C371.459 129.303 388.343 124.254 395.955 133.399L400.119 114.84H405.305ZM394.856 138.656C391.099 130.074 376.181 132.725 375.061 142.455L372.94 151.805C370.111 163.424 385.523 164.677 390.766 156.771L394.856 138.653V138.656Z" fill="white"/>
<path d="M405.671 155.388L405.818 154.584H411.003C407.603 164.234 428.431 164.112 428.974 156.775C429.767 153.3 428.475 150.979 423.57 149.981L419.114 149.033C403.622 145.65 410.443 127.54 425.031 128.796C434.215 128.796 439.406 133.793 437.67 140.631H432.557C436.189 131.458 415.686 130.84 415.534 138.731C413.601 148.83 436.45 141.679 434.09 156.411C433.799 169.91 402.607 170.062 405.671 155.388Z" fill="white"/>
<path d="M45.2608 164.607L33.6203 169.87C36.8673 181.943 22.2736 190.808 13.8884 181.059L6.42383 191.732C25.3099 208.394 53.8457 188.194 45.2608 164.607Z" fill="white"/>
<path d="M185.185 153.095C205.657 152.74 201.257 123.783 179.833 129.492V153.095H185.185ZM166.695 118.356C183.205 114.843 212.129 115.564 211.738 140.903C211.766 165.082 186.768 165.859 166.695 164.747V118.356Z" fill="white"/>
<path d="M146.805 141.163C146.982 125.372 123.928 124.903 123.926 140.908C123.756 156.766 146.816 157.107 146.805 141.163ZM111.176 141.172C111.187 108.671 159.477 108.407 159.493 141.041C159.335 173.354 111.337 173.628 111.176 141.172Z" fill="white"/>
<path d="M92.8173 141.163C92.9947 125.372 69.941 124.903 69.9382 140.908C69.7691 156.766 92.8284 157.107 92.8173 141.163ZM57.1885 141.172C57.1996 108.671 105.489 108.407 105.506 141.041C105.348 173.354 57.3493 173.628 57.1885 141.172Z" fill="white"/>
<path d="M53.2892 116.379H23.8716C-7.80024 116.274 -8.07198 165.795 23.7469 165.689C42.5747 166.222 53.8327 144.296 44.8846 128.666H53.2892V116.379ZM35.2793 141.163C35.2876 157.113 12.2283 156.763 12.4002 140.908C12.4058 124.9 35.4595 125.374 35.2793 141.163Z" fill="white"/>
<g clip-path="url(#clip0_33_547)">
<path d="M92.5498 289.27C106.84 288.78 121.13 288.44 135.43 288.18C151.76 287.88 168.09 287.69 184.43 287.57C201.58 287.44 218.73 287.4 235.89 287.43C253.05 287.46 268.89 287.57 285.39 287.77C300.02 287.95 314.64 288.19 329.27 288.58C330.87 288.62 332.47 288.67 334.07 288.71C336.31 288.77 336.31 285.29 334.07 285.23C319.78 284.82 305.48 284.55 291.19 284.36C274.86 284.14 258.52 284.02 242.19 283.97C225.04 283.92 207.89 283.94 190.73 284.05C173.57 284.16 157.73 284.33 141.24 284.6C126.61 284.84 111.99 285.16 97.3698 285.63C95.7698 285.68 94.1698 285.73 92.5698 285.79C90.3398 285.87 90.3298 289.35 92.5698 289.27H92.5498Z" fill="#C3D600"/>
<path d="M99.2002 297.25L89.4702 292.89L84.7102 290.76C83.1902 290.08 81.5302 289.51 80.1002 288.65C79.6802 288.4 79.4702 288.35 79.6202 287.91C79.7702 287.47 80.5202 287.01 80.8802 286.74C82.2802 285.73 83.6902 284.73 85.0902 283.73C88.0202 281.63 90.9502 279.54 93.8702 277.44C94.6402 276.89 94.9902 275.93 94.4902 275.06C94.0602 274.3 92.8702 273.89 92.1102 274.44C88.6902 276.89 85.2802 279.33 81.8602 281.78C79.5202 283.47 74.5502 286.05 76.4002 289.73C77.1702 291.26 78.7802 291.9 80.2502 292.57L85.8402 295.07L97.4402 300.26C98.3002 300.65 99.3002 300.5 99.8202 299.64C100.26 298.9 100.05 297.64 99.2002 297.26V297.25Z" fill="#C3D600"/>
<path d="M328.25 277.21L337.98 281.57L342.74 283.7C344.26 284.38 345.92 284.95 347.35 285.81C347.77 286.06 347.98 286.11 347.83 286.55C347.68 286.99 346.93 287.45 346.57 287.72C345.17 288.73 343.76 289.73 342.36 290.73C339.43 292.83 336.5 294.92 333.58 297.02C332.81 297.57 332.46 298.53 332.96 299.4C333.39 300.16 334.58 300.57 335.34 300.02C338.76 297.57 342.17 295.13 345.59 292.68C347.95 290.99 352.91 288.41 351.06 284.74C350.29 283.21 348.68 282.57 347.21 281.9L341.62 279.4C337.75 277.67 333.89 275.94 330.02 274.21C329.16 273.82 328.16 273.97 327.64 274.83C327.2 275.57 327.41 276.83 328.26 277.21H328.25Z" fill="#C3D600"/>
</g>
<g clip-path="url(#clip1_33_547)">
<path d="M441.23 98.5502C447.79 86.2402 454.36 73.9302 460.93 61.6202C461.98 59.6402 458.98 57.8802 457.92 59.8602C451.35 72.1802 444.79 84.4802 438.22 96.7902C437.17 98.7702 440.17 100.53 441.23 98.5502Z" fill="#C3D600"/>
<path d="M457.939 110.17C467.279 100.09 479.319 92.6798 492.519 88.8798C496.249 87.8098 500.069 86.9998 503.919 86.5298C504.859 86.4098 505.649 85.8098 505.659 84.7898C505.659 83.9398 504.849 82.9298 503.919 83.0498C489.559 84.8098 475.939 90.4698 464.529 99.3798C461.289 101.91 458.269 104.7 455.469 107.71C453.949 109.35 456.399 111.82 457.929 110.17H457.939Z" fill="#C3D600"/>
<path d="M461.359 136.15C474.369 132.95 487.369 129.75 500.379 126.55C502.549 126.01 501.629 122.66 499.449 123.19C486.439 126.39 473.439 129.59 460.429 132.79C458.259 133.33 459.179 136.68 461.359 136.15Z" fill="#C3D600"/>
</g>
<path d="M126.024 3.39014H119.303L114.5 8.25984L109.699 3.39014H102.976L98 8.25984V16.5484L114.5 32.3901L131 16.5484V8.25984L126.024 3.39014Z" stroke="#C3D600" stroke-width="2" stroke-miterlimit="10"/>
<path d="M170.55 32.6052C174.719 32.6052 178.099 29.2251 178.099 25.0555C178.099 20.886 174.719 17.5059 170.55 17.5059C166.38 17.5059 163 20.886 163 25.0555C163 29.2251 166.38 32.6052 170.55 32.6052Z" stroke="#C3D600" stroke-width="2" stroke-miterlimit="10"/>
<path d="M203.815 32.6052C207.985 32.6052 211.365 29.2251 211.365 25.0555C211.365 20.886 207.985 17.5059 203.815 17.5059C199.646 17.5059 196.266 20.886 196.266 25.0555C196.266 29.2251 199.646 32.6052 203.815 32.6052Z" stroke="#C3D600" stroke-width="2" stroke-miterlimit="10"/>
<path d="M170.656 25.6555L174.311 12.3029V5.45519C175.2 4.56573 175.701 4.06475 176.59 3.17529H181.407" stroke="#C3D600" stroke-width="2" stroke-miterlimit="10"/>
<path d="M174.309 12.3032H197.301L204.006 22.8696C203.479 23.8313 203.361 24.0457 202.83 25.0075H188.395C186.876 24.1394 185.657 23.4402 184.138 22.5722L178.1 12.3032" stroke="#C3D600" stroke-width="2" stroke-miterlimit="10"/>
<path d="M197.301 12.303V8.07812" stroke="#C3D600" stroke-width="2" stroke-miterlimit="10"/>
<path d="M192.283 8.07812H202.316" stroke="#C3D600" stroke-width="2" stroke-miterlimit="10"/>
<path d="M197.299 12.3032L186.277 23.7965" stroke="#C3D600" stroke-width="2" stroke-miterlimit="10"/>
<path d="M285.112 4.74805L277.771 9.58916V31.0326H250.707V9.58916L243.363 4.74805" stroke="#C3D600" stroke-width="2" stroke-miterlimit="10"/>
<path d="M256.607 9.75781H271.873" stroke="#C3D600" stroke-width="2" stroke-miterlimit="10"/>
<path d="M318.111 30.8567V16.7456H339.58V30.8567L336.656 33.7805H321.035L318.111 30.8567Z" stroke="#C3D600" stroke-width="2"/>
<path d="M319.129 13.4631V4.72393C320.584 3.26919 321.398 2.45475 322.853 1H334.839C336.294 2.45475 337.108 3.26919 338.563 4.72393V13.4631" stroke="#C3D600" stroke-width="2" stroke-miterlimit="10"/>
<path d="M328.846 25.2618C330.129 25.2618 331.169 24.2218 331.169 22.939C331.169 21.6562 330.129 20.6162 328.846 20.6162C327.563 20.6162 326.523 21.6562 326.523 22.939C326.523 24.2218 327.563 25.2618 328.846 25.2618Z" fill="#C3D600"/>
<path d="M328.846 22.939V28.7526" stroke="#C3D600" stroke-width="2" stroke-miterlimit="10"/>
<defs>
<clipPath id="clip0_33_547">
<rect width="275.45" height="26.46" fill="white" transform="translate(76 274)"/>
</clipPath>
<clipPath id="clip1_33_547">
<rect width="67.66" height="77.2" fill="white" transform="translate(438 59)"/>
</clipPath>
</defs>
</svg>
