<svg width="40" height="40" viewBox="0 0 40 40" fill="none" xmlns="http://www.w3.org/2000/svg">
<rect x="0.5" y="0.5" width="39" height="39" fill="white" stroke="white"/>
<path d="M20 32C26.6274 32 32 26.6274 32 20C32 13.3726 26.6274 8 20 8C13.3726 8 8 13.3726 8 20C8 26.6274 13.3726 32 20 32Z" stroke="#FF8400" stroke-linecap="round" stroke-linejoin="round"/>
<path d="M20 27.2C23.9765 27.2 27.2 23.9765 27.2 20C27.2 16.0236 23.9765 12.8 20 12.8C16.0236 12.8 12.8 16.0236 12.8 20C12.8 23.9765 16.0236 27.2 20 27.2Z" stroke="#FF8400" stroke-linecap="round" stroke-linejoin="round"/>
<path d="M20 22.4C21.3255 22.4 22.4 21.3255 22.4 20C22.4 18.6745 21.3255 17.6 20 17.6C18.6745 17.6 17.6 18.6745 17.6 20C17.6 21.3255 18.6745 22.4 20 22.4Z" stroke="#FF8400" stroke-linecap="round" stroke-linejoin="round"/>
</svg>
