<svg width="26" height="25" viewBox="0 0 26 25" fill="none" xmlns="http://www.w3.org/2000/svg">
<path d="M13.9308 20.8319H11.3439C11.0586 19.4395 9.76973 18.3685 8.25076 18.3685C7.12765 18.3685 6.15183 18.9308 5.58106 19.7609V19.7876C4.64207 19.3324 3.77671 18.6987 3.04025 17.9579C2.14728 17.0922 1.65016 16.3067 1.44763 15.798C2.0276 15.673 2.54313 15.3696 2.9666 14.9322C3.51895 14.3699 3.80433 13.6113 3.80433 12.8526V11.0229C3.80433 8.86297 4.5408 6.7298 5.92168 5.03398C7.88253 2.59735 10.7916 1.22284 13.9308 1.22284C16.6281 1.22284 19.1689 2.24033 21.0837 4.08789C22.9986 5.94437 24.0388 8.40777 24.0388 11.0229C24.0388 13.638 22.9893 16.1015 21.0837 17.9579C19.1873 19.7966 16.6189 20.8319 13.9308 20.8319Z" fill="white"/>
<path d="M25.3001 11.0139C25.3001 8.06855 24.1217 5.30168 21.9767 3.22206C19.841 1.16923 16.9503 0.00892538 13.94 0C10.4602 0 7.21055 1.52624 4.98273 4.23956C3.38091 6.19422 2.54318 8.60407 2.54318 11.0943V12.8615C2.54318 13.7808 1.88956 14.6376 0.582329 14.718C0.26933 14.7447 0.00235971 14.95 0.00235971 15.2535C-0.0528754 16.0925 0.86771 17.6187 2.11971 18.8326C2.98506 19.6983 4.00691 20.3856 5.1024 20.9122C4.9367 21.8047 5.18526 22.724 5.79284 23.4202C6.39122 24.1164 7.28419 24.518 8.22319 24.518C9.76977 24.518 11.0218 23.4738 11.3164 22.0814H13.9584C14.2991 23.8129 16.1586 25 18.1471 24.3395C19.8778 23.7772 20.6327 21.8761 20.0067 20.3231C20.6879 19.8947 21.3415 19.3859 21.9399 18.8236C24.1033 16.7619 25.3093 13.9504 25.3001 11.0139ZM13.9308 20.8318H11.344C11.0586 19.4395 9.76977 18.3684 8.25081 18.3684C7.12769 18.3684 6.15187 18.9307 5.58111 19.7608V19.7876C4.64211 19.3324 3.77676 18.6987 3.04029 17.9579C2.14732 17.0921 1.65021 16.3067 1.44768 15.7979C2.02765 15.673 2.54318 15.3695 2.96665 14.9322C3.519 14.3699 3.80438 13.6112 3.80438 12.8526V11.0228C3.80438 8.86291 4.54085 6.72974 5.92173 5.03392C7.88257 2.59729 10.7916 1.22278 13.9308 1.22278C16.6281 1.22278 19.169 2.24027 21.0838 4.08783C22.9986 5.94431 24.0389 8.40771 24.0389 11.0228C24.0389 13.638 22.9894 16.1014 21.0838 17.9579C19.1874 19.7965 16.6189 20.8318 13.9308 20.8318ZM20.246 8.57729C20.246 9.2467 19.6845 9.79115 18.994 9.79115C18.3036 9.79115 17.7328 9.2467 17.7328 8.57729C17.7328 7.90789 18.2944 7.35452 18.994 7.35452C19.6845 7.35452 20.246 7.89896 20.246 8.57729ZM12.6512 8.57729C12.6512 9.2467 12.0897 9.79115 11.3992 9.79115C10.7088 9.79115 10.138 9.2467 10.138 8.57729C10.138 7.90789 10.6996 7.35452 11.3992 7.35452C12.0897 7.35452 12.6512 7.89896 12.6512 8.57729ZM11.7859 12.5848C11.6846 12.3795 11.4452 12.2278 11.2059 12.2278C10.7456 12.2278 10.4418 12.683 10.6259 13.0935C11.436 14.7447 13.1667 15.914 15.2104 15.914C17.2541 15.914 18.9848 14.7715 19.795 13.0935C19.9791 12.6919 19.6937 12.2278 19.215 12.2278H19.1874C18.948 12.2278 18.7455 12.3527 18.635 12.5848C18.0366 13.8254 16.7202 14.6912 15.2012 14.6912C13.7007 14.6912 12.3934 13.8254 11.7859 12.5848Z" fill="black"/>
</svg>
