<svg width="100" height="100" viewBox="0 0 100 100" fill="none" xmlns="http://www.w3.org/2000/svg">
<path d="M26.4432 82.0178H8.18213C6.0743 79.909 4.89127 78.7254 2.78345 76.6167V58.0642C4.89127 55.9554 6.0743 54.7719 8.18213 52.6631H26.7262C28.834 54.7719 30.0171 55.9554 32.1249 58.0642V76.6167C30.0171 78.7254 28.834 79.909 26.7262 82.0178H26.4432Z" stroke="#C2D21D" stroke-width="2" stroke-miterlimit="10"/>
<path d="M82.0671 81.1429H68.0509C66.4596 79.5509 65.5648 78.6557 63.9674 77.0576V63.0351C65.5588 61.443 66.4536 60.5478 68.0509 58.9497H82.0671C83.6585 60.5418 84.5533 61.437 86.1506 63.0351V77.0576C84.5593 78.6497 83.6645 79.5448 82.0671 81.1429Z" stroke="#C2D21D" stroke-width="2" stroke-miterlimit="10"/>
<path d="M75.0591 58.9558H33.2929L25.8584 51.518L12.2686 3.85718H0" stroke="#C2D21D" stroke-width="2" stroke-miterlimit="10"/>
<path d="M73.6178 46.2731H42.8651C40.7813 44.1883 39.6103 43.0168 37.5265 40.932V10.1655C39.6103 8.08075 40.7813 6.90921 42.8651 4.82446H73.6178C75.7016 6.90921 76.8726 8.08075 78.9564 10.1655V40.932C76.8726 43.0168 75.7016 44.1883 73.6178 46.2731Z" stroke="#C2D21D" stroke-width="2" stroke-miterlimit="10"/>
</svg>
