<svg width="101" height="77" viewBox="0 0 101 77" fill="none" xmlns="http://www.w3.org/2000/svg">
<path d="M33.08 71.5638C33.1356 71.3052 33.1713 71.0466 33.1936 70.788C35.8576 70.7077 38.4526 70.2283 40.9095 69.3878C41.0231 69.6219 41.1456 69.8516 41.2882 70.0745C43.215 73.0687 47.1999 73.9338 50.1914 72.0053C53.1829 70.0767 54.0471 66.0882 52.1204 63.0939C51.9778 62.871 51.8197 62.6636 51.6526 62.4652C53.4324 60.5746 54.9448 58.4075 56.1187 56.0152C56.3637 56.1 56.6132 56.1758 56.8716 56.2315C60.3487 56.9851 63.779 54.7756 64.5319 51.2954C65.2847 47.8151 63.0773 44.3816 59.6002 43.6281C59.3419 43.5723 59.0835 43.5367 58.8251 43.5144C58.7449 40.8501 58.266 38.2505 57.4262 35.7914C57.6579 35.6777 57.8895 35.555 58.1123 35.4123C61.1038 33.4838 61.968 29.4952 60.0413 26.501C58.1145 23.5068 54.1296 22.6417 51.1381 24.5702C50.9153 24.7129 50.7082 24.8712 50.5099 25.0384C48.621 23.2571 46.4559 21.7432 44.0658 20.5683C44.1505 20.323 44.2262 20.0733 44.2819 19.8147C45.0348 16.3344 42.8274 12.901 39.3503 12.1474C35.8732 11.3939 32.4429 13.6033 31.69 17.0836C31.6343 17.3422 31.5987 17.6008 31.5764 17.8594C28.9146 17.9397 26.3173 18.419 23.8604 19.2596C23.7468 19.0255 23.6243 18.7958 23.4818 18.5729C21.555 15.5786 17.5701 14.7136 14.5786 16.6421C11.5871 18.5706 10.7228 22.5592 12.6496 25.5535C12.7921 25.7764 12.9503 25.9837 13.1174 26.1822C11.3376 28.0728 9.82515 30.2399 8.65127 32.6321C8.40625 32.5474 8.15677 32.4716 7.89839 32.4159C4.4213 31.6623 0.990996 33.8718 0.23811 37.352C-0.514775 40.8323 1.69265 44.2657 5.16973 45.0193C5.42812 45.075 5.68651 45.1107 5.94489 45.1352C6.02508 47.8017 6.50399 50.3991 7.34374 52.8582C7.11209 52.9719 6.88043 53.0946 6.65768 53.2373C3.66619 55.1658 2.80193 59.1544 4.72869 62.1486C6.65545 65.1428 10.6404 66.0079 13.6319 64.0794C13.8546 63.9367 14.0618 63.7784 14.26 63.6112C16.1489 65.3925 18.314 66.9064 20.7041 68.0813C20.6195 68.3266 20.5437 68.5763 20.4881 68.8349C19.7352 72.3152 21.9426 75.7486 25.4197 76.5022C28.8968 77.2558 32.3271 75.0463 33.08 71.5661V71.5638ZM20.693 41.7865C22.0918 35.3232 28.4602 31.2186 34.9176 32.621C41.3751 34.0211 45.4758 40.3953 44.0748 46.8586C42.6759 53.322 36.3076 57.4265 29.8501 56.0264C23.3927 54.6263 19.2919 48.2521 20.693 41.7887V41.7865Z" fill="#828BAE"/>
<path d="M88.4918 22.5493C88.5141 22.4513 88.5252 22.3532 88.5341 22.2551C89.5409 22.2261 90.5255 22.0433 91.4543 21.7244C91.4966 21.8136 91.5434 21.9006 91.5969 21.9831C92.3253 23.1157 93.8355 23.4434 94.967 22.7144C96.0986 21.9853 96.426 20.4737 95.6977 19.3411C95.6442 19.2564 95.5841 19.1783 95.5217 19.1025C96.1944 18.3869 96.7668 17.5664 97.2123 16.6612C97.3059 16.6924 97.3994 16.7214 97.4975 16.7437C98.8139 17.0291 100.113 16.193 100.398 14.8754C100.683 13.5578 99.8474 12.2579 98.531 11.9726C98.433 11.9503 98.335 11.9391 98.237 11.9302C98.2058 10.9203 98.0254 9.93702 97.7068 9.00732C97.7937 8.96496 97.8828 8.91816 97.9652 8.86465C99.0968 8.1356 99.4242 6.62399 98.6958 5.4914C97.9675 4.35881 96.4572 4.03107 95.3257 4.76012C95.241 4.81363 95.1631 4.87381 95.0873 4.93623C94.3723 4.26292 93.5526 3.68994 92.6482 3.24404C92.6794 3.15263 92.7084 3.05676 92.7307 2.95866C93.0158 1.64102 92.1805 0.341238 90.864 0.055861C89.5476 -0.229516 88.249 0.606551 87.9639 1.92419C87.9416 2.02229 87.9305 2.12037 87.9193 2.21847C86.9125 2.24969 85.928 2.43028 84.9991 2.7491C84.9568 2.65992 84.91 2.57296 84.8566 2.49047C84.1282 1.35788 82.6179 1.03013 81.4864 1.75918C80.3548 2.48823 80.0274 3.99984 80.7558 5.13243C80.8092 5.21715 80.8694 5.2952 80.9317 5.371C80.259 6.08667 79.6866 6.90712 79.2411 7.8123C79.1475 7.78109 79.054 7.75211 78.956 7.72981C77.6395 7.44443 76.3409 8.2805 76.0558 9.59814C75.7707 10.9158 76.606 12.2156 77.9224 12.501C78.0204 12.5233 78.1184 12.5344 78.2165 12.5433C78.2476 13.5533 78.4281 14.5365 78.7466 15.4662C78.6575 15.5086 78.5706 15.5554 78.4882 15.6111C77.3567 16.3402 77.0292 17.8518 77.7576 18.9844C78.486 20.117 79.9962 20.4447 81.1278 19.7157C81.2124 19.6621 81.2904 19.6019 81.3661 19.5395C82.0811 20.2128 82.9008 20.7858 83.8052 21.2317C83.774 21.3254 83.745 21.419 83.7228 21.5171C83.4377 22.8348 84.273 24.1345 85.5894 24.4199C86.9058 24.7053 88.2044 23.8692 88.4896 22.5516L88.4918 22.5493ZM83.803 11.2792C84.3331 8.83343 86.7432 7.27945 89.1868 7.81007C91.6303 8.34069 93.1828 10.753 92.6527 13.1988C92.1226 15.6446 89.7124 17.1986 87.2689 16.6679C84.8254 16.1373 83.2728 13.725 83.803 11.2792Z" fill="#828BAE"/>
</svg>
