<svg width="24" height="24" viewBox="0 0 24 24" fill="none" xmlns="http://www.w3.org/2000/svg">
<mask id="mask0_237_4099" style="mask-type:alpha" maskUnits="userSpaceOnUse" x="0" y="0" width="24" height="24">
<rect width="24" height="24" fill="#D9D9D9"/>
</mask>
<g mask="url(#mask0_237_4099)">
<path d="M11 23V21C8.91672 20.7666 7.12922 19.9041 5.63755 18.4125C4.14588 16.9208 3.28338 15.1333 3.05005 13.05H1.05005V11.05H3.05005C3.28338 8.96664 4.14588 7.17914 5.63755 5.68748C7.12922 4.19581 8.91672 3.33331 11 3.09998V1.09998H13V3.09998C15.0834 3.33331 16.8709 4.19581 18.3625 5.68748C19.8542 7.17914 20.7167 8.96664 20.95 11.05H22.95V13.05H20.95C20.7167 15.1333 19.8542 16.9208 18.3625 18.4125C16.8709 19.9041 15.0834 20.7666 13 21V23H11ZM12 19.05C13.9334 19.05 15.5834 18.3666 16.95 17C18.3167 15.6333 19 13.9833 19 12.05C19 10.1166 18.3167 8.46664 16.95 7.09998C15.5834 5.73331 13.9334 5.04998 12 5.04998C10.0667 5.04998 8.41672 5.73331 7.05005 7.09998C5.68338 8.46664 5.00005 10.1166 5.00005 12.05C5.00005 13.9833 5.68338 15.6333 7.05005 17C8.41672 18.3666 10.0667 19.05 12 19.05Z" fill="#FF8400"/>
</g>
</svg>
