<svg width="20" height="29" viewBox="0 0 20 29" fill="none" xmlns="http://www.w3.org/2000/svg">
<g clip-path="url(#clip0_349_2935)">
<path d="M13.0444 0.482237C12.091 0.175359 11.0509 0 9.98918 0C6.93393 0 4.18203 1.40287 2.34021 3.61678L7.06394 7.62812L13.0444 0.482237Z" fill="#1A73E8"/>
<path d="M2.34019 3.61676C0.888407 5.37035 0 7.65002 0 10.105C0 12.0121 0.368364 13.5465 0.99675 14.9274L7.06392 7.6281L2.34019 3.61676Z" fill="#EA4335"/>
<path d="M10.0108 6.24717C12.1343 6.24717 13.8461 7.97884 13.8461 10.127C13.8461 11.0695 13.4994 11.9463 12.9361 12.6259C12.9361 12.6259 15.948 8.98715 18.8949 5.45805C17.6815 3.0907 15.5796 1.29327 13.0444 0.482239L7.0639 7.62812C7.77896 6.79516 8.81905 6.24717 10.0108 6.24717Z" fill="#4285F4"/>
<path d="M10.0108 13.9849C7.88734 13.9849 6.17553 12.2532 6.17553 10.1051C6.17553 9.1625 6.50056 8.28571 7.06394 7.62811L0.996765 14.9274C2.03685 17.2509 3.77033 19.136 5.54714 21.4815L12.9361 12.6039C12.221 13.4588 11.1809 13.9849 10.0108 13.9849Z" fill="#FBBC04"/>
<path d="M12.8061 23.9365C16.143 18.6538 20.0217 16.2646 20.0217 10.127C20.0217 8.43917 19.61 6.86094 18.8949 5.45807L5.54712 21.4815C6.1105 22.2268 6.69555 23.0817 7.25893 23.9584C9.29576 27.1368 8.73238 29.0219 10.0325 29.0219C11.3326 29.0219 10.7692 27.1149 12.8061 23.9365Z" fill="#34A853"/>
</g>
<defs>
<clipPath id="clip0_349_2935">
<rect width="20" height="29" fill="white"/>
</clipPath>
</defs>
</svg>
