<svg width="20" height="20" viewBox="0 0 20 20" fill="none" xmlns="http://www.w3.org/2000/svg">
<mask id="mask0_1802_26692" style="mask-type:luminance" maskUnits="userSpaceOnUse" x="0" y="0" width="20" height="20">
<path d="M19.1704 0H0V19.1704H19.1704V0Z" fill="white"/>
</mask>
<g mask="url(#mask0_1802_26692)">
<path d="M6.72373 6.71084C7.8887 6.71084 9.05367 6.71084 10.2186 6.71084C10.2186 7.03527 10.2186 7.34494 10.2186 7.66936C10.2186 7.92005 10.2186 8.17074 10.2186 8.42143C10.2186 8.45093 10.2481 8.46567 10.2629 8.49517C10.4251 8.30346 10.5578 8.08226 10.7348 7.92005C11.2951 7.37443 11.9735 7.00577 12.7255 6.79932C13.1237 6.6961 13.5366 6.65186 13.9348 6.57812H14.908C15.2324 6.62236 15.5716 6.65186 15.896 6.71084C16.5006 6.81407 17.0463 7.05001 17.5329 7.40393C18.285 7.96429 18.6831 8.73111 18.8748 9.63064C18.9486 9.95507 19.0075 10.2942 19.0665 10.6334C19.096 10.8546 19.1108 11.0758 19.1255 11.2822C19.1403 11.6067 19.1403 11.9311 19.155 12.2555C19.155 12.3145 19.155 12.3735 19.155 12.4325C19.155 14.6887 19.155 16.9301 19.155 19.1864C17.9163 19.1864 16.6776 19.1864 15.4389 19.1864C15.4389 17.1071 15.4389 15.0279 15.4389 12.9486C15.4389 12.8896 15.4241 12.8454 15.4094 12.7864C15.4094 12.1818 15.3062 11.6067 15.0407 11.0611C14.7458 10.427 14.2887 9.98456 13.5808 9.88134C12.7845 9.76336 12.0177 9.91083 11.3836 10.427C11.0592 10.6924 10.8527 11.0463 10.7053 11.4297C10.5726 11.7984 10.4841 12.167 10.4546 12.5504C10.4546 12.7274 10.4251 12.9191 10.4251 13.0961C10.4251 15.0721 10.4251 17.0334 10.4251 19.0094C10.4251 19.0684 10.4251 19.1274 10.4251 19.1716H6.70898C6.70898 19.1716 6.70898 19.0831 6.70898 19.0536V6.84356C6.70898 6.84356 6.70898 6.75508 6.70898 6.72559L6.72373 6.71084Z" fill="#FF8400"/>
<path d="M0.470703 19.1717C0.470703 19.1717 0.470703 19.0832 0.470703 19.039V6.71094H4.18681C4.18681 6.71094 4.18681 6.79942 4.18681 6.82891V19.039C4.18681 19.039 4.18681 19.1275 4.18681 19.157C2.94811 19.157 1.70941 19.157 0.470703 19.157V19.1717Z" fill="#FF8400"/>
<path d="M0 2.32994C0 1.047 1.01751 0.0147465 2.30045 0C3.67187 0 4.61564 1.03225 4.67463 2.18248C4.74836 3.64238 3.58339 4.68938 2.30045 4.65988C1.03225 4.64514 3.3785e-07 3.58339 0.0147468 2.3152L0 2.32994Z" fill="#FF8400"/>
</g>
</svg>
