<svg width="26" height="27" viewBox="0 0 26 27" fill="none" xmlns="http://www.w3.org/2000/svg">
<path d="M1 25.4563L3.19906 20.3918C1.51666 18.0035 0.763657 15.0834 1.08136 12.1794C1.39906 9.27542 2.76563 6.58719 4.9246 4.6192C7.08358 2.65122 9.88654 1.53877 12.8075 1.49064C15.7284 1.44251 18.5665 2.462 20.7891 4.35778C23.0118 6.25357 24.4662 8.89532 24.8794 11.7873C25.2926 14.6792 24.6362 17.6226 23.0334 20.0649C21.4306 22.5073 18.9916 24.2808 16.174 25.0526C13.3565 25.8244 10.3542 25.5414 7.73046 24.2568L1 25.4563" stroke="white" stroke-width="2" stroke-linecap="round" stroke-linejoin="round"/>
<path d="M8.99658 10.7957C8.99658 10.9724 9.06679 11.1419 9.19176 11.2669C9.31673 11.3918 9.48623 11.462 9.66296 11.462C9.8397 11.462 10.0092 11.3918 10.1342 11.2669C10.2591 11.1419 10.3293 10.9724 10.3293 10.7957V9.46289C10.3293 9.28616 10.2591 9.11666 10.1342 8.99169C10.0092 8.86672 9.8397 8.79651 9.66296 8.79651C9.48623 8.79651 9.31673 8.86672 9.19176 8.99169C9.06679 9.11666 8.99658 9.28616 8.99658 9.46289V10.7957ZM8.99658 10.7957C8.99658 12.563 9.69866 14.258 10.9484 15.5077C12.1981 16.7574 13.893 17.4595 15.6604 17.4595H16.9932C17.1699 17.4595 17.3394 17.3893 17.4644 17.2643C17.5893 17.1393 17.6595 16.9698 17.6595 16.7931C17.6595 16.6164 17.5893 16.4469 17.4644 16.3219C17.3394 16.1969 17.1699 16.1267 16.9932 16.1267H15.6604C15.4837 16.1267 15.3142 16.1969 15.1892 16.3219C15.0642 16.4469 14.994 16.6164 14.994 16.7931C14.994 16.9698 15.0642 17.1393 15.1892 17.2643C15.3142 17.3893 15.4837 17.4595 15.6604 17.4595" stroke="white" stroke-width="2" stroke-linecap="round" stroke-linejoin="round"/>
</svg>
