<svg width="268" height="269" viewBox="0 0 268 269" fill="none" xmlns="http://www.w3.org/2000/svg">
<path d="M164.91 4.52017L174.342 7.08877L173.593 9.85612L167.188 8.11315L166.332 11.2322L172.309 12.8528L171.56 15.6049L165.583 13.9842L164.727 17.1032L171.116 18.8462L170.367 21.6136L160.936 19.045L164.88 4.52017H164.91Z" fill="#FF8400"/>
<path d="M173.256 17.6978L173.439 17.2238L176.237 18.2941L176.053 18.7681C175.564 20.0524 176.145 21.0309 177.658 21.6271C179.064 22.1623 180.089 21.9482 180.471 20.9391L180.547 20.7404C180.853 19.9453 180.547 19.242 179.538 18.5081L177.612 17.0862C175.625 15.6185 174.907 13.8908 175.61 12.0714L175.732 11.7656C176.665 9.34988 179.294 8.50897 182.305 9.67095C185.393 10.8482 186.6 13.0805 185.591 15.7255L185.408 16.1995L182.626 15.1292L182.809 14.6552C183.237 13.5391 182.764 12.7441 181.281 12.1784C179.997 11.6891 179.034 11.9032 178.698 12.7747L178.621 12.9734C178.361 13.6309 178.728 14.3648 179.599 15.0222L181.51 16.4594C183.65 18.0648 184.338 19.7313 183.589 21.6577L183.467 21.9635C182.458 24.578 179.844 25.4342 176.68 24.2263C173.332 22.942 172.14 20.6333 173.256 17.7131V17.6978Z" fill="#FF8400"/>
<path d="M190.335 13.2487L195.869 16.0772C198.666 17.5144 199.538 19.9454 198.254 22.4223L198.101 22.7128C196.817 25.2202 194.356 25.9541 191.543 24.5016L188.807 23.095L186.269 28.0487L183.472 26.6115L190.32 13.2181L190.335 13.2487ZM192.766 21.9024C193.943 22.514 194.799 22.2694 195.303 21.2756L195.456 20.9851C195.961 20.0066 195.624 19.1657 194.478 18.5694L191.849 17.2239L190.152 20.557L192.781 21.9024H192.766Z" fill="#FF8400"/>
<path d="M203.52 37.6162L203.26 38.0291L200.57 36.3167L201.411 33.534L197.345 30.9501L195.189 32.8919L192.499 31.1795L192.759 30.7667L204.407 20.9204L207.494 22.8927L203.505 37.6162H203.52ZM202.236 30.8125L204.009 25.0026L199.5 29.0543L202.251 30.7972L202.236 30.8125Z" fill="#FF8400"/>
<path d="M216.101 36.652L216.544 36.1016C217.583 34.7867 217.354 33.3954 215.902 32.2334C214.434 31.0561 212.952 31.1784 211.79 32.6462L209.283 35.7805C208.121 37.233 208.32 38.6855 209.803 39.8627C211.255 41.0247 212.676 40.933 213.731 39.6181L214.113 39.1289L216.605 41.1165L216.253 41.5599C214.48 43.7921 211.82 44.2813 209.344 43.0123L206.18 45.321L203.688 43.3334L206.853 41.0094C205.064 38.8384 204.957 36.1016 206.715 33.8846L209.39 30.5363C211.484 27.9218 214.893 27.6772 217.751 29.9553C220.579 32.2181 221.084 35.49 219.005 38.1045L218.607 38.609L216.116 36.6214L216.101 36.652Z" fill="#FF8400"/>
<path d="M217.83 42.9253L220.857 39.9133C223.196 37.5894 226.62 37.6811 229.188 40.265C231.786 42.8795 231.847 46.289 229.509 48.6129L226.482 51.6249C224.143 53.9489 220.75 53.8877 218.136 51.258C215.553 48.6588 215.492 45.2493 217.83 42.9253ZM224.342 49.3009L227.17 46.4877C228.484 45.1728 228.469 43.6745 227.139 42.3138C225.809 40.9836 224.311 40.953 222.997 42.2679L220.169 45.0811C218.87 46.3807 218.885 47.8485 220.215 49.1939C221.529 50.5088 223.104 50.5394 224.342 49.2857V49.3009Z" fill="#FF8400"/>
<path d="M227.171 53.6566L227.569 53.3355L229.434 55.6901L229.036 56.0111C227.966 56.8673 227.966 58.014 228.975 59.283C229.923 60.4603 230.901 60.7967 231.757 60.1239L231.925 60.0016C232.582 59.4665 232.674 58.7021 232.185 57.5706L231.253 55.3537C230.29 53.0756 230.549 51.2256 232.078 50.0178L232.323 49.819C234.356 48.1983 237.031 48.8252 239.048 51.3479C241.097 53.9318 241.005 56.4698 238.804 58.2281L238.406 58.5492L236.557 56.2099L236.954 55.8888C237.887 55.1397 237.871 54.2223 236.893 52.9839C236.037 51.9136 235.089 51.6078 234.356 52.1888L234.187 52.3111C233.637 52.7545 233.576 53.5649 233.989 54.574L234.891 56.7756C235.915 59.2372 235.67 61.026 234.05 62.3103L233.805 62.5091C231.619 64.2521 228.929 63.6711 226.82 61.0107C224.588 58.2128 224.726 55.6136 227.187 53.6566H227.171Z" fill="#FF8400"/>
<path d="M247.667 64.0371L249.303 66.7433L236.448 74.5561L234.812 71.8499L247.667 64.0371Z" fill="#FF8400"/>
<path d="M256.103 79.5873L242.667 86.3452L241.2 83.4402L247.192 74.9853L239.014 79.0981L237.653 76.3919L251.089 69.634L252.542 72.5237L246.458 81.0551L254.728 76.8811L256.088 79.5873H256.103Z" fill="#FF8400"/>
<path d="M255.861 86.6496L254.516 83.1178L257.191 82.0934L260.997 92.1232L258.322 93.1476L256.977 89.6158L245.589 93.9426L244.458 90.9765L255.846 86.6496H255.861Z" fill="#FF8400"/>
<path d="M261.777 94.5864L264.36 104.005L261.594 104.769L259.836 98.3781L256.718 99.2343L258.353 105.212L255.617 105.962L253.981 99.9835L250.863 100.84L252.621 107.231L249.854 107.995L247.271 98.5769L261.777 94.6017V94.5864Z" fill="#FF8400"/>
<path d="M265.034 107.143L265.569 110.247L253.585 112.326L254.747 118.992L251.904 119.482L250.207 109.712L265.034 107.143Z" fill="#FF8400"/>
<path d="M266.896 119.156L267.217 122.305L252.253 123.834L251.932 120.684L266.896 119.156Z" fill="#FF8400"/>
<path d="M262.556 134.706H262.923C264.268 134.675 265.17 133.483 265.124 131.755C265.079 129.768 264.009 128.636 262.174 128.682L258.139 128.774C256.259 128.82 255.28 129.921 255.311 131.954C255.342 133.238 255.77 134.263 256.564 134.935L258.093 134.905L258.001 130.838L260.753 130.777L260.906 137.901L252.819 138.07L252.758 135.455L253.675 135.272C252.85 134.416 252.437 133.299 252.407 131.832C252.33 128.132 254.516 125.655 257.91 125.594L262.205 125.502C265.598 125.425 267.922 127.902 267.998 131.618C268.075 135.318 266.087 137.779 262.969 137.856H262.602L262.541 134.691L262.556 134.706Z" fill="#FF8400"/>
<path d="M267.693 141.266L266.867 151.005L264.009 150.76L264.575 144.155L261.349 143.88L260.83 150.057L258.002 149.812L258.521 143.635L255.296 143.36L254.73 149.965L251.872 149.721L252.697 139.981L267.693 141.25V141.266Z" fill="#FF8400"/>
<path d="M264.327 165.205L249.561 162.376L250.172 159.181L260.062 156.123L251.074 154.395L251.639 151.429L266.405 154.258L265.794 157.438L255.782 160.496L264.877 162.239L264.311 165.205H264.327Z" fill="#FF8400"/>
<path d="M259.832 170.649L260.917 167.026L263.653 167.851L260.566 178.126L257.83 177.3L258.915 173.677L247.267 170.175L248.184 167.148L259.832 170.649Z" fill="#FF8400"/>
<path d="M259.683 180.557L255.999 189.608L253.339 188.523L255.846 182.392L252.85 181.169L250.512 186.902L247.882 185.832L250.221 180.098L247.225 178.875L244.718 185.006L242.059 183.921L245.742 174.87L259.668 180.542L259.683 180.557Z" fill="#FF8400"/>
<path d="M245.589 187.267L246.033 187.496L244.626 190.157L244.183 189.927C242.976 189.285 241.921 189.744 241.157 191.181C240.453 192.511 240.545 193.551 241.493 194.055L241.676 194.147C242.425 194.545 243.174 194.315 244.015 193.413L245.666 191.67C247.378 189.882 249.166 189.377 250.894 190.294L251.184 190.447C253.477 191.655 253.981 194.377 252.468 197.236C250.924 200.156 248.555 201.073 246.063 199.758L245.62 199.529L247.011 196.899L247.454 197.129C248.509 197.694 249.365 197.312 250.099 195.905C250.741 194.698 250.649 193.704 249.808 193.26L249.625 193.169C248.998 192.832 248.234 193.108 247.47 193.903L245.803 195.615C243.954 197.541 242.211 198.015 240.392 197.052L240.102 196.899C237.626 195.584 237.091 192.893 238.68 189.897C240.362 186.732 242.792 185.83 245.559 187.298L245.589 187.267Z" fill="#FF8400"/>
<path d="M237.335 206.105C238.955 207.297 239.245 209.285 238.007 210.936C236.784 212.603 234.828 212.893 233.208 211.701C231.526 210.462 231.251 208.521 232.474 206.854C233.697 205.188 235.653 204.866 237.335 206.105Z" fill="#FF8400"/>
<path d="M232.531 224.957L225.668 231.898L223.635 229.88L228.297 225.171L226.004 222.893L221.648 227.296L219.63 225.293L223.987 220.89L221.694 218.612L217.032 223.321L214.999 221.303L221.862 214.362L232.562 224.942L232.531 224.957Z" fill="#FF8400"/>
<path d="M216.978 225.755L217.299 226.137L214.991 228.048L214.67 227.666C213.799 226.611 212.653 226.626 211.399 227.666C210.237 228.629 209.932 229.623 210.62 230.464L210.757 230.617C211.292 231.274 212.072 231.335 213.203 230.831L215.389 229.852C217.651 228.843 219.501 229.073 220.739 230.571L220.937 230.816C222.588 232.803 222.023 235.509 219.531 237.573C216.994 239.683 214.456 239.638 212.653 237.466L212.332 237.084L214.624 235.188L214.945 235.571C215.71 236.488 216.642 236.457 217.85 235.448C218.904 234.577 219.195 233.614 218.599 232.895L218.461 232.742C218.003 232.192 217.192 232.146 216.199 232.589L214.013 233.537C211.567 234.607 209.779 234.393 208.464 232.803L208.266 232.559C206.477 230.403 207.012 227.697 209.626 225.541C212.377 223.263 214.976 223.339 216.978 225.755Z" fill="#FF8400"/>
<path d="M212.495 242.8L207.313 246.24C204.699 247.983 202.147 247.555 200.603 245.216L200.419 244.956C198.86 242.601 199.426 240.109 202.07 238.351L204.623 236.654L201.535 232.006L204.149 230.263L212.48 242.8H212.495ZM203.752 240.675C202.651 241.409 202.437 242.265 203.064 243.198L203.247 243.458C203.859 244.375 204.761 244.497 205.831 243.779L208.292 242.143L206.228 239.024L203.767 240.66L203.752 240.675Z" fill="#FF8400"/>
<path d="M184.78 242.358L184.551 241.929L187.363 240.431L189.366 242.526L193.615 240.248L192.989 237.419L195.801 235.921L196.03 236.349L198.904 251.332L195.664 253.06L184.78 242.358ZM191.338 244.574L195.526 248.962L194.196 243.03L191.322 244.559L191.338 244.574Z" fill="#FF8400"/>
<path d="M179.432 253.794L179.692 254.451C180.319 255.995 181.648 256.485 183.376 255.781C185.118 255.078 185.745 253.732 185.027 251.989L183.513 248.274C182.81 246.547 181.465 246.011 179.692 246.73C177.965 247.433 177.353 248.718 177.98 250.262L178.209 250.843L175.259 252.035L175.045 251.5C173.975 248.87 174.846 246.317 177.17 244.773L176.711 240.874L179.661 239.682L180.12 243.58C182.887 243.076 185.332 244.345 186.387 246.959L187.992 250.935C189.245 254.038 187.778 257.127 184.4 258.503C181.037 259.863 177.949 258.686 176.696 255.582L176.451 254.986L179.401 253.794H179.432Z" fill="#FF8400"/>
<path d="M173.163 252.235L174.294 256.348C175.165 259.528 173.408 262.464 169.892 263.427C166.33 264.406 163.334 262.77 162.463 259.589L161.332 255.477C160.461 252.296 162.173 249.376 165.765 248.382C169.296 247.419 172.292 249.04 173.163 252.22V252.235ZM164.42 254.743L165.474 258.596C165.963 260.384 167.278 261.118 169.112 260.614C170.931 260.109 171.68 258.81 171.191 257.021L170.136 253.168C169.647 251.394 168.363 250.691 166.529 251.18C164.741 251.67 163.946 253.03 164.42 254.727V254.743Z" fill="#FF8400"/>
<path d="M159.209 255.078L159.285 255.582L156.32 256.056L156.243 255.552C156.029 254.191 155.036 253.625 153.431 253.885C151.933 254.13 151.169 254.833 151.337 255.888L151.367 256.087C151.505 256.928 152.132 257.386 153.354 257.509L155.739 257.784C158.2 258.074 159.683 259.206 159.988 261.132L160.034 261.453C160.447 264.007 158.582 266.055 155.387 266.56C152.132 267.08 149.961 265.75 149.518 262.967L149.441 262.462L152.391 262.004L152.468 262.508C152.651 263.686 153.461 264.144 155.036 263.884C156.396 263.67 157.13 262.998 156.977 262.065L156.947 261.866C156.84 261.163 156.167 260.719 155.066 260.582L152.697 260.276C150.053 259.955 148.616 258.854 148.295 256.821L148.249 256.5C147.806 253.732 149.64 251.683 153.003 251.148C156.534 250.583 158.735 251.974 159.224 255.093L159.209 255.078Z" fill="#FF8400"/>
<path d="M140.041 267.814L136.877 267.905L136.418 252.861L139.582 252.769L140.041 267.814Z" fill="#FF8400"/>
<path d="M122.386 267.508L123.104 252.478L126.36 252.631L130.778 262.004L131.221 252.861L134.247 252.998L133.529 268.028L130.304 267.875L125.871 258.38L125.428 267.63L122.401 267.493L122.386 267.508Z" fill="#FF8400"/>
<path d="M116.392 263.838L120.137 264.404L119.709 267.232L109.101 265.642L109.529 262.814L113.274 263.38L115.077 251.332L118.211 251.806L116.407 263.854L116.392 263.838Z" fill="#FF8400"/>
<path d="M106.581 265.108L97.104 262.738L97.7919 259.956L104.227 261.561L105.007 258.427L98.9994 256.928L99.6873 254.176L105.695 255.675L106.474 252.54L100.039 250.935L100.727 248.152L110.204 250.522L106.566 265.123L106.581 265.108Z" fill="#FF8400"/>
<path d="M94.0618 261.791L91.0964 260.736L95.1471 249.269L88.7729 247.006L89.736 244.284L99.0755 247.587L94.0618 261.775V261.791Z" fill="#FF8400"/>
<path d="M82.6562 257.524L79.752 256.255L85.744 242.464L88.6483 243.733L82.6562 257.524Z" fill="#FF8400"/>
<path d="M71.2213 246.087L71.0531 246.409C70.4111 247.601 71.0073 248.962 72.5206 249.772C74.2784 250.72 75.7917 250.323 76.6477 248.717L78.5584 245.155C79.445 243.504 78.9711 242.097 77.1827 241.134C76.0516 240.522 74.951 240.4 73.9727 240.767L73.239 242.128L76.8158 244.054L75.5166 246.485L69.2341 243.106L73.0556 235.966L75.3637 237.204L75.0733 238.091C76.2197 237.801 77.3967 237.984 78.6807 238.672C81.9366 240.415 83.0066 243.549 81.4016 246.546L79.3686 250.323C77.7636 253.319 74.4618 254.114 71.1907 252.356C67.9348 250.613 66.7578 247.662 68.2405 244.91L68.4087 244.589L71.1907 246.087H71.2213Z" fill="#FF8400"/>
<path d="M62.9867 247.309L54.9312 241.79L56.5514 239.42L62.0237 243.166L63.8427 240.49L58.7373 236.989L60.3423 234.635L65.4477 238.136L67.2668 235.46L61.7945 231.714L63.4147 229.345L71.4703 234.864L62.9715 247.279L62.9867 247.309Z" fill="#FF8400"/>
<path d="M43.7887 232.589L53.541 221.122L56.0173 223.232L53.7856 233.354L59.7165 226.382L62.0246 228.339L52.2723 239.806L49.8113 237.711L52.0889 227.483L46.0816 234.546L43.7734 232.589H43.7887Z" fill="#FF8400"/>
<path d="M41.3102 226.041L43.9241 228.777L41.8605 230.765L34.4316 223.029L36.4952 221.041L39.1091 223.778L47.8831 215.338L50.069 217.616L41.2949 226.056L41.3102 226.041Z" fill="#FF8400"/>
<path d="M32.7496 221.046L26.6812 213.401L28.9282 211.612L33.04 216.811L35.5775 214.808L31.7255 209.961L33.9572 208.188L37.8092 213.034L40.3466 211.031L36.2347 205.833L38.4818 204.044L44.5502 211.689L32.7649 221.046H32.7496Z" fill="#FF8400"/>
<path d="M33.8181 205.462L33.3901 205.737L31.7698 203.214L32.1979 202.939C33.3596 202.19 33.4666 201.058 32.5953 199.698C31.7698 198.429 30.8221 198 29.9203 198.581L29.7521 198.688C29.0337 199.147 28.8656 199.912 29.2477 201.089L29.9661 203.382C30.6998 205.752 30.2566 207.556 28.6057 208.611L28.3306 208.779C26.1447 210.186 23.5461 209.299 21.7883 206.578C19.9998 203.795 20.3514 201.288 22.7207 199.759L23.1487 199.483L24.7537 201.991L24.3257 202.266C23.3168 202.908 23.2404 203.841 24.0964 205.171C24.8454 206.333 25.7473 206.731 26.5421 206.211L26.7103 206.104C27.3064 205.721 27.444 204.926 27.123 203.871L26.4504 201.578C25.6861 199.025 26.1141 197.267 27.8414 196.166L28.1166 195.998C30.4706 194.484 33.0844 195.34 34.9187 198.199C36.8447 201.211 36.4626 203.78 33.8181 205.477V205.462Z" fill="#FF8400"/>
<path d="M21.4404 189.031C19.6061 189.856 17.7412 189.138 16.9005 187.257C16.0598 185.376 16.763 183.526 18.5972 182.701C20.508 181.845 22.327 182.563 23.183 184.444C24.0237 186.324 23.3511 188.19 21.4557 189.046L21.4404 189.031Z" fill="#FF8400"/>
<path d="M7.37618 175.608L4.70117 166.22L7.45261 165.44L9.27161 171.816L12.3746 170.929L10.6779 164.982L13.4141 164.202L15.1108 170.149L18.2138 169.263L16.3948 162.887L19.1462 162.107L21.8212 171.495L7.36089 175.608H7.37618Z" fill="#FF8400"/>
<path d="M14.3284 161.642L13.824 161.734L13.3043 158.783L13.7934 158.691C15.1538 158.447 15.6888 157.437 15.4137 155.847C15.1538 154.364 14.4354 153.6 13.3654 153.783L13.1667 153.814C12.326 153.967 11.8827 154.594 11.7757 155.832L11.5464 158.232C11.3018 160.694 10.2013 162.192 8.27525 162.544L7.95425 162.605C5.40153 163.064 3.33795 161.229 2.77238 158.049C2.19152 154.792 3.49081 152.606 6.25753 152.117L6.74668 152.025L7.26639 154.961L6.76196 155.052C5.58496 155.266 5.15696 156.077 5.4321 157.636C5.67667 158.997 6.36453 159.7 7.28168 159.547L7.48039 159.517C8.18354 159.394 8.61154 158.706 8.73382 157.621L8.99368 155.251C9.26882 152.591 10.3388 151.138 12.3718 150.787L12.6928 150.725C15.4443 150.236 17.5384 152.025 18.1346 155.373C18.7613 158.89 17.4008 161.122 14.3131 161.673L14.3284 161.642Z" fill="#FF8400"/>
<path d="M1.70288 149.385L1.25959 143.177C1.0303 140.043 2.66588 138.04 5.46317 137.841H5.78417C8.59675 137.612 10.4922 139.34 10.7215 142.505L10.9355 145.578L16.4995 145.18L16.7288 148.315L1.71816 149.385H1.70288ZM7.86304 142.826C7.77132 141.496 7.12932 140.899 6.01346 140.976H5.69246C4.59188 141.083 4.0416 141.801 4.13331 143.086L4.34731 146.037L8.07704 145.777L7.86304 142.826Z" fill="#FF8400"/>
<path d="M15.7228 125.454H16.2119L16.1355 128.649L13.3229 129.368L13.2159 134.184L15.9979 135.025L15.9215 138.205H15.4476L0.987305 133.328L1.06373 129.658L15.7228 125.438V125.454ZM10.5868 130.086L4.70174 131.585L10.5103 133.343L10.5868 130.086Z" fill="#FF8400"/>
<path d="M8.38792 115.182L7.68478 115.09C6.01863 114.876 4.96391 115.809 4.71934 117.643C4.47477 119.509 5.34606 120.701 7.21092 120.946L11.1852 121.45C13.0195 121.68 14.1659 120.762 14.4105 118.882C14.6398 117.032 13.8296 115.87 12.1635 115.656L11.5521 115.579L11.9648 112.414L12.5304 112.491C15.3429 112.858 17.1467 114.861 17.3454 117.643L20.9681 119.142L20.5554 122.307L16.9327 120.808C16.0155 123.469 13.7226 124.967 10.9254 124.615L6.67592 124.065C3.35891 123.637 1.38705 120.839 1.84562 117.231C2.30419 113.638 4.84163 111.512 8.15863 111.94L8.80064 112.017L8.38792 115.182Z" fill="#FF8400"/>
<path d="M12.8334 110.472L8.69095 109.432C5.48094 108.637 3.79951 105.655 4.67079 102.124C5.55737 98.5459 8.44638 96.7265 11.6564 97.5368L15.7988 98.5612C19.0088 99.3563 20.7056 102.292 19.8037 105.9C18.9171 109.462 16.0281 111.267 12.8334 110.472ZM14.9122 101.604L11.045 100.641C9.24123 100.197 7.95723 100.977 7.49866 102.827C7.04009 104.646 7.80437 105.946 9.60809 106.405L13.4754 107.368C15.2485 107.811 16.5173 107.047 16.9758 105.197C17.4191 103.393 16.6243 102.032 14.9122 101.604Z" fill="#FF8400"/>
<path d="M17.187 96.8655L16.7131 96.682L17.7525 93.8688L18.2264 94.037C19.5104 94.511 20.4887 93.93 21.0542 92.401C21.574 90.9791 21.3447 89.9701 20.3358 89.5878L20.1371 89.5114C19.3422 89.2209 18.6391 89.542 17.9207 90.551L16.5144 92.4928C15.0622 94.4957 13.3502 95.2296 11.5159 94.5568L11.2102 94.4498C8.77979 93.5477 7.92378 90.9333 9.03964 87.8907C10.1861 84.787 12.4025 83.5639 15.0469 84.5424L15.5208 84.7258L14.4814 87.5238L14.0075 87.3403C12.8917 86.9275 12.0968 87.4168 11.5465 88.8998C11.0726 90.1841 11.3019 91.1626 12.1732 91.4837L12.3719 91.5601C13.0445 91.8048 13.7629 91.4378 14.4049 90.551L15.8265 88.6399C17.401 86.4841 19.0671 85.7808 20.9931 86.4994L21.2988 86.6064C23.928 87.5849 24.8145 90.1841 23.6375 93.3643C22.3994 96.7126 20.1065 97.951 17.1564 96.8502L17.187 96.8655Z" fill="#FF8400"/>
<path d="M15.4902 73.9428L16.9577 71.1449L30.2716 78.1474L28.8041 80.9453L15.4902 73.9428Z" fill="#FF8400"/>
<path d="M24.4335 58.7148L37.1665 66.7416L35.4239 69.4937L25.0908 68.7292L32.8406 73.6065L31.2203 76.1751L18.4873 68.1482L20.2146 65.4114L30.6548 66.2218L22.8132 61.2833L24.4335 58.7148Z" fill="#FF8400"/>
<path d="M30.6127 55.3081L28.274 58.2895L26.0117 56.516L32.6304 48.061L34.8927 49.8346L32.554 52.816L42.1382 60.323L40.1816 62.8152L30.5974 55.3081H30.6127Z" fill="#FF8400"/>
<path d="M34.3408 46.1348L41.0513 39.0406L43.1301 41.0129L38.575 45.829L40.929 48.0613L45.1937 43.5662L47.2573 45.5232L42.9926 50.0183L45.3466 52.2505L49.9017 47.4344L51.9806 49.4067L45.2701 56.5009L34.3408 46.1501V46.1348Z" fill="#FF8400"/>
<path d="M43.3569 36.8828L45.7262 34.8188L53.7054 43.977L58.8108 39.5279L60.7063 41.699L53.2468 48.2122L43.3569 36.8675V36.8828Z" fill="#FF8400"/>
<path d="M52.6675 29.0399L55.1896 27.1288L64.2694 39.1308L61.7472 41.042L52.6675 29.0399Z" fill="#FF8400"/>
<path d="M68.2442 24.6816L68.0455 24.3759C67.3271 23.2292 65.8443 23.0916 64.3922 24.0089C62.7108 25.0792 62.298 26.5775 63.2916 28.137L65.4622 31.5465C66.4711 33.1366 67.9232 33.4118 69.6505 32.311C70.7358 31.623 71.3778 30.7209 71.5459 29.6965L70.7205 28.3969L67.2965 30.568L65.8291 28.244L71.8516 24.4217L76.1928 31.256L73.9916 32.6626L73.3649 31.9746C73.0592 33.1213 72.3255 34.054 71.0874 34.8337C67.9691 36.806 64.7132 36.225 62.8942 33.3507L60.6013 29.7271C58.7823 26.868 59.6995 23.5961 62.8331 21.5932C65.9513 19.6209 69.1002 20.0337 70.7664 22.6635L70.9651 22.9693L68.2901 24.6664L68.2442 24.6816Z" fill="#FF8400"/>
<path d="M71.2251 16.8877L79.9838 12.5609L81.2525 15.1295L75.3217 18.065L76.7585 20.97L82.3073 18.2332L83.5607 20.7865L78.012 23.5233L79.4488 26.4282L85.3797 23.4927L86.6484 26.0613L77.8897 30.3882L71.2404 16.903L71.2251 16.8877Z" fill="#FF8400"/>
<path d="M93.4686 7.37906L98.6658 21.491L95.6086 22.6224L87.8893 15.727L91.0535 24.3043L88.2103 25.3439L83.0132 11.232L86.0398 10.1158L93.8202 17.1183L90.6102 8.43402L93.4534 7.37906H93.4686Z" fill="#FF8400"/>
<path d="M100.39 8.43181L96.7219 9.36445L96.0034 6.58181L106.398 3.92148L107.116 6.70412L103.448 7.63677L106.474 19.4248L103.417 20.2045L100.39 8.41652V8.43181Z" fill="#FF8400"/>
<path d="M108.963 3.4288L118.608 1.91516L119.051 4.74367L112.509 5.76805L113.014 8.96351L119.128 8.00028L119.571 10.8135L113.457 11.7767L113.961 14.9722L120.504 13.9478L120.947 16.7763L111.302 18.29L108.978 3.4288H108.963Z" fill="#FF8400"/>
<path d="M121.975 12.0395L121.945 11.5349L124.941 11.3668L124.971 11.8713C125.048 13.2473 125.98 13.9048 127.601 13.813C129.114 13.7366 129.955 13.1097 129.893 12.0242V11.8254C129.832 10.9845 129.251 10.4647 128.044 10.2048L125.69 9.68494C123.275 9.14982 121.914 7.86552 121.807 5.92378V5.60271C121.654 3.01883 123.703 1.18412 126.928 1.00064C130.23 0.817173 132.247 2.36139 132.4 5.17461L132.431 5.67916L129.45 5.84734L129.42 5.34279C129.358 4.15023 128.594 3.61511 127.004 3.70684C125.629 3.78329 124.834 4.37957 124.88 5.31221V5.51097C124.926 6.21428 125.552 6.73411 126.622 6.97874L128.946 7.51387C131.544 8.11015 132.859 9.34858 132.981 11.3973V11.7184C133.149 14.5163 131.116 16.3663 127.723 16.5651C124.146 16.7639 122.113 15.1585 121.93 12.0089L121.975 12.0395Z" fill="#FF8400"/>
<path d="M142.379 9.35151C142.563 7.34862 144.106 6.07961 146.155 6.26308C148.203 6.44655 149.472 7.97548 149.288 9.97837C149.105 12.0577 147.576 13.2961 145.528 13.1127C143.48 12.9292 142.18 11.4308 142.364 9.35151H142.379Z" fill="#FF8400"/>
</svg>
