<svg width="82" height="44" viewBox="0 0 82 44" fill="none" xmlns="http://www.w3.org/2000/svg">
<path d="M9.98334 3.01465H1V42.7324H31V3.01465H21.1632" stroke="#EF7D00" stroke-width="2" stroke-miterlimit="10"/>
<path d="M13.1172 3.01465H18.8771" stroke="#EF7D00" stroke-width="2" stroke-miterlimit="10"/>
<path d="M9.32422 14.3613H22.6734" stroke="#EF7D00" stroke-width="2" stroke-miterlimit="10"/>
<path d="M9.32422 22.8721H22.6734" stroke="#EF7D00" stroke-width="2" stroke-miterlimit="10"/>
<path d="M9.32422 31.3828H22.6734" stroke="#EF7D00" stroke-width="2" stroke-miterlimit="10"/>
<path d="M56.2157 38.2731V21.2157H80.7843V38.2731L79.1007 40.0414L77.4412 41.7843H59.5588L56.2157 38.2731Z" stroke="#FF8400" stroke-width="2.43137"/>
<path d="M56.4531 17.1512V6.52712C58.2216 4.75861 59.2117 3.76851 60.9803 2H75.5517C77.3202 3.76851 78.3104 4.75861 80.0789 6.52712V17.1512" stroke="#FF8400" stroke-width="2.43137" stroke-miterlimit="10"/>
<path d="M68.2652 31.4942C69.8247 31.4942 71.0889 30.2299 71.0889 28.6704C71.0889 27.1109 69.8247 25.8467 68.2652 25.8467C66.7056 25.8467 65.4414 27.1109 65.4414 28.6704C65.4414 30.2299 66.7056 31.4942 68.2652 31.4942Z" fill="#FF8400"/>
<path d="M68.2656 28.6709V35.7384" stroke="#FF8400" stroke-width="2.43137" stroke-miterlimit="10"/>
</svg>
