<svg width="223" height="44" viewBox="0 0 223 44" fill="none" xmlns="http://www.w3.org/2000/svg">
<path d="M11.178 40.4219C16.2469 40.4219 20.356 36.3128 20.356 31.2439C20.356 26.1751 16.2469 22.0659 11.178 22.0659C6.10914 22.0659 2 26.1751 2 31.2439C2 36.3128 6.10914 40.4219 11.178 40.4219Z" stroke="#C3D600" stroke-width="2.43137" stroke-miterlimit="10"/>
<path d="M51.6175 40.4219C56.6863 40.4219 60.7955 36.3128 60.7955 31.2439C60.7955 26.1751 56.6863 22.0659 51.6175 22.0659C46.5486 22.0659 42.4395 26.1751 42.4395 31.2439C42.4395 36.3128 46.5486 40.4219 51.6175 40.4219Z" stroke="#C3D600" stroke-width="2.43137" stroke-miterlimit="10"/>
<path d="M11.3086 31.9734L15.751 15.7409V7.41617C16.8323 6.33487 17.4414 5.72583 18.5227 4.64453H24.3786" stroke="#C3D600" stroke-width="2.43137" stroke-miterlimit="10"/>
<path d="M15.748 15.7417H43.699L51.8511 28.587C51.2094 29.7562 51.0661 30.0168 50.4213 31.186H32.873C31.0263 30.1308 29.5444 29.2807 27.6977 28.2255L20.3566 15.7417" stroke="#C3D600" stroke-width="2.43137" stroke-miterlimit="10"/>
<path d="M43.6992 15.7411V10.605" stroke="#C3D600" stroke-width="2.43137" stroke-miterlimit="10"/>
<path d="M37.5977 10.605H49.7948" stroke="#C3D600" stroke-width="2.43137" stroke-miterlimit="10"/>
<path d="M43.6959 15.7417L30.2969 29.7139" stroke="#C3D600" stroke-width="2.43137" stroke-miterlimit="10"/>
<path d="M152.645 6.55615L143.721 12.4414V38.5098H110.82V12.4414L101.893 6.55615" stroke="#C3D600" stroke-width="2.43137" stroke-miterlimit="10"/>
<path d="M117.992 12.6465H136.55" stroke="#C3D600" stroke-width="2.43137" stroke-miterlimit="10"/>
<path d="M194.958 38.2961V21.1415H221.057V38.2961L219.28 40.0733L217.503 41.8505H198.512L194.958 38.2961Z" stroke="#C3D600" stroke-width="2.43137"/>
<path d="M196.195 17.1512V6.52712C197.964 4.75861 198.954 3.76851 200.722 2H215.294C217.062 3.76851 218.053 4.75861 219.821 6.52712V17.1512" stroke="#C3D600" stroke-width="2.43137" stroke-miterlimit="10"/>
<path d="M208.007 31.4942C209.567 31.4942 210.831 30.2299 210.831 28.6704C210.831 27.1109 209.567 25.8467 208.007 25.8467C206.448 25.8467 205.184 27.1109 205.184 28.6704C205.184 30.2299 206.448 31.4942 208.007 31.4942Z" fill="#C3D600"/>
<path d="M208.008 28.6709V35.7384" stroke="#C3D600" stroke-width="2.43137" stroke-miterlimit="10"/>
</svg>
