<svg width="293" height="286" viewBox="0 0 293 286" fill="none" xmlns="http://www.w3.org/2000/svg">
<g clip-path="url(#clip0_577_8378)">
<path d="M210.865 62.258L202.117 54.1775C198.709 51.0284 193.269 51.7334 190.782 55.649C186.554 62.305 189.614 69.2033 194.779 75.9931L214.723 99.5332L225.252 137.658L254.284 127.387L223.521 74.6264L210.865 62.258Z" fill="white"/>
<path d="M225.248 138.464C225.121 138.464 224.99 138.435 224.874 138.374C224.674 138.269 224.529 138.088 224.468 137.875L213.986 99.92L194.157 76.5136C189.682 70.6313 185.2 62.9267 190.096 55.2186C191.41 53.1506 193.559 51.7839 195.998 51.4694C198.437 51.1548 200.865 51.9249 202.665 53.5917L211.412 61.6722C211.412 61.6722 211.423 61.683 211.43 61.6866L224.086 74.0551C224.137 74.1057 224.184 74.1636 224.221 74.225L254.985 126.985C255.104 127.191 255.126 127.441 255.046 127.665C254.963 127.889 254.785 128.066 254.556 128.146L225.524 138.417C225.437 138.446 225.346 138.464 225.255 138.464H225.248ZM197.068 53.0096C196.782 53.0096 196.495 53.0276 196.208 53.0638C194.248 53.3169 192.521 54.416 191.464 56.0791C188.056 61.4408 189.279 67.4316 195.421 75.5085L215.339 99.0161C215.416 99.1065 215.47 99.2078 215.503 99.3198L225.8 136.61L253.097 126.953L222.878 75.1253L210.309 62.84L201.569 54.7667C200.335 53.6242 198.731 53.006 197.068 53.006V53.0096Z" fill="#313131"/>
<path d="M224.95 30.2538L215.753 18.4169C212.17 13.8035 205.263 13.5649 201.365 17.9143C194.73 25.3187 197.108 34.5164 202.12 44.0106L222.024 77.3559L227.215 126.888L265.412 120.09L238.11 48.2226L224.95 30.2538Z" fill="white"/>
<path d="M227.215 127.69C227.04 127.69 226.87 127.636 226.728 127.528C226.55 127.394 226.434 127.192 226.409 126.967L221.241 77.6129L201.427 44.4195C197.119 36.2594 193.173 25.8505 200.766 17.3759C202.784 15.1235 205.681 13.9015 208.711 13.9991C211.742 14.1039 214.54 15.5356 216.399 17.9218L225.596 29.7588C225.596 29.7588 225.603 29.7697 225.61 29.7769L238.771 47.7457C238.815 47.8035 238.847 47.8686 238.873 47.9373L266.174 119.805C266.257 120.029 266.239 120.279 266.119 120.485C266 120.695 265.796 120.839 265.561 120.879L227.363 127.676C227.316 127.683 227.269 127.687 227.222 127.687L227.215 127.69ZM208.348 15.6007C205.909 15.6007 203.601 16.6275 201.971 18.4461C196.563 24.4839 196.828 32.2499 202.839 43.6313L222.725 76.9404C222.787 77.0416 222.823 77.1501 222.834 77.2694L227.933 125.941L264.319 119.465L237.403 48.6025L224.311 30.7314L215.121 18.9052C213.56 16.8951 211.205 15.6947 208.657 15.6043C208.555 15.6043 208.454 15.5971 208.352 15.5971L208.348 15.6007Z" fill="#313131"/>
<path d="M233.73 17.0467L224.064 4.60592C220.297 -0.242391 213.041 -0.495472 208.944 4.07807C201.971 11.8585 204.469 21.5262 209.735 31.5049L230.656 66.5494L236.107 118.605L276.253 111.46L247.562 35.9266L233.73 17.0431V17.0467Z" fill="white"/>
<path d="M236.111 119.414C235.936 119.414 235.766 119.36 235.624 119.252C235.446 119.118 235.33 118.916 235.305 118.691L229.871 66.8097L209.042 31.917C204.523 23.3556 200.378 12.4298 208.341 3.54298C210.453 1.18571 213.477 -0.112238 216.656 0.00707158C219.828 0.11915 222.761 1.61595 224.703 4.11422L234.368 16.555C234.368 16.555 234.376 16.5658 234.383 16.5731L248.215 35.4565C248.258 35.5144 248.291 35.5795 248.317 35.6482L277.008 111.178C277.091 111.403 277.073 111.652 276.953 111.858C276.834 112.068 276.63 112.213 276.395 112.252L236.248 119.396C236.201 119.404 236.154 119.407 236.107 119.407L236.111 119.414ZM216.279 1.60871C213.706 1.60871 211.266 2.69335 209.546 4.61315C203.848 10.9727 204.127 19.1509 210.45 31.1288L231.349 66.1372C231.41 66.2385 231.447 66.3469 231.457 66.4662L236.822 117.661L275.153 110.839L246.843 36.3134L233.08 17.5275L223.422 5.09762C221.774 2.97535 219.288 1.70633 216.595 1.61233C216.489 1.60871 216.38 1.6051 216.275 1.6051L216.279 1.60871Z" fill="#313131"/>
<path d="M82.1445 62.6994L90.8917 54.6189C94.2998 51.4698 99.7404 52.1748 102.227 56.0904C106.455 62.7464 103.395 69.6447 98.2305 76.4345L78.2863 99.9747L67.7571 138.1L38.7246 127.828L69.4884 75.0678L82.1445 62.6994Z" fill="white"/>
<path d="M67.7599 138.906C67.6692 138.906 67.5784 138.891 67.4913 138.859L38.4588 128.587C38.2338 128.508 38.0523 128.331 37.9688 128.106C37.8854 127.882 37.9071 127.633 38.0305 127.427L68.7943 74.6665C68.8306 74.605 68.8742 74.5472 68.9286 74.4965L81.5847 62.1281C81.5847 62.1281 81.5956 62.1172 81.5993 62.1136L90.3464 54.0331C92.1503 52.37 94.582 51.5963 97.0138 51.9108C99.4492 52.2254 101.602 53.5956 102.915 55.6601C107.812 63.3682 103.329 71.0691 98.8794 76.9189L79.0223 100.358L68.5402 138.313C68.4822 138.53 68.3334 138.711 68.1337 138.812C68.0176 138.873 67.8906 138.902 67.7599 138.902V138.906ZM39.9143 127.394L67.2118 137.051L77.5088 99.7613C77.5415 99.6492 77.5959 99.5444 77.6721 99.4576L97.6163 75.9174C103.732 67.8767 104.952 61.8822 101.547 56.5241C100.491 54.861 98.7632 53.7619 96.8033 53.5089C94.8433 53.2522 92.8907 53.8776 91.4425 55.2154L82.7026 63.2887L70.1336 75.5739L39.9143 127.401V127.394Z" fill="#313131"/>
<path d="M68.0576 30.6952L77.2548 18.8583C80.8371 14.245 87.7441 14.0063 91.6422 18.3557C98.2769 25.7602 95.8996 34.9579 90.8872 44.452L70.9829 77.7973L65.7927 127.329L27.5957 120.532L54.8969 48.664L68.0576 30.6952Z" fill="white"/>
<path d="M65.7925 128.135C65.7453 128.135 65.6981 128.132 65.6509 128.124L27.4539 121.324C27.218 121.28 27.0111 121.136 26.8949 120.93C26.7752 120.72 26.757 120.47 26.8405 120.25L54.1381 48.382C54.1635 48.3133 54.1998 48.2519 54.2397 48.1904L67.4003 30.2216C67.4003 30.2216 67.4076 30.2108 67.4149 30.2035L76.6121 18.3666C78.4667 15.9767 81.2687 14.5486 84.2994 14.4438C87.3228 14.3426 90.2227 15.5682 92.2408 17.8206C99.8337 26.2952 95.8848 36.7041 91.5983 44.828L71.763 78.0576L66.591 127.412C66.5692 127.636 66.453 127.839 66.2716 127.972C66.13 128.077 65.9594 128.135 65.7852 128.135H65.7925ZM28.6952 119.91L65.0811 126.385L70.1805 77.7141C70.1914 77.5984 70.2314 77.4864 70.2894 77.3851L90.1937 44.0399C96.1788 32.6946 96.4474 24.925 91.0394 18.8908C89.3408 16.9963 86.9126 15.9551 84.3574 16.0491C81.8095 16.1394 79.454 17.3398 77.8933 19.35L68.7033 31.1761L55.6117 49.0473L28.6952 119.906V119.91Z" fill="#313131"/>
<path d="M59.2763 17.4917L68.9417 5.05099C72.7092 0.202677 79.9646 -0.0504038 84.0623 4.52314C91.0346 12.3036 88.5375 21.9713 83.2711 31.9499L62.3505 66.9945L56.899 119.05L16.7529 111.906L45.4406 36.3752L59.2727 17.4917H59.2763Z" fill="white"/>
<path d="M56.8958 119.856C56.8486 119.856 56.8014 119.852 56.7543 119.845L16.6082 112.701C16.3723 112.658 16.1654 112.513 16.0492 112.307C15.9295 112.097 15.9113 111.848 15.9948 111.627L44.6861 36.0896C44.7115 36.0209 44.7478 35.9594 44.7877 35.898L58.6198 17.0145C58.6198 17.0145 58.6271 17.0036 58.6343 16.9964L68.2998 4.55926C70.2415 2.06099 73.1742 0.560577 76.3464 0.452113C79.5113 0.350881 82.5492 1.63075 84.6616 3.98802C92.6248 12.8748 88.4799 23.8007 83.9829 32.3259L63.1313 67.2547L57.6979 119.136C57.6762 119.361 57.56 119.563 57.3785 119.697C57.237 119.802 57.0664 119.86 56.8922 119.86L56.8958 119.856ZM17.8495 111.284L56.1808 118.106L61.5452 66.9113C61.5561 66.7956 61.596 66.6835 61.6541 66.5823L82.5746 31.5377C88.8755 19.5923 89.155 11.4142 83.4566 5.05819C81.6636 3.05524 79.0903 1.95614 76.4008 2.05737C73.7114 2.15137 71.2215 3.4204 69.5737 5.54266L59.9156 17.9726L46.1524 36.7584L17.8458 111.284H17.8495Z" fill="#313131"/>
<path d="M53.0237 7.41559C46.0188 17.8715 28.4809 45.8767 22.6193 54.6225C19.85 58.7549 17.8682 63.3574 16.7721 68.2057L1.81489 134.321C-0.664075 145.276 1.41927 156.766 7.58945 166.163L40.8757 211.323C48.407 221.54 50.0947 234.907 45.34 246.664L29.7585 285.194H111.303L120.903 236.95C125.944 211.605 118.979 185.357 102.022 165.808L80.942 141.509L70.8193 99.8084C68.9537 88.6583 62.3661 80.9357 50.817 81.5323L50.8279 81.1743L52.9911 67.5079L73.0587 29.365C76.808 22.0003 76.3506 10.0079 69.7848 4.97154C69.6796 4.88839 69.5707 4.80885 69.4654 4.72569C64.2353 0.716161 56.6932 1.94903 53.0274 7.41559H53.0237Z" fill="white"/>
<path d="M29.7552 285.997C29.6535 285.997 29.5519 285.978 29.4539 285.939C29.0402 285.772 28.8405 285.302 29.0075 284.89L44.589 246.36C49.2711 234.78 47.6414 221.859 40.2227 211.797L6.9364 166.636C0.660965 157.073 -1.48408 145.244 1.02755 134.141L15.9848 68.0248C17.1063 63.0608 19.1134 58.4005 21.9481 54.1741C24.7501 49.9946 30.1907 41.4549 35.9544 32.4163C42.2189 22.5859 48.6976 12.4229 52.3525 6.96717C54.2508 4.13627 57.1508 2.27432 60.5226 1.72115C63.8944 1.16799 67.2445 2.01039 69.9557 4.08566L70.2751 4.33151C77.2365 9.67152 77.7084 22.0002 73.7776 29.7264L53.7681 67.7609L51.7754 80.3427H51.8444C62.2212 80.3427 69.5782 87.494 71.6144 99.6745L81.679 141.129L102.632 165.284C119.876 185.162 126.823 211.341 121.694 237.108L112.094 285.353C112.007 285.79 111.579 286.076 111.143 285.986C110.704 285.899 110.421 285.476 110.508 285.042L120.108 236.798C125.139 211.518 118.323 185.838 101.405 166.34L80.3252 142.04C80.2417 141.943 80.18 141.827 80.151 141.704L70.0283 100.003C68.0575 88.2388 60.8928 81.5213 50.8572 81.9841C50.6031 81.9949 50.3781 81.8973 50.2184 81.7166C50.0551 81.5358 49.9861 81.2935 50.0224 81.0549L52.1856 67.3885C52.2001 67.3018 52.2255 67.2186 52.2691 67.1391L72.3367 28.9961C75.9698 21.8556 75.4399 10.3331 69.2842 5.61137L68.9648 5.36552C66.6165 3.56503 63.7093 2.83471 60.7839 3.31195C57.8585 3.7928 55.3433 5.40891 53.6955 7.8638C50.0514 13.305 43.5764 23.4608 37.3155 33.2804C31.5482 42.3262 26.1039 50.8732 23.291 55.0707C20.5652 59.1345 18.638 63.614 17.56 68.3828L2.60276 134.498C0.185499 145.178 2.25069 156.56 8.2648 165.725L41.5257 210.85C49.2747 221.367 50.9806 234.867 46.088 246.968L30.5065 285.498C30.3794 285.812 30.0782 286 29.7552 286V285.997Z" fill="#313131"/>
<path d="M57.9963 191.304C57.6951 191.304 57.4047 191.135 57.2668 190.849C56.6244 189.511 41.5074 158.064 40.5855 154.17C39.5801 149.908 35.5405 100.94 36.9306 91.7134C38.3715 82.1324 48.026 81.0623 48.124 81.0514C48.5705 81.0153 48.9625 81.3298 49.006 81.7709C49.0496 82.212 48.7265 82.6061 48.2837 82.6531C47.9389 82.6892 39.7798 83.6256 38.5276 91.952C37.1556 101.059 41.3477 150.367 42.1571 153.798C42.8612 156.781 53.2997 178.882 58.7222 190.151C58.9146 190.552 58.744 191.033 58.3411 191.225C58.2286 191.279 58.1088 191.304 57.9927 191.304H57.9963Z" fill="#313131"/>
<path d="M239.983 6.97052C246.988 17.4264 264.526 45.4317 270.387 54.1774C277.294 61.5023 288.012 123.739 291.192 133.876C293.671 144.831 291.587 156.321 285.417 165.718L252.131 210.878C234.303 231.428 256.268 264.246 263.252 284.749H181.707C166.775 217.56 160.188 193.481 212.072 141.064L222.191 99.3633C224.056 88.2132 230.847 80.2123 242.182 80.7293L240.019 67.0629L219.951 28.9199C211.745 14.1942 225.428 -8.65907 239.979 6.97413L239.983 6.97052Z" fill="white"/>
<path d="M263.252 284.749C256.273 264.246 234.303 231.432 252.135 210.882L285.421 165.721C291.588 156.321 293.671 144.835 291.196 133.876C288.016 123.739 277.298 61.5023 270.391 54.1774C264.526 45.4316 246.992 17.4263 239.987 6.97047C225.436 -8.66273 211.753 14.1905 219.959 28.9162L240.027 67.0592L242.19 80.7256C230.855 80.2086 224.064 88.2096 222.199 99.3596C222.199 99.3596 212.076 141.06 212.08 141.06C160.192 193.477 166.783 217.556 181.715 284.745H263.26L263.252 284.749Z" fill="white"/>
<path d="M263.252 285.555C262.914 285.555 262.602 285.346 262.486 285.009C260.98 280.588 258.755 275.548 256.399 270.215C247.859 250.883 237.236 226.826 251.521 210.358L284.768 165.248C290.757 156.119 292.818 144.737 290.404 134.057C289.435 130.977 287.777 123.099 285.682 113.124C281.204 91.8287 274.435 59.6476 269.8 54.7306C269.771 54.698 269.742 54.6655 269.716 54.6257C266.903 50.4282 261.455 41.8812 255.684 32.8318C249.445 23.0448 242.996 12.9251 239.348 7.47303C234.434 2.21617 229.28 1.09176 224.83 4.30228C218.881 8.59743 215.836 19.8704 220.66 28.5294L240.735 66.6905C240.774 66.77 240.803 66.8531 240.818 66.9363L242.981 80.6027C243.017 80.8413 242.949 81.0835 242.785 81.2643C242.622 81.4451 242.39 81.5427 242.146 81.5319C232.104 81.0619 224.946 87.7902 222.99 99.4934C222.877 99.9634 212.99 140.695 212.863 141.241C212.831 141.386 212.758 141.519 212.649 141.628C162.057 192.739 167.393 216.717 181.657 280.797L182.499 284.575C182.597 285.009 182.321 285.44 181.886 285.534C181.45 285.628 181.018 285.356 180.92 284.923L180.082 281.144C165.694 216.504 160.297 192.284 211.346 140.652C211.364 140.569 211.383 140.482 211.404 140.406L221.411 99.1716C223.436 87.049 230.79 79.8977 241.166 79.8977H241.239L239.246 67.3159L219.241 29.2923C214.029 19.9355 217.389 7.68634 223.883 2.99711C229.015 -0.708728 235.098 0.538601 240.575 6.42455C240.604 6.45709 240.629 6.48963 240.655 6.52578C244.31 11.9779 250.785 22.1409 257.049 31.9677C262.787 40.9702 268.21 49.4773 271.023 53.6785C275.963 59.0727 282.492 90.1077 287.261 112.791C289.348 122.723 291 130.568 291.961 133.638C294.488 144.802 292.343 156.636 286.093 166.162L252.781 211.359C239.119 227.108 249.518 250.652 257.873 269.568C260.243 274.937 262.483 280.005 264.011 284.496C264.156 284.919 263.927 285.374 263.506 285.515C263.419 285.544 263.332 285.559 263.245 285.559L263.252 285.555Z" fill="#313131"/>
<path d="M235.011 190.863C234.895 190.863 234.775 190.838 234.662 190.783C234.259 190.592 234.089 190.111 234.281 189.71C239.704 178.44 250.142 156.335 250.846 153.356C251.692 149.773 256.305 100.39 254.487 91.5501C252.509 81.9511 242.419 81.5498 242.317 81.5498C241.871 81.5353 241.518 81.1666 241.533 80.7219C241.544 80.2772 241.914 79.9518 242.364 79.9409C242.48 79.9445 253.837 80.3928 256.069 91.2283C257.993 100.563 253.293 150.041 252.422 153.725C251.5 157.619 236.383 189.07 235.74 190.404C235.602 190.693 235.312 190.863 235.011 190.863Z" fill="#313131"/>
<path d="M138.248 35.6658L146.847 44.2344L155.445 35.6658C172.391 18.7781 199.867 18.7781 216.813 35.6658C233.759 52.55 233.759 79.9297 216.813 96.8139L146.847 166.531L76.8806 96.8139C59.9343 79.9297 59.9343 52.55 76.8806 35.6658C93.8268 18.7817 121.302 18.7781 138.248 35.6658Z" fill="#FF8400"/>
</g>
<defs>
<clipPath id="clip0_577_8378">
<rect width="293" height="286" fill="white"/>
</clipPath>
</defs>
</svg>
