<svg width="455" height="339" viewBox="0 0 455 339" fill="none" xmlns="http://www.w3.org/2000/svg">
<path d="M190.362 149.877C199.424 137.652 213.275 129.881 228.44 128.484C237.079 127.69 247.908 126.843 259.988 126.227C260.653 128.399 261.583 130.501 262.789 132.484C266.289 138.239 271.774 142.667 277.885 145.417C283.998 148.168 290.842 149.413 297.523 148.608C304.066 147.82 310.29 145.037 314.812 140.171C318.497 136.205 322.921 131.413 324.053 126.214C335.012 126.833 343.649 127.741 353.935 129.349C373.568 132.419 390.807 144.083 401.195 161C420.228 192.007 453.19 245.313 454.95 289.669C457.791 361.156 337.837 330.322 337.837 330.322L210.993 320.68L135.357 262.233C135.357 262.233 158.898 192.312 190.362 149.875V149.877Z" fill="#C3D600"/>
<path d="M340.067 318.204C340.96 324.225 334.855 328.874 329.283 326.41C317.891 321.371 305.551 318.827 293.091 318.953L239.197 319.493C239.197 319.493 234.991 250.146 311.185 258.523C311.185 258.523 334.178 278.499 340.067 318.205V318.204Z" fill="white"/>
<path d="M278.891 320.188C278.913 320.188 278.932 320.188 278.953 320.185C279.187 320.15 279.35 319.934 279.315 319.699C278.745 315.799 279.66 311.469 281.889 307.503C283.755 304.186 286.512 301.059 290.319 297.945C291.047 297.349 291.833 296.735 292.724 296.347C292.942 296.252 293.039 295.999 292.944 295.783C292.849 295.566 292.598 295.467 292.38 295.562C291.389 295.995 290.551 296.65 289.777 297.283C285.885 300.466 283.06 303.671 281.142 307.084C278.821 311.213 277.87 315.737 278.467 319.821C278.498 320.035 278.681 320.188 278.891 320.188Z" fill="#212121"/>
<path d="M261.474 319.192C261.684 319.192 261.867 319.039 261.898 318.823C262.552 314.212 263.493 308.818 265.511 303.768C267.6 298.538 270.67 294.267 274.388 291.415C274.575 291.272 274.612 291.002 274.466 290.815C274.322 290.629 274.054 290.592 273.865 290.736C270.024 293.68 266.859 298.077 264.713 303.452C262.66 308.585 261.709 314.043 261.048 318.703C261.015 318.938 261.178 319.153 261.411 319.186C261.433 319.19 261.452 319.19 261.472 319.19L261.474 319.192Z" fill="#212121"/>
<path d="M247.517 319.192C247.535 319.192 247.55 319.192 247.568 319.188C247.803 319.161 247.97 318.947 247.943 318.712C245.587 299.002 258.521 286.707 258.654 286.587C258.827 286.426 258.836 286.154 258.675 285.981C258.513 285.808 258.243 285.798 258.068 285.96C257.934 286.084 244.683 298.66 247.091 318.813C247.116 319.031 247.303 319.19 247.517 319.19V319.192Z" fill="#212121"/>
<path d="M62.3302 338.264H330.541C332.131 338.264 333.718 337.856 335.028 336.957C338.096 334.849 339.16 331.081 337.946 327.843C334.783 321.22 328.245 318.887 318.582 318.887H44.7306L48.2832 328.533C50.4739 334.385 56.0732 338.262 62.3282 338.262L62.3302 338.264Z" fill="#828BAE"/>
<path d="M330.542 338.691C332.321 338.691 333.955 338.213 335.272 337.31C338.4 335.162 339.665 331.207 338.35 327.694C335.297 321.298 329.206 318.46 318.583 318.46H44.7317C44.5916 318.46 44.4593 318.528 44.3795 318.643C44.2998 318.757 44.2803 318.905 44.329 319.035L47.8835 328.681C50.1267 334.669 55.9323 338.691 62.3313 338.691H330.542ZM318.583 319.315C328.83 319.315 334.684 322.001 337.56 328.026C338.723 331.136 337.587 334.676 334.786 336.603C333.612 337.409 332.145 337.835 330.542 337.835H62.3313C56.2884 337.835 50.8038 334.035 48.687 328.383L45.3465 319.315H318.583Z" fill="#212121"/>
<path d="M60.8127 338.264C55.4488 338.264 50.6277 334.999 48.6413 330.023L1.15991 211.018C-0.100815 207.86 0.290253 204.284 2.19885 201.47C4.10939 198.656 7.29037 196.972 10.6951 196.972H175.537C185.471 196.972 194.325 203.222 197.64 212.572L242.209 338.262H60.8108L60.8127 338.264Z" fill="#828BAE"/>
<path d="M60.8124 338.691H242.209C242.349 338.691 242.479 338.623 242.559 338.51C242.639 338.398 242.66 338.252 242.613 338.12L198.044 212.43C194.675 202.929 185.63 196.544 175.536 196.544H10.6948C7.14412 196.544 3.83472 198.296 1.84442 201.231C-0.147842 204.166 -0.552521 207.884 0.760727 211.178L48.2421 330.182C50.3044 335.352 55.2383 338.693 60.8124 338.693V338.691ZM241.602 337.835H60.8124C55.5924 337.835 50.9718 334.706 49.0398 329.863L1.55843 210.859C0.350235 207.829 0.721802 204.409 2.55452 201.711C4.38724 199.011 7.43011 197.401 10.6948 197.401H175.536C185.268 197.401 193.988 203.556 197.237 212.716L241.604 337.835H241.602Z" fill="#212121"/>
<path d="M56.9516 320.482H220.381C220.618 320.482 220.809 320.29 220.809 320.055C220.809 319.82 220.616 319.627 220.381 319.627H56.9516C56.7142 319.627 56.5236 319.82 56.5236 320.055C56.5236 320.29 56.7162 320.482 56.9516 320.482Z" fill="#212121"/>
<path d="M336.143 336.855H454.572C454.809 336.855 455 336.662 455 336.427C455 336.192 454.807 336 454.572 336H336.143C335.906 336 335.715 336.192 335.715 336.427C335.715 336.662 335.908 336.855 336.143 336.855Z" fill="#212121"/>
<path d="M403.024 260.209C403.258 260.209 403.448 260.022 403.452 259.789C403.456 259.552 403.267 259.358 403.032 259.352L315.137 257.685C314.904 257.672 314.705 257.87 314.7 258.105C314.696 258.342 314.884 258.536 315.12 258.542L403.014 260.209C403.014 260.209 403.02 260.209 403.022 260.209H403.024Z" fill="#212121"/>
<path d="M373.675 255.229C373.716 255.229 373.756 255.223 373.797 255.211C374.025 255.143 374.153 254.904 374.085 254.677C370.889 244.049 366.48 233.77 360.98 224.127C359.869 222.179 358.097 219.597 355.433 219.687C355.196 219.694 355.011 219.892 355.019 220.129C355.027 220.366 355.231 220.551 355.462 220.543C357.643 220.463 359.235 222.796 360.235 224.55C365.702 234.135 370.085 244.354 373.264 254.922C373.321 255.106 373.49 255.227 373.675 255.227V255.229Z" fill="#212121"/>
<path d="M299.434 76.1374L315.137 121.985C316.141 124.916 318.635 127.086 321.68 127.678L328.67 129.036C328.67 129.036 310.493 168.443 279.858 161.841C249.223 155.239 255.96 129.036 255.96 129.036L262.441 128.513C266.321 128.201 268.982 124.469 268.007 120.705L260.723 92.5303C260.723 92.5303 290.409 68.6363 299.434 76.1393V76.1374Z" fill="white"/>
<path d="M286.636 163.001C296.948 163.001 307.005 157.974 316.067 148.204C324.39 139.231 329.015 129.314 329.059 129.214C329.114 129.096 329.112 128.956 329.052 128.84C328.991 128.723 328.88 128.64 328.752 128.614L321.762 127.257C318.876 126.697 316.493 124.623 315.542 121.845L299.839 75.9976C299.814 75.9238 299.769 75.8578 299.707 75.8073C290.52 68.1663 261.677 91.2096 260.453 92.1924C260.323 92.2973 260.264 92.4702 260.307 92.6333L267.591 120.808C268.023 122.481 267.696 124.246 266.693 125.652C265.691 127.059 264.126 127.944 262.405 128.084L255.924 128.607C255.741 128.622 255.589 128.75 255.543 128.927C255.515 129.034 252.86 139.734 258.698 149.168C262.751 155.715 269.839 160.12 279.765 162.259C282.061 162.754 284.354 162.999 286.635 162.999L286.636 163.001ZM328.042 129.348C327.003 131.452 322.604 139.901 315.423 147.637C307.861 155.783 295.57 164.788 279.948 161.422C270.263 159.336 263.362 155.063 259.436 148.727C254.321 140.47 255.937 131.194 256.309 129.436L262.475 128.939C264.449 128.779 266.243 127.764 267.393 126.151C268.543 124.539 268.918 122.514 268.422 120.597L261.208 92.6897C263.895 90.5687 290.701 69.7512 299.067 76.3919L314.73 122.123C315.781 125.19 318.411 127.478 321.596 128.098L328.04 129.348H328.042Z" fill="#212121"/>
<path d="M233.274 19.135C230.592 32.362 240.903 44.3557 249.821 46.5641C250.137 46.6418 250.454 46.7117 250.763 46.7797C250.954 47.4342 251.187 48.0907 251.485 48.7375C254.993 56.4037 265.034 60.1329 273.466 59.3696C275.911 61.982 279.094 65.618 282.47 70.2154C293.252 84.8991 300.906 78.2953 312.107 63.7573C313.599 61.8208 315.749 59.3502 316.864 55.252C319.08 47.1138 315.247 39.7835 314.758 38.8843C311.103 32.1309 306.398 32.3834 296.058 25.4475C280.336 14.9028 280.063 6.84226 266.549 2.28953C262.973 1.08337 258.469 -0.373351 252.851 0.656064C244.674 2.15357 235.393 8.68744 233.274 19.135Z" fill="#212121"/>
<path d="M288.731 83.2671C288.731 83.2671 281.124 100.81 261.197 97.5682C241.271 94.3285 240.767 69.0165 242.545 42.1216C244.538 44.664 248.997 46.618 252.516 48.1136C266.847 54.1988 279.735 46.2198 281.633 45.2001C278.219 49.3896 278.213 55.0767 281.089 58.9282C282.676 61.0531 285.669 62.5875 290.961 62.6788C290.961 62.6788 293.484 54.2531 301.002 59.1438C308.519 64.0345 305.723 84.6675 288.731 83.2671Z" fill="white"/>
<path d="M265.951 98.3919C281.181 98.3919 287.992 85.767 288.998 83.7159C296.37 84.2132 302.128 80.5228 304.436 73.7947C306.469 67.8668 305.066 61.2747 301.239 58.7847C298.879 57.2503 296.731 56.8191 294.86 57.5047C292.241 58.4622 291.01 61.2902 290.659 62.2439C286.214 62.1176 283.112 60.9173 281.437 58.674C278.558 54.8185 278.778 49.3898 281.97 45.4722C282.101 45.3129 282.099 45.0857 281.969 44.9283C281.838 44.771 281.614 44.7283 281.435 44.8235C281.336 44.8759 281.208 44.9478 281.052 45.0352C268.688 51.9575 258.805 50.3163 252.69 47.7194C249.583 46.4006 244.886 44.4059 242.888 41.8576C242.779 41.7177 242.594 41.6595 242.423 41.7119C242.254 41.7644 242.133 41.9159 242.121 42.0926C241.312 54.3407 240.82 68.2805 243.318 78.8136C246.02 90.2071 251.847 96.4807 261.132 97.9898C262.824 98.2656 264.429 98.39 265.951 98.3919ZM288.735 82.838C288.566 82.838 288.41 82.939 288.342 83.0963C288.268 83.2692 280.624 100.293 261.272 97.1469C241.522 93.9363 241.332 67.7775 242.911 43.1686C245.057 45.2993 248.734 46.9716 252.353 48.5099C258.441 51.0951 268.149 52.7655 280.247 46.4472C277.856 50.4794 277.994 55.4964 280.751 59.1867C282.632 61.7059 286.066 63.0247 290.959 63.1082C290.961 63.1082 290.963 63.1082 290.967 63.1082C291.155 63.1082 291.323 62.9839 291.377 62.8033C291.387 62.7683 292.465 59.2916 295.159 58.3088C296.764 57.7242 298.652 58.1262 300.772 59.5053C304.284 61.7894 305.537 67.9465 303.626 73.5189C301.422 79.9421 295.873 83.4285 288.772 82.8419C288.76 82.8419 288.749 82.8419 288.737 82.8419L288.735 82.838Z" fill="#212121"/>
<path d="M289.908 75.7662C290.087 75.7662 290.252 75.6536 290.314 75.4768C290.754 74.191 291.209 72.8625 292.001 71.7612C292.851 70.5784 293.999 69.8558 295.153 69.7762C295.39 69.7607 295.567 69.5548 295.552 69.3198C295.534 69.0828 295.328 68.9041 295.095 68.9216C293.686 69.0187 292.305 69.8714 291.305 71.2621C290.439 72.4663 289.962 73.855 289.503 75.201C289.427 75.4244 289.546 75.6691 289.77 75.7449C289.814 75.7604 289.863 75.7682 289.908 75.7682V75.7662Z" fill="#212121"/>
<path d="M290.225 21.3643C290.225 21.3643 306.292 29.8229 295.2 55.8341L302.34 59.6973C302.34 59.6973 318.491 26.4162 290.224 21.3662L290.225 21.3643Z" fill="white"/>
<path d="M302.345 60.1251C302.39 60.1251 302.433 60.1193 302.477 60.1037C302.588 60.0688 302.682 59.9872 302.732 59.8823C303.078 59.1695 311.145 42.2735 305.222 30.6702C302.59 25.5134 297.572 22.2407 290.306 20.9432C290.102 20.9063 289.893 21.0248 289.825 21.2249C289.755 21.4249 289.843 21.6444 290.03 21.7434C290.068 21.7648 293.985 23.8819 296.516 29.0814C298.859 33.8925 300.464 42.4114 294.812 55.6656C294.724 55.8695 294.808 56.1046 295.002 56.2094L302.143 60.0727C302.207 60.1076 302.277 60.1251 302.347 60.1251H302.345ZM292.22 22.2251C298.096 23.6877 302.207 26.6536 304.456 31.0567C309.691 41.3101 303.345 56.4347 302.147 59.1015L295.75 55.6423C301.36 42.2618 299.678 33.5895 297.259 28.6561C295.691 25.4591 293.66 23.3963 292.218 22.2251H292.22Z" fill="#212121"/>
<path d="M274.656 91.4076C276.86 91.4076 279.029 90.5918 280.691 89.0652L291.998 78.6759C292.173 78.5166 292.183 78.2447 292.024 78.0699C291.864 77.8951 291.592 77.8854 291.418 78.0446L280.111 88.434C278.021 90.3549 275.035 91.0308 272.319 90.2015L255.087 84.934C254.859 84.864 254.62 84.9922 254.552 85.2175C254.482 85.4428 254.61 85.6837 254.836 85.7517L272.068 91.0192C272.916 91.2794 273.79 91.4057 274.656 91.4057V91.4076Z" fill="#212121"/>
<path d="M254.169 88.9695C250.396 88.1462 247.694 85.8545 248.132 83.8508C248.571 81.8471 251.985 80.8902 255.758 81.7135C259.53 82.5367 262.233 84.8284 261.795 86.8321C261.356 88.8358 257.942 89.7927 254.169 88.9695Z" fill="#212121"/>
<path d="M256.824 89.6961C257.729 89.6961 258.585 89.5893 259.348 89.3756C260.949 88.927 261.966 88.0568 262.214 86.9245C262.71 84.6559 259.914 82.1833 255.85 81.2957C253.957 80.8839 252.085 80.8878 250.579 81.3112C248.978 81.7599 247.96 82.6301 247.713 83.7624C247.217 86.031 250.013 88.5035 254.077 89.3912C255.011 89.5951 255.941 89.6961 256.824 89.6961ZM253.101 81.8473C253.922 81.8473 254.789 81.9425 255.665 82.1348C259.141 82.8923 261.756 85.0035 261.375 86.7438C261.198 87.5518 260.396 88.1928 259.116 88.5521C257.743 88.9367 256.019 88.9386 254.262 88.556C250.785 87.7985 248.17 85.6872 248.552 83.9469C248.729 83.1389 249.53 82.498 250.811 82.1387C251.499 81.9464 252.276 81.8493 253.101 81.8493V81.8473Z" fill="#212121"/>
<path d="M295.246 87.4689C285.715 87.4689 277.989 79.753 277.989 70.2349C277.989 60.7169 285.715 53.001 295.246 53.001C304.777 53.001 312.503 60.7169 312.503 70.2349C312.503 79.753 304.777 87.4689 295.246 87.4689Z" fill="white"/>
<path d="M295.247 87.8982C305.001 87.8982 312.935 79.9756 312.935 70.235C312.935 60.4944 305.001 52.5718 295.247 52.5718C285.494 52.5718 277.56 60.4944 277.56 70.235C277.56 79.9756 285.494 87.8982 295.247 87.8982ZM295.247 53.4283C304.526 53.4283 312.077 60.9683 312.077 70.235C312.077 79.5017 304.528 87.0416 295.247 87.0416C285.967 87.0416 278.418 79.5017 278.418 70.235C278.418 60.9683 285.967 53.4283 295.247 53.4283Z" fill="#212121"/>
<path d="M295.244 82.4014C288.515 82.4014 283.061 76.9543 283.061 70.2349C283.061 63.5155 288.515 58.0684 295.244 58.0684C301.972 58.0684 307.427 63.5155 307.427 70.2349C307.427 76.9543 301.972 82.4014 295.244 82.4014Z" fill="#C3D600"/>
<path d="M295.244 82.8307C302.198 82.8307 307.855 77.1806 307.855 70.2349C307.855 63.2893 302.198 57.6392 295.244 57.6392C288.291 57.6392 282.631 63.2893 282.631 70.2349C282.631 77.1806 288.289 82.8307 295.244 82.8307ZM295.244 58.4957C301.725 58.4957 306.997 63.7613 306.997 70.2349C306.997 76.7086 301.725 81.9741 295.244 81.9741C288.764 81.9741 283.489 76.7086 283.489 70.2349C283.489 63.7613 288.762 58.4957 295.244 58.4957Z" fill="#212121"/>
<path d="M73.8912 172.426H185.43C189.615 172.426 193.02 169.027 193.02 164.847V132.073L220.279 107.241C220.409 107.122 220.454 106.934 220.39 106.769C220.326 106.604 220.166 106.495 219.989 106.495H73.8893C69.7044 106.495 66.2996 109.894 66.2996 114.074V164.847C66.2996 169.027 69.7044 172.426 73.8893 172.426H73.8912Z" fill="white"/>
<path d="M73.8912 172.426H185.43C189.615 172.426 193.02 169.027 193.02 164.847V132.073L220.279 107.241C220.409 107.122 220.454 106.934 220.39 106.769C220.326 106.604 220.166 106.495 219.989 106.495H73.8893C69.7044 106.495 66.2996 109.894 66.2996 114.074V164.847C66.2996 169.027 69.7044 172.426 73.8893 172.426H73.8912ZM218.884 107.352L192.302 131.568C192.212 131.65 192.162 131.764 192.162 131.885V164.849C192.162 168.557 189.142 171.572 185.43 171.572H73.8912C70.1791 171.572 67.1596 168.555 67.1596 164.849V114.076C67.1596 110.368 70.1791 107.354 73.8912 107.354H218.884V107.352Z" fill="#212121"/>
<path d="M89 124H169V129H89V124Z" fill="#C3D600"/>
<path d="M89 137H147V142H89V137Z" fill="#C3D600"/>
<path d="M89 150H133V155H89V150Z" fill="#C3D600"/>
</svg>
