<svg width="398" height="287" viewBox="0 0 398 287" fill="none" xmlns="http://www.w3.org/2000/svg">
<rect y="167" width="398" height="120" fill="#FF8400"/>
<path d="M168.962 88.7561C174.34 81.5018 182.559 76.8904 191.558 76.0617C196.684 75.5903 203.11 75.0878 210.278 74.7224C210.673 76.011 211.225 77.2581 211.941 78.4349C214.018 81.8499 217.272 84.4778 220.899 86.1098C224.526 87.7418 228.588 88.4806 232.552 88.0035C236.435 87.5355 240.128 85.8839 242.811 82.9967C244.998 80.6432 247.623 77.7998 248.295 74.7144C254.799 75.082 259.923 75.6203 266.027 76.5746C277.677 78.3968 287.908 85.318 294.071 95.3569C305.366 113.757 324.926 145.389 325.971 171.71C327.656 214.13 256.475 195.833 256.475 195.833L181.204 190.112L136.322 155.429C136.322 155.429 150.291 113.937 168.962 88.755V88.7561Z" fill="#C3D600"/>
<path d="M257.798 188.642C258.328 192.215 254.705 194.974 251.398 193.512C244.639 190.522 237.316 189.012 229.922 189.087L197.941 189.408C197.941 189.408 195.445 148.256 240.659 153.227C240.659 153.227 254.303 165.081 257.798 188.643V188.642Z" fill="white"/>
<path d="M221.496 189.82C221.508 189.82 221.52 189.82 221.533 189.818C221.671 189.797 221.768 189.669 221.747 189.53C221.409 187.215 221.952 184.646 223.275 182.293C224.382 180.324 226.018 178.468 228.277 176.621C228.709 176.267 229.176 175.903 229.704 175.672C229.834 175.616 229.891 175.466 229.835 175.338C229.778 175.209 229.629 175.15 229.5 175.207C228.912 175.464 228.415 175.852 227.955 176.228C225.646 178.117 223.97 180.019 222.831 182.044C221.454 184.494 220.89 187.178 221.244 189.602C221.263 189.729 221.371 189.82 221.496 189.82Z" fill="#212121"/>
<path d="M211.159 189.229C211.284 189.229 211.393 189.138 211.411 189.01C211.799 186.274 212.358 183.073 213.555 180.076C214.795 176.972 216.617 174.438 218.823 172.746C218.934 172.661 218.956 172.5 218.869 172.39C218.784 172.279 218.624 172.257 218.512 172.342C216.233 174.09 214.355 176.699 213.082 179.888C211.864 182.935 211.299 186.173 210.907 188.938C210.887 189.078 210.984 189.206 211.122 189.225C211.135 189.228 211.147 189.228 211.158 189.228L211.159 189.229Z" fill="#212121"/>
<path d="M202.878 189.229C202.888 189.229 202.897 189.229 202.908 189.227C203.047 189.21 203.147 189.084 203.13 188.944C201.732 177.248 209.407 169.952 209.486 169.881C209.589 169.785 209.594 169.624 209.499 169.521C209.403 169.418 209.242 169.413 209.138 169.508C209.059 169.582 201.195 177.045 202.625 189.004C202.64 189.133 202.751 189.228 202.878 189.228V189.229Z" fill="#212121"/>
<path d="M92.9877 200.546H252.146C253.089 200.546 254.031 200.304 254.808 199.77C256.629 198.52 257.26 196.284 256.54 194.362C254.663 190.432 250.784 189.048 245.049 189.048H82.544L84.6521 194.772C85.9521 198.244 89.2748 200.545 92.9865 200.545L92.9877 200.546Z" fill="#828BAE"/>
<path d="M252.147 200.8C253.202 200.8 254.172 200.516 254.954 199.98C256.81 198.705 257.561 196.359 256.78 194.274C254.969 190.478 251.354 188.794 245.05 188.794H82.5451C82.462 188.794 82.3835 188.835 82.3361 188.903C82.2888 188.971 82.2773 189.058 82.3061 189.136L84.4154 194.859C85.7466 198.413 89.1916 200.8 92.9888 200.8H252.147ZM245.05 189.302C251.131 189.302 254.605 190.896 256.311 194.471C257.002 196.316 256.328 198.417 254.665 199.561C253.969 200.039 253.098 200.291 252.147 200.291H92.9888C89.4029 200.291 86.1483 198.037 84.8922 194.683L82.9099 189.302H245.05Z" fill="#212121"/>
<path d="M92.0868 200.546C88.9038 200.546 86.0429 198.609 84.8642 195.656L56.6884 125.038C55.9402 123.164 56.1723 121.042 57.3049 119.372C58.4386 117.702 60.3262 116.702 62.3466 116.702H160.165C166.06 116.702 171.314 120.411 173.281 125.96L199.729 200.545H92.0856L92.0868 200.546Z" fill="#828BAE"/>
<path d="M92.086 200.8H199.728C199.811 200.8 199.888 200.759 199.936 200.692C199.983 200.625 199.996 200.539 199.968 200.461L173.52 125.876C171.521 120.237 166.154 116.449 160.164 116.449H62.3459C60.2389 116.449 58.2751 117.488 57.0941 119.23C55.9118 120.971 55.6717 123.177 56.451 125.132L84.6268 195.75C85.8505 198.818 88.7784 200.801 92.086 200.801V200.8ZM199.368 200.291H92.086C88.9885 200.291 86.2466 198.434 85.1001 195.561L56.9244 124.943C56.2074 123.145 56.4279 121.115 57.5154 119.515C58.603 117.912 60.4087 116.957 62.3459 116.957H160.164C165.939 116.957 171.113 120.61 173.041 126.045L199.369 200.291H199.368Z" fill="#212121"/>
<path d="M89.7955 189.994H186.775C186.916 189.994 187.029 189.88 187.029 189.741C187.029 189.601 186.915 189.487 186.775 189.487H89.7955C89.6546 189.487 89.5415 189.601 89.5415 189.741C89.5415 189.88 89.6558 189.994 89.7955 189.994Z" fill="#212121"/>
<path d="M255.469 199.71H325.746C325.887 199.71 326 199.596 326 199.456C326 199.317 325.886 199.203 325.746 199.203H255.469C255.329 199.203 255.215 199.317 255.215 199.456C255.215 199.596 255.33 199.71 255.469 199.71Z" fill="#212121"/>
<path d="M295.158 154.228C295.296 154.228 295.409 154.117 295.412 153.979C295.414 153.838 295.302 153.723 295.162 153.719L243.005 152.73C242.866 152.722 242.749 152.84 242.745 152.979C242.743 153.12 242.855 153.235 242.995 153.239L295.152 154.228C295.152 154.228 295.155 154.228 295.156 154.228H295.158Z" fill="#212121"/>
<path d="M277.741 151.272C277.765 151.272 277.79 151.269 277.814 151.262C277.949 151.222 278.025 151.08 277.985 150.945C276.088 144.638 273.472 138.539 270.208 132.816C269.549 131.66 268.497 130.128 266.917 130.182C266.776 130.186 266.666 130.304 266.671 130.444C266.675 130.585 266.796 130.694 266.934 130.69C268.228 130.643 269.172 132.027 269.766 133.068C273.01 138.755 275.611 144.819 277.498 151.09C277.531 151.2 277.632 151.271 277.741 151.271V151.272Z" fill="#212121"/>
<path d="M233.685 44.9987L243.003 72.2051C243.599 73.9443 245.079 75.2317 246.886 75.5833L251.034 76.3889C251.034 76.3889 240.247 99.7734 222.068 95.8558C203.889 91.9382 207.887 76.3889 207.887 76.3889L211.733 76.0789C214.035 75.8933 215.615 73.6792 215.036 71.4455L210.714 54.7264C210.714 54.7264 228.329 40.5474 233.685 44.9998V44.9987Z" fill="white"/>
<path d="M226.09 96.5439C232.209 96.5439 238.177 93.5611 243.555 87.7637C248.493 82.4388 251.238 76.5538 251.264 76.495C251.297 76.4247 251.295 76.3417 251.26 76.2726C251.224 76.2034 251.158 76.1538 251.082 76.1389L246.934 75.3332C245.222 75.0013 243.807 73.7703 243.243 72.1222L233.925 44.9157C233.91 44.8719 233.883 44.8328 233.846 44.8028C228.395 40.2686 211.279 53.9427 210.553 54.5259C210.476 54.5881 210.441 54.6907 210.466 54.7875L214.789 71.5067C215.045 72.499 214.851 73.5467 214.255 74.3812C213.661 75.2156 212.733 75.7412 211.711 75.8242L207.865 76.1342C207.757 76.1435 207.667 76.2195 207.639 76.3244C207.623 76.3878 206.047 82.7373 209.512 88.3353C211.916 92.2207 216.122 94.8347 222.013 96.1037C223.375 96.3976 224.736 96.5428 226.089 96.5428L226.09 96.5439ZM250.661 76.5745C250.044 77.8228 247.434 82.8364 243.172 87.4271C238.685 92.261 231.392 97.6043 222.121 95.6069C216.374 94.3691 212.279 91.8334 209.949 88.0737C206.914 83.1741 207.873 77.6695 208.094 76.6264L211.752 76.3313C212.924 76.2368 213.989 75.634 214.671 74.6774C215.353 73.7208 215.576 72.5186 215.282 71.381L211.001 54.8209C212.595 53.5623 228.502 41.2091 233.466 45.1497L242.761 72.287C243.385 74.1069 244.946 75.4646 246.836 75.8323L250.659 76.5745H250.661Z" fill="#212121"/>
<path d="M194.425 11.1731C192.833 19.0221 198.952 26.1393 204.244 27.4497C204.431 27.4958 204.62 27.5373 204.803 27.5777C204.916 27.9661 205.055 28.3556 205.231 28.7395C207.313 33.2886 213.271 35.5016 218.275 35.0486C219.726 36.5988 221.615 38.7564 223.618 41.4846C230.016 50.198 234.558 46.2793 241.205 37.6523C242.09 36.5032 243.366 35.0371 244.028 32.6052C245.343 27.7759 243.068 23.4261 242.778 22.8925C240.609 18.885 237.817 19.0348 231.681 14.919C222.352 8.66169 222.19 3.87853 214.171 1.1769C212.049 0.461159 209.376 -0.403268 206.042 0.207594C201.189 1.09623 195.682 4.97347 194.425 11.1731Z" fill="#212121"/>
<path d="M227.334 49.2298C227.334 49.2298 222.82 59.6398 210.996 57.7161C199.171 55.7936 198.872 40.7734 199.927 24.8137C201.11 26.3224 203.756 27.4819 205.844 28.3694C214.348 31.9804 221.996 27.2456 223.123 26.6405C221.096 29.1266 221.093 32.5014 222.799 34.7869C223.741 36.0478 225.517 36.9583 228.657 37.0125C228.657 37.0125 230.155 32.0127 234.616 34.9148C239.077 37.817 237.418 50.0608 227.334 49.2298Z" fill="white"/>
<path d="M213.816 58.2049C222.854 58.2049 226.896 50.7132 227.492 49.4961C231.867 49.7912 235.284 47.6013 236.653 43.6088C237.86 40.0911 237.028 36.1793 234.757 34.7017C233.356 33.7912 232.082 33.5353 230.971 33.9422C229.417 34.5104 228.686 36.1885 228.478 36.7544C225.84 36.6795 224 35.9672 223.006 34.636C221.297 32.3482 221.428 29.1267 223.322 26.802C223.4 26.7075 223.399 26.5726 223.321 26.4793C223.244 26.3859 223.111 26.3606 223.005 26.417C222.946 26.4482 222.87 26.4908 222.777 26.5427C215.441 30.6504 209.576 29.6765 205.947 28.1355C204.103 27.3529 201.316 26.1692 200.131 24.6571C200.066 24.5741 199.956 24.5395 199.855 24.5706C199.754 24.6017 199.683 24.6916 199.676 24.7965C199.195 32.0646 198.903 40.3366 200.386 46.587C201.989 53.348 205.447 57.0708 210.956 57.9663C211.961 58.13 212.913 58.2038 213.816 58.2049ZM227.337 48.9751C227.236 48.9751 227.144 49.0351 227.103 49.1284C227.06 49.231 222.523 59.3333 211.04 57.4661C199.32 55.5609 199.207 40.0381 200.144 25.4351C201.418 26.6994 203.6 27.6918 205.747 28.6046C209.36 30.1387 215.121 31.1299 222.299 27.3806C220.881 29.7733 220.963 32.7504 222.598 34.9403C223.715 36.4352 225.753 37.2178 228.656 37.2673C228.657 37.2673 228.659 37.2673 228.661 37.2673C228.773 37.2673 228.872 37.1936 228.904 37.0864C228.91 37.0656 229.55 35.0025 231.149 34.4193C232.101 34.0724 233.221 34.311 234.48 35.1293C236.563 36.4847 237.307 40.1384 236.173 43.4451C234.865 47.2567 231.572 49.3255 227.359 48.9774C227.352 48.9774 227.345 48.9774 227.338 48.9774L227.337 48.9751Z" fill="#212121"/>
<path d="M228.031 44.7784C228.137 44.7784 228.235 44.7116 228.272 44.6067C228.533 43.8437 228.803 43.0553 229.273 42.4018C229.778 41.6999 230.459 41.2712 231.144 41.2239C231.284 41.2147 231.39 41.0925 231.38 40.953C231.37 40.8124 231.248 40.7064 231.109 40.7168C230.273 40.7744 229.453 41.2804 228.86 42.1056C228.346 42.8202 228.063 43.6443 227.791 44.443C227.746 44.5756 227.816 44.7208 227.949 44.7657C227.976 44.775 228.005 44.7796 228.031 44.7796V44.7784Z" fill="#212121"/>
<path d="M228.22 12.4961C228.22 12.4961 237.754 17.5155 231.172 32.9507L235.409 35.2432C235.409 35.2432 244.993 15.4939 228.219 12.4972L228.22 12.4961Z" fill="white"/>
<path d="M235.411 35.497C235.438 35.497 235.463 35.4935 235.49 35.4843C235.556 35.4635 235.611 35.4151 235.641 35.3529C235.847 34.9299 240.633 24.9037 237.119 18.0182C235.557 14.9582 232.579 13.0161 228.267 12.2462C228.146 12.2243 228.023 12.2946 227.982 12.4133C227.941 12.532 227.993 12.6622 228.103 12.721C228.126 12.7337 230.45 13.99 231.953 17.0754C233.343 19.9303 234.295 24.9855 230.941 32.8506C230.889 32.9717 230.939 33.1111 231.054 33.1734L235.291 35.4658C235.329 35.4866 235.371 35.497 235.413 35.497H235.411ZM229.403 13.0069C232.89 13.8747 235.329 15.6347 236.664 18.2476C239.771 24.332 236.005 33.3071 235.294 34.8895L231.498 32.8368C234.827 24.8968 233.829 19.7505 232.394 16.823C231.463 14.9259 230.258 13.7019 229.402 13.0069H229.403Z" fill="#212121"/>
<path d="M218.982 54.0602C220.29 54.0602 221.577 53.5761 222.563 52.6702L229.273 46.5051C229.377 46.4106 229.382 46.2492 229.288 46.1455C229.193 46.0418 229.032 46.036 228.929 46.1305L222.219 52.2956C220.979 53.4355 219.207 53.8366 217.595 53.3445L207.369 50.2187C207.234 50.1772 207.092 50.2533 207.052 50.387C207.01 50.5207 207.087 50.6636 207.221 50.7039L217.446 53.8297C217.949 53.9841 218.468 54.0591 218.982 54.0591V54.0602Z" fill="#212121"/>
<path d="M206.823 52.6131C204.585 52.1246 202.981 50.7647 203.241 49.5756C203.502 48.3866 205.527 47.8188 207.766 48.3073C210.005 48.7959 211.609 50.1558 211.348 51.3448C211.088 52.5338 209.062 53.1016 206.823 52.6131Z" fill="#212121"/>
<path d="M208.399 53.0445C208.936 53.0445 209.444 52.9812 209.896 52.8544C210.847 52.5881 211.45 52.0718 211.597 51.3998C211.891 50.0536 210.232 48.5864 207.821 48.0597C206.697 47.8153 205.587 47.8176 204.693 48.0689C203.743 48.3351 203.139 48.8515 202.992 49.5234C202.698 50.8696 204.357 52.3369 206.769 52.8636C207.323 52.9846 207.875 53.0445 208.399 53.0445ZM206.189 48.387C206.677 48.387 207.191 48.4435 207.711 48.5576C209.774 49.0071 211.326 50.2599 211.099 51.2926C210.994 51.7721 210.519 52.1525 209.759 52.3657C208.944 52.5939 207.921 52.595 206.879 52.368C204.815 51.9185 203.264 50.6656 203.49 49.6329C203.595 49.1535 204.071 48.7731 204.83 48.5599C205.239 48.4458 205.7 48.3882 206.189 48.3882V48.387Z" fill="#212121"/>
<path d="M231.198 51.7225C225.543 51.7225 220.958 47.1439 220.958 41.4958C220.958 35.8477 225.543 31.269 231.198 31.269C236.854 31.269 241.439 35.8477 241.439 41.4958C241.439 47.1439 236.854 51.7225 231.198 51.7225Z" fill="white"/>
<path d="M231.2 51.9773C236.987 51.9773 241.695 47.276 241.695 41.4959C241.695 35.7157 236.987 31.0144 231.2 31.0144C225.412 31.0144 220.704 35.7157 220.704 41.4959C220.704 47.276 225.412 51.9773 231.2 51.9773ZM231.2 31.5227C236.706 31.5227 241.186 35.997 241.186 41.4959C241.186 46.9948 236.707 51.4691 231.2 51.4691C225.693 51.4691 221.213 46.9948 221.213 41.4959C221.213 35.997 225.693 31.5227 231.2 31.5227Z" fill="#212121"/>
<path d="M231.199 48.7155C227.206 48.7155 223.969 45.4831 223.969 41.4958C223.969 37.5085 227.206 34.2761 231.199 34.2761C235.191 34.2761 238.428 37.5085 238.428 41.4958C238.428 45.4831 235.191 48.7155 231.199 48.7155Z" fill="#C3D600"/>
<path d="M231.199 48.9703C235.325 48.9703 238.682 45.6175 238.682 41.4959C238.682 37.3743 235.325 34.0215 231.199 34.0215C227.072 34.0215 223.714 37.3743 223.714 41.4959C223.714 45.6175 227.071 48.9703 231.199 48.9703ZM231.199 34.5298C235.044 34.5298 238.173 37.6544 238.173 41.4959C238.173 45.3374 235.044 48.462 231.199 48.462C227.353 48.462 224.223 45.3374 224.223 41.4959C224.223 37.6544 227.352 34.5298 231.199 34.5298Z" fill="#212121"/>
<path d="M99.8483 102.137H166.036C168.52 102.137 170.54 100.12 170.54 97.6396V78.1911L186.716 63.4555C186.793 63.3852 186.82 63.2734 186.782 63.1754C186.744 63.0775 186.649 63.0129 186.544 63.0129H99.8471C97.3638 63.0129 95.3434 65.0299 95.3434 67.5103V97.6396C95.3434 100.12 97.3638 102.137 99.8471 102.137H99.8483Z" fill="white"/>
<path d="M99.8483 102.137H166.036C168.52 102.137 170.54 100.12 170.54 97.6396V78.1911L186.716 63.4555C186.793 63.3852 186.82 63.2734 186.782 63.1754C186.744 63.0775 186.649 63.0129 186.544 63.0129H99.8471C97.3638 63.0129 95.3434 65.0299 95.3434 67.5103V97.6396C95.3434 100.12 97.3638 102.137 99.8471 102.137H99.8483ZM185.888 63.5212L170.114 77.8915C170.061 77.9399 170.031 78.0079 170.031 78.0793V97.6407C170.031 99.841 168.239 101.63 166.036 101.63H99.8483C97.6455 101.63 95.8537 99.8398 95.8537 97.6407V67.5114C95.8537 65.3112 97.6455 63.5224 99.8483 63.5224H185.888V63.5212Z" fill="#212121"/>
<path d="M108.813 73.4006H156.286V76.3677H108.813V73.4006Z" fill="#C3D600"/>
<path d="M108.813 81.1147H143.231V84.0818H108.813V81.1147Z" fill="#C3D600"/>
<path d="M108.813 88.8291H134.923V91.7961H108.813V88.8291Z" fill="#C3D600"/>
</svg>
