<svg width="611" height="408" viewBox="0 0 611 408" fill="none" xmlns="http://www.w3.org/2000/svg">
<g clip-path="url(#clip0_558_6216)">
<path d="M214.989 188.084C177.536 233.889 110.057 240.649 64.2673 203.184C18.4794 165.719 11.719 98.2165 49.1718 52.4135C86.6245 6.60826 154.106 -0.151608 199.894 37.3108C245.684 74.7755 252.442 142.278 214.989 188.084Z" fill="#D5E0BB"/>
<path d="M184.62 209.739C184.56 209.739 184.497 209.732 184.435 209.714C176.922 207.77 170.685 200.868 169.602 193.303C168.517 185.707 172.68 177.884 179.503 174.704C180.96 174.024 182.539 173.525 184.067 173.043C187.159 172.065 190.077 171.142 191.939 168.876C195.193 164.919 193.534 158.529 190.213 154.262C188.012 151.435 185.139 149.089 182.361 146.82C180.737 145.493 179.055 144.122 177.505 142.653C162.719 128.656 159.61 103.886 170.424 86.2597C180.301 70.1626 200.644 60.3706 222.217 61.2959C222.623 61.3137 222.937 61.657 222.921 62.0628C222.903 62.4686 222.562 62.7896 222.155 62.7673C201.087 61.8532 181.281 71.3799 171.678 87.0311C161.213 104.087 164.216 128.05 178.516 141.585C180.029 143.016 181.688 144.372 183.292 145.681C186.134 147.999 189.072 150.398 191.373 153.357C195.053 158.088 196.82 165.258 193.075 169.811C190.937 172.412 187.669 173.445 184.511 174.446C183.027 174.914 181.495 175.4 180.125 176.038C173.877 178.951 170.063 186.124 171.059 193.095C172.059 200.098 177.839 206.488 184.802 208.29C185.197 208.392 185.43 208.793 185.33 209.186C185.246 209.518 184.945 209.737 184.62 209.737V209.739Z" fill="white"/>
<path d="M72.812 185.649C64.9 185.649 56.9769 184.84 49.154 183.212C48.7575 183.13 48.5014 182.739 48.5838 182.342C48.6662 181.943 49.056 181.689 49.4525 181.772C70.0299 186.052 92.24 184.454 111.991 177.266C123.449 173.097 130.441 167.345 132.778 160.163C135.077 153.094 132.646 144.537 126.588 138.365C121.687 133.376 114.508 129.771 105.251 127.65C100.548 126.574 95.6703 125.918 90.9525 125.283C87.6759 124.841 84.2879 124.386 80.9734 123.793C76.788 123.044 71.6916 121.655 69.4017 117.533C66.4347 112.193 69.8806 105.783 73.7319 101.917C74.8724 100.774 76.1109 99.6835 77.3093 98.6312C80.2985 96.0048 83.123 93.5211 84.7178 90.13C88.3464 82.4182 83.6308 72.9004 76.9751 68.1538C69.825 63.0527 60.601 61.6035 52.4618 60.3237C52.0609 60.2613 51.7869 59.8845 51.8493 59.4832C51.9116 59.0819 52.2858 58.8054 52.689 58.8701C60.9886 60.1744 70.3952 61.6503 77.8283 66.9543C84.974 72.0532 90.0036 82.3491 86.0476 90.7565C84.3213 94.4241 81.2497 97.124 78.2804 99.737C77.0999 100.776 75.8792 101.848 74.7744 102.956C71.284 106.461 68.1187 112.195 70.687 116.817C72.6783 120.4 77.3694 121.653 81.2341 122.346C84.5174 122.935 87.8875 123.388 91.1485 123.827C95.8997 124.467 100.811 125.127 105.578 126.219C115.114 128.402 122.536 132.143 127.635 137.335C134.074 143.895 136.642 153.033 134.177 160.62C131.695 168.254 124.4 174.321 112.494 178.65C99.7087 183.301 86.2815 185.649 72.812 185.649Z" fill="white"/>
<path d="M112.584 49.6556C108.053 49.6556 103.52 48.2064 99.9518 45.3237C92.9887 39.6986 90.592 29.3359 94.372 21.2227C94.5435 20.8548 94.9801 20.6943 95.3476 20.866C95.7151 21.0377 95.8755 21.4746 95.704 21.8425C92.2559 29.24 94.5279 39.0499 100.874 44.1777C107.22 49.3056 117.286 49.4639 123.79 44.5367C125.913 42.9292 127.762 40.8067 129.548 38.7556C132.444 35.4336 135.438 31.9979 139.721 30.5688C143.813 29.2021 148.257 29.9914 152.447 31.0437C152.874 31.1507 153.302 31.2622 153.732 31.3714C157.262 32.2788 160.915 33.2152 164.479 32.8095C168.17 32.3881 172.253 29.9535 172.915 26.112C172.984 25.7129 173.363 25.4454 173.764 25.5123C174.164 25.5814 174.432 25.9626 174.363 26.3617C173.579 30.9166 168.881 33.7882 164.646 34.2698C160.806 34.7068 157.026 33.7347 153.367 32.7961C152.939 32.6868 152.513 32.5776 152.088 32.4706C148.112 31.4695 143.918 30.7182 140.184 31.9645C136.28 33.2665 133.549 36.4034 130.655 39.7232C128.82 41.8323 126.92 44.0105 124.675 45.7116C121.197 48.3447 116.889 49.6556 112.579 49.6556H112.584Z" fill="white"/>
<path d="M224.812 190.164C224.213 190.164 223.605 190.159 222.99 190.148C222.721 190.144 222.505 189.921 222.509 189.649C222.514 189.381 222.732 189.167 222.999 189.167H223.008C223.645 189.178 224.284 189.183 224.893 189.183C225.906 189.183 226.913 189.169 227.884 189.14C228.151 189.14 228.381 189.345 228.387 189.617C228.394 189.889 228.183 190.115 227.911 190.121C226.904 190.15 225.848 190.166 224.812 190.164ZM218.101 189.976C218.101 189.976 218.083 189.976 218.074 189.976C216.491 189.894 214.84 189.782 213.169 189.644C212.9 189.622 212.699 189.386 212.722 189.116C212.744 188.846 212.978 188.652 213.25 188.668C214.911 188.804 216.551 188.915 218.123 188.998C218.393 189.011 218.602 189.243 218.587 189.513C218.573 189.773 218.357 189.979 218.097 189.979L218.101 189.976ZM232.787 189.838C232.535 189.838 232.321 189.646 232.299 189.392C232.274 189.122 232.473 188.884 232.742 188.859C234.455 188.706 236.074 188.496 237.558 188.233C237.825 188.184 238.079 188.364 238.126 188.63C238.173 188.897 237.995 189.151 237.729 189.198C236.219 189.466 234.571 189.68 232.831 189.836C232.816 189.836 232.8 189.836 232.787 189.836V189.838ZM208.331 189.18C208.313 189.18 208.296 189.18 208.278 189.178C206.699 189.009 205.057 188.813 203.402 188.599C203.132 188.563 202.943 188.318 202.979 188.048C203.014 187.778 203.259 187.589 203.527 187.624C205.175 187.838 206.81 188.032 208.383 188.202C208.652 188.231 208.846 188.471 208.817 188.741C208.79 188.993 208.579 189.178 208.331 189.178V189.18ZM242.405 188.055C242.198 188.055 242.004 187.921 241.939 187.713C241.857 187.455 242 187.178 242.256 187.096C243.946 186.554 245.41 185.901 246.608 185.154C246.838 185.011 247.141 185.08 247.283 185.31C247.426 185.54 247.357 185.843 247.127 185.986C245.862 186.775 244.323 187.461 242.556 188.03C242.507 188.046 242.456 188.055 242.407 188.055H242.405ZM198.611 187.925C198.586 187.925 198.562 187.925 198.537 187.921C196.96 187.684 195.327 187.426 193.688 187.152C193.421 187.107 193.24 186.855 193.285 186.588C193.329 186.32 193.581 186.137 193.848 186.184C195.481 186.456 197.107 186.715 198.68 186.949C198.947 186.989 199.132 187.239 199.092 187.506C199.056 187.749 198.847 187.925 198.608 187.925H198.611ZM188.946 186.313C188.917 186.313 188.888 186.311 188.857 186.304C187.286 186.017 185.665 185.707 184.036 185.384C183.771 185.332 183.597 185.074 183.651 184.808C183.704 184.543 183.961 184.367 184.228 184.423C185.852 184.744 187.469 185.054 189.035 185.341C189.302 185.39 189.478 185.644 189.429 185.912C189.387 186.148 189.18 186.313 188.948 186.313H188.946ZM179.33 184.407C179.296 184.407 179.261 184.403 179.227 184.396C177.646 184.059 176.049 183.711 174.434 183.346C174.169 183.286 174.004 183.025 174.064 182.759C174.124 182.494 174.385 182.329 174.65 182.389C176.26 182.753 177.855 183.101 179.432 183.435C179.697 183.491 179.866 183.752 179.809 184.017C179.76 184.247 179.557 184.405 179.33 184.405V184.407ZM250.315 182.659C250.232 182.659 250.148 182.639 250.072 182.594C249.838 182.461 249.756 182.16 249.891 181.926C250.096 181.567 250.27 181.192 250.406 180.809C250.68 180.042 250.82 179.217 250.82 178.354C250.82 178.071 250.805 177.783 250.776 177.493C250.749 177.224 250.945 176.983 251.215 176.956C251.493 176.934 251.725 177.125 251.751 177.395C251.785 177.716 251.8 178.04 251.8 178.354C251.8 179.328 251.642 180.265 251.33 181.139C251.174 181.576 250.976 182.006 250.742 182.414C250.651 182.572 250.486 182.661 250.317 182.661L250.315 182.659ZM169.767 182.253C169.729 182.253 169.691 182.249 169.653 182.24C168.079 181.865 166.49 181.477 164.887 181.078C164.624 181.014 164.466 180.746 164.53 180.483C164.595 180.22 164.862 180.062 165.125 180.126C166.724 180.525 168.31 180.913 169.881 181.286C170.144 181.348 170.306 181.613 170.244 181.877C170.19 182.102 169.99 182.253 169.767 182.253ZM160.258 179.879C160.218 179.879 160.176 179.874 160.133 179.863C158.565 179.453 156.986 179.032 155.393 178.599C155.133 178.528 154.979 178.258 155.05 177.997C155.121 177.736 155.391 177.58 155.652 177.654C157.24 178.086 158.817 178.508 160.383 178.916C160.643 178.985 160.802 179.252 160.732 179.515C160.675 179.736 160.476 179.881 160.258 179.881V179.879ZM150.8 177.306C150.756 177.306 150.711 177.299 150.667 177.288C149.105 176.847 147.532 176.394 145.953 175.93C145.693 175.855 145.546 175.583 145.621 175.322C145.697 175.061 145.971 174.914 146.229 174.99C147.806 175.453 149.375 175.904 150.934 176.345C151.194 176.419 151.346 176.688 151.272 176.952C151.212 177.168 151.014 177.308 150.802 177.308L150.8 177.306ZM141.394 174.546C141.347 174.546 141.298 174.539 141.251 174.526C139.696 174.053 138.133 173.572 136.564 173.079C136.306 172.999 136.163 172.722 136.244 172.464C136.324 172.205 136.598 172.06 136.858 172.143C138.427 172.633 139.986 173.115 141.536 173.585C141.794 173.663 141.941 173.937 141.864 174.196C141.799 174.408 141.605 174.544 141.394 174.544V174.546ZM249.811 173.28C249.631 173.28 249.457 173.179 249.372 173.008C248.731 171.719 247.869 170.352 246.809 168.943C246.646 168.727 246.688 168.419 246.904 168.256C247.123 168.094 247.428 168.138 247.59 168.352C248.686 169.81 249.582 171.228 250.248 172.571C250.368 172.814 250.27 173.108 250.027 173.228C249.956 173.264 249.883 173.28 249.809 173.28H249.811ZM132.04 171.616C131.991 171.616 131.94 171.61 131.889 171.592C130.343 171.092 128.788 170.582 127.229 170.062C126.973 169.978 126.833 169.699 126.919 169.443C127.004 169.186 127.283 169.048 127.539 169.133C129.096 169.65 130.646 170.16 132.192 170.66C132.45 170.742 132.591 171.019 132.508 171.277C132.441 171.485 132.25 171.616 132.043 171.616H132.04ZM122.741 168.52C122.687 168.52 122.634 168.511 122.583 168.493C121.043 167.964 119.5 167.427 117.949 166.883C117.695 166.794 117.56 166.513 117.651 166.257C117.74 166 118.021 165.866 118.277 165.958C119.823 166.502 121.366 167.037 122.903 167.565C123.159 167.655 123.295 167.933 123.208 168.187C123.139 168.39 122.948 168.52 122.745 168.52H122.741ZM244.033 165.4C243.902 165.4 243.773 165.349 243.677 165.247C242.634 164.134 241.472 162.984 240.218 161.824C240.019 161.642 240.006 161.332 240.191 161.131C240.374 160.933 240.685 160.919 240.884 161.104C242.155 162.279 243.334 163.447 244.392 164.576C244.577 164.774 244.568 165.084 244.37 165.269C244.274 165.358 244.154 165.403 244.033 165.403V165.4ZM113.497 165.262C113.441 165.262 113.385 165.253 113.33 165.233C111.786 164.676 110.251 164.112 108.725 163.546C108.472 163.452 108.342 163.169 108.436 162.915C108.529 162.66 108.812 162.529 109.066 162.625C110.59 163.191 112.122 163.753 113.664 164.31C113.918 164.402 114.049 164.683 113.958 164.939C113.886 165.14 113.697 165.262 113.497 165.262ZM104.308 161.849C104.25 161.849 104.19 161.838 104.135 161.818C102.6 161.231 101.074 160.643 99.5594 160.05C99.3077 159.952 99.183 159.666 99.281 159.414C99.379 159.162 99.6641 159.037 99.9158 159.136C101.428 159.726 102.952 160.315 104.484 160.899C104.736 160.995 104.863 161.278 104.767 161.532C104.691 161.728 104.507 161.849 104.308 161.849ZM236.859 158.728C236.749 158.728 236.638 158.69 236.547 158.614C236.284 158.395 236.019 158.177 235.751 157.958C235.542 157.787 235.511 157.479 235.68 157.267C235.852 157.058 236.159 157.026 236.371 157.196C236.642 157.417 236.91 157.637 237.173 157.856C237.38 158.03 237.409 158.337 237.237 158.547C237.139 158.663 237.001 158.723 236.861 158.723L236.859 158.728ZM95.178 158.277C95.1178 158.277 95.0555 158.266 94.9953 158.242C93.4673 157.628 91.9526 157.013 90.4513 156.393C90.2018 156.291 90.0815 156.003 90.184 155.753C90.2864 155.504 90.5738 155.386 90.8232 155.486C92.3223 156.103 93.8348 156.719 95.3584 157.332C95.6101 157.432 95.7326 157.718 95.6301 157.97C95.5544 158.161 95.3695 158.277 95.1757 158.277H95.178ZM86.1144 154.541C86.0498 154.541 85.9852 154.527 85.925 154.503C84.4081 153.861 82.9046 153.216 81.4144 152.57C81.1672 152.463 81.0536 152.173 81.1605 151.925C81.2674 151.678 81.5547 151.562 81.8042 151.671C83.2899 152.315 84.7913 152.96 86.3059 153.6C86.5554 153.704 86.6712 153.992 86.5666 154.242C86.4886 154.429 86.3059 154.541 86.1144 154.541ZM77.1221 150.634C77.0553 150.634 76.9884 150.621 76.9238 150.592C75.4181 149.921 73.9279 149.245 72.4533 148.57C72.206 148.456 72.0991 148.166 72.2127 147.921C72.3241 147.676 72.6159 147.567 72.8609 147.68C74.3333 148.356 75.819 149.027 77.3225 149.698C77.5698 149.807 77.6812 150.099 77.5698 150.345C77.4874 150.527 77.3092 150.634 77.1221 150.634ZM68.21 146.548C68.1409 146.548 68.0696 146.532 68.0028 146.501C66.5082 145.796 65.0313 145.09 63.5746 144.385C63.3318 144.267 63.2293 143.973 63.3474 143.73C63.4654 143.487 63.7595 143.386 64.0023 143.502C65.4568 144.207 66.9292 144.911 68.4193 145.616C68.6644 145.732 68.7691 146.024 68.6532 146.269C68.5708 146.447 68.3926 146.55 68.21 146.55V146.548ZM59.3892 142.267C59.3157 142.267 59.2422 142.251 59.1709 142.216C57.6896 141.476 56.2306 140.735 54.7939 139.995C54.5533 139.87 54.4598 139.576 54.5823 139.335C54.7048 139.095 55.001 138.999 55.2416 139.124C56.6761 139.861 58.1306 140.602 59.6075 141.34C59.8503 141.46 59.9483 141.754 59.828 141.997C59.7433 142.169 59.5696 142.269 59.3892 142.269V142.267ZM50.6753 137.775C50.5973 137.775 50.5194 137.757 50.4459 137.717C48.9869 136.941 47.5346 136.154 46.129 135.378C45.8929 135.246 45.806 134.95 45.9352 134.711C46.0644 134.473 46.3629 134.388 46.6012 134.517C48.0023 135.289 49.4524 136.074 50.9069 136.847C51.1453 136.974 51.2366 137.271 51.1096 137.512C51.0205 137.677 50.8513 137.772 50.6775 137.772L50.6753 137.775ZM42.0884 133.041C42.006 133.041 41.9236 133.021 41.8456 132.977C40.4089 132.156 38.9811 131.325 37.6 130.504C37.3684 130.366 37.2904 130.065 37.4285 129.833C37.5666 129.601 37.8673 129.523 38.099 129.661C39.4733 130.477 40.8967 131.307 42.329 132.125C42.5651 132.259 42.6453 132.558 42.5116 132.794C42.4225 132.952 42.2554 133.041 42.0862 133.041H42.0884ZM33.6574 128.029C33.5683 128.029 33.4814 128.005 33.399 127.956C31.9757 127.073 30.579 126.188 29.2515 125.323C29.0243 125.176 28.9597 124.87 29.1067 124.645C29.2537 124.418 29.5589 124.353 29.7838 124.5C31.107 125.361 32.4969 126.244 33.9136 127.122C34.143 127.265 34.2143 127.568 34.0717 127.798C33.9804 127.947 33.82 128.029 33.6552 128.029H33.6574ZM25.4403 122.681C25.3445 122.681 25.2487 122.654 25.1641 122.596C23.7741 121.642 22.422 120.688 21.1479 119.758C20.9296 119.597 20.8806 119.292 21.041 119.074C21.2014 118.855 21.5065 118.808 21.7248 118.967C22.9923 119.892 24.3354 120.839 25.7187 121.789C25.9414 121.943 25.9994 122.248 25.8457 122.471C25.7499 122.61 25.5962 122.685 25.4403 122.685V122.681ZM17.5238 116.895C17.4191 116.895 17.3122 116.862 17.2209 116.791C15.8777 115.738 14.5969 114.688 13.4119 113.671C13.207 113.495 13.1825 113.185 13.3585 112.98C13.5344 112.773 13.844 112.751 14.049 112.927C15.2251 113.935 16.4947 114.976 17.8268 116.019C18.0406 116.186 18.0762 116.494 17.9092 116.708C17.8134 116.831 17.6686 116.895 17.5238 116.895ZM10.0997 110.497C9.97715 110.497 9.85464 110.452 9.75886 110.361C8.50256 109.15 7.34873 107.953 6.33301 106.8C6.15481 106.597 6.17263 106.287 6.37533 106.107C6.57803 105.928 6.88765 105.946 7.06807 106.149C8.06821 107.282 9.20199 108.461 10.4382 109.652C10.6343 109.839 10.6387 110.149 10.4516 110.345C10.3558 110.445 10.2266 110.494 10.0974 110.494L10.0997 110.497ZM3.67786 103.112C3.52194 103.112 3.36601 103.037 3.27246 102.898C2.23668 101.373 1.4348 99.8975 0.893519 98.5086C0.795511 98.2566 0.920249 97.9712 1.17195 97.8731C1.42366 97.775 1.70655 97.8999 1.80678 98.1518C2.32356 99.4717 3.08758 100.883 4.08326 102.348C4.23473 102.573 4.17681 102.876 3.95407 103.03C3.86942 103.088 3.77364 103.115 3.67786 103.115V103.112ZM0.514849 94.0562C0.501484 94.0562 0.490347 94.0562 0.476982 94.0562C0.207458 94.0362 0.00475799 93.7998 0.0248052 93.5301C0.080492 92.7988 0.229733 92.0898 0.4703 91.4209C0.80442 90.4845 1.32119 89.6061 2.00503 88.808C2.18323 88.6028 2.49062 88.5783 2.69554 88.7545C2.90047 88.9306 2.92497 89.2405 2.749 89.4456C2.14313 90.1501 1.6865 90.926 1.39247 91.7487C1.18309 92.335 1.05167 92.9593 1.00267 93.6036C0.982618 93.8623 0.768781 94.0562 0.514849 94.0562ZM6.28846 86.7211C6.10803 86.7211 5.93429 86.6208 5.84965 86.4491C5.72936 86.2061 5.82737 85.9118 6.07016 85.7914C7.40888 85.127 8.98593 84.5518 10.7568 84.0814C11.0174 84.0145 11.2869 84.1684 11.356 84.4292C11.425 84.6923 11.2691 84.9598 11.0085 85.0289C9.3 85.4815 7.78532 86.0344 6.50452 86.6699C6.43547 86.7055 6.35974 86.7211 6.28623 86.7211H6.28846ZM15.6839 84.0859C15.4434 84.0859 15.2362 83.9097 15.2006 83.6667C15.1605 83.3992 15.3476 83.1495 15.6149 83.1116C17.1385 82.8908 18.789 82.7169 20.5242 82.5988C20.8027 82.5899 21.0276 82.7861 21.0477 83.0558C21.0655 83.3256 20.8628 83.5597 20.5911 83.5798C18.8804 83.6957 17.2543 83.8651 15.7552 84.0836C15.7307 84.0881 15.7084 84.0881 15.6839 84.0881V84.0859ZM30.3518 83.4237H30.3385C28.6545 83.3746 27.0195 83.3635 25.4581 83.3836H25.4514C25.1841 83.3836 24.9658 83.1673 24.9614 82.8998C24.9569 82.63 25.1752 82.407 25.4447 82.4026C27.0195 82.3825 28.6701 82.3959 30.3652 82.4427C30.6347 82.4516 30.8486 82.6768 30.8419 82.9466C30.8352 83.2119 30.6169 83.4237 30.3518 83.4237Z" fill="#FF8400"/>
<path d="M179.396 241.627C179.372 241.627 179.347 241.627 179.323 241.621C177.85 241.398 176.247 240.885 174.552 240.094C174.307 239.98 174.2 239.688 174.315 239.442C174.431 239.197 174.723 239.092 174.966 239.206C176.576 239.958 178.091 240.446 179.47 240.653C179.737 240.693 179.922 240.943 179.882 241.21C179.846 241.454 179.637 241.627 179.399 241.627H179.396ZM184.203 241.126C184.014 241.126 183.831 241.014 183.753 240.827C183.646 240.577 183.762 240.29 184.012 240.185C184.09 240.151 184.168 240.116 184.246 240.08C185.484 239.494 186.555 238.524 187.433 237.195C187.582 236.968 187.885 236.908 188.112 237.057C188.337 237.206 188.4 237.509 188.251 237.737C187.275 239.217 186.068 240.303 184.664 240.967C184.575 241.01 184.486 241.05 184.397 241.088C184.335 241.115 184.27 241.128 184.205 241.128L184.203 241.126ZM170.511 237.71C170.417 237.71 170.324 237.683 170.239 237.628C168.965 236.778 167.629 235.786 166.268 234.68C166.058 234.511 166.025 234.201 166.196 233.991C166.366 233.78 166.675 233.748 166.885 233.92C168.223 235.006 169.533 235.978 170.783 236.812C171.008 236.961 171.068 237.266 170.919 237.492C170.825 237.634 170.669 237.71 170.511 237.71ZM189.785 233.476C189.741 233.476 189.696 233.47 189.652 233.458C189.391 233.385 189.24 233.115 189.311 232.854C189.701 231.459 189.999 229.865 190.195 228.117C190.226 227.847 190.465 227.655 190.736 227.684C191.006 227.715 191.2 227.956 191.169 228.226C190.966 230.025 190.658 231.673 190.255 233.12C190.195 233.336 189.997 233.479 189.783 233.479L189.785 233.476ZM162.877 231.575C162.759 231.575 162.639 231.532 162.545 231.445C161.396 230.382 160.207 229.227 159.013 228.012C158.823 227.818 158.826 227.508 159.019 227.318C159.211 227.129 159.523 227.131 159.712 227.325C160.895 228.529 162.073 229.673 163.212 230.725C163.41 230.908 163.423 231.218 163.238 231.418C163.142 231.523 163.011 231.577 162.877 231.577V231.575ZM155.992 224.594C155.859 224.594 155.727 224.54 155.629 224.433C154.562 223.263 153.466 222.021 152.375 220.746C152.199 220.541 152.221 220.231 152.428 220.055C152.633 219.879 152.943 219.901 153.119 220.108C154.206 221.377 155.295 222.61 156.355 223.774C156.538 223.974 156.522 224.284 156.324 224.467C156.231 224.552 156.113 224.594 155.994 224.594H155.992ZM190.972 223.767H190.966C190.696 223.762 190.48 223.542 190.482 223.27C190.487 222.984 190.489 222.694 190.489 222.402C190.489 221.129 190.451 219.785 190.378 218.4C190.364 218.131 190.572 217.899 190.841 217.883C191.131 217.876 191.342 218.077 191.358 218.347C191.434 219.749 191.469 221.111 191.469 222.402C191.469 222.699 191.469 222.993 191.463 223.283C191.458 223.551 191.24 223.767 190.972 223.767ZM149.606 217.15C149.464 217.15 149.323 217.087 149.225 216.969C148.218 215.729 147.189 214.434 146.169 213.119C146.002 212.905 146.042 212.597 146.256 212.43C146.47 212.263 146.777 212.303 146.944 212.517C147.96 213.825 148.985 215.116 149.987 216.349C150.156 216.559 150.125 216.869 149.916 217.04C149.824 217.114 149.715 217.15 149.606 217.15ZM143.59 209.404C143.44 209.404 143.293 209.337 143.195 209.208C142.235 207.919 141.262 206.584 140.295 205.242C140.137 205.021 140.188 204.716 140.407 204.557C140.625 204.399 140.932 204.45 141.09 204.669C142.051 206.007 143.024 207.338 143.98 208.622C144.142 208.84 144.095 209.146 143.879 209.308C143.79 209.373 143.688 209.407 143.587 209.407L143.59 209.404ZM137.87 201.436C137.714 201.436 137.562 201.363 137.466 201.224C136.553 199.907 135.62 198.542 134.695 197.169C134.544 196.944 134.604 196.638 134.829 196.489C135.054 196.337 135.359 196.397 135.508 196.623C136.431 197.994 137.359 199.354 138.271 200.667C138.424 200.89 138.371 201.195 138.148 201.349C138.063 201.409 137.965 201.436 137.87 201.436ZM132.397 193.296C132.236 193.296 132.08 193.218 131.987 193.073C131.102 191.72 130.218 190.342 129.329 188.944C129.185 188.717 129.251 188.414 129.481 188.266C129.708 188.119 130.011 188.188 130.158 188.418C131.045 189.814 131.927 191.187 132.809 192.536C132.958 192.763 132.893 193.066 132.666 193.214C132.584 193.267 132.49 193.294 132.399 193.294L132.397 193.296ZM127.14 185.014C126.975 185.014 126.815 184.931 126.723 184.782C125.872 183.404 125.019 182.006 124.166 180.59C124.026 180.358 124.102 180.057 124.333 179.917C124.565 179.776 124.866 179.852 125.006 180.084C125.857 181.498 126.708 182.891 127.556 184.267C127.699 184.496 127.628 184.799 127.396 184.942C127.316 184.991 127.227 185.016 127.14 185.016V185.014ZM122.079 176.613C121.912 176.613 121.747 176.526 121.656 176.372C120.834 174.974 120.012 173.558 119.19 172.127C119.054 171.893 119.137 171.592 119.37 171.458C119.607 171.324 119.905 171.405 120.039 171.639C120.858 173.068 121.678 174.479 122.5 175.875C122.636 176.109 122.56 176.41 122.326 176.546C122.248 176.593 122.164 176.613 122.079 176.613ZM117.194 168.105C117.023 168.105 116.856 168.016 116.766 167.855C115.971 166.439 115.178 165.008 114.388 163.561C114.258 163.323 114.345 163.026 114.581 162.895C114.82 162.763 115.116 162.852 115.247 163.089C116.038 164.531 116.831 165.96 117.622 167.374C117.753 167.61 117.671 167.909 117.435 168.04C117.359 168.083 117.277 168.103 117.196 168.103L117.194 168.105ZM112.481 159.503C112.307 159.503 112.138 159.41 112.049 159.245C111.28 157.811 110.514 156.367 109.75 154.906C109.625 154.665 109.717 154.369 109.957 154.244C110.198 154.119 110.494 154.211 110.619 154.451C111.38 155.907 112.147 157.352 112.913 158.781C113.042 159.02 112.951 159.316 112.712 159.446C112.639 159.486 112.559 159.503 112.481 159.503ZM107.926 150.813C107.747 150.813 107.576 150.715 107.489 150.548C106.747 149.101 106.006 147.64 105.268 146.169C105.146 145.928 105.244 145.631 105.487 145.511C105.729 145.388 106.023 145.489 106.144 145.73C106.881 147.197 107.618 148.655 108.36 150.099C108.483 150.34 108.389 150.637 108.148 150.759C108.077 150.797 107.999 150.813 107.926 150.813ZM103.529 142.046C103.348 142.046 103.174 141.946 103.088 141.772C102.37 140.31 101.655 138.838 100.943 137.358C100.824 137.113 100.929 136.82 101.172 136.702C101.417 136.584 101.709 136.689 101.827 136.932C102.537 138.412 103.25 139.882 103.967 141.34C104.085 141.583 103.987 141.877 103.742 141.995C103.673 142.029 103.6 142.046 103.526 142.046H103.529ZM99.2831 133.204C99.0982 133.204 98.9222 133.099 98.8398 132.923C98.1404 131.436 97.4521 129.954 96.7727 128.473C96.6591 128.228 96.766 127.936 97.0133 127.822C97.2605 127.708 97.5501 127.818 97.6637 128.063C98.3431 129.539 99.0314 131.022 99.7286 132.506C99.8444 132.752 99.7397 133.044 99.4947 133.16C99.4279 133.191 99.3566 133.206 99.2875 133.206L99.2831 133.204ZM95.1867 124.293C94.9996 124.293 94.8214 124.186 94.739 124.003C94.0663 122.503 93.4025 121.007 92.7477 119.517C92.6385 119.27 92.7521 118.98 92.9994 118.871C93.2466 118.764 93.5362 118.875 93.6453 119.123C94.298 120.61 94.9595 122.103 95.6322 123.602C95.7436 123.849 95.6322 124.139 95.3872 124.251C95.3226 124.279 95.2536 124.293 95.1867 124.293ZM91.2463 115.31C91.057 115.31 90.8766 115.199 90.7964 115.014C90.1482 113.5 89.5111 111.993 88.8852 110.492C88.7805 110.243 88.8986 109.955 89.1481 109.85C89.3975 109.745 89.6849 109.863 89.7896 110.113C90.4155 111.611 91.0503 113.116 91.6963 114.628C91.8032 114.875 91.6874 115.165 91.4379 115.272C91.3755 115.299 91.3087 115.312 91.2441 115.312L91.2463 115.31ZM87.4685 106.256C87.2748 106.256 87.0921 106.14 87.0142 105.951C86.3927 104.423 85.7846 102.905 85.1876 101.394C85.0874 101.142 85.2121 100.856 85.4638 100.758C85.7155 100.658 86.0006 100.783 86.0987 101.035C86.6956 102.542 87.3037 104.058 87.923 105.583C88.0254 105.835 87.9051 106.12 87.6534 106.223C87.5933 106.247 87.5309 106.258 87.4685 106.258V106.256ZM83.8623 97.1352C83.6663 97.1352 83.4792 97.0171 83.4056 96.8209C82.8131 95.2803 82.234 93.7486 81.6682 92.2281C81.5747 91.9739 81.7016 91.6908 81.9556 91.5971C82.2073 91.5057 82.4924 91.6306 82.5859 91.8847C83.1495 93.403 83.7286 94.9302 84.3189 96.4686C84.4169 96.7205 84.2899 97.0059 84.0382 97.1018C83.9803 97.1241 83.9202 97.1352 83.8623 97.1352ZM80.4409 87.9407C80.2404 87.9407 80.0511 87.8159 79.9798 87.6175C79.4185 86.0635 78.8727 84.5184 78.3404 82.989C78.2513 82.7326 78.3871 82.4539 78.6411 82.3647C78.8972 82.2756 79.1757 82.4116 79.2648 82.6657C79.7949 84.1929 80.3406 85.7335 80.8997 87.283C80.9911 87.5372 80.8596 87.8181 80.6057 87.9118C80.55 87.9318 80.4943 87.9407 80.4386 87.9407H80.4409ZM77.22 78.6771C77.015 78.6771 76.8235 78.5478 76.7544 78.3427C76.2287 76.7731 75.7186 75.2169 75.2241 73.6763C75.1417 73.4177 75.2821 73.1413 75.5404 73.0588C75.7988 72.9785 76.075 73.1167 76.1574 73.3754C76.6497 74.9115 77.1598 76.4632 77.6833 78.0306C77.7701 78.287 77.632 78.5657 77.3736 78.6526C77.3224 78.6704 77.269 78.6771 77.2177 78.6771H77.22ZM74.2218 69.3355C74.0124 69.3355 73.8186 69.1995 73.754 68.9877C73.2751 67.4226 72.8006 65.8396 72.3485 64.2812C72.2727 64.0203 72.422 63.7483 72.6826 63.6725C72.941 63.5967 73.215 63.7461 73.2907 64.007C73.7429 65.5609 74.2151 67.1417 74.694 68.7001C74.7742 68.9587 74.6272 69.2329 74.3688 69.3132C74.322 69.3288 74.273 69.3355 74.2262 69.3355H74.2218ZM71.4842 59.9158C71.2704 59.9158 71.0721 59.7731 71.012 59.5546C70.5754 57.965 70.1522 56.3664 69.7512 54.8058C69.6844 54.5427 69.8426 54.2752 70.1054 54.2083C70.366 54.1414 70.6333 54.2997 70.7024 54.5628C71.1011 56.119 71.5221 57.7108 71.9564 59.296C72.0277 59.5569 71.874 59.8266 71.6134 59.898C71.5689 59.9091 71.5265 59.9158 71.4842 59.9158ZM69.0518 50.4114C68.8291 50.4114 68.6286 50.2598 68.5751 50.0346C68.1942 48.4205 67.8312 46.8063 67.497 45.239C67.4391 44.9737 67.6084 44.7128 67.8735 44.6571C68.1341 44.5969 68.3992 44.7685 68.4549 45.0339C68.789 46.5945 69.1498 48.1998 69.5285 49.8095C69.5909 50.0725 69.4283 50.3378 69.1632 50.4003C69.1253 50.4092 69.0875 50.4137 69.0496 50.4137L69.0518 50.4114ZM67.0092 40.8156C66.7776 40.8156 66.5726 40.6506 66.5281 40.4165C66.2185 38.7712 65.9356 37.1392 65.6861 35.5696C65.6438 35.302 65.8264 35.0501 66.0937 35.0078C66.3655 34.9632 66.6127 35.1482 66.6551 35.4158C66.9023 36.9764 67.1852 38.5973 67.4926 40.2337C67.5438 40.499 67.3678 40.7577 67.1028 40.8067C67.0716 40.8134 67.0426 40.8156 67.0114 40.8156H67.0092ZM65.4834 31.1262C65.2384 31.1262 65.029 30.9434 64.9978 30.6959C64.7907 29.0126 64.6214 27.3628 64.4966 25.7954C64.4766 25.5257 64.6771 25.2893 64.9466 25.267C65.2228 25.247 65.4522 25.4476 65.4745 25.7174C65.597 27.2714 65.7641 28.9056 65.9712 30.5755C66.0046 30.8453 65.8131 31.0883 65.5458 31.1217C65.5257 31.1239 65.5057 31.1262 65.4856 31.1262H65.4834ZM64.7305 21.3498C64.4655 21.3498 64.2472 21.138 64.2405 20.8704C64.2293 20.3443 64.2227 19.8248 64.2227 19.3165C64.2227 18.1438 64.2538 17.0045 64.3162 15.9299C64.3318 15.6601 64.559 15.4572 64.833 15.4683C65.1025 15.4839 65.3097 15.7158 65.2941 15.9856C65.2317 17.0424 65.2027 18.1638 65.2027 19.3165C65.2027 19.8181 65.2094 20.3287 65.2206 20.8504C65.2272 21.1201 65.0112 21.3453 64.7417 21.352H64.7305V21.3498ZM98.0646 16.3445C97.9354 16.3445 97.804 16.2933 97.7082 16.1907C96.5522 14.9667 95.4006 13.794 94.2868 12.7104C94.0931 12.5209 94.0886 12.211 94.2779 12.0171C94.4673 11.8231 94.7769 11.8186 94.9707 12.0081C96.0955 13.1028 97.2561 14.2845 98.421 15.5196C98.6081 15.7158 98.597 16.0257 98.401 16.213C98.3052 16.3022 98.1849 16.3468 98.0646 16.3468V16.3445ZM65.3676 11.5779C65.3386 11.5779 65.3074 11.5756 65.2785 11.5689C65.0134 11.5199 64.8374 11.2635 64.8864 10.9982C65.2206 9.18336 65.6861 7.56474 66.2697 6.19359C66.3766 5.94388 66.664 5.82795 66.9112 5.93497C67.1607 6.04198 67.2765 6.32959 67.1696 6.57706C66.6127 7.88356 66.1695 9.43083 65.8465 11.1765C65.8019 11.4129 65.597 11.5779 65.3654 11.5779H65.3676ZM91.0281 9.52001C90.9145 9.52001 90.7986 9.47988 90.7051 9.39962C89.4154 8.27372 88.1435 7.24369 86.9273 6.33628C86.7112 6.17352 86.6644 5.86808 86.827 5.64959C86.9896 5.43333 87.297 5.38651 87.5131 5.54926C88.7493 6.47228 90.0391 7.51792 91.3488 8.65942C91.5537 8.83779 91.5738 9.14769 91.3956 9.35057C91.2998 9.46205 91.1617 9.51779 91.0258 9.51779L91.0281 9.52001ZM83.145 3.72106C83.0626 3.72106 82.978 3.701 82.9 3.65641C81.3697 2.77129 79.9063 2.09352 78.552 1.64316C78.2958 1.55844 78.1555 1.27975 78.2424 1.02336C78.327 0.766966 78.6054 0.628736 78.8616 0.713458C80.2783 1.18611 81.8019 1.89064 83.39 2.8092C83.6239 2.9452 83.7041 3.24395 83.5705 3.48028C83.4791 3.63857 83.3143 3.72552 83.145 3.72552V3.72106ZM69.4617 2.8627C69.3258 2.8627 69.1899 2.80697 69.0941 2.69549C68.9159 2.49261 68.9338 2.1827 69.1387 2.00434C69.7178 1.49379 70.3527 1.07241 71.0298 0.751359C71.8963 0.34113 72.8452 0.0891955 73.8498 0.00224467C74.1126 -0.0267389 74.3577 0.178376 74.3799 0.448146C74.4044 0.717917 74.204 0.956474 73.9344 0.978769C73.0457 1.0568 72.2104 1.27752 71.4486 1.6387C70.8561 1.91962 70.297 2.28972 69.7869 2.74008C69.6933 2.82257 69.5775 2.8627 69.4639 2.8627H69.4617Z" fill="#FF8400"/>
<path d="M26.7169 178.822C25.7323 178.822 24.7678 178.8 23.8523 178.753C23.5828 178.74 23.3734 178.51 23.3868 178.24C23.4001 177.968 23.6251 177.759 23.8991 177.774C24.8101 177.819 25.7457 177.846 26.7458 177.841C27.4007 177.841 28.0712 177.83 28.7572 177.81C29.0223 177.801 29.2539 178.015 29.2606 178.287C29.2673 178.557 29.0557 178.784 28.7839 178.791C28.089 178.811 27.4074 178.822 26.7436 178.822H26.7124H26.7169ZM33.6666 178.508C33.4149 178.508 33.201 178.314 33.1787 178.06C33.1565 177.79 33.3547 177.554 33.6265 177.529C35.1812 177.398 36.8118 177.221 38.4779 177.007C38.7519 176.976 38.9924 177.163 39.0259 177.431C39.0593 177.701 38.8699 177.946 38.6026 177.979C36.9254 178.196 35.2793 178.372 33.7089 178.503C33.6955 178.503 33.6822 178.503 33.6666 178.503V178.508ZM19.0076 178.245C18.9808 178.245 18.9519 178.242 18.9252 178.238C17.112 177.928 15.4904 177.491 14.1049 176.936C13.8532 176.836 13.7307 176.55 13.8309 176.298C13.9312 176.046 14.2185 175.924 14.468 176.024C15.7889 176.553 17.3436 176.972 19.09 177.27C19.3573 177.315 19.5355 177.569 19.4909 177.837C19.4508 178.075 19.2437 178.245 19.0076 178.245ZM43.3895 177.277C43.1534 177.277 42.9462 177.105 42.9061 176.865C42.8616 176.597 43.0442 176.345 43.3115 176.303C44.8663 176.049 46.4857 175.761 48.1229 175.447C48.3879 175.395 48.6441 175.569 48.6975 175.837C48.7488 176.102 48.575 176.361 48.3077 176.412C46.6616 176.729 45.0333 177.018 43.4697 177.273C43.4429 177.277 43.4162 177.279 43.3917 177.279L43.3895 177.277ZM53.0144 175.433C52.7894 175.433 52.5867 175.277 52.5355 175.048C52.4776 174.782 52.6469 174.521 52.9097 174.463C54.4645 174.125 56.0682 173.759 57.6787 173.373C57.9416 173.313 58.2066 173.474 58.269 173.737C58.3314 174 58.1688 174.265 57.9059 174.327C56.291 174.715 54.6805 175.083 53.1191 175.422C53.0834 175.429 53.0478 175.433 53.0144 175.433ZM10.1935 174.348C10.0643 174.348 9.93508 174.296 9.83929 174.196C9.22897 173.554 8.73447 172.84 8.37139 172.071C8.00609 171.295 7.76552 170.45 7.6586 169.561C7.62742 169.291 7.81898 169.048 8.08627 169.015C8.36025 168.983 8.59859 169.175 8.63201 169.443C8.72556 170.227 8.93717 170.97 9.25792 171.652C9.57645 172.325 10.0108 172.952 10.5499 173.518C10.737 173.714 10.7303 174.024 10.532 174.212C10.4363 174.303 10.316 174.348 10.1935 174.348ZM62.548 173.15C62.3297 173.15 62.1314 173.003 62.0735 172.782C62.0045 172.519 62.1626 172.252 62.4255 172.185C63.9646 171.784 65.555 171.358 67.1499 170.914C67.4105 170.843 67.6801 170.994 67.7536 171.255C67.8249 171.516 67.6734 171.786 67.4128 171.859C65.8112 172.303 64.2163 172.733 62.6705 173.135C62.6304 173.146 62.5881 173.15 62.548 173.15ZM71.9924 170.531C71.7808 170.531 71.5848 170.392 71.5224 170.178C71.4467 169.918 71.5937 169.646 71.8543 169.57C73.4069 169.113 74.9817 168.636 76.5387 168.154C76.7971 168.074 77.0711 168.219 77.1513 168.477C77.2315 168.736 77.0867 169.01 76.8283 169.09C75.2668 169.574 73.6876 170.053 72.1306 170.511C72.0838 170.524 72.037 170.531 71.9924 170.531ZM81.3567 167.63C81.1496 167.63 80.958 167.498 80.8912 167.291C80.8088 167.033 80.9491 166.756 81.2053 166.674C82.74 166.176 84.2881 165.664 85.8518 165.133C86.1079 165.046 86.3864 165.184 86.4732 165.441C86.5601 165.697 86.422 165.976 86.1658 166.063C84.5977 166.593 83.0452 167.108 81.5082 167.606C81.457 167.621 81.4057 167.63 81.3567 167.63ZM8.72333 165.162C8.67433 165.162 8.62532 165.155 8.57409 165.14C8.3157 165.057 8.17315 164.783 8.25556 164.524C8.70774 163.1 9.39826 161.568 10.3093 159.969C10.4429 159.733 10.7414 159.651 10.9775 159.787C11.2136 159.92 11.2938 160.219 11.1602 160.455C10.2826 161.994 9.621 163.463 9.18887 164.821C9.12205 165.03 8.93049 165.162 8.7211 165.162H8.72333ZM90.6431 164.491C90.4404 164.491 90.251 164.366 90.1798 164.163C90.0907 163.907 90.2243 163.628 90.4805 163.539C92.0041 163.004 93.5432 162.453 95.0913 161.891C95.3475 161.798 95.6259 161.929 95.7195 162.183C95.813 162.438 95.6816 162.718 95.4277 162.812C93.8751 163.376 92.336 163.929 90.8079 164.464C90.7544 164.484 90.6988 164.491 90.6453 164.491H90.6431ZM99.8537 161.14C99.6554 161.14 99.4683 161.02 99.3948 160.821C99.299 160.567 99.4282 160.284 99.6822 160.19C101.197 159.622 102.72 159.04 104.257 158.444C104.511 158.346 104.794 158.471 104.892 158.725C104.99 158.977 104.865 159.263 104.612 159.361C103.075 159.956 101.544 160.54 100.027 161.111C99.9695 161.131 99.9116 161.142 99.8559 161.142L99.8537 161.14ZM108.995 157.597C108.801 157.597 108.617 157.481 108.541 157.287C108.441 157.035 108.563 156.75 108.815 156.65C110.321 156.05 111.833 155.437 113.354 154.813C113.604 154.708 113.891 154.828 113.994 155.08C114.096 155.33 113.976 155.617 113.726 155.72C112.203 156.346 110.686 156.96 109.178 157.562C109.118 157.586 109.058 157.597 108.997 157.597H108.995ZM13.4322 156.61C13.3297 156.61 13.2295 156.578 13.1404 156.514C12.9221 156.353 12.8776 156.046 13.0379 155.827C13.9557 154.587 14.9981 153.294 16.1386 151.981C16.3168 151.776 16.6264 151.756 16.8291 151.932C17.034 152.11 17.0541 152.42 16.8781 152.623C15.7532 153.916 14.7264 155.192 13.8242 156.409C13.7285 156.538 13.5792 156.607 13.43 156.607L13.4322 156.61ZM118.065 153.876C117.874 153.876 117.693 153.765 117.613 153.575C117.509 153.326 117.627 153.038 117.876 152.933C119.371 152.304 120.872 151.665 122.38 151.011C122.627 150.902 122.917 151.018 123.024 151.268C123.131 151.515 123.017 151.805 122.768 151.912C121.257 152.565 119.752 153.207 118.255 153.838C118.192 153.865 118.128 153.876 118.065 153.876ZM127.064 149.99C126.875 149.99 126.697 149.881 126.617 149.698C126.508 149.451 126.619 149.161 126.866 149.052C128.352 148.394 129.84 147.727 131.335 147.049C131.582 146.938 131.871 147.047 131.983 147.295C132.094 147.542 131.985 147.832 131.738 147.943C130.241 148.621 128.748 149.29 127.26 149.948C127.196 149.977 127.129 149.99 127.062 149.99H127.064ZM19.8295 149.19C19.707 149.19 19.5823 149.143 19.4887 149.052C19.2949 148.862 19.2905 148.552 19.4798 148.358C20.5757 147.23 21.7563 146.066 22.9858 144.905C23.1841 144.717 23.4937 144.729 23.6786 144.925C23.8657 145.121 23.8545 145.431 23.6585 145.618C22.4379 146.773 21.2685 147.926 20.1814 149.045C20.0857 149.143 19.9587 149.194 19.8295 149.194V149.19ZM135.994 145.944C135.81 145.944 135.631 145.839 135.549 145.658C135.435 145.413 135.542 145.121 135.787 145.007C137.233 144.336 138.683 143.656 140.135 142.969L140.222 142.929C140.469 142.816 140.759 142.92 140.873 143.168C140.986 143.413 140.881 143.705 140.634 143.819L140.554 143.857C139.099 144.548 137.645 145.228 136.197 145.899C136.13 145.93 136.061 145.944 135.992 145.944H135.994ZM144.851 141.745C144.668 141.745 144.494 141.643 144.41 141.469C144.292 141.226 144.394 140.932 144.637 140.814C146.114 140.098 147.579 139.38 149.034 138.658C149.277 138.537 149.571 138.637 149.691 138.881C149.811 139.124 149.711 139.418 149.468 139.538C148.012 140.261 146.541 140.981 145.062 141.696C144.993 141.73 144.92 141.745 144.849 141.745H144.851ZM153.636 137.393C153.458 137.393 153.284 137.295 153.197 137.124C153.075 136.883 153.173 136.586 153.413 136.464C154.879 135.721 156.331 134.979 157.772 134.232C158.013 134.107 158.309 134.201 158.432 134.442C158.556 134.682 158.463 134.979 158.222 135.101C156.779 135.851 155.322 136.595 153.854 137.338C153.783 137.373 153.707 137.391 153.634 137.391L153.636 137.393ZM162.343 132.883C162.167 132.883 161.998 132.787 161.909 132.622C161.782 132.384 161.873 132.085 162.114 131.96C163.566 131.191 165.005 130.42 166.431 129.648C166.669 129.519 166.967 129.608 167.094 129.847C167.224 130.085 167.134 130.382 166.896 130.511C165.468 131.282 164.025 132.056 162.57 132.825C162.497 132.863 162.419 132.883 162.341 132.883H162.343ZM170.963 128.217C170.79 128.217 170.623 128.125 170.534 127.965C170.402 127.729 170.489 127.43 170.725 127.298C172.164 126.502 173.587 125.702 174.997 124.904C175.234 124.77 175.532 124.852 175.666 125.089C175.799 125.325 175.717 125.624 175.481 125.758C174.069 126.558 172.641 127.358 171.2 128.157C171.124 128.199 171.044 128.217 170.963 128.217ZM179.492 123.381C179.323 123.381 179.158 123.294 179.067 123.136C178.931 122.902 179.011 122.601 179.245 122.465C180.671 121.637 182.076 120.81 183.469 119.983C183.7 119.845 184.003 119.921 184.139 120.155C184.277 120.387 184.201 120.688 183.967 120.826C182.573 121.655 181.163 122.485 179.735 123.312C179.657 123.356 179.573 123.379 179.49 123.379L179.492 123.381ZM187.919 118.367C187.754 118.367 187.592 118.282 187.5 118.133C187.36 117.901 187.431 117.6 187.663 117.459C189.071 116.601 190.461 115.743 191.828 114.884C192.058 114.739 192.361 114.809 192.503 115.04C192.646 115.27 192.577 115.573 192.347 115.716C190.975 116.574 189.583 117.435 188.173 118.295C188.093 118.345 188.006 118.367 187.919 118.367ZM196.227 113.161C196.067 113.161 195.909 113.081 195.815 112.936C195.668 112.708 195.735 112.405 195.962 112.258C197.352 111.364 198.718 110.472 200.063 109.58C200.288 109.431 200.593 109.491 200.743 109.719C200.892 109.944 200.829 110.249 200.604 110.399C199.261 111.288 197.878 112.191 196.495 113.083C196.412 113.136 196.321 113.161 196.23 113.161H196.227ZM204.402 107.745C204.246 107.745 204.093 107.67 203.997 107.531C203.843 107.308 203.901 107.003 204.126 106.849C205.478 105.924 206.832 104.985 208.147 104.058C208.367 103.902 208.672 103.955 208.831 104.176C208.986 104.397 208.933 104.704 208.712 104.86C207.394 105.792 206.035 106.733 204.678 107.661C204.594 107.719 204.498 107.745 204.402 107.745ZM212.412 102.087C212.261 102.087 212.112 102.018 212.016 101.886C211.855 101.668 211.904 101.36 212.123 101.202C213.466 100.219 214.785 99.2354 216.045 98.2745C216.259 98.1095 216.569 98.1519 216.731 98.3681C216.894 98.5844 216.854 98.8921 216.638 99.0548C215.373 100.018 214.047 101.006 212.7 101.993C212.613 102.058 212.513 102.087 212.41 102.087H212.412ZM220.213 96.1475C220.068 96.1475 219.926 96.0829 219.83 95.9625C219.66 95.7507 219.696 95.4408 219.908 95.2736C221.217 94.2324 222.494 93.1912 223.701 92.1835C223.908 92.0096 224.218 92.0386 224.392 92.2459C224.565 92.4532 224.536 92.7631 224.329 92.937C223.118 93.9492 221.834 94.9949 220.518 96.0427C220.429 96.1141 220.32 96.1498 220.213 96.1498V96.1475ZM227.733 89.8536C227.597 89.8536 227.463 89.7979 227.365 89.6886C227.185 89.4858 227.205 89.1759 227.408 88.9975C228.666 87.8827 229.878 86.7725 231.012 85.6978C231.208 85.5106 231.517 85.5195 231.704 85.7157C231.892 85.9119 231.883 86.2218 231.687 86.409C230.544 87.4926 229.323 88.6118 228.056 89.731C227.962 89.8135 227.846 89.8536 227.731 89.8536H227.733ZM234.836 83.0938C234.714 83.0938 234.591 83.0469 234.495 82.9555C234.302 82.766 234.295 82.4561 234.484 82.2622C235.667 81.0404 236.774 79.832 237.779 78.6682C237.957 78.4631 238.264 78.4408 238.469 78.6169C238.674 78.793 238.696 79.1029 238.52 79.3081C237.505 80.4852 236.382 81.707 235.188 82.9422C235.092 83.0425 234.963 83.0915 234.836 83.0915V83.0938ZM241.213 75.6561C241.113 75.6561 241.011 75.6249 240.924 75.5603C240.706 75.3997 240.659 75.0921 240.819 74.8758C241.848 73.4734 242.737 72.109 243.461 70.8226C243.595 70.5862 243.893 70.5015 244.127 70.6353C244.363 70.769 244.448 71.0678 244.314 71.3019C243.572 72.624 242.661 74.0219 241.608 75.4555C241.512 75.587 241.363 75.6561 241.213 75.6561ZM245.858 67.0792C245.811 67.0792 245.762 67.0725 245.715 67.0591C245.457 66.9811 245.31 66.7069 245.39 66.446C245.762 65.222 245.951 64.0649 245.951 63.0059C245.951 62.6046 245.925 62.2122 245.871 61.8354C245.833 61.5679 246.02 61.3182 246.288 61.2803C246.555 61.2424 246.804 61.4296 246.842 61.6972C246.902 62.1186 246.931 62.5578 246.931 63.0059C246.931 64.1608 246.729 65.4138 246.328 66.7314C246.263 66.9432 246.069 67.0792 245.858 67.0792ZM244.203 57.9538C244.076 57.9538 243.951 57.907 243.855 57.8089C242.877 56.8257 241.543 56.003 239.89 55.3609C239.639 55.2628 239.514 54.9797 239.61 54.7255C239.708 54.4736 239.991 54.3487 240.245 54.4446C242.027 55.1357 243.474 56.0342 244.55 57.1133C244.742 57.305 244.74 57.6149 244.55 57.8067C244.454 57.9026 244.33 57.9494 244.205 57.9494L244.203 57.9538ZM235.335 54.1592C235.308 54.1592 235.282 54.1592 235.255 54.1525C233.796 53.9117 232.174 53.749 230.439 53.6709C230.17 53.6576 229.96 53.4302 229.971 53.1582C229.983 52.8884 230.212 52.6788 230.484 52.69C232.257 52.7725 233.916 52.9374 235.413 53.1849C235.68 53.2295 235.861 53.4814 235.816 53.749C235.776 53.9898 235.569 54.1592 235.333 54.1592H235.335ZM220.674 53.9407C220.422 53.9407 220.208 53.749 220.186 53.4926C220.162 53.2228 220.362 52.9865 220.632 52.962C222.342 52.8126 223.997 52.7145 225.548 52.6654C225.811 52.6587 226.044 52.8706 226.053 53.1403C226.062 53.4101 225.848 53.6375 225.579 53.6464C224.046 53.6932 222.409 53.7936 220.716 53.9385C220.703 53.9385 220.687 53.9385 220.674 53.9385V53.9407Z" fill="#FF8400"/>
<path d="M411.338 0.94751H274.498V407.509H411.338V0.94751Z" fill="white"/>
<path d="M411.34 408H274.498C274.226 408 274.008 407.781 274.008 407.509V0.947523C274.008 0.675523 274.226 0.457031 274.498 0.457031H411.34C411.612 0.457031 411.83 0.675523 411.83 0.947523V407.509C411.83 407.781 411.612 408 411.34 408ZM274.988 407.019H410.85V1.43801H274.988V407.019Z" fill="#313131"/>
<path d="M370.045 0.94751H202.695V407.509H370.045V0.94751Z" fill="white"/>
<path d="M370.043 408H202.693C202.421 408 202.203 407.781 202.203 407.509V0.947523C202.203 0.675523 202.421 0.457031 202.693 0.457031H370.043C370.315 0.457031 370.533 0.675523 370.533 0.947523V407.509C370.533 407.781 370.315 408 370.043 408ZM203.185 407.019H369.555V1.43801H203.185V407.019Z" fill="#313131"/>
<path d="M216.378 49.3011L356.359 49.3011V26.8611L216.378 26.8611V49.3011Z" fill="white"/>
<path d="M356.36 49.7916H216.379C216.107 49.7916 215.889 49.5731 215.889 49.3011V26.8611C215.889 26.5891 216.107 26.3706 216.379 26.3706H356.36C356.631 26.3706 356.85 26.5891 356.85 26.8611V49.3011C356.85 49.5731 356.631 49.7916 356.36 49.7916ZM216.869 48.8106H355.87V27.3516H216.869V48.8106Z" fill="#313131"/>
<path d="M340.45 44.1188C343.771 44.1141 346.46 41.4123 346.456 38.084C346.451 34.7557 343.755 32.0614 340.433 32.0661C337.112 32.0707 334.423 34.7726 334.427 38.1008C334.432 41.4291 337.128 44.1234 340.45 44.1188Z" fill="#D5E0BB"/>
<path d="M322.9 44.1142C326.222 44.1096 328.911 41.4078 328.906 38.0795C328.901 34.7512 326.205 32.0569 322.883 32.0615C319.562 32.0662 316.873 34.768 316.878 38.0963C316.882 41.4246 319.579 44.1189 322.9 44.1142Z" fill="#D5E0BB"/>
<path d="M305.347 44.1097C308.669 44.1051 311.358 41.4033 311.353 38.075C311.349 34.7467 308.652 32.0524 305.331 32.057C302.009 32.0617 299.32 34.7635 299.325 38.0918C299.329 41.42 302.026 44.1144 305.347 44.1097Z" fill="#D5E0BB"/>
<path d="M216.378 87.9987L356.359 87.9987V65.5587L216.378 65.5587V87.9987Z" fill="white"/>
<path d="M356.36 88.4892H216.379C216.107 88.4892 215.889 88.2707 215.889 87.9987V65.5609C215.889 65.2889 216.107 65.0704 216.379 65.0704H356.36C356.631 65.0704 356.85 65.2889 356.85 65.5609V87.9987C356.85 88.2707 356.631 88.4892 356.36 88.4892ZM216.869 87.5082H355.87V66.0492H216.869V87.5082Z" fill="#313131"/>
<path d="M334.428 76.7798C334.428 73.4511 337.121 70.7534 340.442 70.7534C343.763 70.7534 346.456 73.4511 346.456 76.7798C346.456 80.1084 343.763 82.8061 340.442 82.8061C337.121 82.8061 334.428 80.1084 334.428 76.7798Z" fill="#D5E0BB"/>
<path d="M316.878 76.7798C316.878 73.4511 319.571 70.7534 322.892 70.7534C326.213 70.7534 328.906 73.4511 328.906 76.7798C328.906 80.1084 326.213 82.8061 322.892 82.8061C319.571 82.8061 316.878 80.1084 316.878 76.7798Z" fill="#D5E0BB"/>
<path d="M299.325 76.7798C299.325 73.4511 302.018 70.7534 305.339 70.7534C308.661 70.7534 311.354 73.4511 311.354 76.7798C311.354 80.1084 308.661 82.8061 305.339 82.8061C302.018 82.8061 299.325 80.1084 299.325 76.7798Z" fill="#D5E0BB"/>
<path d="M216.378 270.43H356.359V247.99L216.378 247.99V270.43Z" fill="white"/>
<path d="M356.36 270.921H216.379C216.107 270.921 215.889 270.702 215.889 270.43V247.993C215.889 247.721 216.107 247.502 216.379 247.502H356.36C356.631 247.502 356.85 247.721 356.85 247.993V270.43C356.85 270.702 356.631 270.921 356.36 270.921ZM216.869 269.94H355.87V248.481H216.869V269.94Z" fill="#313131"/>
<path d="M334.428 259.211C334.428 255.883 337.121 253.185 340.442 253.185C343.763 253.185 346.456 255.883 346.456 259.211C346.456 262.54 343.763 265.238 340.442 265.238C337.121 265.238 334.428 262.54 334.428 259.211Z" fill="#D5E0BB"/>
<path d="M316.878 259.211C316.878 255.883 319.571 253.185 322.892 253.185C326.213 253.185 328.906 255.883 328.906 259.211C328.906 262.54 326.213 265.238 322.892 265.238C319.571 265.238 316.878 262.54 316.878 259.211Z" fill="#D5E0BB"/>
<path d="M299.325 259.211C299.325 255.883 302.018 253.185 305.339 253.185C308.661 253.185 311.354 255.883 311.354 259.211C311.354 262.54 308.661 265.238 305.339 265.238C302.018 265.238 299.325 262.54 299.325 259.211Z" fill="#D5E0BB"/>
<path d="M216.378 309.128H356.359V286.688H216.378V309.128Z" fill="white"/>
<path d="M356.36 309.618H216.379C216.107 309.618 215.889 309.4 215.889 309.128V286.688C215.889 286.416 216.107 286.198 216.379 286.198H356.36C356.631 286.198 356.85 286.416 356.85 286.688V309.128C356.85 309.4 356.631 309.618 356.36 309.618ZM216.869 308.637H355.87V287.178H216.869V308.637Z" fill="#313131"/>
<path d="M340.442 303.936C343.763 303.936 346.456 301.237 346.456 297.909C346.456 294.581 343.763 291.883 340.442 291.883C337.12 291.883 334.428 294.581 334.428 297.909C334.428 301.237 337.12 303.936 340.442 303.936Z" fill="#D5E0BB"/>
<path d="M322.892 303.936C326.214 303.936 328.906 301.237 328.906 297.909C328.906 294.581 326.214 291.883 322.892 291.883C319.571 291.883 316.878 294.581 316.878 297.909C316.878 301.237 319.571 303.936 322.892 303.936Z" fill="#D5E0BB"/>
<path d="M305.339 303.936C308.661 303.936 311.354 301.237 311.354 297.909C311.354 294.581 308.661 291.883 305.339 291.883C302.018 291.883 299.325 294.581 299.325 297.909C299.325 301.237 302.018 303.936 305.339 303.936Z" fill="#D5E0BB"/>
<path d="M216.378 159.865L356.359 159.865V137.425L216.378 137.425V159.865Z" fill="white"/>
<path d="M356.36 160.355H216.379C216.107 160.355 215.889 160.137 215.889 159.865V137.427C215.889 137.155 216.107 136.936 216.379 136.936H356.36C356.631 136.936 356.85 137.155 356.85 137.427V159.865C356.85 160.137 356.631 160.355 356.36 160.355ZM216.869 159.376H355.87V137.917H216.869V159.376Z" fill="#313131"/>
<path d="M340.442 154.672C343.763 154.672 346.456 151.974 346.456 148.646C346.456 145.317 343.763 142.619 340.442 142.619C337.12 142.619 334.428 145.317 334.428 148.646C334.428 151.974 337.12 154.672 340.442 154.672Z" fill="#D5E0BB"/>
<path d="M322.892 154.672C326.214 154.672 328.906 151.974 328.906 148.646C328.906 145.317 326.214 142.619 322.892 142.619C319.571 142.619 316.878 145.317 316.878 148.646C316.878 151.974 319.571 154.672 322.892 154.672Z" fill="#D5E0BB"/>
<path d="M305.339 154.672C308.661 154.672 311.354 151.974 311.354 148.646C311.354 145.317 308.661 142.619 305.339 142.619C302.018 142.619 299.325 145.317 299.325 148.646C299.325 151.974 302.018 154.672 305.339 154.672Z" fill="#D5E0BB"/>
<path d="M216.378 198.564L356.359 198.564V176.124L216.378 176.124V198.564Z" fill="white"/>
<path d="M356.36 199.055H216.379C216.107 199.055 215.889 198.836 215.889 198.564V176.124C215.889 175.852 216.107 175.634 216.379 175.634H356.36C356.631 175.634 356.85 175.852 356.85 176.124V198.564C356.85 198.836 356.631 199.055 356.36 199.055ZM216.869 198.074H355.87V176.615H216.869V198.074Z" fill="#313131"/>
<path d="M334.428 187.343C334.428 184.015 337.121 181.317 340.442 181.317C343.763 181.317 346.456 184.015 346.456 187.343C346.456 190.672 343.763 193.37 340.442 193.37C337.121 193.37 334.428 190.672 334.428 187.343Z" fill="#D5E0BB"/>
<path d="M316.878 187.343C316.878 184.015 319.571 181.317 322.892 181.317C326.213 181.317 328.906 184.015 328.906 187.343C328.906 190.672 326.213 193.37 322.892 193.37C319.571 193.37 316.878 190.672 316.878 187.343Z" fill="#D5E0BB"/>
<path d="M299.325 187.343C299.325 184.015 302.018 181.317 305.339 181.317C308.661 181.317 311.354 184.015 311.354 187.343C311.354 190.672 308.661 193.37 305.339 193.37C302.018 193.37 299.325 190.672 299.325 187.343Z" fill="#D5E0BB"/>
<path d="M610.51 0.94751H473.67V407.509H610.51V0.94751Z" fill="white"/>
<path d="M610.51 408H473.67C473.398 408 473.18 407.781 473.18 407.509V0.947523C473.18 0.675523 473.398 0.457031 473.67 0.457031H610.51C610.782 0.457031 611 0.675523 611 0.947523V407.509C611 407.781 610.782 408 610.51 408ZM474.16 407.019H610.022V1.43801H474.16V407.019Z" fill="#313131"/>
<path d="M569.217 0.94751H401.867V407.509H569.217V0.94751Z" fill="white"/>
<path d="M569.215 408H401.865C401.593 408 401.375 407.781 401.375 407.509V0.947523C401.375 0.675523 401.593 0.457031 401.865 0.457031H569.215C569.487 0.457031 569.705 0.675523 569.705 0.947523V407.509C569.705 407.781 569.487 408 569.215 408ZM402.357 407.019H568.727V1.43801H402.357V407.019Z" fill="#313131"/>
<path d="M415.55 49.3011L555.531 49.3011V26.8611L415.55 26.8611V49.3011Z" fill="white"/>
<path d="M555.532 49.7916H415.551C415.279 49.7916 415.061 49.5731 415.061 49.3011V26.8611C415.061 26.5891 415.279 26.3706 415.551 26.3706H555.532C555.803 26.3706 556.022 26.5891 556.022 26.8611V49.3011C556.022 49.5731 555.803 49.7916 555.532 49.7916ZM416.041 48.8106H555.042V27.3516H416.041V48.8106Z" fill="#313131"/>
<path d="M539.622 44.1169C542.943 44.1123 545.632 41.4104 545.628 38.0822C545.623 34.7539 542.927 32.0596 539.605 32.0642C536.283 32.0689 533.595 34.7707 533.599 38.099C533.604 41.4272 536.3 44.1216 539.622 44.1169Z" fill="#D5E0BB"/>
<path d="M522.072 44.1191C525.394 44.1145 528.082 41.4126 528.078 38.0844C528.073 34.7561 525.377 32.0618 522.055 32.0664C518.734 32.0711 516.045 34.7729 516.049 38.1012C516.054 41.4294 518.75 44.1238 522.072 44.1191Z" fill="#D5E0BB"/>
<path d="M504.519 44.119C507.841 44.1144 510.53 41.4125 510.525 38.0843C510.52 34.756 507.824 32.0617 504.502 32.0663C501.181 32.0709 498.492 34.7728 498.497 38.1011C498.501 41.4293 501.198 44.1237 504.519 44.119Z" fill="#FF8400"/>
<path d="M415.55 88.9641L555.531 88.9641V65.5587L415.55 65.5587V88.9641Z" fill="white"/>
<path d="M555.532 89.4546H415.551C415.279 89.4546 415.061 89.2361 415.061 88.9641V65.5587C415.061 65.2867 415.279 65.0682 415.551 65.0682H555.532C555.803 65.0682 556.022 65.2867 556.022 65.5587V88.9641C556.022 89.2361 555.803 89.4546 555.532 89.4546ZM416.041 88.4736H555.042V66.0492H416.041V88.4736Z" fill="#313131"/>
<path d="M533.6 76.7799C533.6 73.4512 536.293 70.7535 539.614 70.7535C542.935 70.7535 545.628 73.4512 545.628 76.7799C545.628 80.1086 542.935 82.8063 539.614 82.8063C536.293 82.8063 533.6 80.1086 533.6 76.7799Z" fill="#D5E0BB"/>
<path d="M516.05 76.7799C516.05 73.4512 518.743 70.7535 522.064 70.7535C525.385 70.7535 528.078 73.4512 528.078 76.7799C528.078 80.1086 525.385 82.8063 522.064 82.8063C518.743 82.8063 516.05 80.1086 516.05 76.7799Z" fill="#FF8400"/>
<path d="M498.497 76.7799C498.497 73.4512 501.19 70.7535 504.511 70.7535C507.832 70.7535 510.525 73.4512 510.525 76.7799C510.525 80.1086 507.832 82.8063 504.511 82.8063C501.19 82.8063 498.497 80.1086 498.497 76.7799Z" fill="#D5E0BB"/>
<path d="M415.55 270.43H555.531V247.99L415.55 247.99V270.43Z" fill="white"/>
<path d="M555.532 270.921H415.551C415.279 270.921 415.061 270.702 415.061 270.43V247.993C415.061 247.721 415.279 247.502 415.551 247.502H555.532C555.803 247.502 556.022 247.721 556.022 247.993V270.43C556.022 270.702 555.803 270.921 555.532 270.921ZM416.041 269.94H555.042V248.481H416.041V269.94Z" fill="#313131"/>
<path d="M533.6 259.211C533.6 255.883 536.293 253.185 539.614 253.185C542.935 253.185 545.628 255.883 545.628 259.211C545.628 262.54 542.935 265.238 539.614 265.238C536.293 265.238 533.6 262.54 533.6 259.211Z" fill="#D5E0BB"/>
<path d="M516.05 259.211C516.05 255.883 518.743 253.185 522.064 253.185C525.385 253.185 528.078 255.883 528.078 259.211C528.078 262.54 525.385 265.238 522.064 265.238C518.743 265.238 516.05 262.54 516.05 259.211Z" fill="#D5E0BB"/>
<path d="M498.497 259.211C498.497 255.883 501.19 253.185 504.511 253.185C507.832 253.185 510.525 255.883 510.525 259.211C510.525 262.54 507.832 265.238 504.511 265.238C501.19 265.238 498.497 262.54 498.497 259.211Z" fill="#D5E0BB"/>
<path d="M415.55 309.128H555.531V286.688H415.55V309.128Z" fill="white"/>
<path d="M555.532 309.618H415.551C415.279 309.618 415.061 309.4 415.061 309.128V286.688C415.061 286.416 415.279 286.198 415.551 286.198H555.532C555.803 286.198 556.022 286.416 556.022 286.688V309.128C556.022 309.4 555.803 309.618 555.532 309.618ZM416.041 308.637H555.042V287.178H416.041V308.637Z" fill="#313131"/>
<path d="M539.614 303.936C542.935 303.936 545.628 301.237 545.628 297.909C545.628 294.581 542.935 291.883 539.614 291.883C536.292 291.883 533.6 294.581 533.6 297.909C533.6 301.237 536.292 303.936 539.614 303.936Z" fill="#D5E0BB"/>
<path d="M522.064 303.936C525.386 303.936 528.078 301.237 528.078 297.909C528.078 294.581 525.386 291.883 522.064 291.883C518.742 291.883 516.05 294.581 516.05 297.909C516.05 301.237 518.742 303.936 522.064 303.936Z" fill="#D5E0BB"/>
<path d="M504.511 303.936C507.833 303.936 510.525 301.237 510.525 297.909C510.525 294.581 507.833 291.883 504.511 291.883C501.19 291.883 498.497 294.581 498.497 297.909C498.497 301.237 501.19 303.936 504.511 303.936Z" fill="#D5E0BB"/>
<path d="M415.55 159.865L555.531 159.865V137.425L415.55 137.425V159.865Z" fill="white"/>
<path d="M555.532 160.355H415.551C415.279 160.355 415.061 160.137 415.061 159.865V137.427C415.061 137.155 415.279 136.936 415.551 136.936H555.532C555.803 136.936 556.022 137.155 556.022 137.427V159.865C556.022 160.137 555.803 160.355 555.532 160.355ZM416.041 159.376H555.042V137.917H416.041V159.376Z" fill="#313131"/>
<path d="M539.614 154.672C542.935 154.672 545.628 151.974 545.628 148.646C545.628 145.317 542.935 142.619 539.614 142.619C536.292 142.619 533.6 145.317 533.6 148.646C533.6 151.974 536.292 154.672 539.614 154.672Z" fill="#D5E0BB"/>
<path d="M522.064 154.672C525.386 154.672 528.078 151.974 528.078 148.646C528.078 145.317 525.386 142.619 522.064 142.619C518.742 142.619 516.05 145.317 516.05 148.646C516.05 151.974 518.742 154.672 522.064 154.672Z" fill="#D5E0BB"/>
<path d="M504.511 154.672C507.833 154.672 510.525 151.974 510.525 148.646C510.525 145.317 507.833 142.619 504.511 142.619C501.19 142.619 498.497 145.317 498.497 148.646C498.497 151.974 501.19 154.672 504.511 154.672Z" fill="#D5E0BB"/>
<path d="M415.55 198.564L555.531 198.564V176.124L415.55 176.124V198.564Z" fill="white"/>
<path d="M555.532 199.055H415.551C415.279 199.055 415.061 198.836 415.061 198.564V176.124C415.061 175.852 415.279 175.634 415.551 175.634H555.532C555.803 175.634 556.022 175.852 556.022 176.124V198.564C556.022 198.836 555.803 199.055 555.532 199.055ZM416.041 198.074H555.042V176.615H416.041V198.074Z" fill="#313131"/>
<path d="M533.6 187.343C533.6 184.015 536.293 181.317 539.614 181.317C542.935 181.317 545.628 184.015 545.628 187.343C545.628 190.672 542.935 193.37 539.614 193.37C536.293 193.37 533.6 190.672 533.6 187.343Z" fill="#D5E0BB"/>
<path d="M516.05 187.343C516.05 184.015 518.743 181.317 522.064 181.317C525.385 181.317 528.078 184.015 528.078 187.343C528.078 190.672 525.385 193.37 522.064 193.37C518.743 193.37 516.05 190.672 516.05 187.343Z" fill="#D5E0BB"/>
<path d="M498.497 187.343C498.497 184.015 501.19 181.317 504.511 181.317C507.832 181.317 510.525 184.015 510.525 187.343C510.525 190.672 507.832 193.37 504.511 193.37C501.19 193.37 498.497 190.672 498.497 187.343Z" fill="#FF8400"/>
<path d="M409.069 190.527L425.929 282.1C428.345 295.227 424.187 308.709 414.796 318.186L350.446 383.128L341.454 405.886C340.559 408.154 337.28 407.929 336.703 405.559L323.155 349.948C321.948 344.996 323.409 339.773 327.007 336.167L382.816 279.743L371.95 192.647L409.073 190.525L409.069 190.527Z" fill="white"/>
<path d="M339.142 407.96C339.068 407.96 338.995 407.958 338.921 407.953C337.596 407.862 336.538 406.968 336.224 405.677L322.676 350.066C321.438 344.983 322.963 339.525 326.657 335.822L382.297 279.569L371.46 192.71C371.442 192.576 371.482 192.44 371.569 192.335C371.656 192.23 371.783 192.168 371.919 192.159L409.042 190.037C409.273 190.025 409.507 190.193 409.552 190.438L426.412 282.01C428.857 295.292 424.643 308.945 415.143 318.532L350.865 383.402L341.908 406.067C341.447 407.233 340.376 407.958 339.144 407.958L339.142 407.96ZM372.498 193.109L383.299 279.683C383.317 279.832 383.268 279.982 383.161 280.089L327.352 336.513C323.897 339.978 322.471 345.081 323.629 349.832L337.177 405.443C337.433 406.497 338.282 406.923 338.99 406.972C339.701 407.023 340.598 406.714 340.997 405.706L349.989 382.947C350.014 382.885 350.049 382.829 350.096 382.782L414.446 317.841C423.721 308.481 427.833 295.153 425.445 282.189L408.663 191.04L372.496 193.107L372.498 193.109Z" fill="#313131"/>
<path d="M348.851 191.441C348.851 191.441 344.599 216.454 348.851 233.639C353.103 250.822 380.86 407.51 380.86 407.51H444.22C447.298 407.51 448.815 403.759 446.601 401.617L428.483 384.066L381.904 192.879L348.851 191.441Z" fill="white"/>
<path d="M444.223 408H380.862C380.624 408 380.421 407.83 380.379 407.594C380.101 406.027 352.576 250.728 348.377 233.755C344.147 216.67 348.326 191.608 348.37 191.356C348.41 191.113 348.635 190.937 348.874 190.948L381.929 192.386C382.199 192.398 382.408 192.627 382.397 192.897C382.386 193.167 382.157 193.392 381.887 193.365L349.268 191.945C348.74 195.316 345.452 217.85 349.328 233.516C353.431 250.091 379.698 398.128 381.272 407.014H444.223C445.682 407.014 446.586 406.065 446.945 405.177C447.304 404.29 447.312 402.979 446.266 401.965L428.147 384.414C428.08 384.349 428.034 384.267 428.011 384.178L392.024 236.47C391.873 235.759 388.438 219.366 392.096 215.705C392.287 215.513 392.597 215.513 392.788 215.705C392.98 215.897 392.98 216.206 392.788 216.398C390.062 219.127 392 231.657 392.978 236.252L428.927 383.808L446.945 401.26C448.114 402.393 448.462 404.036 447.851 405.545C447.241 407.057 445.849 407.995 444.221 407.995L444.223 408Z" fill="#313131"/>
<path d="M383.983 391.591C383.72 391.591 383.504 391.383 383.493 391.118C383.481 390.846 383.693 390.621 383.965 390.61C405.518 389.838 428.129 383.656 428.354 383.593C428.615 383.524 428.884 383.674 428.955 383.937C429.027 384.198 428.873 384.467 428.612 384.539C428.385 384.601 405.665 390.815 383.998 391.589C383.992 391.589 383.987 391.589 383.98 391.589L383.983 391.591Z" fill="#313131"/>
<path d="M350.446 383.618C350.279 383.618 350.114 383.531 350.023 383.377C349.871 383.121 334.818 357.424 332.749 337.489C332.722 337.22 332.916 336.979 333.185 336.95C333.459 336.93 333.695 337.119 333.724 337.387C335.771 357.105 350.715 382.621 350.867 382.876C351.005 383.11 350.927 383.411 350.693 383.547C350.615 383.593 350.528 383.616 350.444 383.616L350.446 383.618Z" fill="#313131"/>
<path d="M440.904 162.959C440.904 162.959 419.87 166.787 405.663 166.241C391.458 165.695 386.54 108.82 386.54 108.82L402.821 109.879C402.821 109.879 423.692 143.273 424.512 144.914C425.331 146.554 440.904 162.959 440.904 162.959Z" fill="#FF8400"/>
<path d="M316.099 134.981L320.894 108.903C322.679 99.2042 331.831 92.6762 341.572 94.1522L390.213 101.525C398.045 102.713 404.217 108.822 405.489 116.648C409.069 138.662 415.938 181.112 416.513 186.102C417.295 192.875 407.405 196.259 389.447 196.781C371.491 197.303 349.11 196.001 343.385 191.312C337.661 186.623 331.415 147.29 331.415 147.29L316.099 134.983V134.981Z" fill="#FF8400"/>
<path d="M386.057 168.23L356.394 136.597C356.046 136.25 356.075 135.572 356.525 135.572L442.336 137.191L457.505 166.268L386.059 168.23H386.057Z" fill="#313131"/>
<path d="M395.935 114.699L383.631 165.135C383.248 166.709 384.437 168.227 386.057 168.227H455.064C456.235 168.227 457.251 167.411 457.503 166.266L468.785 115.08C469.132 113.509 467.925 112.024 466.319 112.042L398.334 112.791C397.194 112.804 396.205 113.589 395.935 114.697V114.699Z" fill="#313131"/>
<path d="M426.603 141.295C428.183 141.295 429.463 140.013 429.463 138.432C429.463 136.851 428.183 135.57 426.603 135.57C425.024 135.57 423.743 136.851 423.743 138.432C423.743 140.013 425.024 141.295 426.603 141.295Z" fill="#FF8400"/>
<path d="M381.096 143.188L380.256 168.268L332.475 168.299C321.126 168.346 312.434 158.208 314.203 146.989L316.096 134.983L381.096 143.188Z" fill="#FF8400"/>
<path d="M378.953 143.266C378.933 143.266 378.911 143.266 378.891 143.262L334.018 137.507C333.749 137.474 333.559 137.226 333.595 136.959C333.631 136.689 333.874 136.506 334.143 136.535L379.016 142.289C379.285 142.323 379.474 142.57 379.439 142.838C379.408 143.085 379.196 143.266 378.953 143.266Z" fill="#313131"/>
<path d="M344.949 138.925C344.924 138.925 344.897 138.925 344.871 138.918C344.603 138.876 344.421 138.624 344.463 138.357L347.586 118.732C347.628 118.465 347.88 118.282 348.147 118.324C348.415 118.367 348.597 118.619 348.555 118.886L345.432 138.51C345.394 138.751 345.185 138.923 344.949 138.923V138.925Z" fill="#313131"/>
<path d="M377.862 169.175H337.371C337.099 169.175 336.881 168.957 336.881 168.685C336.881 168.413 337.099 168.194 337.371 168.194H377.862C378.134 168.194 378.352 168.413 378.352 168.685C378.352 168.957 378.134 169.175 377.862 169.175Z" fill="#313131"/>
<path d="M465.89 139.714C465.89 139.714 466.324 137.431 464.491 135.931C464.114 135.623 463.64 135.347 463.047 135.131C459.573 133.866 454.046 132.917 452.625 134.025C451.204 135.133 451.992 137.817 456.1 139.242C456.1 139.242 449.467 139.4 449.152 142.561C448.838 145.723 456.1 147.145 456.1 147.145C456.1 147.145 450.257 146.987 449.783 148.726C449.308 150.465 455.467 153.627 455.467 153.627C455.467 153.627 453.1 153.943 452.941 155.996C452.783 158.052 458.626 160.422 458.626 160.422L457.993 163.267C457.993 163.267 461.94 162.478 464.152 156.627C466.364 150.779 465.89 139.714 465.89 139.714Z" fill="white"/>
<path d="M457.994 163.755C457.764 163.755 457.559 163.595 457.515 163.361C457.461 163.095 457.633 162.837 457.898 162.783C458.051 162.75 461.62 161.943 463.696 156.451C465.845 150.766 465.407 139.844 465.402 139.732C465.402 139.694 465.402 139.656 465.411 139.618C465.413 139.605 465.698 137.96 464.591 136.7C464.413 136.497 464.433 136.187 464.636 136.009C464.839 135.831 465.15 135.851 465.326 136.053C466.636 137.545 466.438 139.378 466.382 139.741C466.42 140.664 466.779 151.065 464.611 156.797C462.33 162.83 458.263 163.708 458.092 163.742C458.058 163.748 458.027 163.751 457.996 163.751L457.994 163.755Z" fill="#313131"/>
<path d="M379.446 144.387L378.608 167.28C378.608 167.28 395.025 165.953 401.162 163.441C407.298 160.928 407.234 156.841 401.759 157.789C401.759 157.789 408.969 155.218 408.969 153.196C408.969 151.174 406.024 150.164 399.691 151.377C399.691 151.377 410.065 148.949 409.39 145.984C408.717 143.019 398.208 144.771 398.208 144.771C398.208 144.771 404.135 141.939 403.999 139.648C403.866 137.356 394.974 139.648 394.974 139.648L389.719 140.86L391.2 135.331C391.2 135.331 387.16 136.95 385.273 138.836C383.386 140.722 379.441 144.387 379.441 144.387H379.446Z" fill="white"/>
<path d="M393.092 146.218C392.869 146.218 392.666 146.064 392.615 145.837C392.555 145.573 392.72 145.308 392.982 145.248L398.62 143.946C398.883 143.884 399.148 144.051 399.208 144.314C399.268 144.577 399.104 144.842 398.841 144.902L393.203 146.204C393.165 146.213 393.129 146.218 393.092 146.218Z" fill="#313131"/>
<path d="M394.742 152.989C394.515 152.989 394.313 152.831 394.264 152.599C394.208 152.333 394.377 152.073 394.642 152.017L401.236 150.628C401.501 150.572 401.759 150.742 401.817 151.007C401.873 151.272 401.703 151.533 401.438 151.589L394.845 152.978C394.811 152.984 394.776 152.989 394.742 152.989Z" fill="#313131"/>
<path d="M395.696 159.24C395.468 159.24 395.266 159.082 395.217 158.853C395.161 158.587 395.33 158.326 395.593 158.271L402.532 156.795C402.799 156.739 403.057 156.908 403.113 157.171C403.169 157.437 402.999 157.698 402.737 157.753L395.798 159.229C395.765 159.236 395.729 159.24 395.696 159.24Z" fill="#313131"/>
<path d="M382.346 102.457C382.346 102.457 375.887 107.451 363.593 105.264C351.3 103.077 344.254 102.834 352.061 89.2896C354.612 84.864 360.185 84.4493 362.644 85.816C365.103 87.1827 370.696 91.0464 377.526 90.7722C384.355 90.498 383.438 98.0805 382.346 102.457Z" fill="#FF8400"/>
<path d="M395.281 134.192C395.058 134.192 394.856 134.038 394.804 133.811L390.706 115.765C390.646 115.5 390.81 115.239 391.075 115.179C391.336 115.118 391.603 115.283 391.661 115.549L395.76 133.594C395.82 133.86 395.655 134.121 395.39 134.181C395.354 134.19 395.317 134.192 395.281 134.192Z" fill="#313131"/>
<path d="M371.905 107.177C363.635 107.177 355.275 101.967 351.477 97.6591C351.299 97.4562 351.317 97.1463 351.519 96.9657C351.722 96.7852 352.032 96.8052 352.212 97.0081C356.398 101.755 366.305 107.645 375.242 105.875C381.457 104.642 382.209 100.789 382.216 100.751C382.263 100.486 382.512 100.306 382.784 100.355C383.051 100.401 383.227 100.656 383.181 100.923C383.147 101.108 382.299 105.476 375.434 106.838C374.269 107.07 373.088 107.175 371.905 107.175V107.177Z" fill="#313131"/>
<path d="M360.815 90.7944C360.733 90.7944 360.648 90.7744 360.57 90.7276C359.091 89.8714 357.706 88.9083 356.452 87.8671C356.242 87.6954 356.213 87.3855 356.387 87.176C356.558 86.9686 356.868 86.9374 357.077 87.1113C358.291 88.1168 359.632 89.0487 361.062 89.8781C361.296 90.0141 361.376 90.3129 361.241 90.5492C361.149 90.7053 360.984 90.7944 360.815 90.7944Z" fill="#313131"/>
<path d="M379.439 95.9112C379.41 95.9112 378.737 95.9112 377.583 95.8175C377.314 95.7952 377.111 95.5589 377.134 95.2891C377.156 95.0194 377.399 94.8187 377.661 94.8388C378.771 94.928 379.432 94.928 379.439 94.928C379.711 94.928 379.929 95.1487 379.929 95.4185C379.929 95.6882 379.708 95.9089 379.439 95.9089V95.9112Z" fill="#313131"/>
<path d="M369.876 74.0931L360.861 90.2259C360.861 90.2259 367.789 94.7674 377.623 95.3158L384.628 79.8364L369.876 74.0954V74.0931Z" fill="white"/>
<path d="M379.585 91.4655C379.519 91.4655 379.45 91.4521 379.383 91.4209C379.136 91.3094 379.026 91.0196 379.138 90.7721L383.965 80.1039L370.092 74.7041L363.67 86.1972C363.539 86.4335 363.238 86.5182 363.004 86.3867C362.768 86.2551 362.683 85.9564 362.815 85.7201L369.446 73.8546C369.566 73.6406 369.825 73.547 370.052 73.6361L384.804 79.3793C384.929 79.4284 385.029 79.5265 385.081 79.6513C385.132 79.7762 385.13 79.9167 385.074 80.0393L380.033 91.1779C379.951 91.3585 379.773 91.4655 379.585 91.4655Z" fill="#313131"/>
<path d="M388.567 67.0079C394.488 69.8817 397.207 69.7256 397.207 69.7256C397.207 69.7256 399.74 69.904 401.809 66.0848C403.879 62.2657 401.607 52.6364 389.313 53.6397C377.022 54.643 363.662 54.1681 369.371 60.3238C369.371 60.3238 360.721 63.8977 370.825 70.0199L371.041 76.49C371.041 76.49 368.179 89.6106 378.265 93.4097C388.351 97.2088 388.458 91.9293 390.013 87.9875C390.467 86.8326 391.276 84.786 392.187 82.4717C389.948 81.7828 386.974 81.1429 383.041 80.4496C374.521 78.9491 382.649 64.1362 388.571 67.0101L388.567 67.0079Z" fill="#313131"/>
<path d="M388.566 67.0077C382.646 64.1339 378.478 62.3948 376.723 68.2874C374.968 74.18 374.518 78.9445 383.038 80.4472C386.972 81.1405 389.945 81.7804 392.184 82.4693C394.387 76.8822 397.207 69.7255 397.207 69.7255C397.207 69.7255 394.489 69.8815 388.566 67.0077Z" fill="white"/>
<path d="M380.927 64.357V65.338C382.735 65.338 385.263 66.4928 388.139 67.8907C391.857 69.6944 394.369 70.3521 395.815 70.584L391.601 81.2767C389.529 80.697 386.827 80.1196 383.207 79.482C380.162 78.9446 378.242 77.9726 377.34 76.5122C376.198 74.6595 376.643 71.9975 377.663 68.5707C378.51 65.7259 379.788 65.3424 380.929 65.3424V64.3614L380.927 64.357ZM380.927 64.357C379.002 64.357 377.576 65.416 376.721 68.2876C374.966 74.1802 374.516 78.9446 383.036 80.4473C386.97 81.1407 389.943 81.7806 392.182 82.4695C394.385 76.8823 397.205 69.7256 397.205 69.7256C397.205 69.7256 397.178 69.7256 397.127 69.7256C396.644 69.7256 393.908 69.5985 388.565 67.0056C385.528 65.5319 382.951 64.357 380.924 64.3547L380.927 64.357Z" fill="#313131"/>
<path d="M373.827 72.9874C373.827 72.9874 373.056 65.6278 369.285 67.271C365.514 68.9141 367.227 76.4721 372.653 75.3351L373.827 72.9852V72.9874Z" fill="white"/>
<path d="M371.551 75.946C369.07 75.946 367.588 74.169 367.045 72.4635C366.385 70.39 366.875 67.7882 369.092 66.8228C370.001 66.426 370.843 66.4483 371.593 66.8875C373.794 68.1717 374.297 72.7444 374.317 72.9384C374.329 73.032 374.311 73.1256 374.268 73.2081L373.095 75.558C373.028 75.6918 372.903 75.7877 372.756 75.8189C372.331 75.9081 371.93 75.9482 371.551 75.9482V75.946ZM370.333 67.5229C370.067 67.5229 369.785 67.5898 369.482 67.7213C367.8 68.4548 367.452 70.5126 367.978 72.1647C368.488 73.77 369.889 75.3016 372.326 74.8981L373.326 72.8982C373.168 71.614 372.515 68.5596 371.099 67.7325C370.86 67.592 370.606 67.5229 370.333 67.5229Z" fill="#313131"/>
<path d="M371.578 73.527C371.357 73.527 371.157 73.3776 371.101 73.1524C370.881 72.2517 370.33 71.4157 369.593 70.856C369.377 70.6933 369.335 70.3856 369.497 70.1694C369.66 69.9531 369.967 69.9085 370.183 70.0735C371.112 70.7758 371.776 71.7858 372.054 72.9183C372.119 73.1814 371.959 73.4467 371.694 73.5114C371.656 73.5203 371.616 73.5248 371.578 73.5248V73.527Z" fill="#313131"/>
<path d="M244.895 174.802H163.254C156.741 174.802 151.462 180.086 151.462 186.605V264.718C151.462 277.197 158.447 288.623 169.549 294.304L205.52 312.706L239.267 294.467C249.999 288.666 256.69 277.44 256.69 265.231V186.605C256.69 180.086 251.411 174.802 244.898 174.802H244.895Z" fill="white"/>
<path d="M205.52 313.197C205.444 313.197 205.366 313.179 205.297 313.143L169.328 294.741C158.006 288.949 150.974 277.444 150.974 264.718V186.605C150.974 179.825 156.484 174.312 163.256 174.312H244.897C251.669 174.312 257.179 179.828 257.179 186.605V265.231C257.179 277.636 250.406 289.004 239.5 294.899L205.754 313.139C205.68 313.179 205.6 313.197 205.52 313.197ZM163.256 175.293C157.023 175.293 151.954 180.367 151.954 186.605V264.718C151.954 277.074 158.783 288.244 169.773 293.867L205.515 312.151L239.034 294.034C249.624 288.311 256.199 277.275 256.199 265.229V186.603C256.199 180.365 251.13 175.291 244.897 175.291H163.256V175.293Z" fill="#313131"/>
<path d="M174.166 285.266C166.419 281.301 161.605 273.429 161.605 264.721V186.608C161.605 185.698 162.345 184.958 163.254 184.958H244.895C245.804 184.958 246.543 185.698 246.543 186.608V265.233C246.543 273.721 241.908 281.502 234.444 285.535L205.389 301.238L174.164 285.263L174.166 285.266Z" fill="#C3D600"/>
<path d="M203.176 265.153C203.094 265.169 203.009 265.184 202.927 265.196C200.73 265.532 198.505 264.792 196.948 263.207L180.648 246.61C177.97 243.886 178.008 239.505 180.732 236.825C183.45 234.143 187.831 234.183 190.509 236.91L200.087 246.664L216.038 215.444C217.777 212.04 221.94 210.695 225.342 212.434C228.741 214.173 230.086 218.345 228.349 221.747L208.034 261.51C207.061 263.414 205.266 264.756 203.176 265.155V265.153Z" fill="white"/>
<path d="M164.011 342.406H159.111C158.839 342.406 158.621 342.187 158.621 341.915C158.621 341.643 158.839 341.425 159.111 341.425H164.011C164.283 341.425 164.501 341.643 164.501 341.915C164.501 342.187 164.283 342.406 164.011 342.406ZM154.212 342.406H149.312C149.04 342.406 148.822 342.187 148.822 341.915C148.822 341.643 149.04 341.425 149.312 341.425H154.212C154.484 341.425 154.703 341.643 154.703 341.915C154.703 342.187 154.484 342.406 154.212 342.406ZM144.412 342.406H139.511C139.239 342.406 139.021 342.187 139.021 341.915C139.021 341.643 139.239 341.425 139.511 341.425H144.412C144.683 341.425 144.902 341.643 144.902 341.915C144.902 342.187 144.683 342.406 144.412 342.406ZM134.613 342.406H129.713C129.441 342.406 129.222 342.187 129.222 341.915C129.222 341.643 129.441 341.425 129.713 341.425H134.613C134.885 341.425 135.103 341.643 135.103 341.915C135.103 342.187 134.885 342.406 134.613 342.406ZM124.814 342.406H119.914C119.642 342.406 119.424 342.187 119.424 341.915C119.424 341.643 119.642 341.425 119.914 341.425H124.814C125.086 341.425 125.304 341.643 125.304 341.915C125.304 342.187 125.086 342.406 124.814 342.406ZM165.769 339.258C165.497 339.258 165.279 339.039 165.279 338.767V333.862C165.279 333.59 165.497 333.372 165.769 333.372C166.04 333.372 166.259 333.59 166.259 333.862V338.767C166.259 339.039 166.04 339.258 165.769 339.258ZM165.769 329.45C165.497 329.45 165.279 329.231 165.279 328.959V324.055C165.279 323.783 165.497 323.564 165.769 323.564C166.04 323.564 166.259 323.783 166.259 324.055V328.959C166.259 329.231 166.04 329.45 165.769 329.45ZM165.769 319.642C165.497 319.642 165.279 319.424 165.279 319.152V314.247C165.279 313.975 165.497 313.756 165.769 313.756C166.04 313.756 166.259 313.975 166.259 314.247V319.152C166.259 319.424 166.04 319.642 165.769 319.642ZM165.769 309.833C165.497 309.833 165.279 309.614 165.279 309.342V304.437C165.279 304.165 165.497 303.947 165.769 303.947C166.04 303.947 166.259 304.165 166.259 304.437V309.342C166.259 309.614 166.04 309.833 165.769 309.833Z" fill="#FF8400"/>
<path d="M447.654 226.939H446.968C446.696 226.939 446.478 226.721 446.478 226.449C446.478 226.177 446.696 225.958 446.968 225.958H447.164V222.231C447.164 221.959 447.382 221.74 447.654 221.74C447.926 221.74 448.144 221.959 448.144 222.231V226.449C448.144 226.721 447.926 226.939 447.654 226.939ZM442.068 226.939H437.167C436.896 226.939 436.677 226.721 436.677 226.449C436.677 226.177 436.896 225.958 437.167 225.958H442.068C442.339 225.958 442.558 226.177 442.558 226.449C442.558 226.721 442.339 226.939 442.068 226.939ZM432.269 226.939H427.369C427.097 226.939 426.879 226.721 426.879 226.449C426.879 226.177 427.097 225.958 427.369 225.958H432.269C432.541 225.958 432.759 226.177 432.759 226.449C432.759 226.721 432.541 226.939 432.269 226.939ZM422.47 226.939H417.57C417.298 226.939 417.08 226.721 417.08 226.449C417.08 226.177 417.298 225.958 417.57 225.958H422.47C422.742 225.958 422.96 226.177 422.96 226.449C422.96 226.721 422.742 226.939 422.47 226.939ZM412.67 226.939H407.769C407.497 226.939 407.279 226.721 407.279 226.449C407.279 226.177 407.497 225.958 407.769 225.958H412.67C412.941 225.958 413.16 226.177 413.16 226.449C413.16 226.721 412.941 226.939 412.67 226.939ZM402.871 226.939H397.97C397.699 226.939 397.48 226.721 397.48 226.449C397.48 226.177 397.699 225.958 397.97 225.958H402.871C403.143 225.958 403.361 226.177 403.361 226.449C403.361 226.721 403.143 226.939 402.871 226.939ZM393.07 226.939H388.17C387.898 226.939 387.68 226.721 387.68 226.449C387.68 226.177 387.898 225.958 388.17 225.958H393.07C393.342 225.958 393.56 226.177 393.56 226.449C393.56 226.721 393.342 226.939 393.07 226.939ZM383.271 226.939H378.371C378.099 226.939 377.881 226.721 377.881 226.449C377.881 226.177 378.099 225.958 378.371 225.958H383.271C383.543 225.958 383.761 226.177 383.761 226.449C383.761 226.721 383.543 226.939 383.271 226.939ZM373.473 226.939H368.572C368.301 226.939 368.082 226.721 368.082 226.449C368.082 226.177 368.301 225.958 368.572 225.958H373.473C373.744 225.958 373.963 226.177 373.963 226.449C373.963 226.721 373.744 226.939 373.473 226.939ZM363.672 226.939H358.771C358.5 226.939 358.281 226.721 358.281 226.449C358.281 226.177 358.5 225.958 358.771 225.958H363.672C363.944 225.958 364.162 226.177 364.162 226.449C364.162 226.721 363.944 226.939 363.672 226.939ZM353.873 226.939H348.973C348.701 226.939 348.483 226.721 348.483 226.449C348.483 226.177 348.701 225.958 348.973 225.958H353.873C354.145 225.958 354.363 226.177 354.363 226.449C354.363 226.721 354.145 226.939 353.873 226.939ZM344.072 226.939H339.172C338.9 226.939 338.682 226.721 338.682 226.449C338.682 226.177 338.9 225.958 339.172 225.958H344.072C344.344 225.958 344.562 226.177 344.562 226.449C344.562 226.721 344.344 226.939 344.072 226.939ZM334.274 226.939H329.373C329.101 226.939 328.883 226.721 328.883 226.449C328.883 226.177 329.101 225.958 329.373 225.958H334.274C334.545 225.958 334.764 226.177 334.764 226.449C334.764 226.721 334.545 226.939 334.274 226.939ZM324.475 226.939H319.575C319.303 226.939 319.085 226.721 319.085 226.449C319.085 226.177 319.303 225.958 319.575 225.958H324.475C324.747 225.958 324.965 226.177 324.965 226.449C324.965 226.721 324.747 226.939 324.475 226.939ZM314.674 226.939H309.774C309.502 226.939 309.284 226.721 309.284 226.449C309.284 226.177 309.502 225.958 309.774 225.958H314.674C314.946 225.958 315.164 226.177 315.164 226.449C315.164 226.721 314.946 226.939 314.674 226.939ZM304.875 226.939H299.975C299.703 226.939 299.485 226.721 299.485 226.449C299.485 226.177 299.703 225.958 299.975 225.958H304.875C305.147 225.958 305.366 226.177 305.366 226.449C305.366 226.721 305.147 226.939 304.875 226.939ZM295.075 226.939H290.174C289.902 226.939 289.684 226.721 289.684 226.449C289.684 226.177 289.902 225.958 290.174 225.958H295.075C295.346 225.958 295.565 226.177 295.565 226.449C295.565 226.721 295.346 226.939 295.075 226.939ZM285.276 226.939H280.376C280.104 226.939 279.885 226.721 279.885 226.449C279.885 226.177 280.104 225.958 280.376 225.958H285.276C285.548 225.958 285.766 226.177 285.766 226.449C285.766 226.721 285.548 226.939 285.276 226.939ZM275.477 226.939H270.577C270.305 226.939 270.087 226.721 270.087 226.449C270.087 226.177 270.305 225.958 270.577 225.958H275.477C275.749 225.958 275.967 226.177 275.967 226.449C275.967 226.721 275.749 226.939 275.477 226.939ZM265.676 226.939H261.562C261.291 226.939 261.072 226.721 261.072 226.449C261.072 226.177 261.291 225.958 261.562 225.958H265.676C265.948 225.958 266.166 226.177 266.166 226.449C266.166 226.721 265.948 226.939 265.676 226.939ZM447.654 217.819C447.382 217.819 447.164 217.6 447.164 217.328V212.423C447.164 212.151 447.382 211.933 447.654 211.933C447.926 211.933 448.144 212.151 448.144 212.423V217.328C448.144 217.6 447.926 217.819 447.654 217.819ZM447.654 208.009C447.382 208.009 447.164 207.79 447.164 207.518V202.613C447.164 202.341 447.382 202.123 447.654 202.123C447.926 202.123 448.144 202.341 448.144 202.613V207.518C448.144 207.79 447.926 208.009 447.654 208.009ZM447.654 198.201C447.382 198.201 447.164 197.983 447.164 197.711V192.806C447.164 192.534 447.382 192.315 447.654 192.315C447.926 192.315 448.144 192.534 448.144 192.806V197.711C448.144 197.983 447.926 198.201 447.654 198.201ZM447.654 188.391C447.382 188.391 447.164 188.173 447.164 187.901V182.996C447.164 182.724 447.382 182.505 447.654 182.505C447.926 182.505 448.144 182.724 448.144 182.996V187.901C448.144 188.173 447.926 188.391 447.654 188.391ZM447.654 178.584C447.382 178.584 447.164 178.365 447.164 178.093V173.188C447.164 172.916 447.382 172.698 447.654 172.698C447.926 172.698 448.144 172.916 448.144 173.188V178.093C448.144 178.365 447.926 178.584 447.654 178.584Z" fill="#FF8400"/>
<path d="M62.6561 376.23C62.7118 375.971 62.7474 375.712 62.7697 375.454C65.4338 375.373 68.0288 374.894 70.4857 374.054C70.5993 374.288 70.7218 374.517 70.8644 374.74C72.7911 377.735 76.7761 378.6 79.7676 376.671C82.7591 374.743 83.6233 370.754 81.6966 367.76C81.554 367.537 81.3959 367.329 81.2288 367.131C83.0085 365.24 84.521 363.073 85.6949 360.681C85.9399 360.766 86.1894 360.842 86.4478 360.897C89.9248 361.651 93.3551 359.441 94.108 355.961C94.8609 352.481 92.6535 349.047 89.1764 348.294C88.918 348.238 88.6596 348.202 88.4012 348.18C88.3211 345.516 87.8422 342.916 87.0024 340.457C87.2341 340.343 87.4657 340.221 87.6885 340.078C90.68 338.15 91.5442 334.161 89.6174 331.167C87.6907 328.173 83.7057 327.307 80.7142 329.236C80.4915 329.379 80.2843 329.537 80.0861 329.704C78.1972 327.923 76.0321 326.409 73.642 325.234C73.7267 324.989 73.8024 324.739 73.8581 324.48C74.611 321 72.4035 317.567 68.9265 316.813C65.4494 316.06 62.0191 318.269 61.2662 321.749C61.2105 322.008 61.1749 322.267 61.1526 322.525C58.4908 322.605 55.8935 323.085 53.4366 323.925C53.323 323.691 53.2005 323.462 53.0579 323.239C51.1312 320.244 47.1462 319.379 44.1547 321.308C41.1632 323.236 40.299 327.225 42.2258 330.219C42.3683 330.442 42.5265 330.65 42.6935 330.848C40.9138 332.739 39.4013 334.906 38.2274 337.298C37.9824 337.213 37.7329 337.137 37.4746 337.082C33.9975 336.328 30.5672 338.538 29.8143 342.018C29.0614 345.498 31.2688 348.931 34.7459 349.685C35.0043 349.741 35.2627 349.776 35.5211 349.801C35.6013 352.467 36.0802 355.065 36.9199 357.524C36.6883 357.638 36.4566 357.76 36.2339 357.903C33.2424 359.832 32.3781 363.82 34.3049 366.814C36.2316 369.809 40.2166 370.674 43.2081 368.745C43.4308 368.602 43.638 368.444 43.8362 368.277C45.7251 370.058 47.8902 371.572 50.2803 372.747C50.1956 372.992 50.1199 373.242 50.0642 373.501C49.3113 376.981 51.5188 380.414 54.9958 381.168C58.4729 381.922 61.9032 379.712 62.6561 376.232V376.23ZM50.2692 346.452C51.668 339.989 58.0364 335.884 64.4938 337.287C70.9512 338.687 75.052 345.061 73.6509 351.524C72.2521 357.988 65.8837 362.092 59.4263 360.692C52.9689 359.292 48.8681 352.918 50.2692 346.454V346.452Z" fill="#828BAE"/>
<path d="M27.068 389.259C27.0902 389.161 27.1014 389.063 27.1103 388.965C28.1171 388.936 29.1016 388.753 30.0305 388.434C30.0728 388.523 30.1196 388.61 30.1731 388.693C30.9014 389.825 32.4117 390.153 33.5432 389.424C34.6748 388.695 35.0022 387.183 34.2738 386.051C34.2204 385.966 34.1602 385.888 34.0979 385.812C34.7706 385.096 35.343 384.276 35.7885 383.371C35.8821 383.402 35.9756 383.431 36.0736 383.453C37.3901 383.739 38.6887 382.903 38.9738 381.585C39.2589 380.267 38.4236 378.967 37.1072 378.682C37.0092 378.66 36.9112 378.649 36.8131 378.64C36.782 377.63 36.6015 376.646 36.283 375.717C36.3699 375.674 36.459 375.628 36.5414 375.574C37.673 374.845 38.0004 373.333 37.272 372.201C36.5436 371.068 35.0334 370.741 33.9018 371.47C33.8172 371.523 33.7392 371.583 33.6635 371.646C32.9485 370.972 32.1288 370.399 31.2244 369.954C31.2556 369.862 31.2846 369.766 31.3068 369.668C31.592 368.35 30.7567 367.051 29.4402 366.765C28.1238 366.48 26.8252 367.316 26.54 368.634C26.5178 368.732 26.5066 368.83 26.4955 368.928C25.4887 368.959 24.5041 369.14 23.5753 369.459C23.533 369.369 23.4862 369.282 23.4327 369.2C22.7043 368.067 21.1941 367.74 20.0626 368.469C18.931 369.198 18.6036 370.709 19.3319 371.842C19.3854 371.927 19.4455 372.005 19.5079 372.08C18.8352 372.796 18.2628 373.617 17.8173 374.522C17.7237 374.491 17.6302 374.462 17.5321 374.439C16.2157 374.154 14.9171 374.99 14.632 376.308C14.3469 377.625 15.1822 378.925 16.4986 379.21C16.5966 379.233 16.6946 379.244 16.7926 379.253C16.8238 380.263 17.0042 381.246 17.3228 382.176C17.2337 382.218 17.1468 382.265 17.0644 382.321C15.9328 383.05 15.6054 384.561 16.3338 385.694C17.0622 386.826 18.5724 387.154 19.7039 386.425C19.7886 386.372 19.8665 386.311 19.9423 386.249C20.6573 386.922 21.477 387.495 22.3814 387.941C22.3502 388.035 22.3212 388.128 22.2989 388.227C22.0138 389.544 22.8491 390.844 24.1656 391.129C25.482 391.415 26.7806 390.579 27.0657 389.261L27.068 389.259ZM22.3791 377.989C22.9093 375.543 25.3194 373.989 27.7629 374.52C30.2065 375.05 31.759 377.463 31.2289 379.908C30.6987 382.354 28.2886 383.908 25.8451 383.377C23.4015 382.847 21.849 380.434 22.3791 377.989Z" fill="#828BAE"/>
</g>
<defs>
<clipPath id="clip0_558_6216">
<rect width="611" height="408" fill="white"/>
</clipPath>
</defs>
</svg>
