<svg width="593" height="187" viewBox="0 0 593 187" fill="none" xmlns="http://www.w3.org/2000/svg">
<path d="M1 1H592V186H1V1Z" stroke="#313131" stroke-width="1.5" stroke-linejoin="round"/>
<path d="M449.346 27.5386H565.609V185.705H449.346V27.5386Z" fill="#C3D600"/>
<path d="M565.609 185.705L449.346 185.705V27.5388L565.609 27.5388V185.705Z" stroke="#313131" stroke-width="1.5" stroke-linejoin="round"/>
<path d="M557.802 37.2822H457.153" stroke="#313131" stroke-width="1.5" stroke-linejoin="round"/>
<path d="M557.802 44.261H457.153" stroke="#313131" stroke-width="1.5" stroke-linejoin="round"/>
<path d="M557.802 51.239H457.153" stroke="#313131" stroke-width="1.5" stroke-linejoin="round"/>
<path d="M557.802 58.217H457.153" stroke="#313131" stroke-width="1.5" stroke-linejoin="round"/>
<path d="M557.802 65.1951H457.153" stroke="#313131" stroke-width="1.5" stroke-linejoin="round"/>
<path d="M557.802 72.1731H457.153" stroke="#313131" stroke-width="1.5" stroke-linejoin="round"/>
<path d="M557.802 79.1509H457.153" stroke="#313131" stroke-width="1.5" stroke-linejoin="round"/>
<path d="M557.802 86.1289H457.153" stroke="#313131" stroke-width="1.5" stroke-linejoin="round"/>
<path d="M557.802 93.1072H457.153" stroke="#313131" stroke-width="1.5" stroke-linejoin="round"/>
<path d="M557.802 100.085H457.153" stroke="#313131" stroke-width="1.5" stroke-linejoin="round"/>
<path d="M557.802 107.063H457.153" stroke="#313131" stroke-width="1.5" stroke-linejoin="round"/>
<path d="M557.802 114.041H457.153" stroke="#313131" stroke-width="1.5" stroke-linejoin="round"/>
<path d="M557.802 121.019H457.153" stroke="#313131" stroke-width="1.5" stroke-linejoin="round"/>
<path d="M557.802 127.997H457.153" stroke="#313131" stroke-width="1.5" stroke-linejoin="round"/>
<path d="M557.802 134.977H457.153" stroke="#313131" stroke-width="1.5" stroke-linejoin="round"/>
<path d="M557.802 141.955H457.153" stroke="#313131" stroke-width="1.5" stroke-linejoin="round"/>
<path d="M557.802 148.933H457.153" stroke="#313131" stroke-width="1.5" stroke-linejoin="round"/>
<path d="M557.802 155.911H457.153" stroke="#313131" stroke-width="1.5" stroke-linejoin="round"/>
<path d="M557.802 162.889H457.153" stroke="#313131" stroke-width="1.5" stroke-linejoin="round"/>
<path d="M557.802 169.867H457.153" stroke="#313131" stroke-width="1.5" stroke-linejoin="round"/>
<path d="M514.776 178.944L511.342 177.922H503.511L500.179 178.944" stroke="#5E5E5E" stroke-width="1.66538" stroke-linejoin="round"/>
<path d="M168 27.5386H284.263V185.705H168V27.5386Z" fill="#C3D600"/>
<path d="M284.263 185.705L168 185.705L168 27.5388L284.263 27.5388V185.705Z" stroke="#313131" stroke-width="1.5" stroke-linejoin="round"/>
<path d="M276.456 37.2822H175.807" stroke="#313131" stroke-width="1.5" stroke-linejoin="round"/>
<path d="M276.456 44.261H175.807" stroke="#313131" stroke-width="1.5" stroke-linejoin="round"/>
<path d="M276.456 51.239H175.807" stroke="#313131" stroke-width="1.5" stroke-linejoin="round"/>
<path d="M276.456 58.217H175.807" stroke="#313131" stroke-width="1.5" stroke-linejoin="round"/>
<path d="M276.456 65.1951H175.807" stroke="#313131" stroke-width="1.5" stroke-linejoin="round"/>
<path d="M276.456 72.1731H175.807" stroke="#313131" stroke-width="1.5" stroke-linejoin="round"/>
<path d="M276.456 79.1509H175.807" stroke="#313131" stroke-width="1.5" stroke-linejoin="round"/>
<path d="M276.456 86.1289H175.807" stroke="#313131" stroke-width="1.5" stroke-linejoin="round"/>
<path d="M276.456 93.1072H175.807" stroke="#313131" stroke-width="1.5" stroke-linejoin="round"/>
<path d="M276.456 100.085H175.807" stroke="#313131" stroke-width="1.5" stroke-linejoin="round"/>
<path d="M276.456 107.063H175.807" stroke="#313131" stroke-width="1.5" stroke-linejoin="round"/>
<path d="M276.456 114.041H175.807" stroke="#313131" stroke-width="1.5" stroke-linejoin="round"/>
<path d="M276.456 121.019H175.807" stroke="#313131" stroke-width="1.5" stroke-linejoin="round"/>
<path d="M276.456 127.997H175.807" stroke="#313131" stroke-width="1.5" stroke-linejoin="round"/>
<path d="M276.456 134.977H175.807" stroke="#313131" stroke-width="1.5" stroke-linejoin="round"/>
<path d="M276.456 141.955H175.807" stroke="#313131" stroke-width="1.5" stroke-linejoin="round"/>
<path d="M276.456 148.933H175.807" stroke="#313131" stroke-width="1.5" stroke-linejoin="round"/>
<path d="M276.456 155.911H175.807" stroke="#313131" stroke-width="1.5" stroke-linejoin="round"/>
<path d="M276.456 162.889H175.807" stroke="#313131" stroke-width="1.5" stroke-linejoin="round"/>
<path d="M276.456 169.867H175.807" stroke="#313131" stroke-width="1.5" stroke-linejoin="round"/>
<path d="M233.43 178.944L229.996 177.922H222.165L218.833 178.944" stroke="#5E5E5E" stroke-width="1.66538" stroke-linejoin="round"/>
<path d="M27 27.5386H143.263V185.705H27V27.5386Z" fill="#C3D600"/>
<path d="M143.263 185.705L27 185.705L27 27.5388L143.263 27.5388V185.705Z" stroke="#313131" stroke-width="1.5" stroke-linejoin="round"/>
<path d="M135.456 37.2822H34.8071" stroke="#313131" stroke-width="1.5" stroke-linejoin="round"/>
<path d="M135.456 44.261H34.8071" stroke="#313131" stroke-width="1.5" stroke-linejoin="round"/>
<path d="M135.456 51.239H34.8071" stroke="#313131" stroke-width="1.5" stroke-linejoin="round"/>
<path d="M135.456 58.217H34.8071" stroke="#313131" stroke-width="1.5" stroke-linejoin="round"/>
<path d="M135.456 65.1951H34.8071" stroke="#313131" stroke-width="1.5" stroke-linejoin="round"/>
<path d="M135.456 72.1731H34.8071" stroke="#313131" stroke-width="1.5" stroke-linejoin="round"/>
<path d="M135.456 79.1509H34.8071" stroke="#313131" stroke-width="1.5" stroke-linejoin="round"/>
<path d="M135.456 86.1289H34.8071" stroke="#313131" stroke-width="1.5" stroke-linejoin="round"/>
<path d="M135.456 93.1072H34.8071" stroke="#313131" stroke-width="1.5" stroke-linejoin="round"/>
<path d="M135.456 100.085H34.8071" stroke="#313131" stroke-width="1.5" stroke-linejoin="round"/>
<path d="M135.456 107.063H34.8071" stroke="#313131" stroke-width="1.5" stroke-linejoin="round"/>
<path d="M135.456 114.041H34.8071" stroke="#313131" stroke-width="1.5" stroke-linejoin="round"/>
<path d="M135.456 121.019H34.8071" stroke="#313131" stroke-width="1.5" stroke-linejoin="round"/>
<path d="M135.456 127.997H34.8071" stroke="#313131" stroke-width="1.5" stroke-linejoin="round"/>
<path d="M135.456 134.977H34.8071" stroke="#313131" stroke-width="1.5" stroke-linejoin="round"/>
<path d="M135.456 141.955H34.8071" stroke="#313131" stroke-width="1.5" stroke-linejoin="round"/>
<path d="M135.456 148.933H34.8071" stroke="#313131" stroke-width="1.5" stroke-linejoin="round"/>
<path d="M135.456 155.911H34.8071" stroke="#313131" stroke-width="1.5" stroke-linejoin="round"/>
<path d="M135.456 162.889H34.8071" stroke="#313131" stroke-width="1.5" stroke-linejoin="round"/>
<path d="M135.456 169.867H34.8071" stroke="#313131" stroke-width="1.5" stroke-linejoin="round"/>
<path d="M92.4297 178.944L88.9964 177.922H81.1649L77.833 178.944" stroke="#5E5E5E" stroke-width="1.66538" stroke-linejoin="round"/>
<path d="M422.122 155.793H384.773V127.607H422.122V155.793Z" fill="white"/>
<path d="M414.98 127.723H418.327V139.041H414.98V127.723Z" fill="#FF8400"/>
<path d="M393.859 127.607H399.78V139.04H393.859V127.607Z" fill="#FF8400"/>
<path d="M410.055 127.607H422.121V155.793H384.773V127.607" stroke="#313131" stroke-width="1.5" stroke-linecap="round" stroke-linejoin="round"/>
<path d="M409.372 127.723V155.215" stroke="#313131" stroke-width="1.5" stroke-linecap="round" stroke-linejoin="round"/>
<path d="M382.031 185.705H347.901V159.947H382.031V185.705Z" fill="white"/>
<path d="M375.505 160.053H378.564V170.395H375.505V160.053Z" fill="#FF8400"/>
<path d="M356.204 159.947H361.614V170.395H356.204V159.947Z" fill="#FF8400"/>
<path d="M371.004 159.947H382.031V185.705H347.901V159.947" stroke="#313131" stroke-width="1.5" stroke-linecap="round" stroke-linejoin="round"/>
<path d="M370.381 160.053V185.176" stroke="#313131" stroke-width="1.5" stroke-linecap="round" stroke-linejoin="round"/>
<path d="M382.032 159.708H354.641V139.037H382.032V159.708Z" fill="white"/>
<path d="M376.794 139.122H379.249V147.421H376.794V139.122Z" fill="#FF8400"/>
<path d="M361.304 139.037H365.646V147.422H361.304V139.037Z" fill="#FF8400"/>
<path d="M373.182 139.037H382.031V159.709H354.64V139.037" stroke="#313131" stroke-width="1.5" stroke-linecap="round" stroke-linejoin="round"/>
<path d="M372.682 139.122V159.284" stroke="#313131" stroke-width="1.5" stroke-linecap="round" stroke-linejoin="round"/>
<path d="M308.349 27.5386H424.612V54.8164H308.349V27.5386Z" fill="#C3D600"/>
<path d="M424.613 185.705L308.35 185.705V27.5388L424.613 27.5388V185.705Z" stroke="#313131" stroke-width="1.5" stroke-linejoin="round"/>
<path d="M424.613 54.8171L308.35 54.8171V27.5393L424.613 27.5393V54.8171Z" stroke="#313131" stroke-width="1.5" stroke-linejoin="round"/>
<path d="M416.805 36.4783H316.156" stroke="#313131" stroke-width="1.5" stroke-linejoin="round"/>
<path d="M416.805 43.4561H316.156" stroke="#313131" stroke-width="1.5" stroke-linejoin="round"/>
<path d="M373.78 49.8567L370.345 48.8352H362.514L359.182 49.8567" stroke="#5E5E5E" stroke-width="1.66538" stroke-linejoin="round"/>
<path d="M333.983 162.786C331.492 162.786 329.473 160.768 329.473 158.278C329.473 155.788 331.492 153.77 333.983 153.77C336.474 153.77 338.493 155.788 338.493 158.278C338.493 160.768 336.474 162.786 333.983 162.786Z" fill="#FF8400"/>
<path d="M333.983 85.2098C331.492 85.2098 329.473 83.1914 329.473 80.7016C329.473 78.2118 331.492 76.1934 333.983 76.1934C336.474 76.1934 338.493 78.2118 338.493 80.7016C338.493 83.1914 336.474 85.2098 333.983 85.2098Z" fill="#FF8400"/>
<path d="M375.268 103.416C375.268 104.247 375.942 104.92 376.773 104.92C377.605 104.92 378.279 104.247 378.279 103.416C378.279 102.586 377.605 101.912 376.773 101.912C375.942 101.912 375.268 102.586 375.268 103.416Z" stroke="#313131" stroke-width="1.5"/>
<path d="M308.334 148.508C312.314 138.407 322.163 131.258 333.683 131.258C348.724 131.258 360.918 143.446 360.918 158.481C360.918 173.515 348.724 185.704 333.683 185.704C322.164 185.704 312.315 178.555 308.334 168.453V148.507V148.508Z" stroke="#313131" stroke-width="1.5" stroke-linejoin="round"/>
<path d="M308.334 70.7313C311.269 63.2821 317.395 57.4375 325.031 54.8826H342.335C353.134 58.4964 360.917 68.6906 360.917 80.7028C360.917 95.7375 348.723 107.926 333.682 107.926C322.163 107.926 312.314 100.777 308.333 90.6766V70.7325L308.334 70.7313Z" stroke="#313131" stroke-width="1.5" stroke-linejoin="round"/>
<path d="M360.918 139.932L333.683 158.482V118.505L360.918 99.77V139.203V139.932Z" stroke="#313131" stroke-width="1.5" stroke-linejoin="round"/>
<path d="M376.774 103.785L371.754 106.127L333.683 80.7019" stroke="#313131" stroke-width="1.5" stroke-linejoin="round"/>
<path d="M360.918 138.073L333.683 118.505H348.645" stroke="#313131" stroke-width="1.5" stroke-linejoin="round"/>
<path d="M333.983 124.051C331.164 124.051 328.879 121.767 328.879 118.949C328.879 116.132 331.164 113.848 333.983 113.848C336.802 113.848 339.087 116.132 339.087 118.949C339.087 121.767 336.802 124.051 333.983 124.051Z" stroke="#313131" stroke-width="1.5" stroke-linejoin="round"/>
<path d="M333.983 118.949L322.075 127.198" stroke="#313131" stroke-width="1.5" stroke-linejoin="round"/>
<path d="M323.143 129.125C321.878 127.762 321.074 125.993 320.001 124.723" stroke="#313131" stroke-width="1.5" stroke-linejoin="round"/>
<path d="M348.669 120.57L348.645 113.225" stroke="#313131" stroke-width="1.5" stroke-linejoin="round"/>
<path d="M367.661 143.366V135.991C367.661 133.934 366.097 132.239 364.093 132.03V144.908H366.118C366.969 144.908 367.661 144.216 367.661 143.366Z" stroke="#313131" stroke-width="1.5"/>
<path d="M363.344 139.037H360.918" stroke="#313131" stroke-width="1.5" stroke-linejoin="round"/>
<path d="M420.754 157.601V156.543H385.932V157.601H420.754Z" stroke="#313131" stroke-width="1.5"/>
<path d="M390.793 157.073L385.183 180.909" stroke="#313131" stroke-width="1.5" stroke-linejoin="round"/>
<path d="M415.892 157.073L421.504 180.909" stroke="#313131" stroke-width="1.5" stroke-linejoin="round"/>
<path d="M383.082 183.601C383.082 184.349 383.688 184.955 384.437 184.955C385.185 184.955 385.791 184.349 385.791 183.601C385.791 182.854 385.185 182.248 384.437 182.248C383.688 182.248 383.082 182.854 383.082 183.601Z" stroke="#313131" stroke-width="1.5"/>
<path d="M420.957 183.601C420.957 184.349 421.563 184.955 422.311 184.955C423.06 184.955 423.666 184.349 423.666 183.601C423.666 182.854 423.06 182.248 422.311 182.248C421.563 182.248 420.957 182.854 420.957 183.601Z" stroke="#313131" stroke-width="1.5"/>
<path d="M397.958 105.365C398.016 104.282 398.156 102.972 398.466 101.51C398.674 100.533 398.948 99.1124 399.662 97.5311C401.302 93.8963 403.589 92.834 403.559 88.3817C403.553 87.499 403.525 83.2438 400.703 81.2941C400.336 81.041 399.066 80.1618 397.8 80.5326C396.574 80.8917 395.984 82.2386 394.754 86.0985C393.464 90.1461 392.82 92.1705 392.612 93.424C392.197 95.937 392.333 97.8949 392.417 99.5881C392.45 100.245 392.581 102.629 393.231 105.827C393.886 109.049 394.46 111.877 395.316 111.921C395.64 111.938 396.574 111.586 397.958 105.366V105.365Z" fill="#C3D600"/>
<path d="M397.958 105.365C398.016 104.282 398.156 102.972 398.466 101.51C398.674 100.533 398.948 99.1124 399.662 97.5311C401.302 93.8963 403.589 92.834 403.559 88.3817C403.553 87.499 403.525 83.2438 400.703 81.2941C400.336 81.041 399.066 80.1618 397.8 80.5326C396.574 80.8917 395.984 82.2386 394.754 86.0985C393.464 90.1461 392.82 92.1705 392.612 93.424C392.197 95.937 392.333 97.8949 392.417 99.5881C392.45 100.245 392.581 102.629 393.231 105.827C393.886 109.049 394.46 111.877 395.316 111.921C395.64 111.938 396.574 111.586 397.958 105.366V105.365Z" stroke="#313131" stroke-width="1.5" stroke-linecap="round" stroke-linejoin="round"/>
<path d="M399.074 85.4666C399.074 85.4666 399.171 87.9481 397.058 92.5216C395.121 96.7161 395.39 103.052 395.377 106.36" stroke="#313131" stroke-width="1.5" stroke-linecap="round" stroke-linejoin="round"/>
<path d="M395.606 108.109C394.905 99.0309 386.968 93.9676 386.397 93.6784C386.391 93.6761 385.372 93.1618 385.372 93.1618C383.97 92.587 381.386 92.04 380.09 93.233C379.196 94.0551 379.216 95.4264 379.231 95.9395C379.369 100.78 388.303 103.309 391.325 111.068C392.068 112.975 392.252 114.685 392.302 115.752C392.617 116.379 393.045 117.026 393.506 116.997C394.71 116.922 395.926 112.258 395.606 108.109Z" fill="#C3D600"/>
<path d="M395.606 108.109C394.905 99.0309 386.968 93.9676 386.397 93.6784C386.391 93.6761 385.372 93.1618 385.372 93.1618C383.97 92.587 381.386 92.04 380.09 93.233C379.196 94.0551 379.216 95.4264 379.231 95.9395C379.369 100.78 388.303 103.309 391.325 111.068C392.068 112.975 392.252 114.685 392.302 115.752C392.617 116.379 393.045 117.026 393.506 116.997C394.71 116.922 395.926 112.258 395.606 108.109Z" stroke="#313131" stroke-width="1.5" stroke-linecap="round" stroke-linejoin="round"/>
<path d="M382.77 95.9136C382.77 95.9136 389.644 98.4802 394.451 111.068" stroke="#313131" stroke-width="1.5" stroke-linecap="round" stroke-linejoin="round"/>
<path d="M407.159 100.18C406.958 100.046 406.046 99.4771 404.142 99.9144C400.267 100.803 397.223 104.726 396.93 105.112C392.001 111.604 391.112 119.947 392.127 120.319C392.358 120.404 393.217 119.354 394.926 117.251C399.135 112.071 399.077 112.121 399.387 111.753C404.277 105.943 408.702 105.282 408.483 102.415C408.41 101.454 407.787 100.6 407.16 100.18H407.159Z" fill="#C3D600"/>
<path d="M407.159 100.18C406.958 100.046 406.046 99.4771 404.142 99.9144C400.267 100.803 397.223 104.726 396.93 105.112C392.001 111.604 391.112 119.947 392.127 120.319C392.358 120.404 393.217 119.354 394.926 117.251C399.135 112.071 399.077 112.121 399.387 111.753C404.277 105.943 408.702 105.282 408.483 102.415C408.41 101.454 407.787 100.6 407.16 100.18H407.159Z" stroke="#313131" stroke-width="1.5" stroke-linecap="round" stroke-linejoin="round"/>
<path d="M393.477 116.661C393.477 116.661 395.729 107.315 404.002 103.293" stroke="#313131" stroke-width="1.5" stroke-linecap="round" stroke-linejoin="round"/>
<path d="M402.207 115.752H386.695L387.751 127.606H401.15L402.207 115.752Z" fill="#D5E0BB"/>
</svg>
