<svg width="612" height="119" viewBox="0 0 612 119" fill="none" xmlns="http://www.w3.org/2000/svg">
<g clip-path="url(#clip0_237_13069)">
<path d="M612 55.6564L612 2263.17L556.92 2263.17L556.92 0.000476243L612 55.6564Z" stroke="#828BAE" stroke-width="2" stroke-linecap="round" stroke-linejoin="round"/>
<path d="M500.617 2263.17L500.617 0.000488281L445.537 55.6564L445.537 2263.17L500.617 2263.17Z" stroke="#828BAE" stroke-width="2" stroke-linecap="round" stroke-linejoin="round"/>
<path d="M500.616 0L500.615 2263.17L556.919 2263.17L556.92 1.23056e-05L500.616 0Z" stroke="#828BAE" stroke-width="2" stroke-linecap="round" stroke-linejoin="round"/>
<path d="M389.234 55.6564L389.233 2263.17L334.153 2263.17L334.154 0.000476243L389.234 55.6564Z" stroke="#828BAE" stroke-width="2" stroke-linecap="round" stroke-linejoin="round"/>
<path d="M277.849 2263.17L277.85 0.000488281L222.77 55.6564L222.769 2263.17L277.849 2263.17Z" stroke="#828BAE" stroke-width="2" stroke-linecap="round" stroke-linejoin="round"/>
<path d="M277.85 -1.52588e-05L277.849 2263.17L334.153 2263.17L334.154 -2.9532e-06L277.85 -1.52588e-05Z" stroke="#828BAE" stroke-width="2" stroke-linecap="round" stroke-linejoin="round"/>
<path d="M389.233 55.0798L389.233 2261.95L445.536 2261.95L445.537 55.0798L389.233 55.0798Z" stroke="#828BAE" stroke-width="2" stroke-linecap="round" stroke-linejoin="round"/>
<path d="M166.465 55.6564L166.465 2263.17L111.385 2263.17L111.385 0.000476243L166.465 55.6564Z" stroke="#828BAE" stroke-width="2" stroke-linecap="round" stroke-linejoin="round"/>
<path d="M55.0796 2263.17L55.0801 0.000488281L0.00022573 55.6564L-0.000256737 2263.17L55.0796 2263.17Z" stroke="#828BAE" stroke-width="2" stroke-linecap="round" stroke-linejoin="round"/>
<path d="M55.0794 -3.05176e-05L55.0789 2263.17L111.383 2263.17L111.383 -1.8212e-05L55.0794 -3.05176e-05Z" stroke="#828BAE" stroke-width="2" stroke-linecap="round" stroke-linejoin="round"/>
<path d="M166.465 55.0798L166.464 2261.95L222.768 2261.95L222.769 55.0798L166.465 55.0798Z" stroke="#828BAE" stroke-width="2" stroke-linecap="round" stroke-linejoin="round"/>
</g>
<defs>
<clipPath id="clip0_237_13069">
<rect width="612" height="119" fill="white"/>
</clipPath>
</defs>
</svg>
