<svg width="203" height="39" viewBox="0 0 203 39" fill="none" xmlns="http://www.w3.org/2000/svg">
<path d="M16.3831 18.0225L12.1907 19.9256C12.2735 20.2841 12.3286 20.6427 12.3286 21.0288V21.084V21.1116C12.3286 23.4284 10.7013 25.4143 8.219 25.4143C6.92267 25.4143 5.81941 24.8351 5.10229 23.9249L2.42688 27.7863C3.94386 29.1378 5.92973 29.9377 8.19142 29.9377C13.1561 29.9377 16.9072 25.9659 16.9072 21.084C16.9072 20.0083 16.7141 18.9878 16.3831 18.0225Z" fill="#C3D600"/>
<path d="M66.6646 13.8859C69.4779 13.8859 71.3535 12.3414 71.3535 9.5832V9.52804C71.3535 6.79747 69.4779 5.22532 66.6646 5.19774C65.8372 5.19774 64.7339 5.41839 64.7339 5.41839V13.8859H66.6646ZM60.0175 1.41907C60.0175 1.41907 63.1893 0.89502 66.5819 0.89502C72.6774 0.89502 76.2078 4.56336 76.2078 9.47287V9.52804C76.2078 14.4375 72.6222 18.1059 66.4991 18.1059H60.0175V1.41907Z" fill="#313131"/>
<path d="M77.6694 15.5403L80.2897 12.396C81.9722 13.7475 83.8477 14.437 85.806 14.437C87.0747 14.437 87.7643 13.9957 87.7643 13.2786V13.2234C87.7643 12.5063 87.2126 12.1202 84.8958 11.5961C81.2826 10.7687 78.4693 9.74816 78.4693 6.24531V6.19015C78.4693 3.01827 80.9792 0.729004 85.0613 0.729004C87.9573 0.729004 90.219 1.50129 92.067 2.99069L89.695 6.32805C88.1504 5.22479 86.4404 4.64558 84.9234 4.64558C83.7925 4.64558 83.2133 5.14205 83.2133 5.74884V5.804C83.2133 6.57629 83.7925 6.93485 86.1645 7.4589C90.0811 8.31392 92.5083 9.58267 92.5083 12.7545V12.8097C92.5083 16.285 89.7501 18.3536 85.6129 18.3536C82.6341 18.3812 79.7656 17.4158 77.6694 15.5403Z" fill="#313131"/>
<path d="M99.0451 5.16946H93.9425V1.03223H108.892V5.16946H103.762V18.0776H99.0451V5.16946Z" fill="#313131"/>
<path d="M123.013 9.61V9.55484C123.013 7.23799 121.331 5.22454 118.876 5.22454C116.421 5.22454 114.794 7.21041 114.794 9.52726V9.58242C114.794 11.8993 116.477 13.9127 118.904 13.9127C121.386 13.9127 123.013 11.9269 123.013 9.61ZM110.216 9.61V9.55484C110.216 4.67291 113.939 0.701172 118.931 0.701172C123.896 0.701172 127.592 4.61775 127.592 9.49968V9.55484C127.592 14.4368 123.868 18.4085 118.876 18.4085C113.912 18.4085 110.216 14.4919 110.216 9.61Z" fill="#313131"/>
<path d="M137.687 9.22395C139.287 9.22395 140.224 8.45167 140.224 7.2105V7.15533C140.224 5.80384 139.038 5.27979 137.549 5.22463C136.032 5.16947 134.57 5.44528 134.57 5.44528V9.19637H137.687V9.22395ZM129.854 1.41838C129.854 1.41838 133.66 0.839166 137.907 0.894329C140.5 0.921911 142.32 1.74936 143.451 2.90778C144.444 3.87313 144.968 5.19705 144.968 6.87952V6.93468C144.968 9.52735 143.589 11.265 141.465 12.1752C142.458 13.5267 145.934 17.5536 146.292 18.1052C144.472 18.1052 142.486 18.1052 140.666 18.1052C140.417 17.7466 137.356 14.2989 136.473 12.9475C136.446 12.9475 134.57 12.9475 134.57 12.9475V18.0776H129.854V1.41838Z" fill="#313131"/>
<path d="M166.979 9.61V9.55484C166.979 4.59017 170.868 0.701172 176.164 0.701172C179.17 0.701172 181.266 1.63894 183.086 3.18351L180.301 6.52087C179.087 5.50036 177.874 4.92115 176.191 4.92115C173.736 4.92115 171.833 6.98976 171.833 9.58242V9.63759C171.833 12.3957 173.764 14.354 176.467 14.354C177.598 14.354 178.48 14.1058 179.197 13.6369V11.5683H176.219V8.1206H183.693V15.7883C181.9 17.2777 179.391 18.4085 176.301 18.4085C170.951 18.4085 166.979 14.7677 166.979 9.61Z" fill="#313131"/>
<path d="M52.8738 9.61V9.55484C52.8738 7.23799 51.1913 5.22454 48.7365 5.22454C46.2818 5.22454 44.6545 7.21041 44.6545 9.52726V9.58242C44.6545 11.8993 46.3369 13.9127 48.7641 13.9127C51.2465 13.9127 52.8738 11.9269 52.8738 9.61ZM40.0759 9.61V9.55484C40.0759 4.67291 43.7994 0.701172 48.7917 0.701172C53.7564 0.701172 57.4523 4.61775 57.4523 9.49968V9.55484C57.4523 14.4368 53.7288 18.4085 48.7365 18.4085C43.7443 18.4085 40.0759 14.4919 40.0759 9.61Z" fill="#313131"/>
<path d="M33.4837 9.61V9.55484C33.4837 7.23799 31.8013 5.22454 29.3465 5.22454C26.8917 5.22454 25.2644 7.21041 25.2644 9.52726V9.58242C25.2644 11.8993 26.9469 13.9127 29.3741 13.9127C31.8288 13.9127 33.4837 11.9269 33.4837 9.61ZM20.6583 9.61V9.55484C20.6583 4.67291 24.4094 0.701172 29.3741 0.701172C34.3388 0.701172 38.0347 4.61775 38.0347 9.49968V9.55484C38.0347 14.4368 34.3112 18.4085 29.3189 18.4085C24.3542 18.4085 20.6583 14.4919 20.6583 9.61Z" fill="#313131"/>
<path d="M195.139 18.5188C189.954 18.5188 186.203 14.7953 186.203 9.66517V9.61C186.203 4.535 189.844 0.701172 194.67 0.701172C198.504 0.701172 203 3.15593 203 9.99614V10.0789C203 10.465 202.972 10.7133 202.945 11.0167L202.917 11.3476H191.14C191.609 13.3887 193.043 14.5195 195.194 14.5195C196.794 14.5195 197.925 14.0506 199.249 12.8095L199.304 12.7543L202.173 15.2918L202.117 15.347C200.407 17.4707 198.063 18.5188 195.139 18.5188ZM198.146 8.17576C197.842 6.10715 196.518 4.89356 194.643 4.89356C192.767 4.89356 191.471 6.07957 191.057 8.17576H198.146Z" fill="#313131"/>
<path d="M155.449 18.5464C150.568 18.5464 146.899 14.7126 146.899 9.63758C146.899 4.535 150.705 0.701172 155.174 0.701172C157.408 0.701172 159.228 1.50104 160.359 3.18351V1.14248H164.579V18.0775H160.304L160.331 16.2296C159.338 17.719 157.49 18.4913 155.449 18.5464ZM155.505 5.22454C153.188 5.22454 151.367 7.15525 151.367 9.61C151.367 12.0923 153.188 14.023 155.505 14.023C158.07 14.023 159.697 12.2854 159.697 9.61C159.725 6.98976 158.042 5.22454 155.505 5.22454Z" fill="#313131"/>
<path d="M19.2795 0.702148H8.71576C3.72351 0.702148 0 4.67389 0 9.55582V9.61098C0 14.4929 3.69592 18.4095 8.6606 18.4095C13.6253 18.4095 17.3764 14.4377 17.3764 9.55582V9.50066C17.3764 7.90093 16.9902 6.38394 16.2731 5.11519H19.2795V0.702148ZM12.7978 9.61098C12.7978 11.9278 11.1705 13.9137 8.68818 13.9137C6.23342 13.9137 4.57853 11.9002 4.57853 9.5834V9.52824C4.57853 7.21139 6.20584 5.22552 8.6606 5.22552C11.1154 5.22552 12.7978 7.23897 12.7978 9.55582V9.61098Z" fill="#FF8400"/>
<path d="M79.5449 32.8336V33.1645C79.5449 33.661 79.6828 34.0747 79.9862 34.3505C80.2896 34.6264 80.6757 34.7643 81.1998 34.7643C81.6411 34.7643 81.9996 34.6539 82.303 34.4333C82.6064 34.2126 82.7443 33.9368 82.7443 33.6334H83.9579C83.9303 34.2954 83.6545 34.847 83.1581 35.2607C82.6616 35.6745 81.9996 35.8951 81.1998 35.8951C80.3447 35.8951 79.6276 35.6469 79.1036 35.1504C78.5795 34.6539 78.3313 33.992 78.3313 33.1921V31.5924C78.3313 31.0408 78.4416 30.5719 78.6899 30.1581C78.9381 29.7444 79.2691 29.441 79.6828 29.1928C80.1241 28.9721 80.6206 28.8618 81.1722 28.8618C82.0272 28.8618 82.6892 29.1101 83.2132 29.6065C83.7097 30.103 83.9579 30.7649 83.9579 31.5648V32.8336H79.5449ZM79.9862 30.434C79.6828 30.7374 79.5449 31.1235 79.5449 31.62V31.813H82.7443V31.62C82.7443 31.1235 82.6064 30.7374 82.3306 30.434C82.0548 30.1306 81.6687 29.9927 81.1998 29.9927C80.6757 30.0202 80.2896 30.1581 79.9862 30.434Z" fill="#313131"/>
<path d="M86.2747 35.3435C85.7783 34.9573 85.53 34.4333 85.53 33.7713V33.6334H86.7436V33.7713C86.7436 34.4609 87.2677 34.7918 88.3158 34.7918C88.7847 34.7918 89.1432 34.7091 89.419 34.5712C89.6948 34.4057 89.8052 34.2126 89.8052 33.9368V33.8265C89.8052 33.5783 89.7224 33.4128 89.5294 33.2473C89.3639 33.1094 89.088 32.999 88.7019 32.9439L87.709 32.7784C87.047 32.6681 86.5505 32.4474 86.192 32.1164C85.8334 31.813 85.6679 31.3993 85.6679 30.9304V30.7925C85.6679 30.2133 85.9162 29.7444 86.3851 29.3859C86.8815 29.0273 87.5159 28.8618 88.3158 28.8618C89.1156 28.8618 89.7776 29.0549 90.2465 29.441C90.7154 29.8272 90.9636 30.3512 90.9636 30.9856V31.1235H89.75V30.9856C89.75 30.6546 89.6121 30.4064 89.3639 30.2409C89.1156 30.0754 88.7295 29.9927 88.233 29.9927C87.7917 29.9927 87.4332 30.0754 87.1849 30.2133C86.9367 30.3512 86.7988 30.5443 86.7988 30.7925V30.9028C86.7988 31.3166 87.1573 31.62 87.8745 31.7303L88.8674 31.9234C89.5569 32.0613 90.0534 32.2819 90.412 32.5853C90.7705 32.9163 90.936 33.3024 90.936 33.7713V33.9092C90.936 34.516 90.6878 34.9849 90.1913 35.3435C89.6948 35.702 89.0329 35.8951 88.2054 35.8951C87.4331 35.9227 86.7712 35.7296 86.2747 35.3435Z" fill="#313131"/>
<path d="M97.721 29.6065C98.1899 30.103 98.4381 30.7374 98.4381 31.5372V33.2749C98.4381 34.0747 98.1899 34.7091 97.721 35.2056C97.2521 35.702 96.6178 35.9227 95.8455 35.9227C95.1008 35.9227 94.494 35.702 93.9975 35.2331V38.0465H92.7839V29.0273H93.8872L93.9424 29.6065C94.4388 29.1101 95.0732 28.8618 95.8455 28.8618C96.6178 28.8618 97.2521 29.1101 97.721 29.6065ZM97.197 31.5648C97.197 31.0959 97.0591 30.7098 96.7833 30.434C96.5074 30.1581 96.1213 30.0202 95.6248 30.0202C95.2663 30.0202 94.9629 30.103 94.6595 30.2685C94.3837 30.434 94.163 30.6546 93.9975 30.9304V33.9092C94.163 34.1851 94.3561 34.4057 94.6595 34.5436C94.9353 34.7091 95.2663 34.7918 95.6248 34.7918C96.1213 34.7918 96.5074 34.6539 96.7833 34.3781C97.0591 34.1023 97.197 33.7162 97.197 33.2473V31.5648Z" fill="#313131"/>
<path d="M106.492 34.6259V35.7291H105.775C105.444 35.7291 105.168 35.674 104.92 35.5636C104.672 35.4533 104.506 35.2878 104.368 35.0672C103.872 35.6188 103.155 35.8946 102.244 35.8946C101.527 35.8946 100.948 35.7291 100.534 35.3706C100.121 35.0396 99.9 34.5431 99.9 33.9363C99.9 33.3847 100.093 32.9434 100.452 32.64C100.81 32.3366 101.362 32.1159 102.107 32.0056L104.12 31.7298V31.2885C104.12 30.8472 104.01 30.5162 103.734 30.2956C103.486 30.0749 103.127 29.9646 102.631 29.9646C102.162 29.9646 101.803 30.0749 101.527 30.2956C101.279 30.5162 101.141 30.8196 101.141 31.2333V31.3161H99.9V31.2333C99.9 30.4886 100.148 29.9094 100.645 29.4681C101.141 29.0268 101.803 28.8062 102.658 28.8062C103.513 28.8062 104.175 29.0268 104.616 29.4681C105.085 29.9094 105.306 30.5162 105.306 31.3161V33.9087C105.306 34.35 105.527 34.5983 105.968 34.5983H106.492V34.6259ZM103.403 34.5983C103.706 34.4328 103.955 34.1845 104.12 33.8812V32.7227L102.3 32.9985C101.5 33.1364 101.114 33.4398 101.114 33.9363C101.114 34.2121 101.224 34.4328 101.445 34.5983C101.665 34.7638 101.969 34.8465 102.327 34.8465C102.741 34.8465 103.099 34.7638 103.403 34.5983Z" fill="#313131"/>
<path d="M108.781 35.5641C108.34 35.3435 108.009 35.0125 107.788 34.5988C107.54 34.1851 107.43 33.7162 107.43 33.1645V31.5924C107.43 31.0408 107.54 30.5719 107.788 30.1581C108.036 29.7444 108.367 29.441 108.781 29.1928C109.222 28.9721 109.719 28.8618 110.298 28.8618C110.822 28.8618 111.319 28.9721 111.732 29.1928C112.146 29.4134 112.477 29.7168 112.725 30.103C112.974 30.4891 113.084 30.9304 113.084 31.4269V31.5648H111.87V31.4269C111.87 31.0132 111.732 30.6822 111.429 30.4064C111.153 30.1306 110.767 30.0202 110.326 30.0202C109.829 30.0202 109.416 30.1581 109.14 30.434C108.864 30.7098 108.698 31.0959 108.698 31.5924V33.137C108.698 33.6334 108.836 34.0196 109.14 34.2954C109.416 34.5712 109.829 34.7091 110.326 34.7091C110.767 34.7091 111.153 34.5712 111.429 34.323C111.705 34.0747 111.87 33.7437 111.87 33.33V33.1921H113.084V33.33C113.084 34.1023 112.836 34.7091 112.339 35.178C111.843 35.6469 111.153 35.8675 110.326 35.8675C109.719 35.9227 109.222 35.8124 108.781 35.5641ZM110.85 35.7572L110.243 38.0465H108.974L109.719 35.2883L110.85 35.7572Z" fill="#313131"/>
<path d="M115.318 35.178C114.794 34.6815 114.546 34.0196 114.546 33.1921V31.5924C114.546 30.7649 114.794 30.103 115.318 29.6065C115.842 29.1101 116.532 28.8618 117.387 28.8618C118.242 28.8618 118.959 29.1101 119.456 29.6065C119.98 30.103 120.228 30.7649 120.228 31.5924V33.1645C120.228 33.992 119.98 34.6539 119.456 35.1504C118.931 35.6469 118.242 35.8951 117.387 35.8951C116.504 35.9227 115.842 35.6744 115.318 35.178ZM118.573 34.323C118.876 34.0471 119.014 33.6334 119.014 33.1645V31.6475C119.014 31.1511 118.876 30.7374 118.573 30.4615C118.297 30.1857 117.883 30.0202 117.387 30.0202C116.89 30.0202 116.504 30.1581 116.201 30.4615C115.898 30.7374 115.76 31.1511 115.76 31.6475V33.1645C115.76 33.661 115.898 34.0471 116.201 34.323C116.504 34.5988 116.89 34.7367 117.387 34.7367C117.883 34.7643 118.27 34.6264 118.573 34.323Z" fill="#313131"/>
<path d="M122.517 35.3435C122.02 34.9573 121.772 34.4333 121.772 33.7713V33.6334H122.986V33.7713C122.986 34.4609 123.51 34.7918 124.558 34.7918C125.027 34.7918 125.385 34.7091 125.661 34.5712C125.937 34.4057 126.047 34.2126 126.047 33.9368V33.8265C126.047 33.5783 125.965 33.4128 125.772 33.2473C125.606 33.1094 125.33 32.999 124.944 32.9439L123.951 32.7784C123.289 32.6681 122.793 32.4474 122.434 32.1164C122.076 31.813 121.91 31.3993 121.91 30.9304V30.7925C121.91 30.2133 122.158 29.7444 122.627 29.3859C123.124 29.0273 123.758 28.8618 124.558 28.8618C125.358 28.8618 126.02 29.0549 126.489 29.441C126.958 29.8272 127.206 30.3512 127.206 30.9856V31.1235H126.047V30.9856C126.047 30.6546 125.909 30.4064 125.661 30.2409C125.413 30.0754 125.027 29.9927 124.53 29.9927C124.089 29.9927 123.731 30.0754 123.482 30.2133C123.234 30.3512 123.096 30.5443 123.096 30.7925V30.9028C123.096 31.3166 123.455 31.62 124.172 31.7303L125.165 31.9234C125.854 32.0613 126.351 32.2819 126.709 32.5853C127.068 32.9163 127.233 33.3024 127.233 33.7713V33.9092C127.233 34.516 126.985 34.9849 126.489 35.3435C125.992 35.702 125.33 35.8951 124.503 35.8951C123.675 35.9227 123.013 35.7296 122.517 35.3435Z" fill="#313131"/>
<path d="M133.108 27.7585C132.943 27.593 132.86 27.3999 132.86 27.1792C132.86 26.931 132.943 26.7379 133.108 26.5725C133.274 26.407 133.467 26.3242 133.715 26.3242C133.963 26.3242 134.156 26.407 134.322 26.5449C134.487 26.7104 134.57 26.9034 134.57 27.1517C134.57 27.3999 134.487 27.593 134.322 27.7309C134.156 27.8964 133.963 27.9791 133.715 27.9791C133.467 27.9791 133.274 27.8964 133.108 27.7585ZM134.322 29.0272V35.7571H133.108V29.0272H134.322Z" fill="#313131"/>
<path d="M141.245 29.5783C141.686 30.0472 141.907 30.6816 141.907 31.4815V35.7566H140.666V31.5918C140.666 31.1229 140.528 30.7368 140.279 30.4609C140.004 30.1851 139.645 30.0472 139.204 30.0472C138.845 30.0472 138.542 30.13 138.266 30.2955C137.99 30.4609 137.769 30.6816 137.604 30.9298V35.7842H136.39V29.0543H137.494L137.549 29.6611C138.045 29.137 138.68 28.8888 139.452 28.8888C140.197 28.8612 140.803 29.1094 141.245 29.5783Z" fill="#313131"/>
<path d="M145.768 30.1299V33.7983C145.768 34.3775 146.044 34.6533 146.568 34.6533H147.643V35.7566H146.513C145.878 35.7566 145.382 35.5911 145.051 35.2601C144.72 34.9291 144.554 34.4602 144.554 33.8259V30.1299H142.789V29.0267H144.223C144.361 29.0267 144.444 28.9991 144.499 28.9439C144.554 28.8888 144.582 28.806 144.582 28.6681V27.2339H145.768V29.0267H147.974V30.1299H145.768Z" fill="#313131"/>
<path d="M150.016 32.8336V33.1645C150.016 33.661 150.154 34.0747 150.457 34.3505C150.76 34.6264 151.147 34.7643 151.671 34.7643C152.112 34.7643 152.47 34.6539 152.774 34.4333C153.077 34.2126 153.215 33.9368 153.215 33.6334H154.429C154.401 34.2954 154.125 34.847 153.629 35.2607C153.132 35.6745 152.47 35.8951 151.671 35.8951C150.816 35.8951 150.098 35.6469 149.574 35.1504C149.05 34.6539 148.802 33.992 148.802 33.1921V31.5924C148.802 31.0408 148.912 30.5719 149.161 30.1581C149.409 29.7444 149.74 29.441 150.154 29.1928C150.595 28.9721 151.091 28.8618 151.643 28.8618C152.498 28.8618 153.16 29.1101 153.684 29.6065C154.181 30.103 154.429 30.7649 154.429 31.5648V32.8336H150.016ZM150.457 30.434C150.154 30.7374 150.016 31.1235 150.016 31.62V31.813H153.215V31.62C153.215 31.1235 153.077 30.7374 152.801 30.434C152.526 30.1306 152.139 29.9927 151.671 29.9927C151.147 30.0202 150.76 30.1581 150.457 30.434Z" fill="#313131"/>
<path d="M156.718 35.3156C156.415 35.0122 156.277 34.5984 156.277 34.0744V26.3516H157.49V33.9641C157.49 34.4329 157.711 34.6812 158.18 34.6812H158.704V35.7844H157.987C157.435 35.7569 157.021 35.5914 156.718 35.3156Z" fill="#313131"/>
<path d="M159.973 27.7585C159.807 27.593 159.724 27.3999 159.724 27.1792C159.724 26.931 159.807 26.7379 159.973 26.5725C160.138 26.407 160.331 26.3242 160.58 26.3242C160.828 26.3242 161.021 26.407 161.186 26.5449C161.352 26.7104 161.435 26.9034 161.435 27.1517C161.435 27.3999 161.352 27.593 161.186 27.7309C161.021 27.8964 160.828 27.9791 160.58 27.9791C160.331 27.9791 160.111 27.8964 159.973 27.7585ZM161.186 29.0272V35.7571H159.973V29.0272H161.186Z" fill="#313131"/>
<path d="M168.633 29.0271V35.7018C168.633 36.4741 168.385 37.1085 167.888 37.5498C167.392 37.9911 166.675 38.2117 165.792 38.2117C164.937 38.2117 164.248 37.9911 163.751 37.5773C163.255 37.1636 163.006 36.5844 163.006 35.8673V35.7845H164.248V35.8673C164.248 36.2258 164.386 36.5292 164.689 36.7499C164.965 36.9705 165.378 37.0809 165.847 37.0809C166.316 37.0809 166.73 36.9705 167.006 36.7223C167.282 36.4741 167.42 36.1431 167.42 35.7294V34.7364C166.923 35.1777 166.316 35.3984 165.572 35.3984C164.799 35.3984 164.165 35.1502 163.696 34.6813C163.227 34.2124 163.006 33.578 163.006 32.7782V31.537C163.006 30.7371 163.227 30.0752 163.696 29.6063C164.165 29.1374 164.799 28.8892 165.599 28.8892C165.985 28.8892 166.344 28.9443 166.675 29.0822C167.006 29.2201 167.282 29.3856 167.53 29.6339L167.585 29.0547H168.633V29.0271ZM166.758 34.0469C167.033 33.8814 167.254 33.6883 167.42 33.4125V30.9026C167.254 30.6268 167.033 30.4061 166.758 30.2682C166.482 30.1027 166.151 30.02 165.82 30.02C165.323 30.02 164.937 30.1579 164.661 30.4337C164.386 30.7095 164.248 31.0957 164.248 31.5646V32.6954C164.248 33.1643 164.386 33.5504 164.661 33.8263C164.937 34.1021 165.323 34.24 165.82 34.24C166.178 34.2676 166.482 34.1848 166.758 34.0469Z" fill="#313131"/>
<path d="M171.612 32.8336V33.1645C171.612 33.661 171.75 34.0747 172.053 34.3505C172.357 34.6264 172.743 34.7643 173.267 34.7643C173.708 34.7643 174.067 34.6539 174.37 34.4333C174.673 34.2126 174.811 33.9368 174.811 33.6334H176.025C175.997 34.2954 175.722 34.847 175.225 35.2607C174.729 35.6745 174.067 35.8951 173.267 35.8951C172.412 35.8951 171.695 35.6469 171.171 35.1504C170.647 34.6539 170.398 33.992 170.398 33.1921V31.5924C170.398 31.0408 170.509 30.5719 170.757 30.1581C171.005 29.7444 171.336 29.441 171.75 29.1928C172.191 28.9721 172.688 28.8618 173.239 28.8618C174.094 28.8618 174.756 29.1101 175.28 29.6065C175.777 30.103 176.025 30.7649 176.025 31.5648V32.8336H171.612ZM172.053 30.434C171.75 30.7374 171.612 31.1235 171.612 31.62V31.813H174.811V31.62C174.811 31.1235 174.673 30.7374 174.398 30.434C174.122 30.1306 173.736 29.9927 173.267 29.9927C172.743 30.0202 172.357 30.1581 172.053 30.434Z" fill="#313131"/>
<path d="M182.645 29.5783C183.086 30.0472 183.306 30.6816 183.306 31.4815V35.7566H182.065V31.5918C182.065 31.1229 181.927 30.7368 181.679 30.4609C181.403 30.1851 181.045 30.0472 180.603 30.0472C180.245 30.0472 179.942 30.13 179.666 30.2955C179.39 30.4609 179.169 30.6816 179.004 30.9298V35.7842H177.79V29.0543H178.893L178.949 29.6611C179.445 29.137 180.079 28.8888 180.852 28.8888C181.596 28.8612 182.203 29.1094 182.645 29.5783Z" fill="#313131"/>
<path d="M187.168 30.1299V33.7983C187.168 34.3775 187.444 34.6533 187.968 34.6533H189.043V35.7566H187.912C187.278 35.7566 186.782 35.5911 186.451 35.2601C186.12 34.9291 185.954 34.4602 185.954 33.8259V30.1299H184.189V29.0267H185.623C185.761 29.0267 185.844 28.9991 185.899 28.9439C185.954 28.8888 185.982 28.806 185.982 28.6681V27.2339H187.168V29.0267H189.374V30.1299H187.168Z" fill="#313131"/>
<path d="M191.415 32.8336V33.1645C191.415 33.661 191.553 34.0747 191.857 34.3505C192.16 34.6264 192.546 34.7643 193.07 34.7643C193.512 34.7643 193.87 34.6539 194.174 34.4333C194.477 34.2126 194.615 33.9368 194.615 33.6334H195.828C195.801 34.2954 195.525 34.847 195.029 35.2607C194.532 35.6745 193.87 35.8951 193.07 35.8951C192.215 35.8951 191.498 35.6469 190.974 35.1504C190.45 34.6539 190.202 33.992 190.202 33.1921V31.5924C190.202 31.0408 190.312 30.5719 190.56 30.1581C190.809 29.7444 191.14 29.441 191.553 29.1928C191.995 28.9721 192.491 28.8618 193.043 28.8618C193.898 28.8618 194.56 29.1101 195.084 29.6065C195.58 30.103 195.828 30.7649 195.828 31.5648V32.8336H191.415ZM191.857 30.434C191.553 30.7374 191.415 31.1235 191.415 31.62V31.813H194.615V31.62C194.615 31.1235 194.477 30.7374 194.201 30.434C193.925 30.1306 193.539 29.9927 193.07 29.9927C192.546 30.0202 192.16 30.1581 191.857 30.434Z" fill="#313131"/>
<path d="M198.118 35.3435C197.621 34.9573 197.373 34.4333 197.373 33.7713V33.6334H198.587V33.7713C198.587 34.4609 199.111 34.7918 200.159 34.7918C200.628 34.7918 200.986 34.7091 201.262 34.5712C201.538 34.4057 201.648 34.2126 201.648 33.9368V33.8265C201.648 33.5783 201.566 33.4128 201.372 33.2473C201.207 33.1094 200.931 32.999 200.545 32.9439L199.552 32.7784C198.89 32.6681 198.394 32.4474 198.035 32.1164C197.677 31.813 197.511 31.3993 197.511 30.9304V30.7925C197.511 30.2133 197.759 29.7444 198.228 29.3859C198.725 29.0273 199.359 28.8618 200.159 28.8618C200.959 28.8618 201.621 29.0549 202.09 29.441C202.559 29.8272 202.807 30.3512 202.807 30.9856V31.1235H201.593V30.9856C201.593 30.6546 201.455 30.4064 201.207 30.2409C200.959 30.0754 200.573 29.9927 200.076 29.9927C199.635 29.9927 199.276 30.0754 199.028 30.2133C198.78 30.3512 198.642 30.5443 198.642 30.7925V30.9028C198.642 31.3166 199 31.62 199.718 31.7303L200.711 31.9234C201.4 32.0613 201.897 32.2819 202.255 32.5853C202.614 32.9163 202.779 33.3024 202.779 33.7713V33.9092C202.779 34.516 202.531 34.9849 202.034 35.3435C201.538 35.702 200.876 35.8951 200.049 35.8951C199.304 35.9227 198.614 35.7296 198.118 35.3435Z" fill="#313131"/>
</svg>
