<svg width="205" height="57" viewBox="0 0 205 57" fill="none" xmlns="http://www.w3.org/2000/svg">
<path d="M151.426 0.805242C134.289 0.131006 117.114 0.239751 99.9571 1.1427C82.8 2.04566 66.6696 3.30294 50.21 6.16441C42.5069 7.49869 34.8441 9.32444 27.3862 12.0717C20.3939 14.6563 13.1536 17.7772 7.40207 23.3428C2.4842 28.0971 -1.72326 35.4182 0.741921 43.0169C2.84088 49.4835 8.72127 52.3469 14.1197 53.5239C17.0915 54.168 20.1092 54.46 23.1368 54.5498C27.3567 54.6815 31.587 54.7461 35.8085 54.8441C44.5016 55.0438 53.1871 55.2517 61.8802 55.4515C79.1304 55.8528 96.3735 56.2538 113.624 56.6551C129.038 57.0167 144.515 57.5587 159.908 55.5984C167.392 54.6416 174.849 53.0673 182.084 50.4947C185.651 49.227 189.164 47.7204 192.584 45.9475C195.703 44.3287 199.052 42.5354 201.396 39.5113C203.74 36.4871 204.626 32.8763 203.993 29.0221C203.36 25.1679 201.373 21.8208 198.845 19.4094C196.059 16.7489 192.575 15.1765 189.138 14.096C185.343 12.8966 181.433 12.1219 177.552 11.3487C161.024 8.04592 144.175 6.76972 127.374 7.55516C123.238 7.74837 119.11 8.06856 114.984 8.50697C114.208 8.58694 113.53 9.12751 113.467 10.1287C113.42 10.945 114.041 11.9714 114.818 11.8915C131.071 10.1676 147.431 10.3479 163.596 12.4597C171.398 13.4765 179.272 14.7669 186.896 16.9311C192.905 18.6361 200.215 22.0846 201.256 30.2884C202.297 38.4922 193.456 42.0407 188.427 44.3843C181.716 47.5227 174.67 49.5983 167.571 50.9961C153.079 53.853 138.342 53.8201 123.732 53.5234C107.28 53.1866 90.8389 52.7576 74.3885 52.3787C57.9381 51.9999 40.9522 51.6031 24.2379 51.2113C18.8166 51.0796 12.7529 50.7813 7.95571 47.5578C5.8235 46.1279 4.00307 44.0297 3.24088 41.2072C2.36385 37.957 3.11367 34.6349 4.6548 31.7991C8.33556 25.0091 14.823 21.2014 20.9435 18.3123C27.9348 15.0188 35.2542 12.7626 42.6163 11.0909C58.1288 7.56672 74.0259 6.25576 89.7418 5.13844C106.225 3.97448 122.737 3.53772 139.235 3.83449C143.243 3.90508 147.249 4.02619 151.26 4.18132C153.101 4.25503 153.275 0.879298 151.426 0.805242Z" fill="#FF8400"/>
</svg>
