<svg width="261" height="44" viewBox="0 0 261 44" fill="none" xmlns="http://www.w3.org/2000/svg">
<path d="M52.1191 5.89331L43.1307 11.8178V38.0744H9.98841V11.8178L1 5.89331" stroke="white" stroke-width="2" stroke-miterlimit="10"/>
<path d="M17.215 12.0311H35.9102" stroke="white" stroke-width="2" stroke-miterlimit="10"/>
<path d="M113.946 42.0124H78.9632L76.1191 39.1715V16.2445L78.9599 13.4037H113.946L116.797 16.2445V39.1715L113.946 42.0124Z" stroke="white" stroke-width="2" stroke-miterlimit="10"/>
<path d="M88.8439 13.4009V1.95544H104.068V13.4009" stroke="white" stroke-width="2" stroke-miterlimit="10"/>
<path d="M76.1257 27.7036H118.112" stroke="white" stroke-width="2" stroke-miterlimit="10"/>
<path d="M168.707 39.18H149.91L142.112 31.3824V12.5855L149.91 4.78784H168.707L176.504 12.5855V31.3824L168.707 39.18Z" stroke="white" stroke-width="2" stroke-miterlimit="10"/>
<path d="M158.652 12.1753V23.2369H166.548" stroke="white" stroke-width="2" stroke-miterlimit="10"/>
<path d="M209.748 40.0016C214.854 40.0016 218.993 35.8628 218.993 30.7573C218.993 25.6519 214.854 21.5131 209.748 21.5131C204.643 21.5131 200.504 25.6519 200.504 30.7573C200.504 35.8628 204.643 40.0016 209.748 40.0016Z" stroke="white" stroke-width="2" stroke-miterlimit="10"/>
<path d="M250.479 40.0016C255.584 40.0016 259.723 35.8628 259.723 30.7573C259.723 25.6519 255.584 21.5131 250.479 21.5131C245.373 21.5131 241.234 25.6519 241.234 30.7573C241.234 35.8628 245.373 40.0016 250.479 40.0016Z" stroke="white" stroke-width="2" stroke-miterlimit="10"/>
<path d="M209.877 31.4988L214.368 15.1458V6.75772L217.159 3.96606H223.064" stroke="white" stroke-width="2" stroke-miterlimit="10"/>
<path d="M214.367 15.1458H242.52L250.721 28.0838L249.284 30.7082H231.599L226.387 27.7262L218.993 15.1458" stroke="white" stroke-width="2" stroke-miterlimit="10"/>
<path d="M242.503 15.1422V9.96899" stroke="white" stroke-width="2" stroke-miterlimit="10"/>
<path d="M236.36 9.96899H248.648" stroke="white" stroke-width="2" stroke-miterlimit="10"/>
<path d="M242.504 15.1428L229.008 29.2159" stroke="white" stroke-width="2" stroke-miterlimit="10"/>
</svg>
