<svg width="216" height="21" viewBox="0 0 216 21" fill="none" xmlns="http://www.w3.org/2000/svg">
<g clip-path="url(#clip0_60_4153)">
<path d="M12.978 12.0255C24.1838 11.6552 35.3896 11.3982 46.6033 11.2016C59.4088 10.9749 72.2143 10.8313 85.0276 10.7406C98.4762 10.6423 111.925 10.6121 125.381 10.6348C138.837 10.6574 151.259 10.7406 164.198 10.8917C175.67 11.0278 187.135 11.2092 198.607 11.504C199.862 11.5342 201.116 11.572 202.371 11.6022C204.128 11.6476 204.128 9.01722 202.371 8.97186C191.165 8.66196 179.952 8.45788 168.746 8.31427C155.94 8.14798 143.127 8.05728 130.321 8.01948C116.873 7.98169 103.424 7.99681 89.9679 8.07995C76.5116 8.1631 64.0903 8.29159 51.1593 8.49567C39.6869 8.67708 28.2223 8.91895 16.7577 9.27421C15.503 9.312 14.2483 9.34979 12.9937 9.39514C11.245 9.45561 11.2371 12.086 12.9937 12.0255H12.978Z" fill="white"/>
<path d="M18.1928 18.0575L10.5628 14.762L6.83016 13.152C5.63822 12.638 4.33649 12.2072 3.21513 11.5572C2.88578 11.3682 2.7211 11.3304 2.83873 10.9978C2.95635 10.6652 3.54448 10.3175 3.82678 10.1135C4.92462 9.35005 6.0303 8.59419 7.12814 7.83833C9.42577 6.25103 11.7234 4.67129 14.0132 3.08399C14.617 2.66827 14.8914 1.94264 14.4994 1.28505C14.1622 0.710595 13.229 0.400693 12.633 0.816415C9.95116 2.66827 7.27714 4.51256 4.59527 6.36441C2.76031 7.64181 -1.13702 9.59192 0.313696 12.3735C0.917508 13.5299 2.18002 14.0137 3.33276 14.5201L7.71627 16.4098L16.8127 20.3327C17.487 20.6274 18.2712 20.5141 18.679 19.864C19.024 19.3047 18.8593 18.3523 18.1928 18.0651V18.0575Z" fill="white"/>
<path d="M197.807 2.91019L205.437 6.20573L209.17 7.81571C210.362 8.32969 211.664 8.76053 212.785 9.41057C213.114 9.59953 213.279 9.63732 213.161 9.9699C213.044 10.3025 212.456 10.6502 212.173 10.8543C211.075 11.6177 209.97 12.3735 208.872 13.1294C206.574 14.7167 204.277 16.2964 201.987 17.8837C201.383 18.2995 201.109 19.0251 201.501 19.6827C201.838 20.2571 202.771 20.567 203.367 20.1513C206.049 18.2995 208.723 16.4552 211.405 14.6033C213.255 13.3259 217.145 11.3758 215.694 8.6018C215.09 7.44533 213.828 6.96159 212.675 6.45516L208.292 4.56552C205.257 3.25788 202.23 1.95025 199.195 0.642614C198.521 0.347829 197.737 0.461208 197.329 1.11125C196.984 1.67058 197.149 2.62296 197.815 2.91019H197.807Z" fill="white"/>
</g>
<defs>
<clipPath id="clip0_60_4153">
<rect width="216" height="20" fill="white" transform="translate(0 0.483887)"/>
</clipPath>
</defs>
</svg>
