<svg width="284" height="148" viewBox="0 0 284 148" fill="none" xmlns="http://www.w3.org/2000/svg">
<g clip-path="url(#clip0_60_4328)">
<path d="M58.8252 146.489L230.21 146.489L230.21 17.4782L58.8252 17.4782L58.8252 146.489Z" fill="#C3D600"/>
<path d="M117.324 18.0105V137.747" stroke="#313131" stroke-width="1.5" stroke-linecap="round" stroke-linejoin="round"/>
<path d="M212.157 146.489C217.876 140.507 221.302 132.305 221.302 123.257C221.302 119.255 220.632 115.416 219.389 111.864L203.698 118.934C204.019 120.268 204.201 121.658 204.201 123.091V123.257C204.201 123.257 204.201 123.26 204.201 123.263C204.201 123.266 204.201 123.266 204.201 123.266V123.433C204.201 132.106 198.067 139.491 188.825 139.491C183.919 139.491 179.841 137.317 177.106 133.971L168.325 146.492H212.157V146.489Z" fill="#313131"/>
<path d="M230.211 47.0558H190.56C171.903 47.0558 157.916 61.8898 157.916 80.1912V80.3696C157.916 98.668 171.727 113.318 190.39 113.318C209.053 113.318 223.037 98.4836 223.037 80.1943V80.0068C223.037 74.0031 221.542 68.3984 218.883 63.5676H230.211V47.0588V47.0558ZM205.939 80.3575C205.939 89.0306 199.805 96.4158 190.563 96.4158C181.321 96.4158 175.102 88.8613 175.102 80.1912V80.0159C175.102 71.3458 181.236 63.9606 190.393 63.9606C199.55 63.9606 205.939 71.5151 205.939 80.1912V80.3575Z" fill="#313131"/>
<path d="M117.325 17.4785H58.8227V146.489H230.211V17.4785" stroke="#313131" stroke-width="1.5" stroke-linecap="round" stroke-linejoin="round"/>
<path d="M117.325 17.4785H58.8227V146.489H230.211V17.4785" stroke="#313131" stroke-width="1.5" stroke-linecap="round" stroke-linejoin="round"/>
<path d="M58.8226 17.4783L11.9974 39.5887H80.8025L116.848 17.4783H58.8226Z" fill="#A4B300"/>
<path d="M272.002 39.5887L230.211 17.4783H117.324L145.654 39.5887H272.002Z" fill="#A4B300"/>
<path d="M117.324 17.4783L80.8025 39.5887H11.9974L58.8226 17.4783H117.324Z" stroke="#313131" stroke-width="1.5" stroke-linecap="round" stroke-linejoin="round"/>
<path d="M230.211 17.4783L272.002 39.5887H145.654L117.324 17.4783H230.211Z" stroke="#313131" stroke-width="1.5" stroke-linecap="round" stroke-linejoin="round"/>
</g>
<defs>
<clipPath id="clip0_60_4328">
<rect width="262" height="131" fill="white" transform="translate(11 16.4839)"/>
</clipPath>
</defs>
</svg>
