<svg width="232" height="357" viewBox="0 0 232 357" fill="none" xmlns="http://www.w3.org/2000/svg">
<path d="M124.865 185.649L69.6993 281.238L65.901 287.951C56.6525 304.294 54.215 323.623 59.117 341.751L81.6839 425.185L75.1422 434.657C73.0521 437.682 75.218 441.81 78.8964 441.81H140.413C145.454 441.81 149.123 437.028 147.818 432.16L116.483 315.129L153.464 261.422L205.184 441.813L198.63 453.89C196.694 457.459 199.276 461.798 203.336 461.798H268.759C273.764 461.798 277.366 456.989 275.959 452.187L197.867 185.62L124.872 185.649H124.865Z" fill="#FF8400"/>
<path d="M134.147 217.602H141.418L153.322 260.925" stroke="#212121" stroke-width="1.4684" stroke-linecap="round" stroke-linejoin="round"/>
<path d="M124.865 185.649L69.6993 281.238L65.901 287.951C56.6525 304.294 54.215 323.623 59.117 341.751L81.6839 425.185L75.1422 434.657C73.0521 437.682 75.218 441.81 78.8964 441.81H140.413C145.454 441.81 149.123 437.028 147.818 432.16L116.483 315.129L153.464 261.422L205.184 441.813L198.63 453.89C196.694 457.459 199.276 461.798 203.336 461.798H268.759C273.764 461.798 277.366 456.989 275.959 452.187L197.867 185.62L124.872 185.649H124.865Z" stroke="#212121" stroke-width="1.4684" stroke-linecap="round" stroke-linejoin="round"/>
<path d="M200.519 181.463L203.092 188.628H115.655L107.398 153.886L99.2607 170.445L96.8574 175.312C93.6808 181.749 87.1978 185.897 80.0222 186.083L77.8954 186.14H13.4178L12.3409 186.12C7.2578 186.025 4.12765 180.525 6.64107 176.108L12.0448 166.492C14.1226 162.88 17.7716 160.447 21.9051 159.924L25.0231 159.527L62.673 155.33L82.0559 106.745L87.1635 95.7666C88.9158 91.9977 92.4106 89.3325 96.5099 88.6374L112.704 85.8915L137.29 82.1814L170.329 80.6444L181.124 80.1574C187.519 79.8686 193.204 84.2029 194.619 90.446L197.125 101.506L205.84 135.35L211.42 160.795C213.312 169.419 208.708 178.151 200.524 181.465L200.519 181.463Z" fill="white"/>
<path d="M140.794 101.241C152.452 101.241 161.903 94.2895 161.903 85.7148C161.903 77.14 152.452 70.1888 140.794 70.1888C129.137 70.1888 119.686 77.14 119.686 85.7148C119.686 94.2895 129.137 101.241 140.794 101.241Z" fill="white"/>
<path d="M49.188 157.035C49.188 157.035 58.1379 165.894 52.6852 185.62" stroke="#212121" stroke-width="1.4684" stroke-linecap="round" stroke-linejoin="round"/>
<path d="M41.6256 168.413H23.8653C23.8653 168.413 20.0597 168.285 18.9241 169.531C16.0142 172.725 21.8511 173.931 24.8981 173.931H25.0498C28.0135 173.931 30.5441 175.987 31.2562 178.863C31.2856 178.98 31.315 179.078 31.3468 179.154C32.4824 181.841 35.1451 183.726 38.2459 183.726H41.6232" stroke="#212121" stroke-width="1.4684" stroke-linecap="round" stroke-linejoin="round"/>
<path d="M97.0629 126.385H115.807C117.023 126.385 118.1 127.173 118.465 128.333L128.971 161.61L129.74 163.746C130.405 165.594 129.037 167.544 127.072 167.544H107.486C106.12 167.544 104.916 166.654 104.517 165.347L93.7516 130.112C93.1838 128.257 94.5715 126.383 96.5122 126.383H97.0629V126.385Z" fill="#3A3A3A"/>
<path d="M178.089 149.726L121.453 131.385L119.113 132.445C117.547 134.332 119.627 137.021 121.742 138.267L124.967 140.157L125.32 140.365C125.856 140.68 125.846 141.461 125.3 141.762L124.87 141.999C124.87 141.999 121.994 143.5 112.584 144.165C103.174 144.831 98.1813 145.056 98.1813 145.056V146.737C98.1813 149.567 100.474 151.86 103.304 151.86C103.304 151.86 103.504 154.789 105.35 156.884C107.114 158.886 109.525 158.864 109.525 158.864C109.525 158.864 109.265 160.575 110.32 162.124C111.363 163.653 113.6 163.321 113.6 163.321L127.868 163.509C127.868 163.509 135.117 167.019 148.548 171.923C159.115 175.78 173.848 179.312 173.848 179.312L178.085 149.723L178.089 149.726Z" fill="white"/>
<path d="M166.1 117.641L174.678 148.622" stroke="#212121" stroke-width="1.4684" stroke-linecap="round" stroke-linejoin="round"/>
<path d="M117.85 151.859H103.306C100.477 151.859 98.1837 149.566 98.1837 146.737V145.056C98.1837 145.056 103.176 144.831 112.586 144.165C121.996 143.499 124.872 141.999 124.872 141.999L125.303 141.762C125.848 141.461 125.858 140.68 125.322 140.364L124.97 140.156L121.744 138.267C119.63 137.021 117.126 135.333 119.116 132.445C120.288 130.744 124.914 132.503 124.914 132.503L178.092 149.725" stroke="#212121" stroke-width="1.4684" stroke-linecap="round" stroke-linejoin="round"/>
<path d="M103.563 151.859V152.427C103.563 155.995 106.456 158.886 110.021 158.886H122.789" stroke="#212121" stroke-width="1.4684" stroke-linecap="round" stroke-linejoin="round"/>
<path d="M200.519 181.462C175.143 185.317 127.451 163.323 127.451 163.323H113.599C111.15 163.323 109.162 161.336 109.162 158.886" stroke="#212121" stroke-width="1.4684" stroke-linecap="round" stroke-linejoin="round"/>
<path d="M153.259 144.914C153.259 144.914 158.163 160.702 148.156 171.607" stroke="#212121" stroke-width="1.4684" stroke-linecap="round" stroke-linejoin="round"/>
<path d="M128.196 96.6519C128.196 96.6519 113.822 92.117 115.491 81.5102C117.16 70.9035 143.296 65.2305 152.148 75.2646C161.002 85.2987 137.361 96.6519 137.361 96.6519L136.622 96.9481C133.895 98.0396 130.836 97.9319 128.193 96.6519H128.196Z" fill="#E1E1E1"/>
<path d="M128.196 96.6519C128.196 96.6519 113.822 92.117 115.491 81.5102C117.16 70.9035 143.296 65.2305 152.148 75.2646C161.002 85.2987 137.361 96.6519 137.361 96.6519" stroke="#212121" stroke-width="1.4684" stroke-linecap="round" stroke-linejoin="round"/>
<path d="M143.594 70.8594C143.594 70.8594 158.016 72.3106 160.662 81.0599" stroke="#212121" stroke-width="1.4684" stroke-linecap="round" stroke-linejoin="round"/>
<path d="M130.315 97.6947C130.315 97.6947 131.34 114.616 129.033 120.861" stroke="#212121" stroke-width="1.4684" stroke-linecap="round" stroke-linejoin="round"/>
<path d="M134.111 97.8951C134.111 97.8951 134.989 117.946 136.529 121.997" stroke="#212121" stroke-width="1.4684" stroke-linecap="round" stroke-linejoin="round"/>
<path d="M136.972 125.249C138.011 125.249 138.854 124.407 138.854 123.367C138.854 122.328 138.011 121.485 136.972 121.485C135.932 121.485 135.09 122.328 135.09 123.367C135.09 124.407 135.932 125.249 136.972 125.249Z" fill="#212121"/>
<path d="M128.448 123.856C129.487 123.856 130.33 123.014 130.33 121.974C130.33 120.935 129.487 120.092 128.448 120.092C127.408 120.092 126.566 120.935 126.566 121.974C126.566 123.014 127.408 123.856 128.448 123.856Z" fill="#212121"/>
<path d="M121.984 79.3104C143.744 79.3104 161.384 61.6705 161.384 39.9106C161.384 18.1507 143.744 0.510864 121.984 0.510864C100.224 0.510864 82.5845 18.1507 82.5845 39.9106C82.5845 61.6705 100.224 79.3104 121.984 79.3104Z" fill="#212121"/>
<path d="M135.848 59.7711L133.707 63.567C133.707 63.567 138.751 57.4902 132.329 53.2612C131.105 52.456 128.09 53.5304 127.454 55.4002C126.766 57.4168 127.74 61.1319 127.74 61.1319C127.74 61.1319 126.11 63.3051 125.107 61.3399C120.185 51.6949 116.742 51.6264 106.708 55.4026C103.277 56.6924 104.39 60.29 104.39 60.29C104.39 60.29 105.247 65.9384 109.909 72.7812C114.574 79.6264 120.391 78.5594 120.391 78.5594L122.97 85.2015C122.97 85.2015 127.797 94.0657 140.699 87.1838C144.637 84.5358 146.313 82.0982 146.313 82.0982L137.204 62.6614L135.848 59.7687V59.7711Z" fill="white"/>
<path d="M134.554 62.6639L137.899 70.187L140.175 68.5351L135.971 58.8118L134.554 62.6639Z" fill="#212121"/>
<path d="M137.204 62.6633L146.313 82.1001C146.313 82.1001 142.06 87.8367 134.429 89.4275C125.751 91.236 122.968 85.2033 122.968 85.2033L120.388 78.5613" stroke="#212121" stroke-width="1.4684" stroke-linecap="round" stroke-linejoin="round"/>
<path d="M104.388 60.2897C104.388 60.2897 106.578 70.1476 112.143 75.3164C113.739 76.7994 115.611 77.8959 117.789 78.263C127.562 79.9125 132.601 73.1896 133.352 69.4134C134.201 65.1403 133.589 63.6695 133.589 63.6695" stroke="#212121" stroke-width="1.4684" stroke-linecap="round" stroke-linejoin="round"/>
<path d="M127.542 60.5022C127.542 60.5022 126.267 56.8214 127.885 54.631C129.248 52.7833 131.837 52.1054 134.077 54.5503C136.641 57.35 136.015 63.1478 131.947 64.6529" stroke="#212121" stroke-width="1.4684" stroke-linecap="round" stroke-linejoin="round"/>
<path d="M130.469 62.9324C130.469 62.9324 131.218 60.1033 132.329 58.6227" stroke="#212121" stroke-width="1.4684" stroke-linecap="round" stroke-linejoin="round"/>
<path d="M120.337 68.9022L112.577 72.0544C111.901 72.3285 111.835 73.2609 112.469 73.6231C115.092 75.1258 120.557 77.3284 122.76 71.2443C123.303 69.7416 121.818 68.305 120.34 68.9046L120.337 68.9022Z" fill="#212121"/>
</svg>
