<svg width="31" height="40" viewBox="0 0 31 40" fill="none" xmlns="http://www.w3.org/2000/svg">
<path d="M30.7294 15.2307C30.7294 11.1912 29.1103 7.31727 26.2285 4.46096C23.3466 1.60466 19.438 0 15.3625 0C11.2877 0.0011383 7.38022 1.6063 4.49931 4.46248C1.61841 7.31866 1.17419e-05 11.192 1.19037e-05 15.2307C-0.0035449 18.0574 0.79004 20.8289 2.29119 23.2324C3.89371 26.1557 6.90384 30.573 12.7465 38.2784C13.0517 38.6802 13.4468 39.0062 13.9008 39.2307C14.3548 39.4552 14.8551 39.572 15.3625 39.572C15.8698 39.572 16.3703 39.4552 16.8242 39.2307C17.2782 39.0062 17.6734 38.6802 17.9785 38.2784C23.8255 30.5515 26.8357 26.1557 28.4382 23.2538C29.9393 20.8503 30.7329 18.0789 30.7294 15.2521V15.2307Z" fill="#313131"/>
<path d="M19.4425 17.875L16.9261 19.004C16.9801 19.2203 17.0078 19.4422 17.0085 19.6651V19.6908V19.7166C17.0261 20.0486 16.9753 20.3807 16.8592 20.6926C16.7431 21.0045 16.564 21.2896 16.333 21.5307C16.102 21.7717 15.8238 21.9635 15.5155 22.0945C15.2071 22.2254 14.8752 22.2927 14.5397 22.2922C14.1797 22.2959 13.8235 22.2186 13.4979 22.0662C13.1723 21.9138 12.8858 21.6902 12.66 21.4122L11.0488 23.7003C12.0025 24.5409 13.2375 25 14.5137 24.9881C15.2101 24.9905 15.9 24.8548 16.5427 24.5889C17.1853 24.3231 17.7678 23.9324 18.2558 23.4399C18.7437 22.9475 19.1273 22.3632 19.384 21.7215C19.6406 21.0799 19.7651 20.3938 19.75 19.7037C19.7523 19.0813 19.6483 18.463 19.4425 17.875Z" fill="#FF8400"/>
<path d="M21.1747 7.54202H14.8166C14.1202 7.53957 13.4303 7.67529 12.7877 7.94117C12.145 8.20705 11.5625 8.59773 11.0745 9.09019C10.5865 9.58264 10.203 10.1669 9.94632 10.8086C9.68969 11.4502 9.56522 12.1363 9.58025 12.8264V12.8564C9.56283 13.5423 9.68463 14.2246 9.93839 14.8629C10.1922 15.5011 10.5727 16.0824 11.0575 16.5721C11.5423 17.0618 12.1214 17.4499 12.7604 17.7135C13.3995 17.9771 14.0854 18.1107 14.7776 18.1065C15.4736 18.1089 16.1631 17.9733 16.8055 17.7077C17.4479 17.4421 18.0302 17.0518 18.5181 16.5598C19.006 16.0678 19.3897 15.4841 19.6466 14.8429C19.9035 14.2017 20.0284 13.5161 20.0139 12.8264V12.7964C20.0195 11.8815 19.79 10.9803 19.347 10.1778H21.166L21.1747 7.54202ZM17.2767 12.8522C17.2943 13.1838 17.2437 13.5155 17.1278 13.8271C17.0119 14.1387 16.8332 14.4237 16.6027 14.6647C16.3721 14.9056 16.0945 15.0976 15.7867 15.2288C15.4789 15.36 15.1473 15.4277 14.8123 15.4278C14.4775 15.424 14.1469 15.3539 13.8399 15.2217C13.5329 15.0894 13.2556 14.8977 13.0244 14.6577C12.7932 14.4178 12.6127 14.1345 12.4936 13.8244C12.3744 13.5143 12.3189 13.1838 12.3305 12.8522V12.8221C12.3123 12.4914 12.3622 12.1605 12.477 11.8495C12.5919 11.5385 12.7693 11.2538 12.9986 11.0129C13.2279 10.772 13.5042 10.5798 13.8108 10.4481C14.1174 10.3163 14.4478 10.2477 14.7819 10.2465C15.1174 10.2497 15.4489 10.3193 15.7569 10.4512C16.0649 10.5831 16.3432 10.7746 16.5756 11.0145C16.8079 11.2544 16.9896 11.5378 17.11 11.8482C17.2304 12.1586 17.2871 12.4897 17.2767 12.8221V12.8522Z" fill="#FF8400"/>
</svg>
