<svg width="29" height="42" viewBox="0 0 29 42" fill="none" xmlns="http://www.w3.org/2000/svg">
<path d="M1 7.56507V31.6867H27.0749V7.56507L20.5158 1H7.5591L1 7.56507Z" stroke="#FF8400" stroke-width="2" stroke-miterlimit="10"/>
<path d="M7.63364 31.8362L1 40.9999" stroke="#FF8400" stroke-width="2"/>
<path d="M20.5776 31.8362L27.2113 40.9999" stroke="#FF8400" stroke-width="2"/>
<path d="M4.47852 35.7903H23.7335" stroke="#FF8400" stroke-width="2"/>
<path d="M1 19.8379H27.5221" stroke="#FF8400" stroke-width="2"/>
<path d="M1 7.82666H27.5221" stroke="#FF8400" stroke-width="2"/>
<path d="M7.34516 27.8877C8.52898 27.8877 9.48866 26.9217 9.48866 25.7301C9.48866 24.5385 8.52898 23.5725 7.34516 23.5725C6.16134 23.5725 5.20166 24.5385 5.20166 25.7301C5.20166 26.9217 6.16134 27.8877 7.34516 27.8877Z" stroke="#FF8400" stroke-width="2"/>
<path d="M20.7416 27.8877C21.9255 27.8877 22.8851 26.9217 22.8851 25.7301C22.8851 24.5385 21.9255 23.5725 20.7416 23.5725C19.5578 23.5725 18.5981 24.5385 18.5981 25.7301C18.5981 26.9217 19.5578 27.8877 20.7416 27.8877Z" stroke="#FF8400" stroke-width="2"/>
</svg>
